<svg xmlns="http://www.w3.org/2000/svg" xmlns:xlink="http://www.w3.org/1999/xlink" width="122" height="122" viewBox="0 0 122 122"><defs><linearGradient id="e" x1="24.379%" x2="84.171%" y1="5.536%" y2="97.907%"><stop offset="0%" stop-color="#76E1FF"/><stop offset="100%" stop-color="#637BFF" stop-opacity="0"/></linearGradient><linearGradient id="f" x1="0%" y1="50%" y2="50%"><stop offset="0%" stop-color="#5B79A2"/><stop offset="100%" stop-color="#2E4469"/></linearGradient><linearGradient id="g" x1="3.478%" x2="51.714%" y1="24.111%" y2="83.341%"><stop offset="0%" stop-color="#76E1FF"/><stop offset="100%" stop-color="#637BFF" stop-opacity="0"/></linearGradient><linearGradient id="j" x1="1.259%" x2="98.741%" y1="48.741%" y2="48.741%"><stop offset="0%" stop-color="#21C8F6"/><stop offset="100%" stop-color="#637BFF"/></linearGradient><linearGradient id="k" x1="1.259%" x2="98.741%" y1="48.741%" y2="48.741%"><stop offset="0%" stop-color="#21C8F6"/><stop offset="100%" stop-color="#637BFF"/></linearGradient><linearGradient id="l" x1="7.206%" x2="76.14%" y1="46.969%" y2="53.024%"><stop offset="0%" stop-color="#5B79A2"/><stop offset="100%" stop-color="#2E4469"/></linearGradient><linearGradient id="o" x1="1.259%" x2="98.741%" y1="48.741%" y2="48.741%"><stop offset="0%" stop-color="#21C8F6"/><stop offset="100%" stop-color="#637BFF"/></linearGradient><linearGradient id="p" x1="7.206%" x2="76.14%" y1="39.811%" y2="60.163%"><stop offset="0%" stop-color="#5B79A2"/><stop offset="100%" stop-color="#2E4469"/></linearGradient><linearGradient id="q" x1="1.259%" x2="98.741%" y1="48.741%" y2="48.741%"><stop offset="0%" stop-color="#21C8F6"/><stop offset="100%" stop-color="#637BFF"/></linearGradient><linearGradient id="r" x1="98.741%" x2="25.325%" y1="48.741%" y2="48.741%"><stop offset="0%" stop-color="#21C8F6"/><stop offset="100%" stop-color="#637BFF" stop-opacity="0"/></linearGradient><linearGradient id="w" x1="-49.965%" x2="91.302%" y1="49.458%" y2="49.97%"><stop offset="0%" stop-color="#21C8F6"/><stop offset="100%" stop-color="#637BFF" stop-opacity="0"/></linearGradient><linearGradient id="A" x1="35.891%" x2="91.676%" y1="88.748%" y2="-46.602%"><stop offset="0%" stop-color="#76E1FF"/><stop offset="100%" stop-color="#637BFF" stop-opacity="0"/></linearGradient><linearGradient id="C" x1="50%" x2="50%" y1="0%" y2="97.483%"><stop offset="0%" stop-color="#21C8F6"/><stop offset="100%" stop-color="#637BFF"/></linearGradient><linearGradient id="D" x1="0%" y1="50%" y2="50%"><stop offset="0%" stop-color="#6F90BC"/><stop offset="100%" stop-color="#2E4469"/></linearGradient><linearGradient id="E" x1="24.379%" x2="84.171%" y1="49.702%" y2="50.321%"><stop offset="0%" stop-color="#76E1FF" stop-opacity=".634"/><stop offset="100%" stop-color="#637BFF" stop-opacity="0"/></linearGradient><linearGradient id="F" x1="24.379%" x2="84.171%" y1="5.536%" y2="97.907%"><stop offset="0%" stop-color="#76E1FF" stop-opacity=".634"/><stop offset="100%" stop-color="#637BFF" stop-opacity="0"/></linearGradient><linearGradient id="G" x1="37.101%" x2="67.204%" y1="5.536%" y2="97.907%"><stop offset="0%" stop-color="#76E1FF" stop-opacity=".634"/><stop offset="100%" stop-color="#637BFF" stop-opacity="0"/></linearGradient><radialGradient id="a" cy="40.802%" r="318.381%" fx="50%" fy="40.802%" gradientTransform="matrix(-.17122 0 0 -.94864 .586 .795)"><stop offset="0%"/><stop offset="100%" stop-opacity=".002"/></radialGradient><radialGradient id="h" cx="52.101%" cy="30.594%" r="300.909%" fx="52.101%" fy="30.594%" gradientTransform="matrix(-.16216 0 0 -.25522 .605 .384)"><stop offset="0%"/><stop offset="100%" stop-opacity=".002"/></radialGradient><radialGradient id="m" cx="95.822%" cy="186.881%" r="322.391%" fx="95.822%" fy="186.881%" gradientTransform="matrix(-.01866 -.98784 .11854 -.15548 .755 3.106)"><stop offset="0%" stop-color="#08C4FB" stop-opacity=".984"/><stop offset="100%" stop-color="#637BFF" stop-opacity="0"/></radialGradient><radialGradient id="n" cx="0%" cy="154.735%" r="363.545%" fx="0%" fy="154.735%" gradientTransform="matrix(.06842 -.82154 .09858 .57016 -.153 .665)"><stop offset="0%" stop-color="#08C4FB" stop-opacity=".984"/><stop offset="100%" stop-color="#637BFF" stop-opacity="0"/></radialGradient><radialGradient id="s" cx="0%" cy="100%" r="593.267%" fx="0%" fy="100%" gradientTransform="scale(.06122 1) rotate(-24.376 0 1)"><stop offset="0%" stop-color="#08C4FB" stop-opacity=".984"/><stop offset="100%" stop-color="#637BFF" stop-opacity="0"/></radialGradient><radialGradient id="t" cx="7.52%" r="697.331%" fx="7.52%" fy="50%" gradientTransform="matrix(.05689 -.36949 .02262 .92924 .06 .063)"><stop offset="0%" stop-color="#08C4FB" stop-opacity=".984"/><stop offset="100%" stop-color="#637BFF" stop-opacity="0"/></radialGradient><radialGradient id="u" cx="100%" cy="-66.284%" r="314.643%" fx="100%" fy="-66.284%" gradientTransform="scale(-.13636 -1) rotate(-56.256 -1.927 7.794)"><stop offset="0%" stop-color="#21C8F6"/><stop offset="100%" stop-color="#637BFF" stop-opacity="0"/></radialGradient><radialGradient id="v" cx="0%" cy="-126.551%" r="360.79%" fx="0%" fy="-126.551%" gradientTransform="scale(.06122 1) rotate(79.66 0 -1.266)"><stop offset="0%" stop-color="#08C4FB" stop-opacity=".984"/><stop offset="100%" stop-color="#637BFF" stop-opacity="0"/></radialGradient><radialGradient id="x" cx="43.214%" cy="45.494%" r="47.416%" fx="43.214%" fy="45.494%" gradientTransform="matrix(-.64115 -.59625 .47619 -.8028 .493 1.078)"><stop offset="0%" stop-color="#27C2F7"/><stop offset="100%" stop-color="#0077E5" stop-opacity=".414"/></radialGradient><radialGradient id="B" r="68.353%" fx="50%" fy="50%"><stop offset="0%" stop-color="#21C8F6"/><stop offset="100%" stop-color="#4BDEFF"/></radialGradient><filter id="b" width="120.2%" height="217.7%" x="-10.1%" y="-58.9%" filterUnits="objectBoundingBox"><feGaussianBlur in="SourceGraphic" stdDeviation="2.85"/></filter><filter id="i" width="146.2%" height="385%" x="-23.1%" y="-142.5%" filterUnits="objectBoundingBox"><feGaussianBlur in="SourceGraphic" stdDeviation="2.85"/></filter><filter id="y" width="144.4%" height="144.4%" x="-22.2%" y="-22.2%" filterUnits="objectBoundingBox"><feGaussianBlur in="SourceGraphic" stdDeviation="2"/></filter><filter id="z" width="180%" height="180%" x="-40%" y="-40%" filterUnits="objectBoundingBox"><feGaussianBlur in="SourceGraphic" stdDeviation="2"/></filter><circle id="c" cx="60" cy="60" r="60"/><circle id="d" cx="60" cy="60" r="60"/></defs><g fill="none" fill-rule="evenodd" transform="translate(1 1)"><ellipse cx="58.542" cy="101.993" fill="url(#a)" filter="url(#b)" opacity=".523" rx="42.421" ry="7.264" transform="rotate(1 58.542 101.993)"/><use xlink:href="#c" fill="#000" fill-opacity=".152"/><use xlink:href="#d" stroke="url(#e)"/><rect width="110" height="89.826" x="4" y="9" fill="url(#f)" rx="5.249"/><rect width="110" height="89.826" x="4" y="9" stroke="url(#g)" stroke-width=".5" rx="5.249"/><rect width="104" height="84" x="7" y="12" fill="#1B283E" rx="5.249"/><ellipse cx="52.082" cy="82.671" fill="url(#h)" filter="url(#i)" opacity=".743" rx="18.5" ry="3" transform="rotate(108 52.082 82.671)"/><g transform="translate(13 25)"><rect width="30" height="3" fill="#2E4469" rx="1.5"/><rect width="30" height="3" x="33" fill="url(#j)" rx="1.5"/><rect width="11" height="3" x="65" fill="url(#k)" rx="1.5"/><rect width="11" height="3" x="79" fill="url(#l)" rx="1.5"/></g><g transform="translate(30 40)"><rect width="25" height="3" fill="#2E4469" rx="1.5"/><rect width="25" height="3" fill="url(#m)" rx="1.5"/><rect width="25" height="3" x="27" fill="#2E4469" rx="1.5"/><rect width="25" height="3" x="27" fill="url(#n)" rx="1.5"/><rect width="9" height="3" x="54" fill="url(#o)" rx="1.5"/><rect width="6" height="3" x="65" fill="url(#p)" rx="1.5"/></g><g transform="translate(20 33)"><rect width="26" height="3" fill="url(#q)" rx="1.5"/><rect width="58" height="3" x="29" fill="#2E4469" rx="1.5"/></g><g transform="translate(30 48)"><rect width="22" height="3" fill="#2E4469" opacity=".7" rx="1.5"/><rect width="22" height="3" fill="url(#r)" rx="1.5"/><rect width="49" height="3" x="24" fill="#2E4469" opacity=".703" rx="1.5"/><rect width="49" height="3" x="24" fill="url(#s)" rx="1.5"/></g><g transform="translate(30 55)"><rect width="22" height="3" fill="#2E4469" opacity=".502" rx="1.5"/><rect width="22" height="3" fill="url(#r)" rx="1.5"/><rect width="49" height="3" x="24" fill="#2E4469" opacity=".502" rx="1.5"/><rect width="49" height="3" x="24" fill="url(#t)" rx="1.5"/></g><g transform="translate(30 62)"><rect width="22" height="3" fill="#2E4469" opacity=".344" rx="1.5"/><rect width="22" height="3" fill="url(#u)" rx="1.5"/><rect width="49" height="3" x="24" fill="#2E4469" opacity=".5" rx="1.5"/><rect width="49" height="3" x="24" fill="url(#v)" rx="1.5"/></g><g fill="#2E4469" opacity=".12" transform="translate(30 70)"><rect width="22" height="3" rx="1.5"/><rect width="49" height="3" x="24" rx="1.5"/></g><g fill="#2E4469" opacity=".069" transform="translate(30 77)"><rect width="22" height="3" rx="1.5"/><rect width="49" height="3" x="24" rx="1.5"/></g><path stroke="#2E4469" stroke-linecap="round" stroke-linejoin="round" d="M14.5 32v55.625M22.5 40v42"/><g transform="translate(79 64)"><path fill="#2E4469" d="M27.083 19.374a6.167 6.167 0 0 1-4.387-1.811 6.144 6.144 0 0 1-1.814-4.379.82.82 0 0 0-.817-.821.82.82 0 0 0-.818.821 6.144 6.144 0 0 1-1.814 4.379 6.167 6.167 0 0 1-4.387 1.811.82.82 0 0 0-.817.822.82.82 0 0 0 .817.822c3.42 0 6.201 2.785 6.201 6.208a.82.82 0 0 0 .818.822.82.82 0 0 0 .817-.822c0-3.423 2.782-6.208 6.2-6.208a.82.82 0 0 0 .818-.822.82.82 0 0 0-.817-.822z"/><circle cx="10" cy="24" r="1" fill="#32496E"/><circle cx="24.5" cy="10.5" r="1" fill="#32496E"/><path fill="#2E4469" d="M11.184 12.95a4.366 4.366 0 0 1-4.366-4.357A.82.82 0 0 0 6 7.77a.82.82 0 0 0-.818.822 4.366 4.366 0 0 1-4.366 4.356.82.82 0 0 0-.817.822.82.82 0 0 0 .817.822 4.373 4.373 0 0 1 4.366 4.37.82.82 0 0 0 .818.822.82.82 0 0 0 .817-.822c0-2.41 1.958-4.37 4.366-4.37A.82.82 0 0 0 12 13.77a.82.82 0 0 0-.817-.822zm1.329-7.272a3.21 3.21 0 0 1 3.211 3.203.82.82 0 0 0 .818.822.82.82 0 0 0 .817-.822 3.216 3.216 0 0 1 3.21-3.213.82.82 0 0 0 .818-.822.82.82 0 0 0-.817-.821A3.21 3.21 0 0 1 17.359.822.82.82 0 0 0 16.542 0a.82.82 0 0 0-.818.822 3.216 3.216 0 0 1-3.21 3.213.82.82 0 0 0-.818.822.82.82 0 0 0 .817.821z"/></g><rect width="13" height="2" x="37" y="16" fill="url(#w)" rx="1"/><path fill="url(#x)" d="M12.546 11.26 113.05 16 10.25 93.25a2 2 0 0 1-3.201-1.598v-75.15a5.249 5.249 0 0 1 5.496-5.243z" opacity=".283"/><g transform="translate(39 41)"><circle cx="13.5" cy="13.5" r="13.5" fill="#92BAE9" filter="url(#y)" opacity=".136" style="mix-blend-mode:overlay"/><circle cx="13.5" cy="13.5" r="7.5" fill="#328AF1" filter="url(#z)" opacity=".842"/><g transform="scale(1 -1) rotate(4 1034.087 38.454)"><path stroke="url(#A)" stroke-width="2" d="m29.918 12.217-.582-9.325L2.743 18.713l8.63 35.336"/><circle cx="12.5" cy="57.5" r="4" fill="url(#B)"/><path fill="#FFF" fill-opacity=".4" d="M10.449 60.133a3.333 3.333 0 1 1 4.667-4.667 3.333 3.333 0 0 0-4.667 4.667z"/><g transform="translate(27.114 .983)"><circle cx="2.5" cy="2.5" r="2.5" fill="url(#C)"/><path fill="#FFF" fill-opacity=".2" d="M.952 4.286A2.38 2.38 0 1 1 4.285.953 2.38 2.38 0 0 0 .953 4.285z"/></g><g transform="translate(0 16)"><circle cx="3.5" cy="3.5" r="3.5" fill="url(#C)"/><path fill="#FFF" fill-opacity=".3" d="M1.333 6A3.333 3.333 0 1 1 6 1.333 3.333 3.333 0 0 0 1.333 6z"/></g></g></g><path fill="url(#D)" d="M9.249 9h99.502A5.249 5.249 0 0 1 114 14.249V18H54.388l-2.914-3.44a3 3 0 0 0-2.289-1.06H38.098a3 3 0 0 0-2.178.937L32.546 18H4v-3.751A5.249 5.249 0 0 1 9.249 9z"/><path stroke="url(#E)" stroke-width=".5" d="M9.249 9h99.502A5.249 5.249 0 0 1 114 14.249V18H54.388l-2.914-3.44a3 3 0 0 0-2.289-1.06H38.098a3 3 0 0 0-2.178.937L32.546 18H4v-3.751A5.249 5.249 0 0 1 9.249 9z"/><circle cx="11" cy="13" r="2" fill="#1B283E"/><circle cx="17" cy="13" r="2" fill="#1B283E"/><circle cx="23" cy="13" r="2" fill="#1B283E"/><circle cx="11" cy="13" r="2" stroke="url(#F)" stroke-width=".5"/><circle cx="17" cy="13" r="2" stroke="url(#F)" stroke-width=".5"/><circle cx="23" cy="13" r="2" stroke="url(#F)" stroke-width=".5"/><path stroke="url(#G)" stroke-width=".5" d="M7.05 46V18h19.867"/></g></svg>