<svg xmlns="http://www.w3.org/2000/svg" xmlns:xlink="http://www.w3.org/1999/xlink" width="122" height="122" viewBox="0 0 122 122"><defs><linearGradient id="prefix__h" x1="24.912%" x2="8.677%" y1="19.739%" y2="116.691%"><stop offset="0%" stop-color="#7AFFE2"/><stop offset="100%" stop-color="#1AAB8B" stop-opacity="0"/></linearGradient><linearGradient id="prefix__i" x1="50%" x2="50%" y1="11.35%" y2="111.35%"><stop offset="0%" stop-color="#6EDCC4"/><stop offset="100%" stop-color="#1AAB8B"/></linearGradient><linearGradient id="prefix__l" x1="50.166%" x2="49.634%" y1="21.513%" y2="19.968%"><stop offset="0%" stop-color="#2F4568"/><stop offset="100%" stop-color="#3BDFBC"/></linearGradient><linearGradient id="prefix__m" x1="28.743%" x2="59.026%" y1="-63.6%" y2="97.937%"><stop offset="0%" stop-color="#25C2F2"/><stop offset="100%" stop-color="#293F64"/></linearGradient><linearGradient id="prefix__n" x1="50%" x2="23.496%" y1="89.388%" y2="2.063%"><stop offset="0%" stop-color="#2F4568"/><stop offset="100%" stop-color="#3BDFBC"/></linearGradient><linearGradient id="prefix__o" x1="50%" x2="22.985%" y1="73.825%" y2="9.117%"><stop offset="0%" stop-color="#2F4568"/><stop offset="100%" stop-color="#43F1CC"/></linearGradient><linearGradient id="prefix__p" x1="100%" x2="0%" y1="-1.164%" y2="99.364%"><stop offset="0%" stop-color="#121D2F"/><stop offset="100%" stop-color="#121D2F" stop-opacity="0"/></linearGradient><linearGradient id="prefix__q" x1="30.414%" x2="50%" y1="31.624%" y2="68.376%"><stop offset="0%" stop-color="#5B79A2"/><stop offset="100%" stop-color="#2E4469"/></linearGradient><linearGradient id="prefix__r" x1="62.639%" x2="62.639%" y1="0%" y2="79.159%"><stop offset="0%" stop-color="#25C2F2"/><stop offset="100%" stop-color="#152134"/></linearGradient><linearGradient id="prefix__u" x1="98.741%" x2="1.259%" y1="48.741%" y2="48.741%"><stop offset="0%" stop-color="#21C8F6"/><stop offset="100%" stop-color="#637BFF"/></linearGradient><linearGradient id="prefix__v" x1="34.594%" x2="60.398%" y1="40.953%" y2="55.694%"><stop offset="0%" stop-color="#5B79A2"/><stop offset="100%" stop-color="#2E4469"/></linearGradient><linearGradient id="prefix__w" x1="0%" x2="100%" y1="50%" y2="50%"><stop offset="0%" stop-color="#6F90BC"/><stop offset="100%" stop-color="#2E4469"/></linearGradient><linearGradient id="prefix__y" x1="50%" x2="50%" y1="64.705%" y2="85.355%"><stop offset="0%" stop-color="#2F4568"/><stop offset="100%" stop-color="#3BDFBC"/></linearGradient><linearGradient id="prefix__z" x1="14.645%" x2="83.523%" y1="64.235%" y2="29.868%"><stop offset="0%" stop-color="#2F4568"/><stop offset="100%" stop-color="#3BDFBC"/></linearGradient><linearGradient id="prefix__A" x1="75.874%" x2="92.229%" y1="34.347%" y2="96.254%"><stop offset="0%" stop-color="#5B79A2"/><stop offset="100%" stop-color="#2E4469"/></linearGradient><linearGradient id="prefix__B" x1="50%" x2="50%" y1="50.016%" y2="100%"><stop offset=".032%" stop-color="#2B6DBD"/><stop offset="100%" stop-color="#1B283E"/></linearGradient><linearGradient id="prefix__E" x1="38.152%" x2="41.989%" y1="78.776%" y2="102.32%"><stop offset="0%" stop-color="#55739C"/><stop offset="100%" stop-color="#4179D5"/></linearGradient><linearGradient id="prefix__F" x1="59.263%" x2="62.796%" y1="31.206%" y2="85.029%"><stop offset="0%" stop-color="#25C2F2"/><stop offset="100%" stop-color="#0F1725"/></linearGradient><linearGradient id="prefix__G" x1="1.259%" x2="98.741%" y1="48.741%" y2="48.741%"><stop offset="0%" stop-color="#21C8F6"/><stop offset="100%" stop-color="#637BFF"/></linearGradient><linearGradient id="prefix__K" x1="154.902%" x2="24.379%" y1="138.188%" y2="14.184%"><stop offset="0%" stop-color="#76E1FF"/><stop offset="100%" stop-color="#637BFF" stop-opacity="0"/></linearGradient><linearGradient id="prefix__L" x1="13.96%" x2="105.629%" y1=".616%" y2="98.781%"><stop offset="0%" stop-color="#587CB9"/><stop offset="100%" stop-color="#2E4469" stop-opacity="0"/></linearGradient><linearGradient id="prefix__P" x1="98.741%" x2="1.259%" y1="48.741%" y2="48.741%"><stop offset="0%" stop-color="#21C8F6"/><stop offset="100%" stop-color="#637BFF"/></linearGradient><linearGradient id="prefix__R" x1="98.741%" x2="1.259%" y1="48.741%" y2="48.741%"><stop offset="0%" stop-color="#21C8F6"/><stop offset="100%" stop-color="#637BFF"/></linearGradient><linearGradient id="prefix__S" x1="98.741%" x2="1.259%" y1="48.741%" y2="48.741%"><stop offset="0%" stop-color="#21C8F6"/><stop offset="100%" stop-color="#637BFF"/></linearGradient><linearGradient id="prefix__T" x1="70.911%" x2="55.034%" y1="56.12%" y2="40.579%"><stop offset="0%" stop-color="#2F4568"/><stop offset="100%" stop-color="#70F8DA"/></linearGradient><linearGradient id="prefix__U" x1="50%" x2="30.25%" y1="60.372%" y2="46.363%"><stop offset="0%" stop-color="#2F4568"/><stop offset="100%" stop-color="#3BDFBC"/></linearGradient><linearGradient id="prefix__V" x1="70.911%" x2="32.62%" y1="58.971%" y2="29.162%"><stop offset="0%" stop-color="#2F4568"/><stop offset="100%" stop-color="#70F8DA"/></linearGradient><linearGradient id="prefix__W" x1="50%" x2="13.85%" y1="65.902%" y2="50%"><stop offset="0%" stop-color="#2F4568"/><stop offset="100%" stop-color="#3BDFBC"/></linearGradient><linearGradient id="prefix__X" x1="31.114%" x2="68.886%" y1="85.355%" y2="14.645%"><stop offset="0%" stop-color="#2F4568"/><stop offset="100%" stop-color="#445D7F"/></linearGradient><linearGradient id="prefix__Y" x1="61.17%" x2="40.716%" y1="60.049%" y2="26.659%"><stop offset="0%" stop-color="#2F4568"/><stop offset="100%" stop-color="#70F8DA"/></linearGradient><linearGradient id="prefix__Z" x1="50%" x2="32.422%" y1="66.882%" y2="24.152%"><stop offset="0%" stop-color="#2F4568"/><stop offset="100%" stop-color="#3BDFBC"/></linearGradient><linearGradient id="prefix__ac" x1="98.741%" x2="1.259%" y1="48.741%" y2="48.741%"><stop offset="0%" stop-color="#21C8F6"/><stop offset="100%" stop-color="#637BFF"/></linearGradient><linearGradient id="prefix__af" x1="98.741%" x2="1.259%" y1="48.741%" y2="48.741%"><stop offset="0%" stop-color="#21C8F6"/><stop offset="100%" stop-color="#637BFF"/></linearGradient><linearGradient id="prefix__ah" x1="15.236%" x2="94.911%" y1="6.048%" y2="86.068%"><stop offset="0%" stop-color="#48F0CC"/><stop offset="100%" stop-color="#1AAB8B"/></linearGradient><radialGradient id="prefix__b" cx="36.678%" cy="0%" r="129.037%" fx="36.678%" fy="0%"><stop offset="0%" stop-color="#3CE4C0"/><stop offset="100%"/></radialGradient><radialGradient id="prefix__d" cx="83.498%" cy="7.787%" r="104.086%" fx="83.498%" fy="7.787%"><stop offset="0%" stop-color="#26F9FF" stop-opacity=".363"/><stop offset="100%" stop-color="#3CE4C0" stop-opacity="0"/></radialGradient><radialGradient id="prefix__f" cx="10.25%" cy="21.167%" r="73.454%" fx="10.25%" fy="21.167%"><stop offset="0%" stop-color="#26F9FF" stop-opacity=".829"/><stop offset="100%" stop-color="#3CE4C0" stop-opacity="0"/></radialGradient><radialGradient id="prefix__k" cx="50%" cy="73.753%" r="584.375%" fx="50%" fy="73.753%" gradientTransform="matrix(0 .08556 -3.99702 0 3.448 .695)"><stop offset="0%" stop-color="#25C2F2" stop-opacity=".626"/><stop offset="100%" stop-color="#293F64"/></radialGradient><radialGradient id="prefix__x" cx="50%" cy="73.753%" r="50%" fx="50%" fy="73.753%" gradientTransform="matrix(0 1 -.98425 0 1.226 .238)"><stop offset="0%" stop-color="#25C2F2" stop-opacity=".626"/><stop offset="100%" stop-color="#293F64"/></radialGradient><radialGradient id="prefix__D" cx="50%" cy="50%" r="68.353%" fx="50%" fy="50%"><stop offset="0%" stop-color="#21C8F6"/><stop offset="100%" stop-color="#4BDEFF"/></radialGradient><radialGradient id="prefix__H" cx="43.496%" cy="117.006%" r="68.68%" fx="43.496%" fy="117.006%" gradientTransform="matrix(.0947 -.97562 .73984 .38561 -.472 1.143)"><stop offset="0%" stop-color="#25C2F2"/><stop offset="100%" stop-color="#293F64"/></radialGradient><filter id="prefix__j" width="220%" height="220%" x="-60%" y="-60%" filterUnits="objectBoundingBox"><feGaussianBlur in="SourceGraphic" stdDeviation="2"/></filter><filter id="prefix__s" width="150.8%" height="1099.8%" x="-25.4%" y="-413%" filterUnits="objectBoundingBox"><feOffset dy="2" in="SourceAlpha" result="shadowOffsetOuter1"/><feGaussianBlur in="shadowOffsetOuter1" result="shadowBlurOuter1" stdDeviation="3.5"/><feColorMatrix in="shadowBlurOuter1" values="0 0 0 0 0.0115609217 0 0 0 0 0.467910214 0 0 0 0 1 0 0 0 1 0"/></filter><filter id="prefix__C" width="180%" height="180%" x="-40%" y="-40%" filterUnits="objectBoundingBox"><feGaussianBlur in="SourceGraphic" stdDeviation="2.477"/></filter><filter id="prefix__N" width="148.4%" height="277.9%" x="-24.2%" y="-68%" filterUnits="objectBoundingBox"><feOffset dy="2" in="SourceAlpha" result="shadowOffsetOuter1"/><feGaussianBlur in="shadowOffsetOuter1" result="shadowBlurOuter1" stdDeviation="2.5"/><feColorMatrix in="shadowBlurOuter1" values="0 0 0 0 0.0115609217 0 0 0 0 0.467910214 0 0 0 0 1 0 0 0 1 0"/></filter><filter id="prefix__Q" width="145.9%" height="488.2%" x="-23%" y="-194.1%" filterUnits="objectBoundingBox"><feGaussianBlur in="SourceGraphic" stdDeviation="1.721"/></filter><filter id="prefix__aa" width="106.6%" height="769.6%" x="-3.3%" y="-334.8%" filterUnits="objectBoundingBox"><feOffset in="SourceAlpha" result="shadowOffsetOuter1"/><feGaussianBlur in="shadowOffsetOuter1" result="shadowBlurOuter1" stdDeviation="1"/><feColorMatrix in="shadowBlurOuter1" values="0 0 0 0 0.0115609217 0 0 0 0 0.467910214 0 0 0 0 1 0 0 0 1 0"/></filter><filter id="prefix__ad" width="140.6%" height="769.6%" x="-20.3%" y="-334.8%" filterUnits="objectBoundingBox"><feOffset in="SourceAlpha" result="shadowOffsetOuter1"/><feGaussianBlur in="shadowOffsetOuter1" result="shadowBlurOuter1" stdDeviation="1"/><feColorMatrix in="shadowBlurOuter1" values="0 0 0 0 0.0115609217 0 0 0 0 0.467910214 0 0 0 0 1 0 0 0 1 0"/></filter><circle id="prefix__a" cx="60" cy="60" r="60"/><circle id="prefix__c" cx="60" cy="60" r="60"/><circle id="prefix__e" cx="60" cy="60" r="60"/><circle id="prefix__ag" cx="60" cy="60" r="60"/><path id="prefix__t" d="M26.276 45.81h42.955a1.15 1.15 0 0 1 0 2.3H26.276a1.15 1.15 0 1 1 0-2.3z"/><path id="prefix__I" d="M5.68 0h30.08a5.68 5.68 0 0 1 5.68 5.68v24.124a5.682 5.682 0 0 1-3.617 5.293c-3.583 1.397-9.047 2.095-16.391 2.095-7.787 0-13.719-.785-17.794-2.355A5.681 5.681 0 0 1 0 29.537V5.68A5.68 5.68 0 0 1 5.68 0z"/><path id="prefix__J" d="M5.68 0h30.08a5.68 5.68 0 0 1 5.68 5.68v24.124a5.682 5.682 0 0 1-3.617 5.293c-3.583 1.397-9.047 2.095-16.391 2.095-7.787 0-13.719-.785-17.794-2.355A5.681 5.681 0 0 1 0 29.537V5.68A5.68 5.68 0 0 1 5.68 0z"/><path id="prefix__O" d="M4.779 0h25.578a4.779 4.779 0 0 1 0 9.557H4.779a4.778 4.778 0 1 1 0-9.557z"/><rect id="prefix__ab" width="90.496" height="1" x="6.72" y="34.048" rx=".5"/><rect id="prefix__ae" width="14.784" height="1" x="43.904" y=".896" rx=".5"/></defs><g fill="none" fill-rule="evenodd" transform="translate(1 1)"><use xlink:href="#prefix__a" fill="url(#prefix__b)"/><use xlink:href="#prefix__c" fill="url(#prefix__d)" opacity=".751"/><mask id="prefix__g" fill="#fff"><use xlink:href="#prefix__e"/></mask><use xlink:href="#prefix__e" fill="url(#prefix__f)" opacity=".518"/><g mask="url(#prefix__g)"><path stroke="url(#prefix__h)" stroke-linejoin="round" stroke-width="2" d="M16.441 73.978 5.501 55.956 91.15 47.8 22 9.344" transform="translate(8 10)"/><g transform="rotate(122 35.256 56.83)"><circle cx="2.52" cy="2.52" r="2.52" fill="url(#prefix__i)"/><path fill="#FFF" fill-opacity=".2" d="M2.4 0c.785 0 1.482.377 1.92.96A2.4 2.4 0 0 0 .96 4.32 2.4 2.4 0 0 1 2.4 0z"/></g><g transform="rotate(122 -8.684 37.271)"><circle cx="3.5" cy="3.5" r="3.5" fill="url(#prefix__i)"/><path fill="#FFF" fill-opacity=".2" d="M3.333 0A3.33 3.33 0 0 1 6 1.333 3.333 3.333 0 0 0 1.333 6a3.333 3.333 0 0 1 2-6z"/></g><g transform="rotate(122 13.397 18.374)"><circle cx="5.5" cy="5.5" r="3.5" fill="#70F8DB"/><circle cx="5.5" cy="5.5" r="5" fill="#70F8DB" filter="url(#prefix__j)"/><path fill="#FFF" fill-opacity=".2" d="M5.333 2A3.33 3.33 0 0 1 8 3.333 3.333 3.333 0 0 0 3.333 8a3.333 3.333 0 0 1 2-6z"/></g></g><g mask="url(#prefix__g)"><g transform="translate(9 13)"><path fill="#233452" d="m86.09 58.975 2.534 2.534c.7.7.7 1.835 0 2.534l-52.903 52.903a7.167 7.167 0 0 1-10.137 0l57.972-57.971c.7-.7 1.834-.7 2.534 0z"/><path fill="url(#prefix__k)" d="M30.41 3.173h3.584c.99 0 1.792.803 1.792 1.792v74.816c0 3.96-3.21 7.168-7.168 7.168V4.965c0-.99.802-1.792 1.792-1.792z" transform="rotate(45 -9.108 98.286)"/><path fill="url(#prefix__l)" d="M30.41 3.173h3.584c.99 0 1.792.803 1.792 1.792v74.816c0 3.96-3.21 7.168-7.168 7.168V4.965c0-.99.802-1.792 1.792-1.792z" opacity=".355" style="mix-blend-mode:hard-light" transform="rotate(45 -9.108 98.286)"/><path fill="#090F19" d="m81.526 60.956-3.044 3.184 5.993 4.036 2.119-2.151z"/><path fill="#1B283E" d="m98.949 46.067 2.534 2.534c.7.7.7 1.835 0 2.535L89.129 63.49a3.584 3.584 0 1 1-5.069-5.068l12.356-12.355c.7-.7 1.834-.7 2.534 0z"/><path fill="url(#prefix__m)" d="m73.372 1.227 2.533 2.533a1.791 1.791 0 0 1-.042 2.574l-1.156 1.084-5.069-5.068 1.242-1.164a1.792 1.792 0 0 1 2.492.04z" opacity=".705" transform="translate(25.536 44.8)"/><path fill="url(#prefix__n)" d="m73.372 1.227 2.533 2.533a1.791 1.791 0 0 1-.042 2.574l-1.156 1.084-5.069-5.068 1.242-1.164a1.792 1.792 0 0 1 2.492.04z" opacity=".355" style="mix-blend-mode:hard-light" transform="translate(25.536 44.8)"/><path fill="#233452" d="m79.001 53.309 15.733 15.343-.294.294a3.583 3.583 0 0 1-5.036.031L78.803 58.64a3.583 3.583 0 0 1-.064-5.068l.031-.032.23-.23z"/><path fill="url(#prefix__o)" d="m53.465 8.509 15.733 15.343-.294.294a3.583 3.583 0 0 1-5.036.031L53.267 13.84a3.583 3.583 0 0 1-.064-5.068l.031-.032.23-.23z" opacity=".355" style="mix-blend-mode:hard-light" transform="translate(25.536 44.8)"/><path fill="#121D2F" d="m79.215 63.349 7.003 3.054-2.168 2.249-6.563-3.471z"/><path fill="#1B283E" d="m81.526 60.956 3.26 6.731-1.684 1.72-3.492-6.816z"/><path stroke="url(#prefix__p)" stroke-width=".5" d="M54.074 23.376 5.824 71.318" opacity=".386" transform="translate(25.536 44.8)"/><path fill="#121D2F" d="m90.618 61.95-2.543-7.576 3.14-2.975 2.508 7.57z"/><path fill="#233452" d="m83.998 58.502 8.378 1.779 2.358-2.573-8.14-1.603zm11.726-1.827-2.5-7.175 1.95-1.852 2.885 6.856z"/><path fill="#1B283E" d="M16.094 73.492h69.058a7.568 7.568 0 0 1 7.474 8.759l-5.472 34.332a15.137 15.137 0 0 1-14.948 12.754H29.04a15.136 15.136 0 0 1-14.947-12.754L8.62 82.251a7.568 7.568 0 0 1 7.474-8.759z"/><path fill="url(#prefix__q)" d="M11.232 14.527h73.78a7.568 7.568 0 0 1 7.454 8.882l-5.647 32.047a15.136 15.136 0 0 1-14.907 12.51h-47.58a15.136 15.136 0 0 1-14.906-12.51L3.779 23.409a7.567 7.567 0 0 1 7.453-8.882z" transform="translate(2.501 55.355)"/><path fill="url(#prefix__r)" d="M11.232 14.527h73.78a7.568 7.568 0 0 1 7.454 8.882l-5.647 32.047a15.136 15.136 0 0 1-14.907 12.51h-47.58a15.136 15.136 0 0 1-14.906-12.51L3.779 23.409a7.567 7.567 0 0 1 7.453-8.882z" opacity=".705" transform="translate(2.501 55.355)"/><path fill="#1B283E" d="M28.777 96.955h42.955a1.15 1.15 0 1 1 0 2.3H28.777a1.15 1.15 0 0 1 0-2.3z"/><g transform="translate(2.501 55.355)"><use xlink:href="#prefix__t" fill="#000" filter="url(#prefix__s)"/><use xlink:href="#prefix__t" fill="url(#prefix__u)"/></g><path fill="#1B283E" d="M29.379 105.377h42.955a1.15 1.15 0 0 1 0 2.3H29.379a1.15 1.15 0 0 1 0-2.3zm-16.246 3.427 1.151 1.659h73.042l.815-1.428a1.386 1.386 0 0 1 2.588.686 5.222 5.222 0 0 1-5.222 5.222H16.223a5.675 5.675 0 0 1-5.657-5.222 1.412 1.412 0 0 1 2.567-.917z"/><path fill="url(#prefix__v)" d="M23.82 15.128h49.54a7.568 7.568 0 0 1 7.215 9.853l-.736 2.325a15.137 15.137 0 0 1-14.43 10.569H31.77c-6.6 0-12.439-4.277-14.43-10.569l-.737-2.325a7.57 7.57 0 0 1 7.216-9.853z" transform="translate(2.501 55.355)"/><path fill="url(#prefix__w)" d="M11.852 15.128H85a7.568 7.568 0 0 1 6.943 10.581l-1.325 3.053a15.136 15.136 0 0 1-13.886 9.113H20.12a15.137 15.137 0 0 1-13.887-9.113L4.91 25.709a7.567 7.567 0 0 1 6.943-10.581z" transform="translate(2.501 55.355)"/><path fill="url(#prefix__x)" d="M11.852 15.128H85a7.568 7.568 0 0 1 6.943 10.581l-1.325 3.053a15.136 15.136 0 0 1-13.886 9.113H20.12a15.137 15.137 0 0 1-13.887-9.113L4.91 25.709a7.567 7.567 0 0 1 6.943-10.581z" transform="translate(2.501 55.355)"/><path fill="url(#prefix__y)" d="M11.852 15.128H85a7.568 7.568 0 0 1 6.943 10.581l-1.325 3.053a15.136 15.136 0 0 1-13.886 9.113H20.12a15.137 15.137 0 0 1-13.887-9.113L4.91 25.709a7.567 7.567 0 0 1 6.943-10.581z" opacity=".328" style="mix-blend-mode:hard-light" transform="translate(2.501 55.355)"/><path fill="#233452" d="m24.045 69.875-12.037-.115a6.72 6.72 0 0 0-6.295 4.201l-1.906 4.715a6.714 6.714 0 0 0 .184 5.452l5.417 11.164.537-1.832a21.053 21.053 0 0 1 11.119-13.07l21.931-10.495-18.95-.02z"/><path fill="url(#prefix__z)" d="m21.544 14.52-12.037-.115a6.72 6.72 0 0 0-6.295 4.201l-1.906 4.715a6.714 6.714 0 0 0 .184 5.452l5.417 11.164.537-1.832a21.053 21.053 0 0 1 11.119-13.07L40.494 14.54l-18.95-.02z" opacity=".328" style="mix-blend-mode:hard-light" transform="translate(2.501 55.355)"/><path fill="#233452" d="M77.181 69.716h12.094a6.721 6.721 0 0 1 6.23 4.201l1.924 4.76a6.716 6.716 0 0 1-.185 5.451l-5.417 11.164-.537-1.832a21.052 21.052 0 0 0-11.118-13.07L58.24 69.895l18.94-.18z"/><path fill="url(#prefix__z)" d="M77.106 14.361H65.012a6.718 6.718 0 0 0-6.23 4.201l-1.924 4.76a6.712 6.712 0 0 0 .184 5.451l5.417 11.164.537-1.832a21.053 21.053 0 0 1 11.119-13.07L96.046 14.54l-18.94-.18z" opacity=".328" style="mix-blend-mode:hard-light" transform="matrix(-1 0 0 1 154.286 55.355)"/><path fill="#1B283E" d="M6.931 75.661a6.533 6.533 0 0 0 .583 4.39l.706 1.37a15.137 15.137 0 0 0 13.453 8.199h58.03a15.137 15.137 0 0 0 13.453-8.2l.705-1.368a6.556 6.556 0 0 0 .585-4.387 7.56 7.56 0 0 1-.241 5.399l-1.324 3.053a15.137 15.137 0 0 1-13.886 9.113H22.381c-6.03 0-11.486-3.58-13.886-9.113L7.17 81.064a7.539 7.539 0 0 1-.292-5.232z" opacity=".504"/><path fill="#1B283E" d="M41.087 73.492h20.566c1.831 0 3.6.663 4.979 1.868l3.364 2.938a2.743 2.743 0 0 1-1.803 4.807H34.547a2.742 2.742 0 0 1-1.804-4.807l3.365-2.938a7.566 7.566 0 0 1 4.979-1.868z"/><g transform="translate(39.395 55.355)"><path fill="url(#prefix__A)" d="M5.962.008h12.78a5.886 5.886 0 0 1 5.886 5.886v14.365a3.364 3.364 0 0 1-3.363 3.364H3.439a3.364 3.364 0 0 1-3.364-3.364V5.894A5.887 5.887 0 0 1 5.962.008z"/><path fill="url(#prefix__B)" d="M5.962.008h12.78a5.886 5.886 0 0 1 5.886 5.886v14.365a3.364 3.364 0 0 1-3.363 3.364H3.439a3.364 3.364 0 0 1-3.364-3.364V5.894A5.887 5.887 0 0 1 5.962.008z"/><circle cx="11.894" cy="12.321" r="8.669" fill="#1B283E"/></g><g transform="rotate(1 -3314.952 2444.862)"><circle cx="9.289" cy="9.289" r="9.289" fill="#328AF1" filter="url(#prefix__C)" opacity=".842"/><circle cx="9.487" cy="9.671" r="4.954" fill="url(#prefix__D)" transform="scale(1 -1) rotate(4 286.43 0)"/><g fill="#FFF" style="mix-blend-mode:soft-light"><path d="m7.754 8.557.786.786a.45.45 0 1 1-.636.636l-.787-.786a.45.45 0 1 1 .637-.636zM9.497 10.3l1.718 1.718a.45.45 0 1 1-.636.636L8.86 10.936a.449.449 0 1 1 .636-.636z"/><path d="m7.309 8.442 4.851-1.364c.23-.064.466.07.53.298l.004.01c.06.237-.08.48-.317.546l-4.85 1.364a.43.43 0 0 1-.531-.298l-.003-.01a.453.453 0 0 1 .316-.546z"/><path d="m10.478 12.247 1.363-4.851a.453.453 0 0 1 .546-.316c.23.059.37.293.312.523l-.004.01-1.362 4.851a.453.453 0 0 1-.547.316.431.431 0 0 1-.31-.523l.003-.01zM10.381 10.016 8.578 11.82a.438.438 0 1 1-.62-.618l1.804-1.804a.438.438 0 1 1 .62.62zM7.74 12.66l-.296.295a.438.438 0 1 1-.62-.62l.296-.295a.438.438 0 1 1 .62.62z"/></g><path fill="#FFF" fill-opacity=".547" d="M5.637 10.088a4.116 4.116 0 0 0 1.987 3.111 4.13 4.13 0 0 1 5.144-6.352 4.128 4.128 0 0 0-7.131 3.241z" opacity=".58" style="mix-blend-mode:lighten"/></g><ellipse cx="51.52" cy="36.064" fill="#0F1826" rx="48.832" ry="4.256"/><g transform="translate(25.869 14.344)"><path fill="url(#prefix__E)" d="M12.39 0h26.75c6.721 0 12.17 5.45 12.17 12.172v28.16c0 8.066-6.54 14.606-14.606 14.606H14.823c-8.066 0-14.606-6.54-14.606-14.606v-28.16C.217 5.45 5.667 0 12.39 0z"/><path fill="url(#prefix__F)" d="M12.39 0h26.75c6.721 0 12.17 5.45 12.17 12.172v28.16c0 8.066-6.54 14.606-14.606 14.606H14.823c-8.066 0-14.606-6.54-14.606-14.606v-28.16C.217 5.45 5.667 0 12.39 0z" opacity=".705"/><ellipse cx="10.853" cy="4.7" fill="url(#prefix__G)" rx="1.609" ry="1.635"/><path fill="url(#prefix__H)" d="M1.22 34.159c0 8.066 6.54 14.606 14.606 14.606h19.932c8.067 0 14.606-6.54 14.606-14.606v6.602c0 8.066-6.54 14.606-14.606 14.606H15.826c-8.066 0-14.606-6.54-14.606-14.606z" opacity=".405"/><g transform="translate(5.232 8.174)"><use xlink:href="#prefix__I" fill="#111B2C"/><mask id="prefix__M" fill="#fff"><use xlink:href="#prefix__J"/></mask><path stroke="url(#prefix__K)" stroke-width=".867" d="M37.665 34.693c-3.548 1.383-8.96 2.066-16.233 2.066-7.718 0-13.599-.77-17.638-2.327a5.24 5.24 0 0 1-3.36-4.896V5.68c0-1.449.587-2.76 1.536-3.71A5.229 5.229 0 0 1 5.68.433h30.08c1.448 0 2.76.588 3.71 1.537a5.232 5.232 0 0 1 1.536 3.71v24.124a5.231 5.231 0 0 1-.915 2.96 5.231 5.231 0 0 1-2.426 1.929z"/><ellipse cx="11.666" cy="6.948" fill="url(#prefix__L)" mask="url(#prefix__M)" opacity=".356" rx="22.93" ry="23.296"/></g><path fill="#243552" d="M31.236 5.803h-1.294a.648.648 0 0 1-.64-.654c0-.36.287-.654.64-.654h1.294c.354 0 .64.293.64.654a.647.647 0 0 1-.64.654zm2.413-1.798h-1.292a.648.648 0 0 1-.641-.654c0-.361.287-.654.64-.654h1.293c.354 0 .641.293.641.654a.648.648 0 0 1-.64.654zm6.597 1.798h-7.08a.65.65 0 0 1-.646-.654c0-.36.29-.654.645-.654h7.077a.65.65 0 0 1 .646.654.65.65 0 0 1-.646.654h.004zm2.385-1.798h-7.027a.662.662 0 0 1-.67-.654c0-.361.3-.654.67-.654h7.027c.37 0 .67.293.67.654 0 .361-.3.654-.67.654z"/></g><g transform="rotate(-1 1959.585 -1903.361)"><use xlink:href="#prefix__O" fill="#000" filter="url(#prefix__N)"/><use xlink:href="#prefix__O" fill="url(#prefix__P)"/><path fill="#00FFEC" d="M7.594 3.558H27.42a1.33 1.33 0 0 1 0 2.66H7.594a1.33 1.33 0 0 1 0-2.66z" filter="url(#prefix__Q)"/></g><g transform="rotate(-1 1554.941 -1181.073)"><ellipse cx="15.466" cy="11.813" fill="url(#prefix__R)" opacity=".398" rx="11.342" ry="11.299"/><path fill="url(#prefix__S)" d="m14.917 1.724-8.592 16.38 6.813 4.311 8.684-18.392z" opacity=".396"/><ellipse cx="44.851" cy="11.813" fill="url(#prefix__R)" opacity=".398" rx="11.342" ry="11.299"/><path fill="url(#prefix__S)" d="m44.243 1.724-8.592 16.38 6.813 4.311 8.684-18.392z" opacity=".396"/><path fill="#111B2C" stroke="#111B2C" stroke-width=".803" d="M44.608 22.497c-5.796 0-10.495-4.669-10.495-10.428 0-5.758 4.699-10.427 10.495-10.427 5.795 0 10.494 4.669 10.494 10.427 0 5.76-4.699 10.428-10.494 10.428zm-29.304 0c-5.796 0-10.494-4.669-10.494-10.428 0-5.758 4.698-10.427 10.494-10.427 5.796 0 10.494 4.669 10.494 10.427 0 5.76-4.698 10.428-10.494 10.428zM55.699 5.674c-.877-1.005-2.541-2.307-3.538-3.051a12.174 12.174 0 0 0-.792-.58l-.017-.013v.001A12.157 12.157 0 0 0 44.608 0a12.15 12.15 0 0 0-8.605 3.55c-1.065.989-1.982 2.071-2.932 3.132-1.202 1.344-1.913.684-3.115.684-1.202 0-1.914.66-3.116-.684-.949-1.06-1.867-2.143-2.932-3.132A12.236 12.236 0 0 0 15.267 0c-2.496 0-4.963.749-6.782 2.031l.02.012c-.274.182-.519.377-.775.58-.997.744-2.705 2.046-3.581 3.05C2.846 7.168 0 7.268 0 7.268v3.085s1.704-.1 2.254.548c.326.382.677 2.22 1.25 4.144.175.685.424 1.346.71 1.979.269.629.583 1.212.94 1.69l.005-.003a12.156 12.156 0 0 0 10.143 5.429c4.922 0 9.158-2.91 11.067-7.092l.01-.012.028-.047c.872-1.47 1.75-5.498 2.146-6.138.4-.647 1.403-.697 1.403-.697s1.002.05 1.402.697c.397.64 1.275 4.668 2.147 6.138l.028.047.009.012a12.15 12.15 0 0 0 11.066 7.092c4.239 0 7.968-2.159 10.141-5.429l.001.003c.359-.478.666-1.06.934-1.69.287-.633.523-1.294.698-1.98.573-1.923.895-3.761 1.22-4.143.551-.647 2.2-.548 2.2-.548V7.267s-2.8-.1-4.103-1.593z"/></g><path fill="#0F1826" d="M20 34h63v5H20z" opacity=".615"/><path fill="#233452" d="M43.293 2.015 3.642 34.272l95-1.085L58.989 2.015z"/><path fill="#1B283E" d="M43.059 2.912C17.736 22.397 5.312 32.14 5.786 32.14c.475 0 4.586-.11 12.333-.332L43.226 2.912h-.167z"/><path fill="url(#prefix__T)" d="M37.462.896C12.139 20.381-.285 30.124.189 30.124c.475 0 4.586-.11 12.333-.332L37.629.896h-.167z" opacity=".464" style="mix-blend-mode:hard-light" transform="translate(5.597 2.016)"/><path fill="#121D2F" d="M97.437 32.071c-.475 0-4.502-.088-12.08-.263L60.25 2.912c25.266 19.44 37.662 29.16 37.187 29.16z"/><path fill="url(#prefix__U)" d="M54.666 30.055c.475 0 4.502-.088 12.08-.263L91.853.896c-25.266 19.44-37.662 29.16-37.187 29.16z" opacity=".542" style="mix-blend-mode:lighten" transform="matrix(-1 0 0 1 152.103 2.016)"/><path fill="#233452" d="M42.761 2.49 16.346 32.526h15.831L48.134 2.49z"/><path fill="url(#prefix__V)" d="M37.164.474 10.749 30.51H26.58L42.537.474z" opacity=".464" style="mix-blend-mode:hard-light" transform="translate(5.597 2.016)"/><path fill="#1B283E" d="m59.719 2.317 26.962 30.209H71.076L55.555 2.317z"/><path fill="url(#prefix__W)" d="M76.921.301 49.959 30.51h15.605L81.085.301z" opacity=".295" style="mix-blend-mode:lighten" transform="matrix(-1 0 0 1 136.64 2.016)"/><path fill="url(#prefix__X)" d="M40.713.474 25.98 30.51h21.952L46.144.474h-5.431z" transform="translate(5.597 2.016)"/><path fill="url(#prefix__Y)" d="M40.713.474 25.98 30.51h21.952L46.144.474h-5.431z" opacity=".33" style="mix-blend-mode:hard-light" transform="translate(5.597 2.016)"/><path fill="#233452" d="m57.172 2.316 14.726 30.156H49.946l1.795-30.156h5.431z"/><path fill="url(#prefix__Z)" d="M59.074.3 44.35 30.457H66.3L64.506.3h-5.432z" opacity=".341" style="mix-blend-mode:lighten" transform="matrix(-1 0 0 1 116.247 2.016)"/><path fill="#0F1826" d="M6.774 31.808h89.704c.476 0 .938.169 1.302.477l2.348 1.987a1.397 1.397 0 0 1-.903 2.464H3.905a1.387 1.387 0 0 1-.876-2.464l2.473-2.012a2.016 2.016 0 0 1 1.272-.452z"/><use xlink:href="#prefix__ab" fill="#000" filter="url(#prefix__aa)"/><use xlink:href="#prefix__ab" fill="url(#prefix__ac)"/><rect width="18.368" height="2.688" x="42.112" fill="#0F1826" rx="1.344"/><use xlink:href="#prefix__ae" fill="#000" filter="url(#prefix__ad)"/><use xlink:href="#prefix__ae" fill="url(#prefix__af)"/></g></g><use xlink:href="#prefix__ag" stroke="url(#prefix__ah)" stroke-width="2"/></g></svg>