<svg width="120" height="120" fill="none" xmlns="http://www.w3.org/2000/svg"><mask id="a" style="mask-type:alpha" maskUnits="userSpaceOnUse" x="0" y="0" width="120" height="120"><circle cx="60" cy="60" r="60" fill="url(#41opv9co4a)"/></mask><g mask="url(#a)"><circle cx="59" cy="60" r="60" fill="url(#swr9vmo2oc)"/><path fill-rule="evenodd" clip-rule="evenodd" d="M111 40.998c-7.921-3.807-16.996-5.969-26.64-5.969-30.906 0-55.96 22.2-55.96 49.586 0 3.208.345 6.346 1.002 9.385C14.697 86.288 5 73.075 5 58.069 5 34.279 17.21 18 59.432 18c31.105 0 45.922 8.835 51.568 22.998z" fill="#FFD363" fill-opacity=".12"/><g opacity=".866" filter="url(#muzlgln3cd)"><ellipse cx="60.5" cy="95" rx="26.5" ry="6" fill="url(#ge9yg1ib8e)" fill-opacity=".63"/></g><path fill-rule="evenodd" clip-rule="evenodd" d="M60 118c33.69 0 61-28.43 61-63.5S93.69-9 60-9-1 19.43-1 54.5 26.31 118 60 118zm0-17c29.823 0 54-22.834 54-51S89.823-1 60-1 6 21.834 6 50s24.177 51 54 51z" fill="url(#12iya1idff)"/><g filter="url(#z7c3lwl0xg)"><circle cx="59.8" cy="54.4" r="38.4" stroke="url(#bki65jjr6h)"/><ellipse cx="59.8" cy="54.4" rx="38.4" ry="30" stroke="url(#ul60hun4xi)"/><path d="M97.7 54.4c0 5.01-4.075 9.681-10.97 13.13-6.867 3.432-16.387 5.57-26.93 5.57s-20.063-2.138-26.93-5.57C25.976 64.08 21.9 59.41 21.9 54.4c0-5.01 4.075-9.681 10.97-13.13 6.867-3.432 16.387-5.57 26.93-5.57s20.063 2.138 26.93 5.57c6.894 3.45 10.97 8.12 10.97 13.13z" stroke="url(#3qlyvks27j)"/><path d="M97.7 54.4c0 1.04-.855 2.173-2.772 3.306-1.884 1.114-4.643 2.134-8.096 2.997-6.9 1.725-16.457 2.797-27.032 2.797s-20.133-1.072-27.032-2.797c-3.453-.863-6.212-1.883-8.096-2.997C22.755 56.573 21.9 55.44 21.9 54.4s.855-2.173 2.772-3.306c1.884-1.114 4.643-2.134 8.096-2.997 6.9-1.725 16.457-2.797 27.032-2.797s20.133 1.072 27.032 2.797c3.453.863 6.212 1.883 8.096 2.997C96.845 52.227 97.7 53.36 97.7 54.4z" stroke="url(#znaa2aipfk)"/><path d="M101.3 40c0 .007-.001.058-.091.159-.092.104-.253.23-.506.372-.506.283-1.285.571-2.334.855-2.09.564-5.136 1.078-8.927 1.511-7.577.866-18.057 1.403-29.642 1.403s-22.065-.537-29.642-1.403c-3.791-.433-6.838-.947-8.927-1.511-1.049-.284-1.828-.572-2.334-.855-.253-.142-.414-.268-.506-.372-.09-.101-.091-.152-.091-.159 0-.007.001-.058.09-.159.093-.104.254-.23.507-.372.506-.283 1.285-.571 2.334-.855 2.09-.564 5.136-1.078 8.927-1.511C37.735 36.237 48.215 35.7 59.8 35.7s22.065.537 29.642 1.403c3.791.433 6.838.947 8.927 1.511 1.049.284 1.828.572 2.334.855.253.142.414.268.506.372.09.101.091.152.091.159z" stroke="url(#ey2x8m19fl)"/><path d="M112.1 47.2c0 .233-.18.588-.85 1.035-.647.431-1.634.867-2.953 1.292-2.63.848-6.462 1.619-11.23 2.269C87.542 53.095 74.366 53.9 59.8 53.9c-14.565 0-27.741-.805-37.268-2.104-4.767-.65-8.599-1.421-11.23-2.27-1.318-.424-2.305-.86-2.952-1.291-.67-.447-.85-.802-.85-1.035 0-.233.18-.588.85-1.035.647-.431 1.634-.867 2.953-1.292 2.63-.848 6.462-1.619 11.23-2.269C32.058 41.305 45.234 40.5 59.8 40.5c14.565 0 27.741.805 37.268 2.104 4.767.65 8.599 1.421 11.229 2.27 1.319.424 2.306.86 2.953 1.291.67.447.85.802.85 1.035z" stroke="url(#w79s13t0fm)"/><ellipse cx="59.8" cy="54.4" rx="26.4" ry="38.4" stroke="url(#avoeaka5sn)"/><ellipse cx="59.8" cy="54.4" rx="14.4" ry="38.4" stroke="url(#zto6hhbmeo)"/><ellipse cx="59.8" cy="54.4" rx="3.6" ry="38.4" stroke="url(#vjlst8pvvp)"/></g><path opacity=".563" fill-rule="evenodd" clip-rule="evenodd" d="M60 118c33.69 0 61-28.43 61-63.5S93.69-9 60-9-1 19.43-1 54.5 26.31 118 60 118zm0-17c29.823 0 54-22.834 54-51S89.823-1 60-1 6 21.834 6 50s24.177 51 54 51z" fill="url(#r78ok4rv6q)"/><path fill-rule="evenodd" clip-rule="evenodd" d="M60-9C26.31-9-1 19.43-1 54.5S26.31 118 60 118s61-28.43 61-63.5S93.69-9 60-9zm0 27C22 18 6 30.834 6 59s24.177 51 54 51 54-22.834 54-51-16-41-54-41z" fill="url(#zigr54ihrr)"/><path opacity=".563" fill-rule="evenodd" clip-rule="evenodd" d="M60-9C26.31-9-1 19.43-1 54.5S26.31 118 60 118s61-28.43 61-63.5S93.69-9 60-9zm0 27C22.5 18 6 30.834 6 59s24.177 51 54 51 54-22.834 54-51-16.5-41-54-41z" fill="url(#8hu51vmnus)"/><g opacity=".866" filter="url(#ek8w1cj6yt)"><ellipse cx="70.46" cy="13.874" rx="11.345" ry="6.677" transform="rotate(1 70.46 13.874)" fill="url(#rd4spthe5u)" fill-opacity=".73"/></g><g opacity=".271" filter="url(#b34cl96yfv)"><ellipse cx="33.644" cy="47.643" rx="13.383" ry="13.389" transform="rotate(55 33.644 47.643)" fill="#C08D17"/></g><path d="M102.5 31l-12.89 4.276L66.5 9.5l-10 35" stroke="url(#oacy3oaoyw)" stroke-width="2.005" stroke-linecap="round" stroke-linejoin="round"/><ellipse cx="56.417" cy="44.417" rx="2.453" ry="2.454" transform="rotate(55 56.417 44.417)" fill="#FAC446"/><path fill-rule="evenodd" clip-rule="evenodd" d="M58.245 43.566c.302.431.438.93.422 1.417a2.335 2.335 0 00-.308-2.068 2.337 2.337 0 00-4.248 1.262 2.337 2.337 0 014.134-.61z" fill="#fff" fill-opacity=".2"/><g style="mix-blend-mode:hard-light" opacity=".587" filter="url(#b8134917mx)"><circle cx="56" cy="44" r="14" fill="url(#w44wk9bw0y)"/></g><g style="mix-blend-mode:hard-light" opacity=".587" filter="url(#y7d66wih4z)"><circle cx="56" cy="44" r="9" fill="url(#ixct2k4q9A)"/></g><ellipse cx="66.37" cy="10.371" rx="3.858" ry="3.853" transform="rotate(55 66.37 10.37)" fill="#FAC446"/><path fill-rule="evenodd" clip-rule="evenodd" d="M69.24 9.033c.475.678.69 1.46.664 2.227a3.67 3.67 0 00-.483-3.25 3.672 3.672 0 00-5.114-.905 3.662 3.662 0 00-1.562 2.888 3.672 3.672 0 016.496-.96z" fill="#fff" fill-opacity=".2"/><ellipse cx="89.347" cy="35.348" rx="2.405" ry="2.402" transform="rotate(55 89.347 35.348)" fill="#FAC446"/><path fill-rule="evenodd" clip-rule="evenodd" d="M91.104 34.444c.287.41.417.885.402 1.35a2.224 2.224 0 00-.293-1.97 2.225 2.225 0 00-4.046 1.202 2.225 2.225 0 013.937-.582z" fill="#fff" fill-opacity=".2"/></g><circle cx="60" cy="60" r="59" stroke="url(#rrb01upunB)" stroke-width="2"/><rect x="49" y="104" width="6.3" height="2.8" rx="1.4" fill="#0C1321"/><g filter="url(#ctob29s0pC)"><rect x="50.4" y="104.7" width="3.5" height="1.4" rx=".7" fill="#FEC63B"/></g><rect x="56.7" y="104" width="4.9" height="2.8" rx="1.4" fill="#0C1321"/><g filter="url(#ui6bhmj9iD)"><rect x="58.1" y="104.7" width="2.1" height="1.4" rx=".7" fill="#FEC63B"/></g><rect x="63" y="104" width="8.4" height="2.8" rx="1.4" fill="#0C1321"/><g filter="url(#xsgaevswbE)"><rect x="64.4" y="104.7" width="5.6" height="1.4" rx=".7" fill="#FEC63B"/></g><defs><linearGradient id="41opv9co4a" x1="60" y1="0" x2="60" y2="115.5" gradientUnits="userSpaceOnUse"><stop stop-color="#182438"/><stop offset="1" stop-color="#0C1321"/></linearGradient><linearGradient id="swr9vmo2oc" x1="59" y1="6.5" x2="59" y2="115.5" gradientUnits="userSpaceOnUse"><stop stop-color="#0A111E"/><stop offset="1" stop-color="#0C1321"/></linearGradient><linearGradient id="bki65jjr6h" x1="82.491" y1="92.8" x2="82.491" y2="28" gradientUnits="userSpaceOnUse"><stop stop-color="#EEB20D"/><stop offset="1" stop-color="#F8BA0F" stop-opacity="0"/></linearGradient><linearGradient id="ul60hun4xi" x1="82.491" y1="84.4" x2="82.491" y2="33.775" gradientUnits="userSpaceOnUse"><stop stop-color="#EEB20D"/><stop offset="1" stop-color="#F8BA0F" stop-opacity="0"/></linearGradient><linearGradient id="3qlyvks27j" x1="59.8" y1="42.585" x2="59.8" y2="73.6" gradientUnits="userSpaceOnUse"><stop stop-color="#EEB20D" stop-opacity="0"/><stop offset="1" stop-color="#EEB20D"/></linearGradient><linearGradient id="znaa2aipfk" x1="59.8" y1="48.492" x2="59.8" y2="64" gradientUnits="userSpaceOnUse"><stop stop-color="#EEB20D" stop-opacity="0"/><stop offset="1" stop-color="#EEB20D"/></linearGradient><linearGradient id="ey2x8m19fl" x1="59.8" y1="37.046" x2="59.8" y2="44.8" gradientUnits="userSpaceOnUse"><stop stop-color="#EEB20D" stop-opacity="0"/><stop offset="1" stop-color="#EEB20D"/></linearGradient><linearGradient id="w79s13t0fm" x1="59.8" y1="42.769" x2="59.8" y2="54.4" gradientUnits="userSpaceOnUse"><stop stop-color="#EEB20D" stop-opacity="0"/><stop offset="1" stop-color="#EEB20D"/></linearGradient><linearGradient id="avoeaka5sn" x1="75.4" y1="92.8" x2="75.4" y2="28" gradientUnits="userSpaceOnUse"><stop stop-color="#EEB20D"/><stop offset="1" stop-color="#F8BA0F" stop-opacity="0"/></linearGradient><linearGradient id="zto6hhbmeo" x1="68.309" y1="92.8" x2="68.309" y2="28" gradientUnits="userSpaceOnUse"><stop stop-color="#EEB20D"/><stop offset="1" stop-color="#F8BA0F" stop-opacity="0"/></linearGradient><linearGradient id="vjlst8pvvp" x1="61.927" y1="92.8" x2="61.927" y2="28" gradientUnits="userSpaceOnUse"><stop stop-color="#EEB20D"/><stop offset="1" stop-color="#F8BA0F" stop-opacity="0"/></linearGradient><linearGradient id="oacy3oaoyw" x1="67.432" y1="9.533" x2="102" y2="33" gradientUnits="userSpaceOnUse"><stop stop-color="#EEB20D"/><stop offset="1" stop-color="#F8BA0F" stop-opacity="0"/></linearGradient><linearGradient id="rrb01upunB" x1="-25.227" y1="22.708" x2="4.038" y2="134.632" gradientUnits="userSpaceOnUse"><stop stop-color="#FFC63B"/><stop offset="1" stop-color="#F29D1C"/></linearGradient><filter id="muzlgln3cd" x="26.253" y="81.253" width="68.494" height="27.494" filterUnits="userSpaceOnUse" color-interpolation-filters="sRGB"><feFlood flood-opacity="0" result="BackgroundImageFix"/><feBlend in="SourceGraphic" in2="BackgroundImageFix" result="shape"/><feGaussianBlur stdDeviation="3.874" result="effect1_foregroundBlur_20_10849"/></filter><filter id="z7c3lwl0xg" x="-5" y="8.3" width="129.6" height="101.8" filterUnits="userSpaceOnUse" color-interpolation-filters="sRGB"><feFlood flood-opacity="0" result="BackgroundImageFix"/><feColorMatrix in="SourceAlpha" values="0 0 0 0 0 0 0 0 0 0 0 0 0 0 0 0 0 0 127 0" result="hardAlpha"/><feOffset dy="4.8"/><feGaussianBlur stdDeviation="6"/><feComposite in2="hardAlpha" operator="out"/><feColorMatrix values="0 0 0 0 1 0 0 0 0 0.72 0 0 0 0 0 0 0 0 0.5 0"/><feBlend in2="BackgroundImageFix" result="effect1_dropShadow_20_10849"/><feBlend in="SourceGraphic" in2="effect1_dropShadow_20_10849" result="shape"/></filter><filter id="ek8w1cj6yt" x="51.369" y="-.552" width="38.182" height="28.851" filterUnits="userSpaceOnUse" color-interpolation-filters="sRGB"><feFlood flood-opacity="0" result="BackgroundImageFix"/><feBlend in="SourceGraphic" in2="BackgroundImageFix" result="shape"/><feGaussianBlur stdDeviation="3.874" result="effect1_foregroundBlur_20_10849"/></filter><filter id="b34cl96yfv" x="11.044" y="25.045" width="45.199" height="45.195" filterUnits="userSpaceOnUse" color-interpolation-filters="sRGB"><feFlood flood-opacity="0" result="BackgroundImageFix"/><feBlend in="SourceGraphic" in2="BackgroundImageFix" result="shape"/><feGaussianBlur stdDeviation="4.606" result="effect1_foregroundBlur_20_10849"/></filter><filter id="b8134917mx" x="36.12" y="24.12" width="39.76" height="39.76" filterUnits="userSpaceOnUse" color-interpolation-filters="sRGB"><feFlood flood-opacity="0" result="BackgroundImageFix"/><feBlend in="SourceGraphic" in2="BackgroundImageFix" result="shape"/><feGaussianBlur stdDeviation="2.94" result="effect1_foregroundBlur_20_10849"/></filter><filter id="y7d66wih4z" x="41.12" y="29.12" width="29.76" height="29.76" filterUnits="userSpaceOnUse" color-interpolation-filters="sRGB"><feFlood flood-opacity="0" result="BackgroundImageFix"/><feBlend in="SourceGraphic" in2="BackgroundImageFix" result="shape"/><feGaussianBlur stdDeviation="2.94" result="effect1_foregroundBlur_20_10849"/></filter><filter id="ctob29s0pC" x="48.4" y="102.7" width="7.5" height="5.4" filterUnits="userSpaceOnUse" color-interpolation-filters="sRGB"><feFlood flood-opacity="0" result="BackgroundImageFix"/><feColorMatrix in="SourceAlpha" values="0 0 0 0 0 0 0 0 0 0 0 0 0 0 0 0 0 0 127 0" result="hardAlpha"/><feOffset/><feGaussianBlur stdDeviation="1"/><feColorMatrix values="0 0 0 0 0.964706 0 0 0 0 0.670588 0 0 0 0 0.14902 0 0 0 1 0"/><feBlend in2="BackgroundImageFix" result="effect1_dropShadow_20_10849"/><feBlend in="SourceGraphic" in2="effect1_dropShadow_20_10849" result="shape"/></filter><filter id="ui6bhmj9iD" x="56.1" y="102.7" width="6.1" height="5.4" filterUnits="userSpaceOnUse" color-interpolation-filters="sRGB"><feFlood flood-opacity="0" result="BackgroundImageFix"/><feColorMatrix in="SourceAlpha" values="0 0 0 0 0 0 0 0 0 0 0 0 0 0 0 0 0 0 127 0" result="hardAlpha"/><feOffset/><feGaussianBlur stdDeviation="1"/><feColorMatrix values="0 0 0 0 0.964706 0 0 0 0 0.670588 0 0 0 0 0.14902 0 0 0 1 0"/><feBlend in2="BackgroundImageFix" result="effect1_dropShadow_20_10849"/><feBlend in="SourceGraphic" in2="effect1_dropShadow_20_10849" result="shape"/></filter><filter id="xsgaevswbE" x="62.4" y="102.7" width="9.6" height="5.4" filterUnits="userSpaceOnUse" color-interpolation-filters="sRGB"><feFlood flood-opacity="0" result="BackgroundImageFix"/><feColorMatrix in="SourceAlpha" values="0 0 0 0 0 0 0 0 0 0 0 0 0 0 0 0 0 0 127 0" result="hardAlpha"/><feOffset/><feGaussianBlur stdDeviation="1"/><feColorMatrix values="0 0 0 0 0.964706 0 0 0 0 0.670588 0 0 0 0 0.14902 0 0 0 1 0"/><feBlend in2="BackgroundImageFix" result="effect1_dropShadow_20_10849"/><feBlend in="SourceGraphic" in2="effect1_dropShadow_20_10849" result="shape"/></filter><radialGradient id="ge9yg1ib8e" cx="0" cy="0" r="1" gradientUnits="userSpaceOnUse" gradientTransform="matrix(0 -6.73043 30.212 0 60.5 94.38)"><stop stop-color="#F5B401"/><stop offset="1" stop-color="#F7B501" stop-opacity="0"/></radialGradient><radialGradient id="12iya1idff" cx="0" cy="0" r="1" gradientUnits="userSpaceOnUse" gradientTransform="rotate(54.08 5.857 53.812) scale(78.4108 66.6582)"><stop stop-color="#6BA0E2"/><stop offset="1" stop-color="#131E32"/></radialGradient><radialGradient id="r78ok4rv6q" cx="0" cy="0" r="1" gradientUnits="userSpaceOnUse" gradientTransform="matrix(3.50002 -41.49997 50.47989 4.25737 60 103)"><stop stop-color="#FAC446"/><stop offset="1" stop-color="#233452" stop-opacity="0"/></radialGradient><radialGradient id="zigr54ihrr" cx="0" cy="0" r="1" gradientUnits="userSpaceOnUse" gradientTransform="matrix(60.49986 98.49976 -83.73647 51.43205 38.5 10.5)"><stop stop-color="#6BA0E2"/><stop offset="1" stop-color="#131E32"/></radialGradient><radialGradient id="8hu51vmnus" cx="0" cy="0" r="1" gradientUnits="userSpaceOnUse" gradientTransform="rotate(67.557 22.487 25.531) scale(49.7695 60.5387)"><stop stop-color="#FAC446"/><stop offset="1" stop-color="#233452"/></radialGradient><radialGradient id="rd4spthe5u" cx="0" cy="0" r="1" gradientUnits="userSpaceOnUse" gradientTransform="matrix(0 -7.48942 12.9341 0 70.46 13.183)"><stop/><stop offset="1" stop-opacity=".01"/></radialGradient><radialGradient id="w44wk9bw0y" cx="0" cy="0" r="1" gradientUnits="userSpaceOnUse" gradientTransform="matrix(4.45454 14 -14 4.45454 56 44)"><stop stop-color="#FFD26C"/><stop offset="1" stop-color="#FFD26C" stop-opacity="0"/></radialGradient><radialGradient id="ixct2k4q9A" cx="0" cy="0" r="1" gradientUnits="userSpaceOnUse" gradientTransform="matrix(2.86363 9 -9 2.86363 56 44)"><stop stop-color="#FFD26C"/><stop offset="1" stop-color="#FFD26C" stop-opacity="0"/></radialGradient></defs></svg>