<svg xmlns="http://www.w3.org/2000/svg" xmlns:xlink="http://www.w3.org/1999/xlink" width="120" height="120.001"><defs><radialGradient id="radial-gradient" cx=".5" cy=".629" r=".423" gradientUnits="objectBoundingBox"><stop offset="0"/><stop offset=".734" stop-opacity=".137"/><stop offset="1" stop-opacity="0"/></radialGradient><radialGradient id="radial-gradient-2" cx=".165" cy="-.024" r="1.049" gradientUnits="objectBoundingBox"><stop offset="0" stop-color="#6ba0e2"/><stop offset=".305" stop-color="#54729a"/><stop offset=".526" stop-color="#385076"/><stop offset="1" stop-color="#131e32"/></radialGradient><radialGradient id="radial-gradient-3" cx=".5" cy=".5" r=".488" xlink:href="#linear-gradient-2"/><radialGradient id="radial-gradient-4" cx=".362" cy="-.439" r="1.139" xlink:href="#radial-gradient-2"/><radialGradient id="radial-gradient-5" cx=".5" cy=".5" r=".5" gradientUnits="objectBoundingBox"><stop offset="0" stop-color="#c08d17"/><stop offset="1" stop-color="#ffbe24" stop-opacity="0"/></radialGradient><radialGradient id="radial-gradient-8" cx=".5" cy=".5" r="1.018" gradientUnits="objectBoundingBox"><stop offset="0" stop-color="#fff"/><stop offset="1" stop-color="#f9b22c"/></radialGradient><linearGradient id="linear-gradient" x2="2.096" y1=".647" y2=".59" gradientUnits="objectBoundingBox"><stop offset="0" stop-color="#04060a"/><stop offset="1" stop-color="#111b30"/></linearGradient><linearGradient id="linear-gradient-2" x1=".164" x2=".5" y1=".815" y2=".5" gradientUnits="objectBoundingBox"><stop offset="0"/><stop offset="1" stop-opacity="0"/></linearGradient><linearGradient id="linear-gradient-3" x1=".909" x2=".149" y1=".795" y2=".148" gradientUnits="objectBoundingBox"><stop offset="0" stop-color="#f19a1a"/><stop offset="1" stop-color="#ffc73c"/></linearGradient><linearGradient id="linear-gradient-4" x1=".5" x2=".5" y1=".615" y2="1" xlink:href="#linear-gradient"/><linearGradient id="linear-gradient-10" x1=".258" x2=".5" y1="-.301" y2="1" gradientUnits="objectBoundingBox"><stop offset="0" stop-color="#51587e"/><stop offset=".241" stop-color="#4276b6"/><stop offset=".557" stop-color="#1d7871"/><stop offset=".675" stop-color="#7d57d6"/><stop offset="1" stop-color="#f5aa00"/></linearGradient><linearGradient id="linear-gradient-11" x1=".5" x2=".5" y1="1.642" gradientUnits="objectBoundingBox"><stop offset="0" stop-color="#5b79a2"/><stop offset="1" stop-color="#182439"/></linearGradient><clipPath id="clip-path"><path id="Path_Copy_9" d="M4 0a4 4 0 00-4 4v89.5a2 2 0 002.517 1.932l27.938-7.481a4 4 0 002.95-3.515l7.008-80.087A4 4 0 0036.429 0z" class="cls-1" data-name="Path Copy 9" transform="translate(55.239 8.275)"/></clipPath><clipPath id="clip-path-2"><path id="Mask" d="M31.882 70.956v.013L6.1 63.346 4.436 44.078h12.8l.832 9.98 13.7 3.46.117-.033v.015l14.184-3.993.971-16.079-31.22-.1-12.22-.041-.97-12.06 29.251-12.181 1.705-.71H1.525L.764 6.185v-.029L0 0h63.208L62.2 9.988a4 4 0 01-2.408 3.276L31.881 25.2l-.072.031H60.9l-3.329 38.253-25.643 7.486z" class="cls-2"/></clipPath><filter id="Oval_Copy_63" width="20.667" height="20.667" x="36.72" y="61.537" filterUnits="userSpaceOnUse"><feOffset/><feGaussianBlur result="blur" stdDeviation="2.5"/><feFlood flood-color="#f9b22c"/><feComposite in2="blur" operator="in"/><feComposite in="SourceGraphic"/></filter><style>.cls-1{opacity:.674;fill:url(#linear-gradient)}.cls-2{fill:url(#linear-gradient-2)}.cls-9{fill:url(#linear-gradient-4);opacity:.216}.cls-12{fill:none;stroke-miterlimit:10;stroke:#415781;stroke-width:.5px}.cls-17{mix-blend-mode:overlay;isolation:isolate;fill:url(#radial-gradient-5)}.cls-19{fill:rgba(255,255,255,.2)}.cls-20{fill:#fac446}</style></defs><g id="languages-css-quirks-pitfalls" transform="translate(-504 -262)"><g id="Color_Crown_Shadow" data-name="Color Crown + Shadow" transform="translate(2960 652)"><path id="Shadow" fill="rgba(0,0,0,0.15)" d="M58 0A58 58 0 110 58 58 58 0 0158 0z" transform="translate(-2454 -388)"/><g id="Color_Crown" data-name="Color Crown" transform="translate(-2456 -390)"><path id="Ring" fill="url(#linear-gradient-3)" d="M780 826a59.72 59.72 0 01-33.547-10.247 60.176 60.176 0 01-21.739-26.4 59.921 59.921 0 015.532-56.9 60.176 60.176 0 0126.4-21.738 59.92 59.92 0 0156.9 5.532 60.174 60.174 0 0121.738 26.4 59.923 59.923 0 01-5.532 56.9 60.174 60.174 0 01-26.4 21.739A59.623 59.623 0 01780 826zm0-118a57.729 57.729 0 00-32.429 9.905 58.167 58.167 0 00-21.014 25.518 57.924 57.924 0 005.348 55 58.169 58.169 0 0025.518 21.014 57.923 57.923 0 0055-5.348 58.17 58.17 0 0021.014-25.518 57.924 57.924 0 00-5.348-55 58.171 58.171 0 00-25.518-21.013A57.638 57.638 0 00780 708z" transform="translate(-720 -706)"/></g></g><g id="Group_28" data-name="Group 28" transform="translate(510.257 266)"><path id="Path_154_Copy_2" fill="url(#linear-gradient-4)" d="M0 0l7.364 92.8L43.657 106l38.688-12.083L90 0z" data-name="Path 154 Copy 2" transform="translate(10.304 4.5)"/><ellipse id="Oval_Copy_129" cx="42" cy="6.5" fill="url(#radial-gradient)" data-name="Oval Copy 129" rx="42" ry="6.5" transform="translate(12.946 103)"/><g id="shadow_copy_5" data-name="shadow copy 5" transform="translate(.946)"><path id="Mask-2" fill="url(#radial-gradient-2)" d="M91.668 96.615a8 8 0 01-5.886 6.989l-33.409 9a8 8 0 01-4.16 0l-33.409-9a8 8 0 01-5.886-6.99L.806 8.735A8 8 0 018.772 0h83.042a8 8 0 017.966 8.735z" data-name="Mask" transform="translate(4)"/><ellipse id="shadow_copy_5-2" cx="15.5" cy="7" fill="url(#radial-gradient-3)" data-name="shadow copy 5" opacity=".217" rx="15.5" ry="7" transform="rotate(-42 88.344 29.388)"/></g><path id="Path_155_Copy_2" d="M0 .09l28.164 6.7.092-6.79z" class="cls-9" data-name="Path 155 Copy 2" transform="translate(26.946 56.287)"/><path id="Path_156_Copy_2" d="M0 4.046l25.737 16.263.119-11.533L2.424 0z" class="cls-9" data-name="Path 156 Copy 2" transform="translate(29.465 78.3)"/><path id="Path_152_Copy_2" fill="url(#linear-gradient-4)" d="M0 3.482l22.834 1.724-21.68 11.167L7.621 18 36.6 2.726 7.621 0z" data-name="Path 152 Copy 2" opacity=".685" transform="translate(24.846 27.855)"/><g id="Mask_Group_11" clip-path="url(#clip-path)" data-name="Mask Group 11"><g id="Group_1" data-name="Group 1" transform="translate(1 1)"><path id="Path_150" d="M19.469 0H14.65v7.936H8.935v5.509H0V6.723" class="cls-12" data-name="Path 150" transform="translate(70.865 76.525)"/><path id="Path_147" d="M0 0h5.149v10.794h2.742v4.151H.119" class="cls-12" data-name="Path 147" transform="translate(55.202 50.303)"/><path id="Path_149" d="M0 0h5.041v6.967h2.731v5.967H0" class="cls-12" data-name="Path 149" transform="translate(55.321 84.461)"/><path id="Path_148" d="M0 20.954h9.235v5.267h11.291V16.8h11.682v-6.248h-7.517V0h13.074" class="cls-12" data-name="Path 148" transform="translate(55.11 50.303)"/><path id="Path_146" d="M4.77 0v9.917H0v8.026h8.935v3.392h10.027v-3.393h5.006" class="cls-12" data-name="Path 146" transform="translate(70.865 8.275)"/><path id="Path_125" d="M0 8.725h7.836v-4h7.709V0" class="cls-12" data-name="Path 125" transform="translate(55.321 8.275)"/><path id="Path_145" d="M15.033 11.6H6.728V7.664h4.153v-3.3H0V0" class="cls-12" data-name="Path 145" transform="translate(79.801 8.275)"/><path id="Path_139" d="M0 0h8.936v7.076h9.226V2.5H28.9v2.87h8.655" class="cls-12" data-name="Path 139" transform="translate(55.321 35.142)"/><path id="Path_151_Copy_2" d="M0 8.355V1.438h5.64V3h4.229V0H21.1" class="cls-12" data-name="Path 151 Copy 2" transform="translate(67.391 93.037)"/></g></g><path id="Path_Copy_9-2" d="M4 0a4 4 0 00-4 4v89.5a2 2 0 002.517 1.932l27.938-7.481a4 4 0 002.95-3.515l7.008-80.087A4 4 0 0036.429 0z" class="cls-1" data-name="Path Copy 9" transform="translate(55.238 8.275)"/><path id="Combined_Shape_Copy_32" fill="url(#radial-gradient-4)" d="M31.882 70.956v.013L6.1 63.346 4.436 44.078h12.8l.832 9.98 13.7 3.46.117-.033v.015l14.184-3.993.971-16.079-31.22-.1-12.22-.041-.97-12.06 29.251-12.181 1.705-.71H1.525L.764 6.185v-.029L0 0h63.208l-1.247 12.336L31.881 25.2l-.072.031H60.9l-3.329 38.253-25.643 7.486z" data-name="Combined Shape Copy 32" transform="translate(23.321 19)"/><g id="Oval_Copy_130" data-name="Oval Copy 130" transform="translate(23.321 19)"><path id="Mask-3" d="M31.882 70.956v.013L6.1 63.346 4.436 44.078h12.8l.832 9.98 13.7 3.46.117-.033v.015l14.184-3.993.971-16.079-31.22-.1-12.22-.041-.97-12.06 29.251-12.181 1.705-.71H1.525L.764 6.185v-.029L0 0h63.208L62.2 9.988a4 4 0 01-2.408 3.276L31.881 25.2l-.072.031H60.9l-3.329 38.253-25.643 7.486z" class="cls-2" data-name="Mask"/><g id="Oval_Copy_130-2" clip-path="url(#clip-path-2)" data-name="Oval Copy 130"><path id="Path_159_Copy" fill="url(#linear-gradient-10)" d="M0 .5A.5.5 0 01-.5 0 .5.5 0 010-.5h49.3a.5.5 0 01.242.938L5.753 24.634c44.638 0 41.829-.086 42.059.155s.227-1.521-1.142 27.456a.5.5 0 01-.356.456L26.7 58.558c-.2.059 1.216.354-21.313-4.939A.5.5 0 015 53.176l-.856-9.635a.5.5 0 01.5-.544h6.066a.5.5 0 110 1H5.191l.776 8.731 20.574 4.834 19.147-5.717 1.238-26.21H3.814a.5.5 0 01-.242-.938L47.359.5z" data-name="Path 159 Copy" transform="translate(6.144 6.169)"/></g></g><g id="Group_176_Copy_4" data-name="Group 176 Copy 4" transform="rotate(61 -3.165 77.78)"><path id="Path_121" fill="none" stroke="#ffc73c" stroke-miterlimit="10" stroke-width="2" d="M54.1 4.516l-9.52 17.176L4.73 8.848 9.408 34.5" data-name="Path 121"/><g id="Group_168" data-name="Group 168" transform="rotate(-158 10.717 20.26)"><g id="Group_32_Copy_17" data-name="Group 32 Copy 17"><circle id="Oval_Copy_123" cx="6" cy="6" r="6" class="cls-17" data-name="Oval Copy 123" transform="translate(.542 .542)"/><circle id="Oval_Copy_124" cx="6" cy="6" r="6" class="cls-17" data-name="Oval Copy 124" transform="translate(.542 .542)"/><circle id="Oval_Copy_124-2" cx="4" cy="4" r="4" class="cls-17" data-name="Oval Copy 124" transform="translate(2.542 2.542)"/><g filter="url(#Oval_Copy_63)" transform="matrix(-.12 .99 -.99 -.12 83.61 -31.4)"><circle id="Oval_Copy_63-2" cx="2.542" cy="2.542" r="2.542" fill="url(#radial-gradient-8)" data-name="Oval Copy 63" transform="matrix(-.12 -.99 .99 -.12 44.84 74.7)"/></g><path id="Combined_Shape" d="M.808 3.657A2.034 2.034 0 012.034 0a2.019 2.019 0 011.627.813 2.016 2.016 0 00-1.22-.406A2.034 2.034 0 00.809 3.655z" class="cls-19" data-name="Combined Shape" transform="translate(4 4)"/></g></g><g id="Group_32_Copy_16" data-name="Group 32 Copy 16" transform="rotate(-158 4.517 5.68)"><circle id="Oval" cx="3.445" cy="3.445" r="3.445" class="cls-20"/><path id="Combined_Shape-2" d="M1.307 5.9A3.281 3.281 0 013.281 0a3.257 3.257 0 012.626 1.313A3.251 3.251 0 003.938.656 3.281 3.281 0 001.308 5.9z" class="cls-19" data-name="Combined Shape"/></g><g id="Group_32_Copy_20" data-name="Group 32 Copy 20" transform="rotate(-158 25.225 7.808)"><circle id="Oval-2" cx="2.193" cy="2.193" r="2.193" class="cls-20" data-name="Oval"/><path id="Combined_Shape-3" d="M.83 3.754A2.088 2.088 0 012.088 0a2.072 2.072 0 011.67.835A2.069 2.069 0 002.506.418 2.088 2.088 0 00.831 3.753z" class="cls-19" data-name="Combined Shape"/></g></g><path id="Path_52_Copy_20" fill="none" stroke="#48648b" stroke-miterlimit="10" stroke-width="3" d="M20.228 51.204c-21.054.368-21.732 34.631-6.919 32.885" data-name="Path 52 Copy 20"/><g id="Group_2_Copy_9" data-name="Group 2 Copy 9" transform="rotate(90 -10.027 36.973)"><rect id="Rectangle_Copy_14" width="4.8" height="5.04" fill="#21324e" data-name="Rectangle Copy 14" rx="1.68" transform="translate(1.8 1.68)"/><rect id="Rectangle" width="8.4" height="3.36" fill="url(#linear-gradient-11)" rx="1.68"/></g></g></g></svg>