<svg xmlns="http://www.w3.org/2000/svg" width="120" height="120"><defs><linearGradient id="a" x1="22.4%" x2="82.5%" y1="5.3%" y2="95.5%"><stop offset="0%" stop-color="#FF5F94"/><stop offset="100%" stop-color="#EC454F"/></linearGradient><linearGradient id="c" x1="25.613%" x2="50%" y1="6.73%" y2="100%"><stop offset="0%" stop-color="#FF5E92"/><stop offset="100%" stop-color="#ED4653"/></linearGradient><linearGradient id="f" x1="16.941%" x2="50%" y1="100%" y2="59.095%"><stop offset="0%" stop-color="#D0396E"/><stop offset="100%" stop-color="#782D50" stop-opacity="0"/></linearGradient><linearGradient id="g" x1="84.45%" x2="53.608%" y1="2.648%" y2="50%"><stop offset="0%" stop-color="#D0396E"/><stop offset="100%" stop-color="#782D50" stop-opacity="0"/></linearGradient><linearGradient id="i" x1="50%" x2="50%" y1="0%" y2="58.508%"><stop offset="0%" stop-color="#D0396E"/><stop offset="100%" stop-color="#782D50" stop-opacity="0"/></linearGradient><linearGradient id="j" x1="0%" x2="81.013%" y1="31.301%" y2="74.117%"><stop offset="0%" stop-color="#EF4663"/><stop offset="100%" stop-color="#F44880" stop-opacity="0"/></linearGradient><linearGradient id="k" x1="0%" x2="81.013%" y1="30.058%" y2="75.72%"><stop offset="0%" stop-color="#EF4663"/><stop offset="100%" stop-color="#F44880" stop-opacity="0"/></linearGradient><linearGradient id="l" x1="0%" x2="81.013%" y1="30.474%" y2="75.184%"><stop offset="0%" stop-color="#EF4663"/><stop offset="100%" stop-color="#F44880" stop-opacity="0"/></linearGradient><linearGradient id="o" x1="74.488%" x2="-207.458%" y1="89.582%" y2="-81.619%"><stop offset="0%" stop-color="#DD1E5B"/><stop offset="100%" stop-color="#EFC7D8"/></linearGradient><linearGradient id="p" x1="-12.405%" x2="92.668%" y1="42.298%" y2="51.412%"><stop offset="0%" stop-color="#F4487D" stop-opacity=".16"/><stop offset="100%" stop-color="#FC3A78"/></linearGradient><linearGradient id="s" x1="80.884%" x2="0%" y1="0%" y2="89.582%"><stop offset="0%" stop-color="#FB3B78"/><stop offset="100%" stop-color="#EFC7D8"/></linearGradient><radialGradient id="b" cx="50%" cy="2.65%" r="67.616%" fx="50%" fy="2.65%"><stop offset="0%" stop-color="#325180"/><stop offset="100%" stop-color="#101A2A"/></radialGradient><radialGradient id="d" cx="51.976%" cy="95.069%" r="42.035%" fx="51.976%" fy="95.069%" gradientTransform="matrix(0 1 -1.23368 0 1.693 .43)"><stop offset="0%" stop-color="#5A375A"/><stop offset="100%" stop-color="#293F64" stop-opacity="0"/></radialGradient><radialGradient id="e" cx="52.598%" cy="100%" r="42.99%" fx="52.598%" fy="100%" gradientTransform="matrix(0 1 -1.23368 0 1.76 .474)"><stop offset="0%" stop-color="#FE68AB"/><stop offset="100%" stop-color="#293F64" stop-opacity="0"/></radialGradient><radialGradient id="h" cx="50%" cy="0%" r="60.138%" fx="50%" fy="0%" gradientTransform="matrix(0 1 -1.23368 0 .5 -.5)"><stop offset="0%" stop-color="#FE68AB"/><stop offset="100%" stop-color="#293F64" stop-opacity="0"/></radialGradient><radialGradient id="m" cx="50%" cy="100%" r="50.736%" fx="50%" fy="100%" gradientTransform="matrix(0 1 -1.23368 0 1.734 .5)"><stop offset="0%" stop-color="#FE68AB"/><stop offset="100%" stop-color="#293F64" stop-opacity="0"/></radialGradient><radialGradient id="n" cx="50%" cy="0%" r="50.736%" fx="50%" fy="0%" gradientTransform="matrix(0 1 -1.23368 0 .5 -.5)"><stop offset="0%" stop-color="#FE68AB"/><stop offset="100%" stop-color="#293F64" stop-opacity="0"/></radialGradient><radialGradient id="t" cx="46.522%" cy="0%" r="135.558%" fx="46.522%" fy="0%"><stop offset="0%" stop-color="#6BA0E2"/><stop offset="30.516%" stop-color="#54729A"/><stop offset="52.562%" stop-color="#385076"/><stop offset="100%" stop-color="#131E32"/></radialGradient><filter id="q" width="204.2%" height="204.2%" x="-52.1%" y="-52.1%" filterUnits="objectBoundingBox"><feGaussianBlur in="SourceGraphic" stdDeviation="2.778"/></filter><filter id="r" width="308.4%" height="308.4%" x="-104.2%" y="-104.2%" filterUnits="objectBoundingBox"><feGaussianBlur in="SourceGraphic" stdDeviation="2.778"/></filter></defs><g fill="none" fill-rule="evenodd"><circle cx="59.5" cy="59.5" r="58.5" fill="#000" fill-opacity=".15"/><path fill="url(#a)" fill-rule="nonzero" d="M59.529 119.032a59.22 59.22 0 01-33.27-10.162 59.7 59.7 0 01-21.56-26.182 59.428 59.428 0 015.487-56.43A59.659 59.659 0 0136.368 4.7a59.425 59.425 0 0156.43 5.486 59.685 59.685 0 0121.558 26.182 59.428 59.428 0 01-5.487 56.43 59.677 59.677 0 01-26.181 21.559 59.15 59.15 0 01-23.16 4.675zm0-117.025a57.249 57.249 0 00-32.161 9.823 57.677 57.677 0 00-20.84 25.307 57.444 57.444 0 005.302 54.546 57.69 57.69 0 0025.307 20.84 57.445 57.445 0 0054.546-5.304 57.685 57.685 0 0020.84-25.307 57.443 57.443 0 00-5.304-54.545 57.69 57.69 0 00-25.307-20.84 57.164 57.164 0 00-22.384-4.52z"/><circle cx="60" cy="60" r="60" fill="url(#b)"/><circle cx="60" cy="60" r="59" stroke="url(#c)" stroke-width="2"/><circle cx="60" cy="61" r="54" fill="url(#d)" opacity=".705"/><circle cx="60" cy="60" r="41" fill="url(#e)" opacity=".321"/><circle cx="60" cy="60" r="40.5" stroke="url(#f)"/><circle cx="60" cy="60" r="40.5" stroke="url(#g)"/><circle cx="60" cy="60" r="31" fill="url(#h)" opacity=".382"/><circle cx="60" cy="60" r="30.5" stroke="url(#i)"/><path stroke="url(#j)" stroke-linecap="round" stroke-linejoin="round" d="M61.955 17L25.821 66h70.554z" opacity=".626" transform="rotate(-180 61.098 41.5)"/><path stroke="url(#k)" stroke-linecap="round" stroke-linejoin="round" d="M83.837 37.883L49.938 84.736l68.32 2.147z" opacity=".626" transform="rotate(-90 84.098 62.383)"/><path stroke="url(#l)" stroke-linecap="round" stroke-linejoin="round" d="M60.955 61l-35.134 47.493H92.74z" opacity=".626"/><path stroke="url(#k)" stroke-linecap="round" stroke-linejoin="round" d="M37.072 37.883l-36.134 49 68.32-2.503z" opacity=".626" transform="rotate(90 35.098 62.383)"/><circle cx="60" cy="60" r="18" fill="url(#m)" opacity=".705"/><circle cx="60" cy="60" r="8" fill="url(#n)" opacity=".705"/><g><circle cx="2.193" cy="2.193" r="2.193" fill="url(#o)" transform="matrix(1 0 0 -1 92.741 70.392)"/><path stroke="url(#p)" stroke-linejoin="round" stroke-width="1.8" d="M0 16.533L21.474 17l35.42 37.488-.386-43.434" transform="matrix(-1 0 0 1 116.849 51)"/><circle cx="3.132" cy="3.132" r="3.132" fill="url(#o)" transform="scale(1 -1) rotate(22 308.11 95.142)"/><g transform="scale(1 -1) rotate(22 212.761 108.117)"><circle cx="8" cy="8" r="8" fill="#C42E6C" filter="url(#q)" opacity=".617"/><circle fill="#C42E6C" style="mix-blend-mode:lighten" cx="8" cy="8" r="4" filter="url(#r)"/><circle cx="8" cy="8" r="2.542" fill="url(#s)"/></g></g><path fill="url(#t)" d="M90.144 10.4c16.67 9.98 27.553 28.858 27.83 48.29.61 19.626-9.609 39.086-26.03 49.758-18.277 12.308-43.56 12.779-62.224 1.08-19.024-11.364-30.128-34.29-27.276-56.3C4.742 29.972 22.687 9.459 45.31 3.832c15.009-3.853 31.596-1.608 44.833 6.57zm19.314 43.04c-2.931-30.615-37.669-51.721-65.99-40.29-20.19 7.138-34.295 28.551-32.331 50.131.747 26.655 26.191 49.155 52.521 46.507 27.685-.809 50.364-28.802 45.8-56.349z"/></g></svg>