<svg xmlns="http://www.w3.org/2000/svg" width="120" height="120"><defs><linearGradient id="a" x1="22.4%" x2="82.5%" y1="5.3%" y2="95.5%"><stop offset="0%" stop-color="#FF5F94"/><stop offset="100%" stop-color="#EC454F"/></linearGradient><linearGradient id="c" x1="25.613%" x2="50%" y1="6.73%" y2="100%"><stop offset="0%" stop-color="#FF5E92"/><stop offset="100%" stop-color="#ED4653"/></linearGradient><linearGradient id="d" x1="50%" x2="54.392%" y1="0%" y2="98.513%"><stop offset="0%" stop-color="#5B79A2"/><stop offset="100%" stop-color="#233553"/></linearGradient><linearGradient id="e" x1="48.381%" x2="53.65%" y1="3.91%" y2="106.414%"><stop offset="0%" stop-color="#5B79A2"/><stop offset="100%" stop-color="#233553"/></linearGradient><linearGradient id="f" x1="50%" x2="50%" y1="0%" y2="100%"><stop offset="0%" stop-color="#5B79A2"/><stop offset="100%" stop-color="#2E4469"/></linearGradient><linearGradient id="g" x1="69.604%" x2="46.833%" y1="37.138%" y2="56.833%"><stop offset="0%" stop-color="#101928" stop-opacity=".383"/><stop offset="100%" stop-color="#162236" stop-opacity="0"/></linearGradient><linearGradient id="j" x1="50%" x2="50%" y1="-17.015%" y2="71.225%"><stop offset="0%" stop-color="#101928" stop-opacity=".383"/><stop offset="100%" stop-color="#162236" stop-opacity="0"/></linearGradient><linearGradient id="k" x1="50%" x2="58.064%" y1="-13.029%" y2="71.384%"><stop offset="0%" stop-color="#101928" stop-opacity=".383"/><stop offset="100%" stop-color="#162236" stop-opacity="0"/></linearGradient><linearGradient id="l" x1="50%" x2="57.681%" y1="-13.029%" y2="71.384%"><stop offset="0%" stop-color="#101928" stop-opacity=".383"/><stop offset="100%" stop-color="#162236" stop-opacity="0"/></linearGradient><linearGradient id="n" x1="22.965%" x2="50%" y1="50%" y2="31.081%"><stop offset="0%" stop-color="#101928" stop-opacity=".433"/><stop offset="100%" stop-color="#162236" stop-opacity="0"/></linearGradient><linearGradient id="o" x1="50%" x2="52.135%" y1="34.14%" y2="86.058%"><stop offset="0%" stop-color="#101928" stop-opacity=".383"/><stop offset="100%" stop-color="#162236" stop-opacity="0"/></linearGradient><linearGradient id="p" x1="33.19%" x2="50%" y1="121.13%" y2="7.693%"><stop offset="0%" stop-color="#F4487D" stop-opacity=".16"/><stop offset="100%" stop-color="#FC3A78"/></linearGradient><linearGradient id="q" x1="74.488%" x2="-207.458%" y1="89.582%" y2="-81.619%"><stop offset="0%" stop-color="#DD1E5B"/><stop offset="100%" stop-color="#EFC7D8"/></linearGradient><linearGradient id="t" x1="80.884%" x2="0%" y1="0%" y2="89.582%"><stop offset="0%" stop-color="#FB3B78"/><stop offset="100%" stop-color="#EFC7D8"/></linearGradient><radialGradient id="b" cx="50%" cy="0%" r="69.799%" fx="50%" fy="0%"><stop offset="0%" stop-color="#3D5C8D"/><stop offset="100%" stop-color="#101A2A"/></radialGradient><radialGradient id="h" cx="50%" cy="-20.1%" r="111.2%" fx="50%" fy="-20.1%" gradientTransform="matrix(1 0 0 .59098 0 -.082)"><stop offset="0%" stop-color="#6BA0E2"/><stop offset="30.5%" stop-color="#54729A"/><stop offset="52.6%" stop-color="#385076"/><stop offset="100%" stop-color="#131E32"/></radialGradient><radialGradient id="i" cx="50%" cy="-20.1%" r="111.2%" fx="50%" fy="-20.1%" gradientTransform="matrix(1 0 0 .59093 0 -.082)"><stop offset="0%" stop-color="#6BA0E2"/><stop offset="30.5%" stop-color="#54729A"/><stop offset="52.6%" stop-color="#385076"/><stop offset="100%" stop-color="#131E32"/></radialGradient><radialGradient id="m" cx="50%" cy="80.896%" r="336.365%" fx="50%" fy="80.896%" gradientTransform="matrix(0 .42105 -1 0 1.309 .598)"><stop offset="0%" stop-color="#6BA0E2"/><stop offset="30.516%" stop-color="#54729A"/><stop offset="52.562%" stop-color="#385076"/><stop offset="100%" stop-color="#131E32"/></radialGradient><filter id="r" width="204.2%" height="204.2%" x="-52.1%" y="-52.1%" filterUnits="objectBoundingBox"><feGaussianBlur in="SourceGraphic" stdDeviation="2.778"/></filter><filter id="s" width="308.4%" height="308.4%" x="-104.2%" y="-104.2%" filterUnits="objectBoundingBox"><feGaussianBlur in="SourceGraphic" stdDeviation="2.778"/></filter></defs><g fill="none" fill-rule="evenodd"><g><circle cx="59.5" cy="59.5" r="58.5" fill="#000" fill-opacity=".15"/><path fill="url(#a)" fill-rule="nonzero" d="M59.529 119.032a59.22 59.22 0 01-33.27-10.162 59.7 59.7 0 01-21.56-26.182 59.428 59.428 0 015.487-56.43A59.659 59.659 0 0136.368 4.7a59.425 59.425 0 0156.43 5.486 59.685 59.685 0 0121.558 26.182 59.428 59.428 0 01-5.487 56.43 59.677 59.677 0 01-26.181 21.559 59.15 59.15 0 01-23.16 4.675zm0-117.025a57.249 57.249 0 00-32.161 9.823 57.677 57.677 0 00-20.84 25.307 57.444 57.444 0 005.302 54.546 57.69 57.69 0 0025.307 20.84 57.445 57.445 0 0054.546-5.304 57.685 57.685 0 0020.84-25.307 57.443 57.443 0 00-5.304-54.545 57.69 57.69 0 00-25.307-20.84 57.164 57.164 0 00-22.384-4.52z"/></g><g><circle cx="60" cy="60" r="60" fill="url(#b)"/><circle cx="60" cy="60" r="59" stroke="url(#c)" stroke-width="2"/></g><path fill="url(#d)" fill-rule="nonzero" d="M29.616 4.674c25.8-11.088 57.44 9.385 60.11 39.08 4.156 26.721-16.5 53.874-41.72 54.659C24.023 100.982.846 79.157.166 53.3c-1.789-20.932 11.06-41.703 29.45-48.627z" opacity=".373" transform="translate(15 14)"/><path fill="url(#e)" fill-rule="nonzero" d="M29.616 4.58c25.8-10.746 57.44 9.095 60.11 37.872 4.156 25.894-16.5 52.207-41.72 52.967C24.023 97.909.846 76.759.166 51.703-1.623 31.418 11.226 11.29 29.616 4.58z" opacity=".701" transform="translate(15 14)"/><path fill="url(#f)" fill-rule="nonzero" d="M29.616 4.462c25.8-10.318 57.44 8.733 60.11 36.365 4.156 24.864-16.5 50.13-41.72 50.86C24.023 94.078.846 73.769.166 49.71c-1.789-19.478 11.06-38.805 29.45-45.248z" transform="translate(15 14)"/><path fill="url(#g)" d="M8.986 29.01l-5.124 2.739 10.852 8.929 5.728-7.859z" transform="translate(15 14)"/><path fill="url(#g)" d="M73.986 29.01l-5.124 2.739 10.852 8.929 5.728-7.859z" transform="matrix(-1 0 0 1 169.305 14)"/><path fill="#CFD8DC" fill-rule="nonzero" d="M38.146 23.435L59.715 87.95l21.568-64.515z"/><path fill="url(#h)" fill-rule="nonzero" d="M47.624 72.933L26.055 11.308a3.08 3.08 0 00-2.39-2.015 3.13 3.13 0 00-2.925 1.109L8.412 25.808a3.08 3.08 0 001.805 4.942l9.761 1.954-5.177 5.17a3.082 3.082 0 00-.2 4.129l27.73 33.894a3.05 3.05 0 002.384 1.134 3.135 3.135 0 001.5-.388 3.096 3.096 0 001.41-3.71z" transform="translate(15 14)"/><path fill="url(#i)" fill-rule="nonzero" d="M41.806 72.933l21.568-61.625a3.1 3.1 0 012.391-2.021 3.131 3.131 0 012.928 1.109l12.325 15.406a3.083 3.083 0 01-1.806 4.948l-9.76 1.954 5.17 5.17a3.083 3.083 0 01.21 4.129L47.098 75.897a3.055 3.055 0 01-2.385 1.134 3.138 3.138 0 01-1.5-.388 3.094 3.094 0 01-1.408-3.71z" transform="translate(15 14)"/><path fill="url(#j)" d="M41.635 22.496l-6.747 16.411 1.3 4.235 18.305-.951v-3.284l-6.698-16.41h-6.16z" transform="translate(15 14)"/><path fill="url(#k)" d="M40.225 19.682l-17.079-9.608 6.7 26.178z" transform="translate(15 14)"/><path fill="url(#l)" d="M66.225 19.682l-17.079-9.608 5.216 26.824z" transform="matrix(-1 0 0 1 130.371 14)"/><path fill="url(#m)" d="M32.39 55.462l8.994-32.977-2.832-7.079h12.326l-2.832 7.078 8.994 32.978L44.715 73.95z" transform="translate(15 14)"/><path fill="#B0BEC5" fill-rule="nonzero" d="M41.228 14h36.975L59.715 29.406z"/><path fill="url(#n)" d="M44.716 15.406L28.772 6.979 26.228 0h9.265z" opacity=".451" transform="translate(15 14)"/><path fill="url(#n)" d="M63.188 15.406L47.244 6.979 44.7 0h9.265z" opacity=".451" transform="matrix(-1 0 0 1 122.888 14)"/><path fill="#ECEFF1" fill-rule="nonzero" d="M78.202 14l3.081 9.435-9.244 18.3-12.324-12.329zm-36.975 0l-3.081 9.435 9.244 18.3 12.325-12.329z"/><path fill="url(#o)" d="M30.112 56.191c0 .948 25.457 38.531 29.604 38.496 2.764-.023 12.612-13.021 29.544-38.994-39.432-.3-59.148-.134-59.148.498z"/><g><path stroke="url(#p)" stroke-linejoin="round" stroke-width="1.8" d="M3.546 0l-.594 16.877 33.95 11.25-.385 30.425" transform="matrix(0 1 1 0 1.985 51.048)"/><circle cx="2.965" cy="2.965" r="2.5" transform="scale(-1 1) rotate(-80 36.6 64.961)" fill="url(#q)"/><circle cx="2.5" cy="2.5" r="2.5" fill="url(#q)" transform="scale(-1 1) rotate(-68 30.323 44.084)"/><g transform="scale(-1 1) rotate(-68 33.123 98.368)"><circle cx="8" cy="8" r="8" fill="#C42E6C" filter="url(#r)" opacity=".617"/><circle fill="#C42E6C" style="mix-blend-mode:lighten" cx="8" cy="8" r="4" filter="url(#s)"/><circle cx="8.458" cy="7.542" r="3" fill="url(#t)"/></g></g></g></svg>