<svg xmlns="http://www.w3.org/2000/svg" xmlns:xlink="http://www.w3.org/1999/xlink" width="120" height="120.001"><defs><radialGradient id="radial-gradient" cx=".5" cy="0" r="1" gradientUnits="objectBoundingBox"><stop offset="0" stop-color="#263a5e"/><stop offset="1" stop-color="#0c1321"/></radialGradient><radialGradient id="radial-gradient-2" cx=".5" cy=".297" r=".703" gradientUnits="objectBoundingBox"><stop offset="0" stop-color="#d12a6f"/><stop offset="1" stop-color="#83234b" stop-opacity="0"/></radialGradient><radialGradient id="radial-gradient-3" cx=".5" cy="0" r="1.139" gradientUnits="objectBoundingBox"><stop offset="0" stop-color="#6ba0e2"/><stop offset=".305" stop-color="#54729a"/><stop offset=".526" stop-color="#385076"/><stop offset="1" stop-color="#131e32"/></radialGradient><radialGradient id="radial-gradient-5" cx=".423" cy=".239" r=".535" xlink:href="#radial-gradient-2"/><radialGradient id="radial-gradient-7" cx=".5" cy=".297" r=".703" gradientUnits="objectBoundingBox"><stop offset="0" stop-color="#ad6fc3"/><stop offset="1" stop-color="#8d61e9" stop-opacity="0"/></radialGradient><radialGradient id="radial-gradient-8" cx=".329" cy=".166" r=".896" gradientUnits="objectBoundingBox"><stop offset="0" stop-color="#82baff"/><stop offset="1" stop-color="#131e32"/></radialGradient><radialGradient id="radial-gradient-9" cx=".5" cy=".5" r=".5" gradientUnits="objectBoundingBox"><stop offset="0"/><stop offset=".734" stop-opacity=".137"/><stop offset="1" stop-opacity="0"/></radialGradient><radialGradient id="radial-gradient-13" cx=".5" cy="0" r=".997" gradientUnits="objectBoundingBox"><stop offset="0" stop-color="#6facf9" stop-opacity="0"/><stop offset="1" stop-color="#131e32"/></radialGradient><radialGradient id="radial-gradient-25" cx=".5" cy=".5" r=".5" gradientUnits="objectBoundingBox"><stop offset="0" stop-color="#c42e6c"/><stop offset="1" stop-color="#621736" stop-opacity="0"/></radialGradient><radialGradient id="radial-gradient-27" cx=".5" cy=".5" r=".5" gradientUnits="objectBoundingBox"><stop offset="0" stop-color="#bc5aec"/><stop offset="1" stop-color="#bc7bdd" stop-opacity="0"/></radialGradient><radialGradient id="radial-gradient-29" cx=".5" cy=".5" r="3.869" gradientUnits="objectBoundingBox"><stop offset="0" stop-color="#fff"/><stop offset="1" stop-color="#bf67f0"/></radialGradient><linearGradient id="linear-gradient" x1=".909" y1=".795" x2=".149" y2=".148" gradientUnits="objectBoundingBox"><stop offset="0" stop-color="#764fd0"/><stop offset="1" stop-color="#c67fdd"/></linearGradient><linearGradient id="linear-gradient-2" x1=".5" y1=".615" x2=".5" y2="1" gradientUnits="objectBoundingBox"><stop offset="0" stop-color="#04060a"/><stop offset="1" stop-color="#111b30"/></linearGradient><linearGradient id="linear-gradient-3" x1=".5" y1="1.642" x2=".5" gradientUnits="objectBoundingBox"><stop offset="0" stop-color="#5b79a2"/><stop offset="1" stop-color="#182439"/></linearGradient><linearGradient id="linear-gradient-4" x1=".693" y1="1.063" x2="0" y2=".331" gradientUnits="objectBoundingBox"><stop offset="0" stop-color="#18253a" stop-opacity=".11"/><stop offset="1" stop-color="#162237" stop-opacity=".675"/></linearGradient><linearGradient id="linear-gradient-5" x1=".693" y1="1.063" x2="0" y2=".331" gradientUnits="objectBoundingBox"><stop offset="0" stop-color="#4b4d86"/><stop offset="1" stop-color="#8a2ec4"/></linearGradient><linearGradient id="linear-gradient-6" x1=".294" y1="-.722" x2=".537" y2="2.637" gradientUnits="objectBoundingBox"><stop offset="0" stop-color="#e3caf3"/><stop offset="1" stop-color="#d4c9e5" stop-opacity="0"/></linearGradient><linearGradient id="linear-gradient-7" x1=".319" y1="1" x2=".5" gradientUnits="objectBoundingBox"><stop offset="0" stop-color="#9a77eb"/><stop offset="1" stop-color="#cb7dd7"/></linearGradient><clipPath id="clip-path"><circle id="Mask_Copy" data-name="Mask Copy" class="cls-1" cx="58" cy="58" r="58"/></clipPath><clipPath id="clip-path-3"><path id="Combined_Shape" data-name="Combined Shape" d="M.36 64.5A59.363 59.363 0 010 58a57.729 57.729 0 019.906-32.428A58.17 58.17 0 0135.424 4.558a57.924 57.924 0 0155 5.348 58.17 58.17 0 0121.014 25.518A57.635 57.635 0 01116 58a58.878 58.878 0 01-.359 6.491A58.007 58.007 0 00.36 64.5z" fill="#fff" opacity=".209"/></clipPath><clipPath id="clip-path-4"><circle id="Mask_Copy-2" data-name="Mask Copy" cx="58" cy="58" r="58" stroke-width="2" stroke-miterlimit="10" stroke="#707070" fill="none"/></clipPath><clipPath id="clip-path-5"><path id="Combined_Shape-2" data-name="Combined Shape" class="cls-5" d="M103.756 77c-5.456 0-11.923-4.233-19.772-12.942a24.628 24.628 0 00-8.066-5.9 23.061 23.061 0 00-9.446-2.092H47.528a25.951 25.951 0 00-9.928 2.089 24.006 24.006 0 00-8.549 5.9A66.223 66.223 0 0118.75 73.8c-3.094 2.187-5.8 3.205-8.5 3.205a8.313 8.313 0 01-6.269-2.885C1.338 71.15 0 66.114 0 59.147A83.989 83.989 0 012.257 41.37a103.8 103.8 0 016.4-19.383c2.976-6.6 6.341-11.843 10-15.59C22.807 2.152 27.2 0 31.707 0a15.951 15.951 0 019.015 2.36A12.979 12.979 0 0050.678 7h12.644a12.978 12.978 0 009.955-4.64A15.955 15.955 0 0182.293 0c4.511 0 8.9 2.152 13.045 6.4 3.66 3.748 7.024 8.993 10 15.59a103.8 103.8 0 016.4 19.383A83.989 83.989 0 01114 59.147a29.7 29.7 0 01-2.012 11.791c-1.713 3.909-4.637 6.062-8.232 6.062z"/></clipPath><clipPath id="clip-path-7"><path id="Combined_Shape_Copy_15" data-name="Combined Shape Copy 15" d="M103.756 77c-5.456 0-11.923-4.233-19.772-12.942a24.628 24.628 0 00-8.066-5.9 23.061 23.061 0 00-9.446-2.092H47.528a25.951 25.951 0 00-9.928 2.089 24.006 24.006 0 00-8.549 5.9A66.223 66.223 0 0118.75 73.8c-3.094 2.187-5.8 3.205-8.5 3.205a8.313 8.313 0 01-6.269-2.885C1.338 71.15 0 66.114 0 59.147A83.989 83.989 0 012.257 41.37a103.8 103.8 0 016.4-19.383c2.976-6.6 6.341-11.843 10-15.59C22.807 2.152 27.2 0 31.707 0a15.951 15.951 0 019.015 2.36A12.979 12.979 0 0050.678 7h12.644a12.978 12.978 0 009.955-4.64A15.955 15.955 0 0182.293 0c4.511 0 8.9 2.152 13.045 6.4 3.66 3.748 7.024 8.993 10 15.59a103.8 103.8 0 016.4 19.383A83.989 83.989 0 01114 59.147a29.7 29.7 0 01-2.012 11.791c-1.713 3.909-4.637 6.062-8.232 6.062z" opacity=".829" fill="url(#radial-gradient-5)"/></clipPath><filter id="Rectangle" x="44.001" y="30.823" width="31.999" height="11.995" filterUnits="userSpaceOnUse"><feOffset/><feGaussianBlur stdDeviation="1.5" result="blur"/><feFlood flood-color="#f35e9c"/><feComposite operator="in" in2="blur"/><feComposite in="SourceGraphic"/></filter><filter id="Rectangle_Copy_86" x="49.5" y="36.137" width="20.999" height="11.991" filterUnits="userSpaceOnUse"><feOffset/><feGaussianBlur stdDeviation="1.5" result="blur-2"/><feFlood flood-color="#f35e9c"/><feComposite operator="in" in2="blur-2"/><feComposite in="SourceGraphic"/></filter><style>.cls-1{fill:url(#radial-gradient)}.cls-5{fill:url(#radial-gradient-3)}.cls-34{isolation:isolate}.cls-28{fill:url(#radial-gradient-7)}.cls-23{fill:url(#radial-gradient-13)}.cls-24{fill:#0c1321}.cls-28{opacity:.697}.cls-34{mix-blend-mode:lighten;fill:url(#radial-gradient-25)}.cls-35{fill:url(#radial-gradient-27)}.cls-36{fill:url(#linear-gradient-7)}.cls-37{fill:rgba(255,255,255,.2)}.cls-38{opacity:.752;fill:url(#radial-gradient-29)}</style></defs><g id="tooling-git-gud" transform="translate(-804 -530)"><g id="Color_Crown_Shadow" data-name="Color Crown + Shadow" transform="translate(3260 920)"><g id="Color_Crown" data-name="Color Crown" transform="translate(-2456 -390)"><path id="Ring" d="M780 826a59.72 59.72 0 01-33.547-10.247 60.176 60.176 0 01-21.739-26.4 59.921 59.921 0 015.532-56.9 60.176 60.176 0 0126.4-21.738 59.92 59.92 0 0156.9 5.532 60.174 60.174 0 0121.738 26.4 59.923 59.923 0 01-5.532 56.9 60.174 60.174 0 01-26.4 21.739A59.623 59.623 0 01780 826zm0-118a57.729 57.729 0 00-32.429 9.905 58.167 58.167 0 00-21.014 25.518 57.924 57.924 0 005.348 55 58.169 58.169 0 0025.518 21.014 57.923 57.923 0 0055-5.348 58.17 58.17 0 0021.014-25.518 57.924 57.924 0 00-5.348-55 58.171 58.171 0 00-25.518-21.013A57.638 57.638 0 00780 708z" transform="translate(-720 -706)" fill="url(#linear-gradient)"/></g></g><g id="laravel-git-good" transform="translate(806 532)" style="isolation:isolate"><circle id="Mask_Copy-3" data-name="Mask Copy" class="cls-1" cx="58" cy="58" r="58"/><circle id="Mask_Copy_42-2" data-name="Mask Copy 42" cx="58" cy="58" r="58" fill="url(#radial-gradient-7)"/><path id="Combined_Shape-4" data-name="Combined Shape" d="M.36 64.5A59.363 59.363 0 010 58a57.729 57.729 0 019.906-32.428A58.17 58.17 0 0135.424 4.558a57.924 57.924 0 0155 5.348 58.17 58.17 0 0121.014 25.518A57.635 57.635 0 01116 58a58.878 58.878 0 01-.359 6.491A58.007 58.007 0 00.36 64.5z" opacity=".121" fill="url(#radial-gradient-8)"/><path id="Shape_Copy_69" data-name="Shape Copy 69" d="M30.016 64.058c4.573-5.081 11.1-10.994 17.512-10.994h18.944c6.412 0 12.939 5.913 17.512 10.994C91.834 72.768 98.3 77 103.755 77c3.594 0 6.52-2.154 8.232-6.062A29.811 29.811 0 00114 59.147C114 38.916 101.472 0 82.294 0A16.34 16.34 0 0071.41 3.629a16.219 16.219 0 01-7.168 3.24c-5.092.11-6.474.11-8.589.11h-5.169a16.178 16.178 0 01-7.893-3.35A16.34 16.34 0 0031.707 0C12.529 0 0 38.916 0 59.147 0 75.259 7.188 77 10.245 77c5.455 0 11.921-4.232 19.771-12.942z" transform="translate(1 27)" fill="url(#linear-gradient-2)"/><path id="Shape_Copy_72" data-name="Shape Copy 72" d="M30.016 64.058c4.573-5.081 11.1-10.994 17.512-10.994h18.944c6.412 0 12.939 5.913 17.512 10.994C91.834 72.768 98.3 74 103.755 74c3.594 0 6.52-.154 8.232-4.062A29.811 29.811 0 00114 58.147C114 37.916 101.472 0 82.294 0A16.34 16.34 0 0071.41 3.629a16.219 16.219 0 01-7.168 3.24c-5.092.11-6.474.11-8.589.11h-5.169a16.178 16.178 0 01-7.893-3.35A16.34 16.34 0 0031.707 0C12.529 0 0 37.916 0 58.147 0 74.259 7.188 74 10.245 74c5.455 0 11.921-1.232 19.771-9.942z" transform="translate(1 24.652)" fill="#1a273e"/><ellipse id="Oval" cx="22" cy="6.5" rx="22" ry="6.5" transform="translate(36 84.99)" fill="url(#radial-gradient-9)"/><path id="Path_52_Copy_3" data-name="Path 52 Copy 3" d="M57.596 84.845c.4 22.742 14.686 10.615 20.461 26.26" stroke="#18263c" stroke-width="2.5" stroke-miterlimit="10" fill="none"/><g id="Group_2" data-name="Group 2" transform="translate(52 77.101)"><rect id="Rectangle_Copy_14" data-name="Rectangle Copy 14" width="6.857" height="7.2" rx="2.4" transform="translate(2.571 2.4)" fill="#21324e"/><rect id="Rectangle-2" data-name="Rectangle" width="12" height="4.8" rx="2.4" fill="url(#linear-gradient-3)"/></g><g id="Path_64" data-name="Path 64" transform="translate(1 21.767)"><path id="Combined_Shape-5" data-name="Combined Shape" class="cls-5" d="M103.756 77c-5.456 0-11.923-4.233-19.772-12.942a24.628 24.628 0 00-8.066-5.9 23.061 23.061 0 00-9.446-2.092H47.528a25.951 25.951 0 00-9.928 2.089 24.006 24.006 0 00-8.549 5.9A66.223 66.223 0 0118.75 73.8c-3.094 2.187-5.8 3.205-8.5 3.205a8.313 8.313 0 01-6.269-2.885C1.338 71.15 0 66.114 0 59.147A83.989 83.989 0 012.257 41.37a103.8 103.8 0 016.4-19.383c2.976-6.6 6.341-11.843 10-15.59C22.807 2.152 27.2 0 31.707 0a15.951 15.951 0 019.015 2.36A12.979 12.979 0 0050.678 7h12.644a12.978 12.978 0 009.955-4.64A15.955 15.955 0 0182.293 0c4.511 0 8.9 2.152 13.045 6.4 3.66 3.748 7.024 8.993 10 15.59a103.8 103.8 0 016.4 19.383A83.989 83.989 0 01114 59.147a29.7 29.7 0 01-2.012 11.791c-1.713 3.909-4.637 6.062-8.232 6.062z"/><path id="Combined_Shape-6" data-name="Combined Shape" class="cls-5" d="M103.756 77c-5.456 0-11.923-4.233-19.772-12.942a24.628 24.628 0 00-8.066-5.9 23.061 23.061 0 00-9.446-2.092H47.528a25.951 25.951 0 00-9.928 2.089 24.006 24.006 0 00-8.549 5.9A66.223 66.223 0 0118.75 73.8c-3.094 2.187-5.8 3.205-8.5 3.205a8.313 8.313 0 01-6.269-2.885C1.338 71.15 0 66.114 0 59.147A83.989 83.989 0 012.257 41.37a103.8 103.8 0 016.4-19.383c2.976-6.6 6.341-11.843 10-15.59C22.807 2.152 27.2 0 31.707 0a15.951 15.951 0 019.015 2.36A12.979 12.979 0 0050.678 7h12.644a12.978 12.978 0 009.955-4.64A15.955 15.955 0 0182.293 0c4.511 0 8.9 2.152 13.045 6.4 3.66 3.748 7.024 8.993 10 15.59a103.8 103.8 0 016.4 19.383A83.989 83.989 0 01114 59.147a29.7 29.7 0 01-2.012 11.791c-1.713 3.909-4.637 6.062-8.232 6.062z"/><path id="Combined_Shape_Copy_15-2" data-name="Combined Shape Copy 15" d="M103.756 77c-5.456 0-11.923-4.233-19.772-12.942a24.628 24.628 0 00-8.066-5.9 23.061 23.061 0 00-9.446-2.092H47.528a25.951 25.951 0 00-9.928 2.089 24.006 24.006 0 00-8.549 5.9A66.223 66.223 0 0118.75 73.8c-3.094 2.187-5.8 3.205-8.5 3.205a8.313 8.313 0 01-6.269-2.885C1.338 71.15 0 66.114 0 59.147A83.989 83.989 0 012.257 41.37a103.8 103.8 0 016.4-19.383c2.976-6.6 6.341-11.843 10-15.59C22.807 2.152 27.2 0 31.707 0a15.951 15.951 0 019.015 2.36A12.979 12.979 0 0050.678 7h12.644a12.978 12.978 0 009.955-4.64A15.955 15.955 0 0182.293 0c4.511 0 8.9 2.152 13.045 6.4 3.66 3.748 7.024 8.993 10 15.59a103.8 103.8 0 016.4 19.383A83.989 83.989 0 01114 59.147a29.7 29.7 0 01-2.012 11.791c-1.713 3.909-4.637 6.062-8.232 6.062z" opacity=".751" fill="url(#radial-gradient-7)"/><g id="Path_64-4" data-name="Path 64" clip-path="url(#clip-path-7)"><path id="Combined_Shape-7" data-name="Combined Shape" class="cls-23" d="M50.9 86.64A79.668 79.668 0 0054.106 64a79.55 79.55 0 00-3.3-22.965A64.029 64.029 0 0041.8 22.281 44.411 44.411 0 0028.439 9.637 31.715 31.715 0 0012.081 5 31 31 0 00.113 7.427L0 7.474a35.117 35.117 0 019.591-5.517A30.418 30.418 0 0120.293 0a31 31 0 0115.418 4.165A41.108 41.108 0 0148.3 15.523a56.413 56.413 0 018.49 16.847A68.354 68.354 0 0159.9 53a69.063 69.063 0 01-2.39 18.182A59.287 59.287 0 0150.9 86.64z" transform="translate(55.067 -6)"/><g id="Group_16" data-name="Group 16" transform="translate(53.136 38)"><ellipse id="Oval_Copy_68" data-name="Oval Copy 68" class="cls-24" cx=".406" cy=".42" rx=".406" ry=".42" transform="translate(0 4.06)"/><ellipse id="Oval_Copy_69" data-name="Oval Copy 69" class="cls-24" cx=".406" cy=".42" rx=".406" ry=".42" transform="translate(2.577 4.06)"/><ellipse id="Oval_Copy_73" data-name="Oval Copy 73" class="cls-24" cx=".406" cy=".42" rx=".406" ry=".42" transform="translate(5.154 4.06)"/><ellipse id="Oval_Copy_74" data-name="Oval Copy 74" class="cls-24" cx=".406" cy=".42" rx=".406" ry=".42" transform="translate(7.731 4.06)"/><ellipse id="Oval_Copy_77" data-name="Oval Copy 77" class="cls-24" cx=".406" cy=".42" rx=".406" ry=".42" transform="translate(.867 2.038)"/><ellipse id="Oval_Copy_78" data-name="Oval Copy 78" class="cls-24" cx=".406" cy=".42" rx=".406" ry=".42" transform="translate(3.927 2.038)"/><ellipse id="Oval_Copy_79" data-name="Oval Copy 79" class="cls-24" cx=".406" cy=".42" rx=".406" ry=".42" transform="translate(6.988 2.038)"/><ellipse id="Oval_Copy_75" data-name="Oval Copy 75" class="cls-24" cx=".406" cy=".42" rx=".406" ry=".42" transform="translate(2.57)"/><ellipse id="Oval_Copy_76" data-name="Oval Copy 76" class="cls-24" cx=".406" cy=".42" rx=".406" ry=".42" transform="translate(5.245)"/></g><path id="Combined_Shape-8" data-name="Combined Shape" class="cls-23" d="M14.537 94.032a49.482 49.482 0 01-6.013-8.182 58.147 58.147 0 01-4.582-9.773 65.336 65.336 0 01-2.918-11.053A70.589 70.589 0 010 53a68.354 68.354 0 013.113-20.63A56.412 56.412 0 0111.6 15.523 41.108 41.108 0 0124.192 4.165 31 31 0 0139.611 0a30.315 30.315 0 019.422 1.509A33.847 33.847 0 0157.64 5.8a30.588 30.588 0 00-6.92-.8 30.991 30.991 0 00-11.967 2.427 38.362 38.362 0 00-12.029 8.131A53.274 53.274 0 0017.206 28.4a69.214 69.214 0 00-6.259 16.5A80.791 80.791 0 008.695 64a81.722 81.722 0 001.53 15.832 73.082 73.082 0 004.314 14.2z" transform="translate(-2.898 -7)"/><path id="Oval-2" data-name="Oval" class="cls-24" d="M15.458 33c15.458 0 15.458-7.387 15.458-16.5S23.995 0 15.458 0 0 7.387 0 16.5 0 33 15.458 33z" transform="translate(41.542 -9)"/><path id="Oval-3" data-name="Oval" d="M17.39 35c17.39 0 17.39-7.835 17.39-17.5A17.39 17.39 0 100 17.5C0 27.165 0 35 17.39 35z" transform="translate(39.61 -9)" fill="url(#linear-gradient-4)"/><path id="Oval_Copy_64" data-name="Oval Copy 64" d="M15.458 33c15.458 0 15.458-7.387 15.458-16.5S23.995 0 15.458 0 0 7.387 0 16.5 0 33 15.458 33z" transform="translate(41.542 -9)" fill="url(#linear-gradient-5)"/><path id="Combined_Shape-9" data-name="Combined Shape" d="M.232 15.031A68.956 68.956 0 010 8.03v-.682c0-2.956.825-4.943 2.519-6.072S6.55 0 8.62 0c1 0 2.02.041 3.1.084s2.18.088 3.271.088c1.071 0 2.2-.044 3.283-.086S20.49 0 21.563 0c3.964 0 5.594.682 6.571 1.276 1.872 1.138 2.783 3.125 2.783 6.073a57.267 57.267 0 01-.367 7.454c-2.6-4.224-8.522-6.954-15.091-6.954A21.542 21.542 0 006.176 9.86a13.43 13.43 0 00-5.943 5.169z" transform="translate(41.541 -.849)" fill="#2f2a53" opacity=".276"/></g></g><g id="Group_175" data-name="Group 175" transform="translate(73 41.226)"><g id="Group_174" data-name="Group 174" transform="translate(8.64)"><circle id="Oval-4" data-name="Oval" class="cls-24" cx="4.8" cy="4.8" r="4.8"/><circle id="Oval_Copy_45" data-name="Oval Copy 45" class="cls-5" cx="3" cy="3" r="3" transform="translate(1.8 1.8)"/><circle id="Oval_Copy_45-2" data-name="Oval Copy 45" class="cls-28" cx="3" cy="3" r="3" transform="translate(1.8 1.8)"/></g><g id="Group_171" data-name="Group 171" transform="translate(8.64 13.44)"><circle id="Oval_Copy_27" data-name="Oval Copy 27" class="cls-24" cx="4.8" cy="4.8" r="4.8"/><circle id="Oval_Copy_59" data-name="Oval Copy 59" class="cls-5" cx="3" cy="3" r="3" transform="translate(1.8 1.8)"/><circle id="Oval_Copy_59-2" data-name="Oval Copy 59" class="cls-28" cx="3" cy="3" r="3" transform="translate(1.8 1.8)"/></g><g id="Group_173" data-name="Group 173" transform="translate(0 6.72)"><circle id="Oval_Copy_29" data-name="Oval Copy 29" class="cls-24" cx="4.8" cy="4.8" r="4.8"/><circle id="Oval_Copy_44" data-name="Oval Copy 44" class="cls-5" cx="3" cy="3" r="3" transform="translate(1.8 1.8)"/><circle id="Oval_Copy_44-2" data-name="Oval Copy 44" class="cls-28" cx="3" cy="3" r="3" transform="translate(1.8 1.8)"/></g><g id="Group_170" data-name="Group 170" transform="translate(17.28 6.72)"><circle id="Oval_Copy_30" data-name="Oval Copy 30" class="cls-24" cx="4.8" cy="4.8" r="4.8"/><circle id="Oval_Copy_57" data-name="Oval Copy 57" class="cls-5" cx="3" cy="3" r="3" transform="translate(1.8 1.8)"/><circle id="Oval_Copy_57-2" data-name="Oval Copy 57" class="cls-28" cx="3" cy="3" r="3" transform="translate(1.8 1.8)"/></g></g><g id="Group" transform="translate(17.25 41.304)"><circle id="Oval-5" data-name="Oval" class="cls-24" cx="12" cy="12" r="12"/><circle id="Oval-6" data-name="Oval" class="cls-5" cx="7.2" cy="7.2" r="7.2" transform="translate(4.8 4.8)"/><circle id="Oval-7" data-name="Oval" class="cls-28" cx="7.2" cy="7.2" r="7.2" transform="translate(4.8 4.8)"/><g id="Oval_Copy_70" data-name="Oval Copy 70" transform="translate(4.8 4.8)" stroke-width=".3" opacity=".4" stroke-miterlimit="10" stroke="#707070" fill="none"><circle cx="7.2" cy="7.2" r="7.2" stroke="none"/><circle cx="7.2" cy="7.2" r="7.05"/></g><path id="Combined_Shape-10" data-name="Combined Shape" d="M3.436 13.339a7.2 7.2 0 119.723-10.181 7.2 7.2 0 00-9.722 10.18z" transform="translate(4.8 4.8)" fill="#ff86c4" opacity=".124"/></g><g id="Group_180" data-name="Group 180" transform="translate(49 67.565)"><rect id="Rectangle-3" data-name="Rectangle" class="cls-24" width="18" height="5" rx="2.5"/><rect id="Rectangle_Copy_84" data-name="Rectangle Copy 84" width="14" height="1" rx=".5" transform="translate(2 2)" fill="url(#linear-gradient-6)"/><path id="Combined_Shape-11" data-name="Combined Shape" d="M1.12 4.585A2.586 2.586 0 011 4.5 2.5 2.5 0 012.5 0h13A2.5 2.5 0 0118 2.434 3.051 3.051 0 0016.45 2H4.5a3.506 3.506 0 00-3.379 2.584z" fill="#ffa1d1" opacity=".203"/></g><g id="Group_176" data-name="Group 176" transform="translate(31.072 5.046)"><path id="Path_121" data-name="Path 121" d="M40.723 21.458l-8.661-19.3-28.233 14.8 13.953 19.5" stroke="#8b60ed" stroke-width="2" stroke-miterlimit="10" fill="none"/><g id="Group_168" data-name="Group 168" transform="rotate(-158 15.682 21.294)"><g id="Group_32_Copy_17" data-name="Group 32 Copy 17"><circle id="Oval_Copy_65" data-name="Oval Copy 65" class="cls-34" cx="8" cy="8" r="8"/><circle id="Oval_Copy_65-2" data-name="Oval Copy 65" class="cls-34" cx="8" cy="8" r="8"/><circle id="Oval_Copy_65-3" data-name="Oval Copy 65" class="cls-35" cx="8" cy="8" r="8"/><circle id="Oval_Copy_71" data-name="Oval Copy 71" class="cls-35" cx="4" cy="4" r="4" transform="translate(4 4)"/><circle id="Oval_Copy_63" data-name="Oval Copy 63" class="cls-36" cx="2.542" cy="2.542" r="2.542" transform="translate(5.458 5.458)"/><path id="Combined_Shape-12" data-name="Combined Shape" class="cls-37" d="M.808 3.657A2.034 2.034 0 012.034 0a2.019 2.019 0 011.627.813 2.016 2.016 0 00-1.22-.406A2.034 2.034 0 00.809 3.655z" transform="translate(5.458 5.458)"/></g></g><g id="Group_32_Copy_16" data-name="Group 32 Copy 16" transform="rotate(-158 5.115 10.24)"><circle id="Oval-8" data-name="Oval" class="cls-36" cx="3.501" cy="3.501" r="3.501"/><path id="Combined_Shape-13" data-name="Combined Shape" class="cls-37" d="M.66 5.33A3.353 3.353 0 010 4.669a3.354 3.354 0 00.405.261 3.344 3.344 0 00.256.4zM5.329.662a3.346 3.346 0 00-.4-.256A3.344 3.344 0 004.669 0a3.352 3.352 0 01.661.66z" transform="translate(2.001 2.001)"/></g><g id="Group_32_Copy_20" data-name="Group 32 Copy 20" transform="rotate(-158 17.137 -.37)"><circle id="Oval-9" data-name="Oval" class="cls-36" cx="3.193" cy="3.193" r="3.193" transform="translate(-1 -1)"/><path id="Combined_Shape-14" data-name="Combined Shape" class="cls-37" d="M1.664 4.588a2.1 2.1 0 01-.41-.412 2.108 2.108 0 00.253.163 2.088 2.088 0 00.158.247zm2.923-2.923a2.091 2.091 0 00-.247-.158 2.1 2.1 0 00-.163-.253 2.1 2.1 0 01.412.41z"/></g></g><g transform="translate(-2 -2)" filter="url(#Rectangle)"><path id="Rectangle-4" data-name="Rectangle" class="cls-38" d="M0 1.482A1.485 1.485 0 011.48 0a1.489 1.489 0 011.484 1.483L3 21.517A1.485 1.485 0 011.516 23a1.489 1.489 0 01-1.485-1.484z" transform="rotate(-90 43.41 -5.09)"/></g><g transform="translate(-2 -2)" filter="url(#Rectangle_Copy_86)"><path id="Rectangle_Copy_86-2" data-name="Rectangle Copy 86" class="cls-38" d="M0 1.482A1.484 1.484 0 011.478 0a1.491 1.491 0 011.486 1.483l.027 9.035A1.484 1.484 0 011.513 12a1.491 1.491 0 01-1.486-1.483z" transform="rotate(-90 48.815 -5.185)"/></g></g></g></svg>