<svg width="120" height="120" xmlns="http://www.w3.org/2000/svg" xmlns:xlink="http://www.w3.org/1999/xlink"><defs><linearGradient x1="22.4%" y1="5.3%" x2="82.5%" y2="95.5%" id="a"><stop stop-color="#FF5F94" offset="0%"/><stop stop-color="#EC454F" offset="100%"/></linearGradient><linearGradient x1="25.613%" y1="6.73%" x2="50%" y2="100%" id="b"><stop stop-color="#FF5E92" offset="0%"/><stop stop-color="#ED4653" offset="100%"/></linearGradient><linearGradient x1="50%" y1="164.2%" x2="50%" y2="0%" id="f"><stop stop-color="#5B79A2" offset="0%"/><stop stop-color="#182439" offset="100%"/></linearGradient><linearGradient x1="4.503%" y1="0%" x2="96.297%" y2="112.975%" id="h"><stop stop-color="#85A1C6" offset="0%"/><stop stop-color="#1B283E" offset="100%"/></linearGradient><linearGradient x1="80.884%" y1="49.704%" x2="0%" y2="50.234%" id="m"><stop stop-color="#FB3B78" offset="0%"/><stop stop-color="#EFC7D8" offset="100%"/></linearGradient><linearGradient x1="-21.407%" y1="46.226%" x2="52.563%" y2="50.61%" id="t"><stop stop-color="#F4487D" stop-opacity=".16" offset="0%"/><stop stop-color="#FF709D" offset="100%"/></linearGradient><linearGradient x1="74.488%" y1="89.582%" x2="-207.458%" y2="-81.619%" id="u"><stop stop-color="#DD1E5B" offset="0%"/><stop stop-color="#EFC7D8" offset="100%"/></linearGradient><linearGradient x1="80.884%" y1="0%" x2="0%" y2="89.582%" id="x"><stop stop-color="#FB3B78" offset="0%"/><stop stop-color="#EFC7D8" offset="100%"/></linearGradient><filter x="-525%" y="-23.9%" width="1150%" height="147.7%" filterUnits="objectBoundingBox" id="n"><feOffset in="SourceAlpha" result="shadowOffsetOuter1"/><feGaussianBlur stdDeviation="3.5" in="shadowOffsetOuter1" result="shadowBlurOuter1"/><feColorMatrix values="0 0 0 0 0.942370429 0 0 0 0 0.325986905 0 0 0 0 0.580758761 0 0 0 1 0" in="shadowBlurOuter1"/></filter><filter x="-20.2%" y="-23.9%" width="140.4%" height="147.7%" filterUnits="objectBoundingBox" id="p"><feOffset in="SourceAlpha" result="shadowOffsetOuter1"/><feGaussianBlur stdDeviation="3.5" in="shadowOffsetOuter1" result="shadowBlurOuter1"/><feColorMatrix values="0 0 0 0 0.942370429 0 0 0 0 0.325986905 0 0 0 0 0.580758761 0 0 0 1 0" in="shadowBlurOuter1"/></filter><filter x="-52.5%" y="-116.6%" width="205%" height="333.3%" filterUnits="objectBoundingBox" id="r"><feOffset in="SourceAlpha" result="shadowOffsetOuter1"/><feGaussianBlur stdDeviation="3.5" in="shadowOffsetOuter1" result="shadowBlurOuter1"/><feColorMatrix values="0 0 0 0 0.942370429 0 0 0 0 0.325986905 0 0 0 0 0.580758761 0 0 0 1 0" in="shadowBlurOuter1"/></filter><filter x="-52.1%" y="-52.1%" width="204.2%" height="204.2%" filterUnits="objectBoundingBox" id="v"><feGaussianBlur stdDeviation="2.778" in="SourceGraphic"/></filter><filter x="-104.2%" y="-104.2%" width="308.4%" height="308.4%" filterUnits="objectBoundingBox" id="w"><feGaussianBlur stdDeviation="2.778" in="SourceGraphic"/></filter><radialGradient cx="120.045%" cy="143.546%" fx="120.045%" fy="143.546%" r="185.186%" gradientTransform="matrix(.42813 -.07172 .03992 1.29355 .63 -.335)" id="e"><stop stop-color="#D12A6F" offset="0%"/><stop stop-color="#83234B" stop-opacity="0" offset="100%"/></radialGradient><radialGradient cx="111.798%" cy="252.497%" fx="111.798%" fy="252.497%" r="378.574%" gradientTransform="matrix(.20943 -.03508 .00953 1.29609 .86 -.708)" id="g"><stop stop-color="#D12A6F" offset="0%"/><stop stop-color="#83234B" stop-opacity="0" offset="100%"/></radialGradient><radialGradient cx="100%" cy="111.02%" fx="100%" fy="111.02%" r="80.389%" gradientTransform="matrix(.98626 -.1652 .21426 1.27907 -.224 -.145)" id="i"><stop stop-color="#D12A6F" offset="0%"/><stop stop-color="#83234B" stop-opacity="0" offset="100%"/></radialGradient><radialGradient cx="7.562%" cy="-3.007%" fx="7.562%" fy="-3.007%" r="80.389%" gradientTransform="matrix(.98626 -.1652 .21426 1.27907 .007 .02)" id="j"><stop stop-color="#FFD8EE" offset="0%"/><stop stop-color="#FE3387" stop-opacity="0" offset="100%"/></radialGradient><path d="M19.299 1.242C29.152.414 38.604 0 47.655 0c8.512 0 17.023.366 25.533 1.099 9.703.835 17.394 8.537 18.214 18.24.695 8.215 1.042 16.738 1.042 25.57 0 6.704-.2 12.73-.6 18.077-.732 9.784-8.454 17.592-18.23 18.434-7.936.683-16.36 1.024-25.275 1.024-9.78 0-19.562-.41-29.345-1.233C9.26 80.393 1.542 72.663.737 62.928.246 56.98 0 50.601 0 43.793c0-8.113.35-16.225 1.047-24.336C1.883 9.75 9.591 2.058 19.3 1.242z" id="k"/><path d="M2 42v2H0v-2h2zm0-6v2H0v-2h2zm0-6v2H0v-2h2zm0-6v2H0v-2h2zm0-6v2H0v-2h2zm0-6v2H0v-2h2zm0-6v2H0V6h2zm0-6v2H0V0h2z" id="o"/><path d="M30 42v2h-6v-2h6zm17 0v2H35v-2h12zm10 0v2h-6v-2h6zm10 0v2h-6v-2h6zm-37-6v2h-6v-2h6zm27 0v2H35v-2h22zm10 0v2h-6v-2h6zm-46-6v2h-6v-2h6zm16-6v2H24v-2h13zm20 0v2H41v-2h16zm10 0v2h-6v-2h6zm-30-6v2H24v-2h13zm10 0v2h-6v-2h6zm10 0v2h-6v-2h6zm10 0v2h-6v-2h6zm-46-6v2h-6v-2h6zm16-6v2H15V6h22zm17 0v2H41V6h13zM21 0v2h-6V0h6zm19 0v2H25V0h15z" id="q"/><path d="M64.938 98.502a.65.65 0 01.378.12l6.346 3.78a.69.69 0 01.333.517l.003.033v.096l-.003.033a.69.69 0 01-.333.516l-6.39 3.806a.658.658 0 01-.138.063h-.01a.652.652 0 01-.729-.256c-.003-.008-.008-.015-.012-.022a.654.654 0 01-.073-.153l-.006-.023a.66.66 0 01-.026-.245l.001-3.083h-1.166l-.075-.006-2.426 2.918H57.15l3.268-3.697-3.268-3.21h3.462l2.525 2.637h3.626a.679.679 0 110 1.358h-1.167v1.958L70.032 103l-4.436-2.643v.61a.658.658 0 11-1.316 0l-.002-1.734a.69.69 0 01.006-.157l-.002.024.008-.055.008-.039.02-.066.008-.02a.656.656 0 01.612-.418zm-9.476 1.187l3.074 3.21-3.074 3.697H52l3.268-3.697L52 99.69h3.462z" id="s"/><circle id="c" cx="58.5" cy="58.5" r="58.5"/></defs><g fill="none" fill-rule="evenodd"><circle fill-opacity=".15" fill="#000" cx="59.5" cy="59.5" r="58.5"/><path d="M59.529 119.032a59.227 59.227 0 01-33.27-10.162 59.679 59.679 0 01-21.56-26.182 59.426 59.426 0 015.487-56.43A59.679 59.679 0 0136.368 4.7a59.425 59.425 0 0156.43 5.486 59.677 59.677 0 0121.558 26.182 59.428 59.428 0 01-5.487 56.43 59.677 59.677 0 01-26.181 21.559 59.132 59.132 0 01-23.16 4.675zm0-117.025a57.253 57.253 0 00-32.161 9.823 57.686 57.686 0 00-20.84 25.307 57.445 57.445 0 005.303 54.546 57.688 57.688 0 0025.307 20.84 57.444 57.444 0 0054.546-5.304 57.69 57.69 0 0020.84-25.307 57.445 57.445 0 00-5.304-54.545 57.69 57.69 0 00-25.307-20.84 57.163 57.163 0 00-22.384-4.52z" fill="url(#a)" fill-rule="nonzero"/><circle fill-opacity=".15" fill="#000" cx="60" cy="60" r="60"/><circle stroke="url(#b)" stroke-width="2" cx="60" cy="60" r="59"/><g transform="translate(1 1)"><mask id="d" fill="#fff"><use xlink:href="#c"/></mask><use fill="#0D1422" xlink:href="#c"/><g mask="url(#d)"><path d="M49.328 111.466H43.25c-1.83.001-1.112-.754-1.112-2.466" stroke="#253857" stroke-width="2"/><path d="M68 111.466h6.076c1.83.001 1.113-.754 1.113-2.466" stroke="#5F365C" stroke-width="2"/><g fill-rule="nonzero" transform="translate(47.978 109.37)"><rect fill="#21324E" x="4.286" y="2.095" width="11.427" height="4.905" rx="1.59"/><rect fill="url(#e)" opacity=".829" x="4.286" y="2.095" width="11.427" height="4.905" rx="1.59"/><rect fill="url(#f)" width="20" height="4.191" rx="1.59"/><rect fill="url(#g)" opacity=".829" width="20" height="4.191" rx="1.59"/></g></g></g><path d="M59.529 119.032a59.227 59.227 0 01-33.27-10.162 59.679 59.679 0 01-21.56-26.182 59.426 59.426 0 015.487-56.43A59.679 59.679 0 0136.368 4.7a59.425 59.425 0 0156.43 5.486 59.677 59.677 0 0121.558 26.182 59.428 59.428 0 01-5.487 56.43 59.677 59.677 0 01-26.181 21.559 59.132 59.132 0 01-23.16 4.675zm0-117.025a57.253 57.253 0 00-32.161 9.823 57.686 57.686 0 00-20.84 25.307 57.445 57.445 0 005.303 54.546 57.688 57.688 0 0025.307 20.84 57.444 57.444 0 0054.546-5.304 57.69 57.69 0 0020.84-25.307 57.445 57.445 0 00-5.304-54.545 57.69 57.69 0 00-25.307-20.84 57.163 57.163 0 00-22.384-4.52z" fill="url(#a)" fill-rule="nonzero"/><path d="M30.674 8.318C41.413 7.439 51.725 7 61.612 7c9.25 0 18.498.384 27.746 1.153 11.498.956 20.616 10.09 21.551 21.59.727 8.936 1.091 18.196 1.091 27.78 0 10.29-.42 20.58-1.258 30.873-.939 11.525-10.096 20.67-21.623 21.592-8.43.675-17.343 1.012-26.738 1.012-10.457 0-20.916-.418-31.376-1.253-11.535-.922-20.697-10.077-21.628-21.611C8.46 76.759 8 66.136 8 56.268c0-8.8.365-17.6 1.095-26.397.954-11.495 10.083-20.613 21.58-21.553z" fill="url(#h)"/><path d="M30.674 8.318C41.413 7.439 51.725 7 61.612 7c9.25 0 18.498.384 27.746 1.153 11.498.956 20.616 10.09 21.551 21.59.727 8.936 1.091 18.196 1.091 27.78 0 10.29-.42 20.58-1.258 30.873-.939 11.525-10.096 20.67-21.623 21.592-8.43.675-17.343 1.012-26.738 1.012-10.457 0-20.916-.418-31.376-1.253-11.535-.922-20.697-10.077-21.628-21.611C8.46 76.759 8 66.136 8 56.268c0-8.8.365-17.6 1.095-26.397.954-11.495 10.083-20.613 21.58-21.553z" fill="url(#i)" fill-rule="nonzero" opacity=".829"/><path d="M30.674 8.318C41.413 7.439 51.725 7 61.612 7c9.25 0 18.498.384 27.746 1.153 11.498.956 20.616 10.09 21.551 21.59.727 8.936 1.091 18.196 1.091 27.78 0 10.29-.42 20.58-1.258 30.873-.939 11.525-10.096 20.67-21.623 21.592-8.43.675-17.343 1.012-26.738 1.012-10.457 0-20.916-.418-31.376-1.253-11.535-.922-20.697-10.077-21.628-21.611C8.46 76.759 8 66.136 8 56.268c0-8.8.365-17.6 1.095-26.397.954-11.495 10.083-20.613 21.58-21.553z" fill="url(#j)" fill-rule="nonzero" opacity=".296"/><g transform="translate(13.909 12.909)"><mask id="l" fill="#fff"><use xlink:href="#k"/></mask><use fill="#0D1422" xlink:href="#k"/><path d="M.091.091h92v5c-15.25-.666-30.555-1-45.913-1-15.358 0-30.72.334-46.087 1v-5zm0 77c15.814 1.334 31.315 2 46.504 2 15.189 0 30.354-.666 45.496-2v5h-92v-5z" fill="#16243F" mask="url(#l)"/><rect fill="url(#m)" opacity=".205" mask="url(#l)" x="8.591" y="33.091" width="78" height="6" rx="2"/><g mask="url(#l)"><g transform="translate(14.091 11.091)"><use fill="#000" filter="url(#n)" xlink:href="#o"/><use fill="#F8F8F8" xlink:href="#o"/></g><g transform="translate(14.091 11.091)"><use fill="#000" filter="url(#p)" xlink:href="#q"/><use fill="#F8F8F8" xlink:href="#q"/></g></g><path d="M19.299 1.242C29.152.414 38.604 0 47.655 0c12.208 0 24.415.753 36.62 2.26a2 2 0 01.886 3.634C68.737 17.162 54.137 28.446 41.36 39.747A351.343 351.343 0 002.95 79.494C.983 69.312 0 57.411 0 43.794c0-8.114.35-16.226 1.047-24.337C1.883 9.75 9.591 2.058 19.3 1.242z" fill="#B2D0FF" opacity=".155" mask="url(#l)"/></g><g><use fill="#000" filter="url(#r)" xlink:href="#s"/><use fill="#F8F8F8" xlink:href="#s"/></g><g><path stroke="url(#t)" stroke-width="1.8" stroke-linejoin="round" d="M0 3.137h15.74l20.783 25.552L93.015 9.103" transform="translate(1.985 58.897)"/><circle cx="3" cy="3" r="3" transform="rotate(88 -20.048 40.266)" fill="url(#u)"/><g transform="rotate(88 20.38 82.996)"><circle fill="#C42E6C" opacity=".061" style="mix-blend-mode:lighten" filter="url(#v)" cx="8" cy="8" r="8"/><circle fill="#C42E6C" style="mix-blend-mode:lighten" filter="url(#w)" cx="8" cy="8" r="4"/><circle fill="url(#x)" cx="8" cy="8" r="3"/></g><g transform="rotate(88 -22.483 63.63)"><circle fill="url(#u)" cx="3.5" cy="3.517" r="3.5"/><path d="M3.35 0c1.09 0 2.06.524 2.668 1.334a3.334 3.334 0 00-4.666 4.67A3.334 3.334 0 013.35 0z" fill-opacity=".2" fill="#FFF"/></g></g></g></svg>