<svg width="120" height="120" fill="none" xmlns="http://www.w3.org/2000/svg"><circle cx="60" cy="60" r="60" fill="url(#k9go9ze1ia)"/><circle cx="60" cy="60" r="59" stroke="url(#opayzvz9wb)" stroke-width="2"/><ellipse cx="60.5" cy="115" rx="53.5" ry="3" fill="url(#w6nzmkij2c)"/><rect width="6.064" height="3.697" rx="1" transform="matrix(0 -1 -1 0 4.697 104.338)" fill="#152032"/><rect width="11" height="3" rx="1" transform="matrix(0 -1 -1 0 5.464 107)" fill="url(#vv9cpqmpad)"/><rect width="6.064" height="3.697" rx="1" transform="matrix(0 1 1 0 115.464 98.662)" fill="#152032"/><rect width="11" height="3" rx="1" transform="matrix(0 1 1 0 114.464 96)" fill="url(#km7a4qw1le)"/><path d="M44.465 79c-4.308.833-8.931 4.8-4.5 8 4.43 3.2 10.384 2.667 7 4.5" stroke="url(#0w8r3yzkef)" stroke-width="2"/><path d="M84.273 78c1.63 1.866 3.975 6.004.319 7.626-3.657 1.621-3.16 7.017-2.454 9.511" stroke="url(#u2tz238erg)" stroke-width="2"/><rect x="47.465" y="77" width="30" height="19" rx="8" fill="url(#vhl37cmf0h)"/><rect x="53.465" y="77" width="18" height="19" rx="8" fill="url(#iy7vxfzpbi)"/><path fill-rule="evenodd" clip-rule="evenodd" d="M7.077 91.32a8.901 8.901 0 016.993-3.395h92.523a8.902 8.902 0 016.801 3.158l1.266 1.499-3.427 10.315a2.225 2.225 0 01-2.112 1.524H11.285a2.227 2.227 0 01-2.08-1.435l-3.683-9.692 1.555-1.975z" fill="url(#7417xpapaj)"/><path fill-rule="evenodd" clip-rule="evenodd" d="M4.464 96.632a6.954 6.954 0 016.955-6.955h97.639a6.955 6.955 0 016.954 6.955v8.405c0 2.962-1.937 5.326-4.887 5.576-6.272.531-20.265 1.207-50.887 1.207-30.621 0-44.615-.676-50.886-1.207-2.951-.25-4.888-2.614-4.888-5.576v-8.405z" fill="url(#hvtv29h8gk)"/><path fill-rule="evenodd" clip-rule="evenodd" d="M4.464 97.677a8 8 0 018-8h95.548a8 8 0 018 8v6.617c0 3.406-2.233 6.112-5.629 6.38-6.608.52-20.677 1.146-50.145 1.146-29.468 0-43.537-.626-50.144-1.146-3.396-.268-5.63-2.974-5.63-6.38v-6.617z" fill="url(#kg7ib53obl)"/><circle cx="107.5" cy="105.5" r="1.5" fill="url(#hgaii8nncm)"/><circle cx="103" cy="105.5" r="1.5" fill="url(#9hlo9jyq1n)"/><circle cx="98.5" cy="105.5" r="1.5" fill="url(#x3uliyfijo)"/><g filter="url(#fvz7n9e21p)"><circle cx="98.523" cy="105.523" r=".6" fill="#FFB710"/></g><path fill-rule="evenodd" clip-rule="evenodd" d="M7.464 96a3 3 0 013-3h99a3 3 0 013 3v2a3 3 0 01-3 3h-99a3 3 0 01-3-3v-2z" fill="#172233"/><path d="M8 26.864c0-2.972 1.392-5.723 4.151-6.825C18.211 17.617 31.96 14 60.035 14c28.077 0 41.826 3.617 47.885 6.039 2.759 1.102 4.151 3.853 4.151 6.825v43.422c0 4.067-2.503 7.624-6.487 8.446-7.3 1.505-21.412 3.455-45.549 3.455-24.136 0-38.249-1.95-45.548-3.455C10.503 77.91 8 74.353 8 70.286V26.864z" fill="url(#kdslm7r91q)"/><path d="M8 26.921c0-2.952 1.374-5.689 4.11-6.798C18.146 17.673 31.895 14 60.034 14c28.141 0 41.889 3.674 47.927 6.123 2.736 1.11 4.109 3.846 4.109 6.798v44.462c0 4.045-2.477 7.588-6.436 8.421-7.285 1.534-21.407 3.527-45.6 3.527-24.191 0-38.314-1.993-45.599-3.527C10.477 78.971 8 75.428 8 71.383V26.92z" fill="url(#o1obfvk3mr)"/><path d="M8 26.864c0-2.972 1.392-5.723 4.151-6.825C18.211 17.617 31.96 14 60.035 14c28.077 0 41.826 3.617 47.885 6.039 2.759 1.102 4.151 3.853 4.151 6.825v43.422c0 4.067-2.503 7.624-6.487 8.446-7.3 1.505-21.412 3.455-45.549 3.455-24.136 0-38.249-1.95-45.548-3.455C10.503 77.91 8 74.353 8 70.286V26.864z" fill="url(#4stmn0f45s)"/><path d="M8 26.395c0-2.675 1.25-5.155 3.72-6.18C17.544 17.796 31.27 14 60.035 14c28.764 0 42.49 3.796 48.316 6.215 2.47 1.025 3.719 3.505 3.719 6.18v44.563c0 3.662-2.251 6.868-5.831 7.636-7.094 1.521-21.323 3.593-46.204 3.593-24.882 0-39.11-2.072-46.205-3.593C10.25 77.826 8 74.62 8 70.958V26.395z" fill="url(#1tu9quukqt)" style="mix-blend-mode:overlay" opacity=".705"/><path d="M10.287 30.213c0-3.754 2.185-7.027 5.858-7.802 6.57-1.386 19.64-3.124 43.89-3.124 24.251 0 37.322 1.738 43.891 3.124 3.673.775 5.858 4.048 5.858 7.802V68.29c0 4.103-2.547 7.68-6.573 8.47-7.081 1.389-20.502 3.14-43.175 3.14-22.674 0-36.095-1.751-43.176-3.14-4.026-.79-6.573-4.367-6.573-8.47V30.213z" fill="#1B283E"/><path d="M10.287 28.79c0-2.973 1.403-5.726 4.17-6.812 5.893-2.313 19.042-5.69 45.578-5.69 26.537 0 39.686 3.377 45.579 5.69 2.767 1.086 4.17 3.84 4.17 6.811v39.502c0 4.103-2.547 7.68-6.573 8.47-7.081 1.389-20.502 3.14-43.175 3.14-22.674 0-36.095-1.751-43.176-3.14-4.026-.79-6.573-4.367-6.573-8.47V28.79z" fill="url(#l9bl1b5g4u)"/><path fill-rule="evenodd" clip-rule="evenodd" d="M11.486 29.058c-.032-2.734 1.92-5.07 4.632-5.425 7.413-.968 23.159-2.63 43.917-2.63 25.683 0 42.374 2.543 46.099 3.17.26.044.31.389.076.51L14.41 72.36a1.669 1.669 0 01-2.439-1.462l-.485-41.84z" fill="url(#bz0xek1x0v)"/><path fill-rule="evenodd" clip-rule="evenodd" d="M51.455 24.716a3 3 0 00-3.185-2.995L7.85 24.215a3 3 0 00-2.815 3.032l.33 26.56a3 3 0 003.084 2.961l40.09-1.114a3 3 0 002.916-2.999v-27.94z" fill="url(#a1mxx3xzhw)" stroke="#FFEDB6" stroke-width=".278"/><path clip-rule="evenodd" d="M24.629 25.931a.695.695 0 00-.747-.693L7.595 26.441a.695.695 0 00-.644.697l.145 26.52a.695.695 0 00.695.691h16.142a.695.695 0 00.696-.695V25.93zm24.835-1.699a.695.695 0 00-.75-.7l-22.21 1.752a.695.695 0 00-.64.693v12.5c0 .39.32.704.711.695l22.073-.523a.695.695 0 00.678-.689l.138-13.728z" stroke="#FFEDB6" stroke-width=".278"/><g filter="url(#2htkhwtacx)"><path fill-rule="evenodd" clip-rule="evenodd" d="M49.662 41.03a1 1 0 00-1.03-1l-22 .64a1 1 0 00-.97 1v11.302a1 1 0 001.027 1l22-.608a1 1 0 00.973-1V41.03z" fill="#FEC63B"/></g><path fill-rule="evenodd" clip-rule="evenodd" d="M69 24.716a3 3 0 013.185-2.994l40.479 2.503a3 3 0 012.815 3.031l-.331 26.677a3 3 0 01-3.083 2.961l-40.148-1.118A3 3 0 0169 52.777v-28.06z" fill="url(#pncqv9ggfy)" stroke="#FFEDB6" stroke-width=".278"/><g filter="url(#d4gbe6oc2z)"><circle cx="92.367" cy="39.05" r="12.518" stroke="#FDD77F" stroke-width=".278"/></g><g filter="url(#fe4lhlubcA)"><circle cx="92.367" cy="39.05" r="8.902" stroke="#FDD77F" stroke-width=".278"/></g><g filter="url(#zlzsordvyB)"><circle cx="92.367" cy="39.05" r="5.007" fill="#FEC63B"/></g><path d="M30.891 56.297v5.637c0 .384.311.696.695.696h58.417a.695.695 0 00.695-.696v-5.637" stroke="#FFEDB6" stroke-width=".278"/><path fill-rule="evenodd" clip-rule="evenodd" d="M41.749 9.105c0-.384.311-.695.695-.695h36.441c.384 0 .695.31.695.695v8.901a.695.695 0 01-.695.696H68.469a.696.696 0 00-.514.226l-1.813 1.986a.695.695 0 01-.515.227l-9.276-.018a.695.695 0 01-.537-.256l-1.557-1.91a.696.696 0 00-.539-.255H42.444a.695.695 0 01-.695-.696V9.105z" fill="url(#u8dlyuzboC)" stroke="#FFEDB6" stroke-width=".278"/><path fill-rule="evenodd" clip-rule="evenodd" d="M39.514 15.642V6.695c0-.384.312-.695.696-.695h27.13" fill="url(#81rrdqfsvD)"/><path d="M39.514 15.642V6.695c0-.384.312-.695.696-.695h27.13" stroke="#FFEDB6" stroke-width=".278"/><g filter="url(#4gfwpklbsE)"><rect x="44.522" y="10.172" width="31.99" height="1.391" rx=".695" fill="#FEC63B"/></g><rect x="44.521" y="12.954" width="18.916" height="1.391" rx=".695" fill="url(#j1mw51dnoF)" stroke="#FFEDB6" stroke-width=".278"/><g filter="url(#baqti9jhfG)"><rect x="44.521" y="15.736" width="13.074" height="1.391" rx=".695" fill="#FEC63B"/></g><rect x="58.986" y="15.736" width="8.345" height="1.391" rx=".695" fill="url(#bepfn9e8oH)" stroke="#FFEDB6" stroke-width=".278"/><rect x="68.722" y="15.736" width="7.789" height="1.391" rx=".695" fill="url(#872ykqx0xI)" stroke="#FFEDB6" stroke-width=".278"/><g filter="url(#26t2o9s9iJ)"><rect x="64.828" y="12.954" width="11.683" height="1.391" rx=".695" fill="#FEC63B"/></g><path fill-rule="evenodd" clip-rule="evenodd" d="M60.795 21.3v41.33z" fill="url(#2l4mrcsnnK)"/><path d="M60.795 21.3v41.33" stroke="#FFEDB6" stroke-width=".278"/><path d="M51.059 62.661v7.78H37.48v-3.996H25.884v10.056" stroke="url(#1nwhs13srL)" stroke-width=".278"/><path d="M44.522 62.661v11.435h11.237V78.4" stroke="url(#8gbs2mtsmM)" stroke-width=".278"/><path d="M60.77 62.661v7.21h6.222v-2.759h15.543v4.584h6.19" stroke="url(#582wjcrwpN)" stroke-width=".278"/><path d="M66.89 62.661v2.226h3.06v3.904h11.405v-1.679h5.935" stroke="url(#1qcqreo4cO)" stroke-width=".278"/><path d="M72.731 62.661v1.748h7.72v11.098H64.828" stroke="url(#y2dbe2rl1P)" stroke-width=".278"/><g filter="url(#ivtlt56d7Q)"><path fill-rule="evenodd" clip-rule="evenodd" d="M11.5 97a.5.5 0 000 1h68a.5.5 0 000-1h-68zm73 0a.5.5 0 000 1h24a.5.5 0 000-1h-24z" fill="#FFB710"/></g><defs><linearGradient id="k9go9ze1ia" x1="24.5" y1="21" x2="88.5" y2="105" gradientUnits="userSpaceOnUse"><stop stop-color="#293F66"/><stop offset="1" stop-color="#0C1321"/></linearGradient><linearGradient id="opayzvz9wb" x1="-25.227" y1="22.708" x2="4.038" y2="134.632" gradientUnits="userSpaceOnUse"><stop stop-color="#FFC63B"/><stop offset="1" stop-color="#F29D1C"/></linearGradient><linearGradient id="0w8r3yzkef" x1="24.936" y1="76.029" x2="29.306" y2="96.916" gradientUnits="userSpaceOnUse"><stop stop-color="#3C567D"/><stop offset="1" stop-color="#3C567D" stop-opacity="0"/></linearGradient><linearGradient id="u2tz238erg" x1="94.955" y1="80.569" x2="79.301" y2="93.551" gradientUnits="userSpaceOnUse"><stop stop-color="#3C567D"/><stop offset="1" stop-color="#3C567D" stop-opacity="0"/></linearGradient><linearGradient id="vhl37cmf0h" x1="52.465" y1="39.5" x2="51.357" y2="89.197" gradientUnits="userSpaceOnUse"><stop stop-color="#96C5FF"/><stop offset="1" stop-color="#131E32"/></linearGradient><linearGradient id="iy7vxfzpbi" x1="55.965" y1="28" x2="63.005" y2="99.439" gradientUnits="userSpaceOnUse"><stop stop-color="#96C5FF"/><stop offset="1" stop-color="#131E32"/></linearGradient><linearGradient id="hvtv29h8gk" x1="-20.694" y1="100.452" x2="-15.08" y2="132.196" gradientUnits="userSpaceOnUse"><stop stop-color="#5F80AB"/><stop offset="1" stop-color="#293F64"/></linearGradient><linearGradient id="kg7ib53obl" x1="15.964" y1="75" x2="19.128" y2="119.455" gradientUnits="userSpaceOnUse"><stop stop-color="#6BA0E2"/><stop offset="1" stop-color="#131E32"/></linearGradient><linearGradient id="hgaii8nncm" x1="105.246" y1="107.644" x2="108.504" y2="104.366" gradientUnits="userSpaceOnUse"><stop stop-color="#040507"/><stop offset="1"/></linearGradient><linearGradient id="9hlo9jyq1n" x1="100.746" y1="107.644" x2="104.004" y2="104.366" gradientUnits="userSpaceOnUse"><stop stop-color="#040507"/><stop offset="1"/></linearGradient><linearGradient id="x3uliyfijo" x1="96.246" y1="107.644" x2="99.504" y2="104.366" gradientUnits="userSpaceOnUse"><stop stop-color="#040507"/><stop offset="1"/></linearGradient><linearGradient id="kdslm7r91q" x1="10.287" y1="10.138" x2="64.905" y2="137.278" gradientUnits="userSpaceOnUse"><stop stop-color="#6BA0E2"/><stop offset="1" stop-color="#131E32"/></linearGradient><linearGradient id="o1obfvk3mr" x1="9.715" y1="3.276" x2="12.158" y2="84.749" gradientUnits="userSpaceOnUse"><stop stop-color="#6BA0E2"/><stop offset="1" stop-color="#0C1422"/></linearGradient><linearGradient id="4stmn0f45s" x1="10.287" y1="10.138" x2="64.905" y2="137.278" gradientUnits="userSpaceOnUse"><stop stop-color="#6BA0E2"/><stop offset="1" stop-color="#131E32"/></linearGradient><linearGradient id="1tu9quukqt" x1="-46.925" y1="29.271" x2="-14.76" y2="117.482" gradientUnits="userSpaceOnUse"><stop stop-color="#FFC300"/><stop offset="1" stop-color="#293F64"/></linearGradient><linearGradient id="bz0xek1x0v" x1="-37.013" y1="34.676" x2="-20.304" y2="96.458" gradientUnits="userSpaceOnUse"><stop stop-color="#FFDC25" stop-opacity=".2"/><stop offset="1" stop-color="#FFB710" stop-opacity=".01"/></linearGradient><linearGradient id="a1mxx3xzhw" x1="25.373" y1="8.203" x2="60.645" y2="48.884" gradientUnits="userSpaceOnUse"><stop stop-color="#FFDC25" stop-opacity=".2"/><stop offset="1" stop-color="#FFB710" stop-opacity=".01"/></linearGradient><linearGradient id="pncqv9ggfy" x1="95.115" y1="8.155" x2="59.705" y2="48.902" gradientUnits="userSpaceOnUse"><stop stop-color="#FFDC25" stop-opacity=".2"/><stop offset="1" stop-color="#FFB710" stop-opacity=".01"/></linearGradient><linearGradient id="u8dlyuzboC" x1="62.989" y1="3.608" x2="54.4" y2="25.995" gradientUnits="userSpaceOnUse"><stop stop-color="#FFDC25" stop-opacity=".2"/><stop offset="1" stop-color="#FFB710" stop-opacity=".01"/></linearGradient><linearGradient id="81rrdqfsvD" x1="55.138" y1="2.364" x2="48.491" y2="19.188" gradientUnits="userSpaceOnUse"><stop stop-color="#FFDC25" stop-opacity=".2"/><stop offset="1" stop-color="#FFB710" stop-opacity=".01"/></linearGradient><linearGradient id="j1mw51dnoF" x1="55.142" y1="12.43" x2="54.908" y2="15.216" gradientUnits="userSpaceOnUse"><stop stop-color="#FFDC25" stop-opacity=".2"/><stop offset="1" stop-color="#FFB710" stop-opacity=".01"/></linearGradient><linearGradient id="bepfn9e8oH" x1="63.672" y1="15.211" x2="63.157" y2="17.919" gradientUnits="userSpaceOnUse"><stop stop-color="#FFDC25" stop-opacity=".2"/><stop offset="1" stop-color="#FFB710" stop-opacity=".01"/></linearGradient><linearGradient id="872ykqx0xI" x1="73.096" y1="15.211" x2="72.547" y2="17.905" gradientUnits="userSpaceOnUse"><stop stop-color="#FFDC25" stop-opacity=".2"/><stop offset="1" stop-color="#FFB710" stop-opacity=".01"/></linearGradient><linearGradient id="2l4mrcsnnK" x1="60.812" y1="5.714" x2="60.319" y2="5.717" gradientUnits="userSpaceOnUse"><stop stop-color="#FFDC25" stop-opacity=".2"/><stop offset="1" stop-color="#FFB710" stop-opacity=".01"/></linearGradient><linearGradient id="1nwhs13srL" x1="36.586" y1="57.324" x2="29.096" y2="77.635" gradientUnits="userSpaceOnUse"><stop stop-color="#FFEDB6"/><stop offset="1" stop-color="#FDD77F" stop-opacity=".01"/></linearGradient><linearGradient id="8gbs2mtsmM" x1="40.167" y1="69.46" x2="52.591" y2="77.417" gradientUnits="userSpaceOnUse"><stop stop-color="#FFEDB6"/><stop offset="1" stop-color="#FDD77F" stop-opacity=".01"/></linearGradient><linearGradient id="582wjcrwpN" x1="41.325" y1="64.819" x2="43.655" y2="79.9" gradientUnits="userSpaceOnUse"><stop stop-color="#FFEDB6"/><stop offset="1" stop-color="#FDD77F" stop-opacity=".01"/></linearGradient><linearGradient id="1qcqreo4cO" x1="75.562" y1="60.297" x2="73.582" y2="70.118" gradientUnits="userSpaceOnUse"><stop stop-color="#FFEDB6"/><stop offset="1" stop-color="#FDD77F" stop-opacity=".01"/></linearGradient><linearGradient id="y2dbe2rl1P" x1="71.469" y1="57.707" x2="62.412" y2="74.127" gradientUnits="userSpaceOnUse"><stop stop-color="#FFEDB6"/><stop offset="1" stop-color="#FDD77F" stop-opacity=".01"/></linearGradient><filter id="fvz7n9e21p" x="96.077" y="103.077" width="4.892" height="4.892" filterUnits="userSpaceOnUse" color-interpolation-filters="sRGB"><feFlood flood-opacity="0" result="BackgroundImageFix"/><feColorMatrix in="SourceAlpha" values="0 0 0 0 0 0 0 0 0 0 0 0 0 0 0 0 0 0 127 0" result="hardAlpha"/><feOffset/><feGaussianBlur stdDeviation=".923"/><feColorMatrix values="0 0 0 0 1 0 0 0 0 0.717647 0 0 0 0 0.0627451 0 0 0 1 0"/><feBlend in2="BackgroundImageFix" result="effect1_dropShadow_367_29188"/><feBlend in="SourceGraphic" in2="effect1_dropShadow_367_29188" result="shape"/></filter><filter id="2htkhwtacx" x="19.662" y="34.029" width="36" height="25.942" filterUnits="userSpaceOnUse" color-interpolation-filters="sRGB"><feFlood flood-opacity="0" result="BackgroundImageFix"/><feColorMatrix in="SourceAlpha" values="0 0 0 0 0 0 0 0 0 0 0 0 0 0 0 0 0 0 127 0" result="hardAlpha"/><feOffset/><feGaussianBlur stdDeviation="3"/><feColorMatrix values="0 0 0 0 0.964706 0 0 0 0 0.670588 0 0 0 0 0.14902 0 0 0 1 0"/><feBlend in2="BackgroundImageFix" result="effect1_dropShadow_367_29188"/><feBlend in="SourceGraphic" in2="effect1_dropShadow_367_29188" result="shape"/></filter><filter id="d4gbe6oc2z" x="75.537" y="22.22" width="33.659" height="33.659" filterUnits="userSpaceOnUse" color-interpolation-filters="sRGB"><feFlood flood-opacity="0" result="BackgroundImageFix"/><feColorMatrix in="SourceAlpha" values="0 0 0 0 0 0 0 0 0 0 0 0 0 0 0 0 0 0 127 0" result="hardAlpha"/><feOffset/><feGaussianBlur stdDeviation="2.086"/><feColorMatrix values="0 0 0 0 1 0 0 0 0 0.717647 0 0 0 0 0.0627451 0 0 0 1 0"/><feBlend in2="BackgroundImageFix" result="effect1_dropShadow_367_29188"/><feBlend in="SourceGraphic" in2="effect1_dropShadow_367_29188" result="shape"/></filter><filter id="fe4lhlubcA" x="79.153" y="25.837" width="26.426" height="26.427" filterUnits="userSpaceOnUse" color-interpolation-filters="sRGB"><feFlood flood-opacity="0" result="BackgroundImageFix"/><feColorMatrix in="SourceAlpha" values="0 0 0 0 0 0 0 0 0 0 0 0 0 0 0 0 0 0 127 0" result="hardAlpha"/><feOffset/><feGaussianBlur stdDeviation="2.086"/><feColorMatrix values="0 0 0 0 1 0 0 0 0 0.717647 0 0 0 0 0.0627451 0 0 0 1 0"/><feBlend in2="BackgroundImageFix" result="effect1_dropShadow_367_29188"/><feBlend in="SourceGraphic" in2="effect1_dropShadow_367_29188" result="shape"/></filter><filter id="zlzsordvyB" x="81.359" y="28.043" width="22.014" height="22.014" filterUnits="userSpaceOnUse" color-interpolation-filters="sRGB"><feFlood flood-opacity="0" result="BackgroundImageFix"/><feColorMatrix in="SourceAlpha" values="0 0 0 0 0 0 0 0 0 0 0 0 0 0 0 0 0 0 127 0" result="hardAlpha"/><feOffset/><feGaussianBlur stdDeviation="3"/><feColorMatrix values="0 0 0 0 0.964706 0 0 0 0 0.670588 0 0 0 0 0.14902 0 0 0 1 0"/><feBlend in2="BackgroundImageFix" result="effect1_dropShadow_367_29188"/><feBlend in="SourceGraphic" in2="effect1_dropShadow_367_29188" result="shape"/></filter><filter id="4gfwpklbsE" x="38.522" y="4.173" width="43.99" height="13.391" filterUnits="userSpaceOnUse" color-interpolation-filters="sRGB"><feFlood flood-opacity="0" result="BackgroundImageFix"/><feColorMatrix in="SourceAlpha" values="0 0 0 0 0 0 0 0 0 0 0 0 0 0 0 0 0 0 127 0" result="hardAlpha"/><feOffset/><feGaussianBlur stdDeviation="3"/><feColorMatrix values="0 0 0 0 0.964706 0 0 0 0 0.670588 0 0 0 0 0.14902 0 0 0 1 0"/><feBlend in2="BackgroundImageFix" result="effect1_dropShadow_367_29188"/><feBlend in="SourceGraphic" in2="effect1_dropShadow_367_29188" result="shape"/></filter><filter id="baqti9jhfG" x="38.521" y="9.736" width="25.074" height="13.391" filterUnits="userSpaceOnUse" color-interpolation-filters="sRGB"><feFlood flood-opacity="0" result="BackgroundImageFix"/><feColorMatrix in="SourceAlpha" values="0 0 0 0 0 0 0 0 0 0 0 0 0 0 0 0 0 0 127 0" result="hardAlpha"/><feOffset/><feGaussianBlur stdDeviation="3"/><feColorMatrix values="0 0 0 0 0.964706 0 0 0 0 0.670588 0 0 0 0 0.14902 0 0 0 1 0"/><feBlend in2="BackgroundImageFix" result="effect1_dropShadow_367_29188"/><feBlend in="SourceGraphic" in2="effect1_dropShadow_367_29188" result="shape"/></filter><filter id="26t2o9s9iJ" x="58.828" y="6.954" width="23.683" height="13.391" filterUnits="userSpaceOnUse" color-interpolation-filters="sRGB"><feFlood flood-opacity="0" result="BackgroundImageFix"/><feColorMatrix in="SourceAlpha" values="0 0 0 0 0 0 0 0 0 0 0 0 0 0 0 0 0 0 127 0" result="hardAlpha"/><feOffset/><feGaussianBlur stdDeviation="3"/><feColorMatrix values="0 0 0 0 0.964706 0 0 0 0 0.670588 0 0 0 0 0.14902 0 0 0 1 0"/><feBlend in2="BackgroundImageFix" result="effect1_dropShadow_367_29188"/><feBlend in="SourceGraphic" in2="effect1_dropShadow_367_29188" result="shape"/></filter><filter id="ivtlt56d7Q" x="8" y="94" width="104" height="7" filterUnits="userSpaceOnUse" color-interpolation-filters="sRGB"><feFlood flood-opacity="0" result="BackgroundImageFix"/><feColorMatrix in="SourceAlpha" values="0 0 0 0 0 0 0 0 0 0 0 0 0 0 0 0 0 0 127 0" result="hardAlpha"/><feOffset/><feGaussianBlur stdDeviation="1.5"/><feComposite in2="hardAlpha" operator="out"/><feColorMatrix values="0 0 0 0 1 0 0 0 0 0.712821 0 0 0 0 0 0 0 0 1 0"/><feBlend in2="BackgroundImageFix" result="effect1_dropShadow_367_29188"/><feBlend in="SourceGraphic" in2="effect1_dropShadow_367_29188" result="shape"/></filter><radialGradient id="w6nzmkij2c" cx="0" cy="0" r="1" gradientUnits="userSpaceOnUse" gradientTransform="matrix(53.5 0 0 3 60.5 115)"><stop/><stop offset="1" stop-opacity=".01"/></radialGradient><radialGradient id="vv9cpqmpad" cx="0" cy="0" r="1" gradientUnits="userSpaceOnUse" gradientTransform="matrix(11.56447 7.57366 -9.7811 14.93507 0 1.5)"><stop stop-color="#2F4568"/><stop offset="1"/></radialGradient><radialGradient id="km7a4qw1le" cx="0" cy="0" r="1" gradientUnits="userSpaceOnUse" gradientTransform="matrix(11.56447 7.57366 -9.7811 14.93507 0 1.5)"><stop stop-color="#2F4568"/><stop offset="1"/></radialGradient><radialGradient id="7417xpapaj" cx="0" cy="0" r="1" gradientUnits="userSpaceOnUse" gradientTransform="matrix(59.26282 -9.01248 2.67926 17.61784 37.36 98.948)"><stop stop-color="#2F4568"/><stop offset="1"/></radialGradient><radialGradient id="l9bl1b5g4u" cx="0" cy="0" r="1" gradientUnits="userSpaceOnUse" gradientTransform="matrix(31.21785 62.90008 -103.21232 51.22516 30.301 17)"><stop stop-color="#68552F"/><stop offset="1"/></radialGradient></defs></svg>