<svg xmlns="http://www.w3.org/2000/svg" xmlns:xlink="http://www.w3.org/1999/xlink" width="120" height="120"><defs><linearGradient id="a" x1="22.4%" x2="82.5%" y1="5.3%" y2="95.5%"><stop offset="0%" stop-color="#FF5F94"/><stop offset="100%" stop-color="#EC454F"/></linearGradient><linearGradient id="b" x1="50%" x2="50%" y1="164.199%" y2="0%"><stop offset="0%" stop-color="#5B79A2"/><stop offset="100%" stop-color="#182439"/></linearGradient><linearGradient id="d" x1="50%" x2="50%" y1="61.459%" y2="100%"><stop offset="0%" stop-color="#04060A"/><stop offset="100%" stop-color="#111B30"/></linearGradient><linearGradient id="l" x1="50%" x2="50%" y1="61.459%" y2="100%"><stop offset="0%" stop-color="#04060A"/><stop offset="100%" stop-color="#111B30"/></linearGradient><linearGradient id="n" x1="50%" x2="50%" y1="61.459%" y2="100%"><stop offset="0%" stop-color="#04060A"/><stop offset="100%" stop-color="#111B30"/></linearGradient><linearGradient id="o" x1="25.613%" x2="50%" y1="6.73%" y2="100%"><stop offset="0%" stop-color="#FF5E92"/><stop offset="100%" stop-color="#ED4653"/></linearGradient><linearGradient id="p" x1="90.965%" x2="17.215%" y1="25.037%" y2="89.654%"><stop offset="0%" stop-color="#EF4663"/><stop offset="100%" stop-color="#F44880" stop-opacity="0"/></linearGradient><linearGradient id="r" x1="96.44%" x2="28.874%" y1="39.688%" y2="50%"><stop offset="0%" stop-color="#F4487D" stop-opacity="0"/><stop offset="100%" stop-color="#FC3A78"/></linearGradient><linearGradient id="s" x1="80.884%" x2="0%" y1="0%" y2="89.582%"><stop offset="0%" stop-color="#FB3B78"/><stop offset="100%" stop-color="#EFC7D8"/></linearGradient><linearGradient id="t" x1="74.488%" x2="-207.458%" y1="89.582%" y2="-81.619%"><stop offset="0%" stop-color="#DD1E5B"/><stop offset="100%" stop-color="#EFC7D8"/></linearGradient><radialGradient id="e" cx="50%" cy="0%" r="144.843%" fx="50%" fy="0%"><stop offset="0%" stop-color="#6BA0E2"/><stop offset="30.516%" stop-color="#54729A"/><stop offset="52.562%" stop-color="#385076"/><stop offset="100%" stop-color="#131E32"/></radialGradient><radialGradient id="g" cx="50%" cy="47.129%" r="144.843%" fx="50%" fy="47.129%"><stop offset="0%" stop-color="#6BA0E2"/><stop offset="30.516%" stop-color="#54729A"/><stop offset="52.562%" stop-color="#385076"/><stop offset="100%" stop-color="#131E32"/></radialGradient><radialGradient id="h" cx="50%" cy="50%" r="45.221%" fx="50%" fy="50%" gradientTransform="matrix(0 1 -1.2066 0 1.103 0)"><stop offset="0%"/><stop offset="73.36%" stop-opacity=".138"/><stop offset="100%" stop-opacity="0"/></radialGradient><radialGradient id="i" cx="79.661%" cy="20.03%" r="144.843%" fx="79.661%" fy="20.03%"><stop offset="0%" stop-color="#6BA0E2"/><stop offset="30.516%" stop-color="#54729A"/><stop offset="52.562%" stop-color="#385076"/><stop offset="100%" stop-color="#131E32"/></radialGradient><radialGradient id="j" cx="50%" cy="50%" r="50%" fx="50%" fy="50%"><stop offset="0%" stop-color="#F4487F"/><stop offset="100%" stop-color="#F44880" stop-opacity="0"/></radialGradient><radialGradient id="m" cx="28.034%" cy="-22.182%" r="206.258%" fx="28.034%" fy="-22.182%" gradientTransform="matrix(-.5037 .79373 -.65728 -.60827 .276 -.58)"><stop offset="0%" stop-color="#6BA0E2"/><stop offset="52.562%" stop-color="#385076"/><stop offset="100%" stop-color="#131E32"/><stop offset="100%" stop-color="#131E32"/></radialGradient><radialGradient id="q" cx="50%" cy="50%" r="101.8%" fx="50%" fy="50%"><stop offset="0%" stop-color="#FFF"/><stop offset="100%" stop-color="#C42E6C"/></radialGradient><filter id="k" width="118.9%" height="118.9%" x="-9.5%" y="-9.5%" filterUnits="objectBoundingBox"><feGaussianBlur in="SourceGraphic" stdDeviation="2.778"/></filter><filter id="u" width="204.2%" height="204.2%" x="-52.1%" y="-52.1%" filterUnits="objectBoundingBox"><feGaussianBlur in="SourceGraphic" stdDeviation="2.778"/></filter><circle id="c" cx="60" cy="60" r="60"/></defs><g fill="none" fill-rule="evenodd"><circle cx="59.5" cy="59.5" r="58.5" fill="#000" fill-opacity=".15"/><path fill="url(#a)" fill-rule="nonzero" d="M59.529 119.032a59.22 59.22 0 01-33.27-10.162 59.7 59.7 0 01-21.56-26.182 59.428 59.428 0 015.487-56.43A59.659 59.659 0 0136.368 4.7a59.425 59.425 0 0156.43 5.486 59.685 59.685 0 0121.558 26.182 59.428 59.428 0 01-5.487 56.43 59.677 59.677 0 01-26.181 21.559 59.15 59.15 0 01-23.16 4.675zm0-117.025a57.249 57.249 0 00-32.161 9.823 57.677 57.677 0 00-20.84 25.307 57.444 57.444 0 005.302 54.546 57.69 57.69 0 0025.307 20.84 57.445 57.445 0 0054.546-5.304 57.685 57.685 0 0020.84-25.307 57.443 57.443 0 00-5.304-54.545 57.69 57.69 0 00-25.307-20.84 57.164 57.164 0 00-22.384-4.52z"/><g transform="translate(12.5 56.96)"><rect width="3.145" height="3.302" x="1.101" y="1.179" fill="#21324E" rx="1.572"/><rect width="5.504" height="2.201" fill="url(#b)" rx="1.101"/></g><g transform="translate(12.5 50.66)"><rect width="3.145" height="3.302" x="1.101" y="1.179" fill="#21324E" rx="1.572"/><rect width="5.504" height="2.201" fill="url(#b)" rx="1.101"/></g><g transform="translate(12.5 63.26)"><rect width="3.145" height="3.302" x="1.101" y="1.179" fill="#21324E" rx="1.572"/><rect width="5.504" height="2.201" fill="url(#b)" rx="1.101"/></g><mask id="f" fill="#fff"><use xlink:href="#c"/></mask><use fill="url(#d)" xlink:href="#c"/><path fill="url(#e)" d="M60 1c32.585 0 59 26.415 59 59s-26.415 59-59 59S1 92.585 1 60 27.415 1 60 1zm0 7C31.281 8 8 31.281 8 60s23.281 52 52 52 52-23.281 52-52S88.719 8 60 8z" mask="url(#f)"/><path fill="url(#g)" d="M60 9c28.167 0 51 22.833 51 51s-22.833 51-51 51S9 88.167 9 60 31.833 9 60 9zm0 6c-24.853 0-45 20.147-45 45s20.147 45 45 45 45-20.147 45-45-20.147-45-45-45z" mask="url(#f)" opacity=".595" transform="rotate(90 60 60)"/><ellipse cx="31" cy="46.5" fill="url(#h)" mask="url(#f)" rx="22" ry="6.5"/><path fill="url(#i)" d="M60 16c24.3 0 44 19.7 44 44s-19.7 44-44 44-44-19.7-44-44 19.7-44 44-44zm0 5c-21.54 0-39 17.46-39 39s17.46 39 39 39 39-17.46 39-39-17.46-39-39-39z" mask="url(#f)" opacity=".362" transform="rotate(-180 60 60)"/><path fill="url(#e)" d="M60 22c20.987 0 38 17.013 38 38S80.987 98 60 98 22 80.987 22 60s17.013-38 38-38zm.5 4C41.998 26 27 40.998 27 59.5 27 78.002 41.998 93 60.5 93 79.002 93 94 78.002 94 59.5 94 40.998 79.002 26 60.5 26z" mask="url(#f)" opacity=".096" transform="rotate(90 60 60)"/><circle fill="url(#j)" opacity=".899" style="mix-blend-mode:screen" cx="59.5" cy="61.5" r="44" filter="url(#k)" mask="url(#f)"/><g mask="url(#f)"><path fill="url(#l)" d="M0 2l7.287 20.731h12.918L28 2z" transform="translate(45.58 1)"/><path fill="url(#m)" d="M1.32 0l6.6 21h11.7l7.06-21z" transform="translate(45.58 1)"/><path d="M5.876.29c.153 0 .296.046.415.125l7.261 4.268a.774.774 0 01.382.67.776.776 0 01-.382.67l-7.3 4.288a.749.749 0 01-1.025-.266l-.006-.01a.776.776 0 01-.098-.449l.001-3.464H3.783a.765.765 0 01-.758-.66l-.007-.103c0-.422.342-.765.765-.765h4.186c.386 0 .706.288.757.66l.007.105a.764.764 0 01-.764.764l-1.343-.001v2.204l5.061-2.973-5.06-2.974v.675c0 .38-.283.695-.65.745l-.101.006a.75.75 0 01-.751-.75l-.002-1.936a.766.766 0 01.053-.355L5.22.671a.747.747 0 01.362-.322l.093-.032a.63.63 0 01.098-.02L5.876.29zm-4.14 4.304c.387 0 .707.288.757.66l.007.105a.764.764 0 01-.764.764h-.63a.766.766 0 01-.757-.66l-.007-.104c0-.422.342-.765.765-.765h.63z" transform="matrix(0 1 1 0 54 3.018)" fill="url(#n)"/><g><path fill="url(#l)" d="M0 2l7.287 20.731h12.918L28 2z" transform="rotate(-180 36.79 59)"/><path fill="url(#m)" d="M1.32 0l6.6 21h11.7l7.06-21z" transform="rotate(-180 36.79 59)"/><path d="M5.876.29c.153 0 .296.046.415.125l7.261 4.268a.774.774 0 01.382.67.776.776 0 01-.382.67l-7.3 4.288a.749.749 0 01-1.025-.266l-.006-.01a.776.776 0 01-.098-.449l.001-3.464H3.783a.765.765 0 01-.758-.66l-.007-.103c0-.422.342-.765.765-.765h4.186c.386 0 .706.288.757.66l.007.105a.764.764 0 01-.764.764l-1.343-.001v2.204l5.061-2.973-5.06-2.974v.675c0 .38-.283.695-.65.745l-.101.006a.75.75 0 01-.751-.75l-.002-1.936a.766.766 0 01.053-.355L5.22.671a.747.747 0 01.362-.322l.093-.032a.63.63 0 01.098-.02L5.876.29zm-4.14 4.304c.387 0 .707.288.757.66l.007.105a.764.764 0 01-.764.764h-.63a.766.766 0 01-.757-.66l-.007-.104c0-.422.342-.765.765-.765h.63z" transform="rotate(-90 85.071 30.911)" fill="url(#n)"/></g></g><circle cx="60" cy="60" r="59" stroke="url(#o)" stroke-width="2"/><path stroke="url(#p)" stroke-linecap="round" stroke-linejoin="round" d="M60 32v8.282h-8.16v-2.985h-3.641v6.947h-6.32v3.157h-3.262v3.259h6.963v-3.259h7.744v5.46h4.174v-7.727h5.454v5.526h5.437V40.282h6.323v7.119h7.325v7.741H72.26v2.997H61.195V55.66H37.987v6.3h2.942v5.782h-4.277v3.37h6.824V60h4.723v5.76h3.641v-5.97h5.655v3.47h24.542v5.621h3.646v2.231h-3.646v5.105h-3.87v-7.336H72.26v4.151h-7.55v-5.29h-7.212v5.29h-6.71v-1.92h-2.589v5.105h-7.27v2.65H46.9v3.006h8.6v-3.848h6.299v8.144h5.596v-7.302h8.063v5" opacity=".247"/><path fill="url(#q)" fill-rule="nonzero" d="M58.137 81v-7.614l10.957-6.153 3.836-2.157v7.543L58.14 81l-.002.001zm-1.343 0L42 72.62V46.952l2.824 1.598 3.9 2.206v17.751c0 .017.002.034.005.05v.05c.002.025.006.05.011.073a.389.389 0 00.021.051l.011.024.009.023a.356.356 0 00.059.105l.019.023.017.022a.34.34 0 00.038.047.204.204 0 00.04.031l.027.02.026.02c.014.013.03.024.046.034h.006l7.724 4.303v7.611l.011.005zm.672-8.757l-6.71-3.737 7.052-3.993 7.735-4.379 6.717 3.806-4.929 2.767-9.867 5.53.002.006zm-7.397-4.88V50.757l3.9-2.206 2.824-1.599v16.606l-3.9 2.21-2.823 1.595h-.001zm24.207-4.57v-7.538l3.9-2.21 2.824-1.6v7.538l-6.724 3.808v.001zm-1.344 0l-2.823-1.6-3.9-2.21v-7.537l2.823 1.599 3.901 2.21v7.538zm.672-8.684L66.883 50.3l6.722-3.807 6.722 3.807-6.721 3.808-.002.001zm-24.209-4.493l-6.723-3.808L49.396 42l6.717 3.806-6.717 3.81z"/><path fill="url(#q)" fill-rule="nonzero" d="M60 86v-8.129l11.85-6.569L76 69v8.053l-15.998 8.946L60 86zm-8-2l-16-8.861V48l3.054 1.69 4.218 2.333v18.769a.23.23 0 00.006.052v.054a.5.5 0 00.012.076c.005.02.013.037.023.055l.011.025.01.024a.332.332 0 00.064.111l.02.024.018.024a.288.288 0 00.085.083l.029.02.028.021a.254.254 0 00.05.036l8.36 4.55v8.048L52 84zm27-21v-7.97l4.06-2.339L86 51v7.971L79 63zm-4-14l-7-4 7-4 7 3.999-7 4V49zm-26.997-5L41 40l7.004-4L55 39.998 48.004 44z" opacity=".25"/><g><path stroke="url(#r)" stroke-linejoin="round" stroke-width="1.8" d="M52.16 26.482L34.688 4.204 6.455 19 29 48.76" transform="translate(13 17)"/><g transform="rotate(-158 31.442 34.293)"><circle cx="9.397" cy="9.397" r="2.797" fill="url(#s)"/><path fill="#FFF" fill-opacity=".2" d="M8.837 6.6c.732 0 1.382.351 1.79.895a2.238 2.238 0 00-3.132 3.132A2.238 2.238 0 018.837 6.6z"/></g><g transform="rotate(-158 14.61 18.543)"><circle cx="3.759" cy="3.759" r="3.759" fill="url(#t)"/><path fill="#FFF" fill-opacity=".2" d="M3.58 0c1.17 0 2.21.562 2.863 1.43a3.58 3.58 0 00-5.011 5.013A3.58 3.58 0 013.58 0z"/></g><g transform="rotate(-158 26.703 7.136)"><circle cx="2.193" cy="2.193" r="2.193" fill="url(#t)"/><path fill="#FFF" fill-opacity=".2" d="M2.088 0c.683 0 1.29.328 1.67.835A2.087 2.087 0 00.835 3.758 2.088 2.088 0 012.088 0z"/></g></g><circle fill="#C42E6C" style="mix-blend-mode:soft-light" cx="43" cy="65" r="8" filter="url(#u)"/></g></svg>