<svg width="120" height="120" fill="none" xmlns="http://www.w3.org/2000/svg"><circle cx="60" cy="60" r="60" fill="url(#oxlpwievsa)"/><circle opacity=".541" cx="60" cy="60" r="60" fill="url(#1sqv7wa5zb)"/><circle cx="60" cy="60" r="59" stroke="url(#ma74f8thzc)" stroke-width="2"/><circle cx="60" cy="55" r="50" fill="#101928"/><circle opacity=".5" cx="59.5" cy="53.5" r="40.5" stroke="url(#nd5dkmlond)" stroke-width=".5" stroke-linecap="round"/><circle opacity=".3" cx="59.5" cy="53.5" r="40.5" transform="rotate(-180 59.5 53.5)" stroke="url(#t7dltmabne)" stroke-width=".5" stroke-linecap="round"/><circle opacity=".1" cx="59.5" cy="53.5" r="36.004" transform="rotate(60 59.5 53.5)" stroke="url(#xehj7nkdtf)" stroke-width=".5" stroke-linecap="round"/><circle opacity=".1" cx="59.5" cy="53.5" r="36.004" transform="rotate(-120 59.5 53.5)" stroke="url(#uagtk3xdgg)" stroke-width=".5" stroke-linecap="round"/><circle cx="60" cy="55" r="49.75" stroke="url(#1bdz3xeaph)" stroke-width=".5"/><g filter="url(#4fyqkr9gci)"><path d="M85.65 32.744C72.67 22.05 53.345 22.718 41.163 34.751a20.587 20.587 0 000 29.368c8.207 8.109 21.515 8.109 29.724 0a8.824 8.824 0 000-12.585 9.088 9.088 0 00-12.74 0 3.03 3.03 0 01-4.244 0 2.94 2.94 0 010-4.195 15.146 15.146 0 0121.232 0 14.705 14.705 0 010 20.976c-10.554 10.425-27.666 10.425-38.22 0a26.468 26.468 0 01-.04-37.716C42.857 24.67 51.129 21 60.27 21c10.197 0 19.32 4.568 25.379 11.744zm-1.942 43.878a33.131 33.131 0 01-23.437 9.64 33.12 33.12 0 01-25.379-11.745C47.87 85.212 67.197 84.543 79.38 72.51a20.587 20.587 0 000-29.367c-8.206-8.109-21.514-8.109-29.724 0a8.826 8.826 0 000 12.584 9.088 9.088 0 0012.74 0 3.03 3.03 0 014.245 0 2.942 2.942 0 010 4.196 15.147 15.147 0 01-21.232 0 14.706 14.706 0 010-20.976c10.553-10.426 27.665-10.426 38.219 0a26.467 26.467 0 01.081 37.675z" fill="url(#eta90m635j)"/></g><path opacity=".15" fill-rule="evenodd" clip-rule="evenodd" d="M101.963 33.411a47.146 47.146 0 00-5.04-.269c-25.755 0-46.634 20.88-46.634 46.635A46.436 46.436 0 0055.387 101c-23.385-2.513-41.595-22.313-41.595-46.365C13.792 28.879 34.672 8 60.427 8c18.112 0 33.813 10.326 41.536 25.411z" fill="#E2AEFF"/><path d="M25.5 91l6.5-7 42.5 10.5 14-25.5" stroke="url(#jksaejdodk)" stroke-width="2"/><circle cx="74" cy="94" r="3" transform="rotate(180 74 94)" fill="url(#h0ucqc93sl)"/><circle cx="32" cy="84" r="2" transform="rotate(180 32 84)" fill="url(#lnyhrnsgmm)"/><circle cx="88.5" cy="68.5" r="2.5" transform="rotate(180 88.5 68.5)" fill="url(#quv5613o4n)"/><path fill="#111A2B" d="M66 109h3v2h-3zm-15 0h3v2h-3z"/><g filter="url(#xmfl309dko)"><path fill="url(#gygecow2ap)" d="M59 109h6v2h-6z"/></g><g filter="url(#ga565su4oq)"><path fill="url(#ymvne9pwkr)" d="M55 109h3v2h-3z"/></g><defs><linearGradient id="ma74f8thzc" x1="-25.227" y1="22.708" x2="4.038" y2="134.632" gradientUnits="userSpaceOnUse"><stop stop-color="#C47EDD"/><stop offset="1" stop-color="#7850D1"/></linearGradient><linearGradient id="nd5dkmlond" x1="38" y1="16" x2="59" y2="53" gradientUnits="userSpaceOnUse"><stop stop-color="#F6E8FE"/><stop offset="1" stop-opacity="0"/></linearGradient><linearGradient id="t7dltmabne" x1="35.5" y1="18.5" x2="59" y2="53" gradientUnits="userSpaceOnUse"><stop stop-color="#F6E8FE"/><stop offset="1" stop-opacity="0"/></linearGradient><linearGradient id="xehj7nkdtf" x1="59.056" y1="17.497" x2="59.056" y2="53.056" gradientUnits="userSpaceOnUse"><stop stop-color="#F6E8FE"/><stop offset="1" stop-opacity="0"/></linearGradient><linearGradient id="uagtk3xdgg" x1="59.056" y1="17.497" x2="59.056" y2="53.056" gradientUnits="userSpaceOnUse"><stop stop-color="#F6E8FE"/><stop offset="1" stop-opacity="0"/></linearGradient><linearGradient id="1bdz3xeaph" x1="60" y1="84" x2="60" y2="105" gradientUnits="userSpaceOnUse"><stop stop-color="#E4B0FC" stop-opacity="0"/><stop offset="0" stop-color="#FAF1FE" stop-opacity="0"/><stop offset="1" stop-color="#E2ACFC"/></linearGradient><linearGradient id="jksaejdodk" x1="57.026" y1="95" x2="9.602" y2="84.594" gradientUnits="userSpaceOnUse"><stop stop-color="#BF99F7"/><stop offset="1" stop-color="#8B60ED" stop-opacity="0"/></linearGradient><linearGradient id="h0ucqc93sl" x1="77" y1="97" x2="77" y2="91" gradientUnits="userSpaceOnUse"><stop stop-color="#A987F7"/><stop offset="1" stop-color="#B372BD"/></linearGradient><linearGradient id="lnyhrnsgmm" x1="34" y1="86" x2="34" y2="82" gradientUnits="userSpaceOnUse"><stop stop-color="#A987F7"/><stop offset="1" stop-color="#B372BD"/></linearGradient><radialGradient id="oxlpwievsa" cx="0" cy="0" r="1" gradientUnits="userSpaceOnUse" gradientTransform="matrix(0 117 -117 0 60 19.5)"><stop stop-color="#4774B8"/><stop offset="1" stop-color="#101A2A"/></radialGradient><radialGradient id="1sqv7wa5zb" cx="0" cy="0" r="1" gradientUnits="userSpaceOnUse" gradientTransform="matrix(66.50003 -8 7.44554 61.89106 2.5 32.5)"><stop stop-color="#B071BF"/><stop offset="1" stop-color="#8B60EC" stop-opacity=".01"/></radialGradient><radialGradient id="eta90m635j" cx="0" cy="0" r="1" gradientUnits="userSpaceOnUse" gradientTransform="matrix(241.975 0 0 186.475 29 21)"><stop stop-color="#fff"/><stop offset="1" stop-color="#BF67F0"/></radialGradient><radialGradient id="quv5613o4n" cx="0" cy="0" r="1" gradientUnits="userSpaceOnUse" gradientTransform="translate(86 66) scale(19.345)"><stop stop-color="#EFC5FF"/><stop offset="1" stop-color="#BF67F0"/></radialGradient><radialGradient id="gygecow2ap" cx="0" cy="0" r="1" gradientUnits="userSpaceOnUse" gradientTransform="matrix(23.2138 0 0 7.738 59 109)"><stop stop-color="#fff"/><stop offset="1" stop-color="#BF67F0"/></radialGradient><radialGradient id="ymvne9pwkr" cx="0" cy="0" r="1" gradientUnits="userSpaceOnUse" gradientTransform="matrix(11.607 0 0 7.738 55 109)"><stop stop-color="#fff"/><stop offset="1" stop-color="#BF67F0"/></radialGradient><filter id="4fyqkr9gci" x="17.132" y="9.132" width="86.277" height="88.997" filterUnits="userSpaceOnUse" color-interpolation-filters="sRGB"><feFlood flood-opacity="0" result="BackgroundImageFix"/><feColorMatrix in="SourceAlpha" values="0 0 0 0 0 0 0 0 0 0 0 0 0 0 0 0 0 0 127 0" result="hardAlpha"/><feOffset/><feGaussianBlur stdDeviation="5.934"/><feColorMatrix values="0 0 0 0 0.752051 0 0 0 0 0.222882 0 0 0 0 0.965325 0 0 0 0.6 0"/><feBlend in2="BackgroundImageFix" result="effect1_dropShadow_1439_28344"/><feBlend in="SourceGraphic" in2="effect1_dropShadow_1439_28344" result="shape"/></filter><filter id="xmfl309dko" x="55" y="105" width="14" height="10" filterUnits="userSpaceOnUse" color-interpolation-filters="sRGB"><feFlood flood-opacity="0" result="BackgroundImageFix"/><feColorMatrix in="SourceAlpha" values="0 0 0 0 0 0 0 0 0 0 0 0 0 0 0 0 0 0 127 0" result="hardAlpha"/><feOffset/><feGaussianBlur stdDeviation="2"/><feColorMatrix values="0 0 0 0 0.752051 0 0 0 0 0.222882 0 0 0 0 0.965325 0 0 0 1 0"/><feBlend in2="BackgroundImageFix" result="effect1_dropShadow_1439_28344"/><feBlend in="SourceGraphic" in2="effect1_dropShadow_1439_28344" result="shape"/></filter><filter id="ga565su4oq" x="51" y="105" width="11" height="10" filterUnits="userSpaceOnUse" color-interpolation-filters="sRGB"><feFlood flood-opacity="0" result="BackgroundImageFix"/><feColorMatrix in="SourceAlpha" values="0 0 0 0 0 0 0 0 0 0 0 0 0 0 0 0 0 0 127 0" result="hardAlpha"/><feOffset/><feGaussianBlur stdDeviation="2"/><feColorMatrix values="0 0 0 0 0.752051 0 0 0 0 0.222882 0 0 0 0 0.965325 0 0 0 1 0"/><feBlend in2="BackgroundImageFix" result="effect1_dropShadow_1439_28344"/><feBlend in="SourceGraphic" in2="effect1_dropShadow_1439_28344" result="shape"/></filter></defs></svg>