<svg width="120" height="120" fill="none" xmlns="http://www.w3.org/2000/svg"><circle cx="60" cy="60" r="60" fill="url(#69ggu8ee8a)"/><circle cx="60" cy="60" r="59" stroke="url(#z9qucq3reb)" stroke-width="2"/><circle cx="60" cy="60" r="55" fill="url(#3dmzypm2ac)"/><circle cx="60" cy="60" r="53.523" fill="url(#4b4mr45ldd)"/><circle cx="60" cy="60" r="53.523" fill="url(#1rttb2fine)"/><circle cx="60.524" cy="60" r="53.523" fill="url(#d9gkkrtmbf)"/><circle opacity=".566" cx="60" cy="60" r="53.198" stroke="url(#hsw7ncrq9g)" stroke-width=".65"/><circle cx="60" cy="60" r="40.235" fill="url(#obrxgevb4h)"/><circle opacity=".566" cx="60" cy="60" r="39.91" stroke="url(#qhpkcn3nvi)" stroke-width=".65"/><circle cx="60" cy="60" r="36.544" fill="url(#04iglxr96j)"/><path fill-rule="evenodd" clip-rule="evenodd" d="M59.544 96.087c20.182 0 36.543-16.36 36.543-36.543S79.727 23 59.544 23 23 39.361 23 59.544c0 20.182 16.361 36.543 36.544 36.543z" fill="#111926"/><circle opacity=".2" cx="60" cy="60" r="24.75" stroke="url(#t2aaob0s0k)" stroke-width=".5"/><circle opacity=".2" cx="60" cy="60" r="20.75" stroke="url(#e9ut1v2all)" stroke-width=".5"/><path d="M65.5 42a1.5 1.5 0 003 0h-3zm0-1v1h3v-1h-3zm-11 8.5V43h-3v6.5h3zm0-6.5v-2h-3v2h3zm5.5-7.5a5.5 5.5 0 015.5 5.5h3a8.5 8.5 0 00-8.5-8.5v3zm0-3a8.5 8.5 0 00-8.5 8.5h3a5.5 5.5 0 015.5-5.5v-3z" fill="#47669C"/><circle cx="60" cy="60" r="16" fill="url(#xry826seim)"/><circle cx="60" cy="60" r="16" fill="url(#iieuj4hqvn)"/><circle opacity=".566" cx="60" cy="60" r="15.9" stroke="url(#7cmg9i73zo)" stroke-width=".2"/><circle cx="60" cy="60" r="13" fill="url(#o4nfycu98p)"/><circle cx="60" cy="60" r="32.483" stroke="#476189" stroke-width=".738" stroke-dasharray="1.48 1.48"/><path fill-rule="evenodd" clip-rule="evenodd" d="M40.424 39.38l-1.044 1.044-2.61-2.61 1.044-1.044 2.61 2.61zm-8.847 21.358v-1.476h-3.691v1.476h3.691zm60.537-1.476v1.476h-3.691v-1.476h3.691zM83.23 82.186l-1.044 1.044-2.61-2.61 1.044-1.044 2.61 2.61zm-46.46 0l1.044 1.044 2.61-2.61-1.044-1.044-2.61 2.61zm22.492 6.237h1.476v3.691h-1.476v-3.691zM79.576 39.38l1.044 1.044 2.61-2.61-1.044-1.044-2.61 2.61z" fill="#476189"/><path opacity=".2" fill-rule="evenodd" clip-rule="evenodd" d="M96.246 54.303A32.802 32.802 0 0079.952 50C61.753 50 47 64.753 47 82.952c0 4.305.826 8.417 2.327 12.186C34.103 90.618 23 76.52 23 59.828 23 39.489 39.49 23 59.83 23c18.46 0 33.75 13.585 36.416 31.303z" fill="url(#706mylh19q)"/><g filter="url(#mpawpyspwr)"><path fill-rule="evenodd" clip-rule="evenodd" d="M54.736 54.843l2.151 1.251 2.15-1.252-2.15-1.25-2.151 1.251zm9.898 2.728l-2.151-1.252 2.15-1.25 2.152 1.25-2.15 1.252h-.002zm-7.531-1.101v5.457l.904-.525 1.247-.726V55.22l-.903.526-1.248.725zm2.148 9.936l.004.002-.004-.001zm0-2.5v2.5l-4.73-2.752V55.22l.903.526 1.248.725v5.833l.002.017v.016a.1.1 0 00.004.024.088.088 0 00.006.017l.004.008.002.007a.131.131 0 00.01.02c.002.005.006.01.01.015l.005.007.006.007.012.016a.079.079 0 00.013.01l.008.006.009.007.015.011h.001l2.472 1.415zm.434 0v2.502l4.733-2.754v-2.479l-1.228.709-3.505 2.022zm-.215-.376l-2.148-1.228 2.257-1.312 2.475-1.439 2.15 1.25-1.578.91-3.157 1.818v.001zm5.379-3.105v-2.477l1.248-.727.903-.525v2.477l-2.151 1.251zm-1.334-.526l.903.526v-2.477l-1.247-.727-.904-.525v2.477l1.248.726z" fill="url(#n41qgwyiks)"/></g><mask id="a" style="mask-type:alpha" maskUnits="userSpaceOnUse" x="39" y="20" width="43" height="18"><path d="M81.8 31c0 3.866-9.402 7-21 7s-21-3.134-21-7 4-11 20-11 22 7.134 22 11z" fill="#D9D9D9"/></mask><g mask="url(#a)"><path d="M52.066 16.89l15.873-.526.066 7.431-5.266 5.72-5.273.079-5.404-6.11.004-6.594z" fill="url(#1hqfxpe2wu)"/><path fill-rule="evenodd" clip-rule="evenodd" d="M54.125 23.761a4.32 4.32 0 10-6.453-5.743 4.32 4.32 0 006.453 5.743zm-.806-.717a3.24 3.24 0 10-4.84-4.307 3.24 3.24 0 004.84 4.307z" fill="url(#dy91ztuuev)"/><path fill-rule="evenodd" clip-rule="evenodd" d="M57.905 26.187a4.32 4.32 0 10-6.454-5.743 4.32 4.32 0 006.454 5.743zm-.806-.717a3.24 3.24 0 10-4.84-4.307 3.24 3.24 0 004.84 4.307z" fill="url(#v2jpjye8pw)"/><path fill-rule="evenodd" clip-rule="evenodd" d="M66.313 22.887a4.32 4.32 0 105.743-6.454 4.32 4.32 0 00-5.743 6.454zm.718-.806a3.24 3.24 0 104.307-4.84 3.24 3.24 0 00-4.307 4.84z" fill="url(#rlq8np4r1x)"/><path fill-rule="evenodd" clip-rule="evenodd" d="M63.887 26.667a4.32 4.32 0 105.743-6.454 4.32 4.32 0 00-5.743 6.454zm.719-.807a3.24 3.24 0 104.307-4.84 3.24 3.24 0 00-4.307 4.84z" fill="url(#hqhhz1l1iy)"/><path d="M52.898 12.009L67.409 12l-.007 11.73-4.772 5.87-5.182.003-4.557-5.863.007-11.73z" fill="url(#57n8m05nyz)"/><path d="M52.898 12.009L67.409 12l-.007 11.73-4.772 5.87-5.182.003-4.557-5.863.007-11.73z" fill="url(#4qpsmxnvrA)"/><path d="M52.898 12.009L67.409 12l-.007 11.73-4.772 5.87-5.182.003-4.557-5.863.007-11.73z" fill="url(#1rvvsfo7rB)"/><ellipse cx="60.24" cy="19.663" rx="4.558" ry="3.928" transform="rotate(-3.333 60.24 19.663)" fill="#31486D"/></g><path opacity=".4" d="M100.5 101.5l-16-16-4-4-4 4L97 104l3.5-2.5z" fill="url(#6zv6drh7mC)"/><path d="M101 101L79 79l17.5-43.5-25.37 16.533" stroke="url(#nur5dqq7mD)" stroke-width="2"/><g filter="url(#w6jndk9rvE)"><circle r="3.999" transform="scale(-1 1) rotate(80.975 -65.945 -15.806)" fill="url(#tdimxd3bpF)"/></g><circle r="3.081" transform="scale(-1 1) rotate(80.975 -85.851 -6.23)" fill="url(#5ereaveo1G)"/><circle r="3.742" transform="scale(-1 1) rotate(80.975 -68.465 -39.27)" fill="url(#iv11n6rxdH)"/><defs><linearGradient id="69ggu8ee8a" x1="-112.59" y1="-66.656" x2="-101.148" y2="227.754" gradientUnits="userSpaceOnUse"><stop stop-color="#233249"/><stop offset="1" stop-color="#0F1723"/></linearGradient><linearGradient id="z9qucq3reb" x1="-25.227" y1="22.708" x2="4.038" y2="134.632" gradientUnits="userSpaceOnUse"><stop stop-color="#22C8F6"/><stop offset="1" stop-color="#637BFF"/></linearGradient><linearGradient id="3dmzypm2ac" x1="83" y1="110" x2="31.5" y2="12.5" gradientUnits="userSpaceOnUse"><stop stop-color="#5B79A2"/><stop offset="1" stop-color="#2E4469"/><stop offset="1" stop-color="#1D2F4E"/><stop offset="1" stop-color="#1D2B42"/></linearGradient><linearGradient id="4b4mr45ldd" x1="113.524" y1="113.523" x2="113.524" y2="6.477" gradientUnits="userSpaceOnUse"><stop stop-color="#5B79A2"/><stop offset="1" stop-color="#2E4469"/><stop offset="1" stop-color="#2E4469"/><stop offset="1" stop-color="#2E4469"/></linearGradient><linearGradient id="1rttb2fine" x1="11.645" y1="3.893" x2="88.792" y2="103.188" gradientUnits="userSpaceOnUse"><stop stop-color="#5B79A2"/><stop offset="1" stop-color="#2E4469"/><stop offset="1" stop-color="#2E4469"/><stop offset="1" stop-color="#2E4469"/></linearGradient><linearGradient id="d9gkkrtmbf" x1="-16.976" y1="-10.5" x2="43.524" y2="76" gradientUnits="userSpaceOnUse"><stop stop-color="#00BAFF"/><stop offset="1" stop-color="#637CFF" stop-opacity="0"/></linearGradient><linearGradient id="obrxgevb4h" x1="83.5" y1="106.5" x2="43.5" y2="23" gradientUnits="userSpaceOnUse"><stop stop-color="#5B79A2"/><stop offset="1" stop-color="#1B2A42"/><stop offset="1" stop-color="#111B2D"/><stop offset="1"/></linearGradient><linearGradient id="04iglxr96j" x1="-45.118" y1="-17.141" x2="-38.149" y2="162.173" gradientUnits="userSpaceOnUse"><stop stop-color="#233249"/><stop offset="1" stop-color="#0F1723"/></linearGradient><linearGradient id="t2aaob0s0k" x1="60" y1="35" x2="60" y2="85" gradientUnits="userSpaceOnUse"><stop stop-color="#24CAF7"/><stop offset="1" stop-color="#24CAF7" stop-opacity="0"/></linearGradient><linearGradient id="e9ut1v2all" x1="60" y1="39" x2="60" y2="81" gradientUnits="userSpaceOnUse"><stop stop-color="#24CAF7"/><stop offset="1" stop-color="#24CAF7" stop-opacity="0"/></linearGradient><linearGradient id="xry826seim" x1="45.545" y1="43.228" x2="68.607" y2="72.91" gradientUnits="userSpaceOnUse"><stop stop-color="#5B79A2"/><stop offset="1" stop-color="#2E4469"/><stop offset="1" stop-color="#2E4469"/><stop offset="1" stop-color="#2E4469"/></linearGradient><linearGradient id="iieuj4hqvn" x1="45.545" y1="43.228" x2="68.607" y2="72.91" gradientUnits="userSpaceOnUse"><stop stop-color="#5B79A2"/><stop offset="1" stop-color="#2E4469"/><stop offset="1" stop-color="#2E4469"/><stop offset="1" stop-color="#2E4469"/></linearGradient><linearGradient id="706mylh19q" x1="92.773" y1="23" x2="23.89" y2="23" gradientUnits="userSpaceOnUse"><stop stop-color="#21C8F6"/><stop offset="1" stop-color="#637BFF"/></linearGradient><linearGradient id="1hqfxpe2wu" x1="56" y1="35" x2="54.478" y2="21.689" gradientUnits="userSpaceOnUse"><stop stop-color="#527EB6"/><stop offset="1" stop-color="#192434"/></linearGradient><linearGradient id="dy91ztuuev" x1="61.448" y1="34.497" x2="49.093" y2="22.009" gradientUnits="userSpaceOnUse"><stop stop-color="#6496D5"/><stop offset="1" stop-color="#1F2C3F"/></linearGradient><linearGradient id="v2jpjye8pw" x1="65.228" y1="36.923" x2="52.873" y2="24.435" gradientUnits="userSpaceOnUse"><stop stop-color="#6496D5"/><stop offset="1" stop-color="#24344D"/></linearGradient><linearGradient id="rlq8np4r1x" x1="59.859" y1="34.177" x2="66.733" y2="21.181" gradientUnits="userSpaceOnUse"><stop stop-color="#6496D5"/><stop offset="1" stop-color="#212F45"/></linearGradient><linearGradient id="hqhhz1l1iy" x1="53.151" y1="33.989" x2="65.639" y2="21.635" gradientUnits="userSpaceOnUse"><stop stop-color="#6496D5"/><stop offset="1" stop-color="#24344D"/></linearGradient><linearGradient id="57n8m05nyz" x1="54.74" y1="51.343" x2="56.737" y2="18.974" gradientUnits="userSpaceOnUse"><stop stop-color="#6496D5"/><stop offset="1" stop-color="#24344D"/></linearGradient><linearGradient id="4qpsmxnvrA" x1="57.767" y1="51.524" x2="74.15" y2="11.29" gradientUnits="userSpaceOnUse"><stop stop-color="#6496D5"/><stop offset="1" stop-color="#1B2738"/></linearGradient><linearGradient id="1rvvsfo7rB" x1="58.5" y1="42" x2="53.822" y2="21.854" gradientUnits="userSpaceOnUse"><stop stop-color="#00BAFF"/><stop offset="1" stop-color="#637CFF" stop-opacity="0"/></linearGradient><linearGradient id="6zv6drh7mC" x1="91" y1="93.5" x2="88.5" y2="96" gradientUnits="userSpaceOnUse"><stop stop-opacity=".54"/><stop offset="1" stop-opacity="0"/></linearGradient><linearGradient id="nur5dqq7mD" x1="76.85" y1="13.542" x2="122.447" y2="22.135" gradientUnits="userSpaceOnUse"><stop stop-color="#45E6FB"/><stop offset="1" stop-color="#21C8F6" stop-opacity=".333"/></linearGradient><linearGradient id="5ereaveo1G" x1="1.14" y1=".799" x2="1.053" y2="10.911" gradientUnits="userSpaceOnUse"><stop stop-color="#21C8F6"/><stop offset="1" stop-color="#637BFF"/></linearGradient><linearGradient id="iv11n6rxdH" x1="4.151" y1="4.305" x2="-2.278" y2="12.903" gradientUnits="userSpaceOnUse"><stop stop-color="#21C8F6"/><stop offset="1" stop-color="#637BFF"/></linearGradient><radialGradient id="hsw7ncrq9g" cx="0" cy="0" r="1" gradientUnits="userSpaceOnUse" gradientTransform="matrix(174.84284 123.10375 -36.6876 52.10698 10.045 26.102)"><stop stop-color="#AEF3FF"/><stop offset="1" stop-color="#76E2FF" stop-opacity=".01"/></radialGradient><radialGradient id="qhpkcn3nvi" cx="0" cy="0" r="1" gradientUnits="userSpaceOnUse" gradientTransform="matrix(131.43405 92.5404 -27.57893 39.17003 22.448 34.518)"><stop stop-color="#AEF3FF"/><stop offset="1" stop-color="#76E2FF" stop-opacity=".01"/></radialGradient><radialGradient id="7cmg9i73zo" cx="0" cy="0" r="1" gradientUnits="userSpaceOnUse" gradientTransform="matrix(52.26659 36.79998 -10.96715 15.57652 45.067 49.867)"><stop stop-color="#AEF3FF"/><stop offset="1" stop-color="#76E2FF" stop-opacity=".01"/></radialGradient><radialGradient id="o4nfycu98p" cx="0" cy="0" r="1" gradientUnits="userSpaceOnUse" gradientTransform="rotate(84.289 8.224 50.176) scale(23.4497)"><stop stop-color="#111926" stop-opacity="0"/><stop offset="1" stop-color="#111926"/></radialGradient><radialGradient id="n41qgwyiks" cx="0" cy="0" r="1" gradientUnits="userSpaceOnUse" gradientTransform="matrix(8.53588 0 0 8.76655 60.76 60)"><stop stop-color="#21C8F6"/><stop offset="1" stop-color="#4BDEFF"/></radialGradient><radialGradient id="tdimxd3bpF" cx="0" cy="0" r="1" gradientUnits="userSpaceOnUse" gradientTransform="translate(4 4) scale(5.47104)"><stop stop-color="#21C8F6"/><stop offset="1" stop-color="#4BDEFF"/></radialGradient><filter id="mpawpyspwr" x="44.521" y="44.592" width="32.479" height="32.817" filterUnits="userSpaceOnUse" color-interpolation-filters="sRGB"><feFlood flood-opacity="0" result="BackgroundImageFix"/><feColorMatrix in="SourceAlpha" values="0 0 0 0 0 0 0 0 0 0 0 0 0 0 0 0 0 0 127 0" result="hardAlpha"/><feOffset dy="1"/><feGaussianBlur stdDeviation="5"/><feColorMatrix values="0 0 0 0 0.137255 0 0 0 0 0.788235 0 0 0 0 0.968627 0 0 0 1 0"/><feBlend in2="BackgroundImageFix" result="effect1_dropShadow_522_29421"/><feBlend in="SourceGraphic" in2="effect1_dropShadow_522_29421" result="shape"/></filter><filter id="w6jndk9rvE" x="63.211" y="43.803" width="16" height="16" filterUnits="userSpaceOnUse" color-interpolation-filters="sRGB"><feFlood flood-opacity="0" result="BackgroundImageFix"/><feColorMatrix in="SourceAlpha" values="0 0 0 0 0 0 0 0 0 0 0 0 0 0 0 0 0 0 127 0" result="hardAlpha"/><feOffset/><feGaussianBlur stdDeviation="2"/><feColorMatrix values="0 0 0 0 0.180392 0 0 0 0 0.811765 0 0 0 0 0.976471 0 0 0 1 0"/><feBlend in2="BackgroundImageFix" result="effect1_dropShadow_522_29421"/><feBlend in="SourceGraphic" in2="effect1_dropShadow_522_29421" result="shape"/></filter></defs></svg>