<svg width="120" height="120" fill="none" xmlns="http://www.w3.org/2000/svg"><circle cx="60" cy="60" r="60" fill="url(#4b9redgkya)"/><circle cx="60" cy="60" r="59" stroke="url(#ir14yb1qvb)" stroke-width="2"/><rect x="1.719" y="33.761" width="90.147" height="90.147" rx="2" transform="rotate(-21.107 1.72 33.761)" fill="#1D2D44"/><path opacity=".8" d="M32.5 113.5l-1-2.5 1-3 17.5-4.5h22l-39.5 10z" fill="#162338"/><rect x=".497" y="27.11" width="95.547" height="85.62" rx="4.963" transform="rotate(-10.66 .497 27.11)" fill="#273F66"/><path opacity=".3" d="M9 25.5L94.395 9.436l15.838 84.142L23 110 9 25.5z" fill="#162338"/><rect x="7.053" y="28.401" width="49.139" height="3.723" rx="1.861" transform="rotate(79.34 7.053 28.401)" fill="#162338"/><path fill="#6C9CE1" fill-opacity=".3" d="M6.691 34.53l.69 3.658-.733.138-.689-3.658zm3.03 16.097l.413 2.195-.732.138-.413-2.195zm1.102 5.853l.414 2.196-.733.138-.413-2.196zm1.653 8.78l.826 4.39-.732.138-.826-4.39zm1.514 8.05l.414 2.195-.732.137-.414-2.195zM8.482 44.042l.421 2.24-.732.139-.421-2.241z"/><g filter="url(#hjgbzsuqoc)"><path transform="rotate(79.34 5.865 30.14)" fill="url(#u4ytd4expd)" d="M5.865 30.14h3.723v.745H5.865z"/><path transform="rotate(79.34 7.655 39.652)" fill="url(#aescev9m6e)" d="M7.655 39.652h3.723v.745H7.655z"/><path transform="rotate(79.34 10.272 53.554)" fill="url(#4f9i3pofpf)" d="M10.272 53.554h2.234v.745h-2.234z"/><path transform="rotate(79.34 11.512 60.139)" fill="url(#75edq8x6pg)" d="M11.512 60.139h4.467v.745h-4.467z"/><path transform="rotate(79.34 13.44 70.382)" fill="url(#ok75re8hlh)" d="M13.44 70.382h2.234v.745H13.44z"/><path transform="rotate(79.34 9.033 46.969)" fill="url(#5v7u31zjwi)" d="M9.033 46.969h2.234v.745H9.033z"/></g><rect x="8.536" y="22.865" width="91.172" height="91.172" rx="2" transform="rotate(-10.66 8.536 22.865)" fill="url(#ie951fl8fj)"/><rect opacity=".541" x="8.536" y="22.865" width="91.172" height="91.172" rx="2" transform="rotate(-10.66 8.536 22.865)" fill="url(#aktdfae0ak)"/><path opacity=".25" d="M8.536 22.865L98.134 6 115 95.598 58 57.426 8.536 22.864z" fill="url(#fbhp9czlll)" fill-opacity=".2"/><rect x="20.366" y="99.13" width="8.686" height="3.723" rx="1.861" transform="rotate(79.34 20.366 99.13)" fill="#162338"/><circle cx="18.881" cy="101.303" transform="rotate(-10.66 18.881 101.303)" fill="#6C9CE1" fill-opacity=".3" r=".62"/><g filter="url(#3g2t7uh3jm)"><circle cx="19.34" cy="103.742" transform="rotate(-10.66 19.34 103.742)" fill="url(#5zazsin3qn)" r=".62"/></g><circle cx="19.799" cy="106.181" transform="rotate(-10.66 19.8 106.181)" fill="#6C9CE1" fill-opacity=".3" r=".62"/><g opacity=".2" fill-rule="evenodd" clip-rule="evenodd" fill="#AECFFF"><path d="M39.534 25.123a.722.722 0 01.64-.122l11.24 3.228a.722.722 0 01.24 1.267l-9.229 7.08a.722.722 0 01-.64.12l-11.17-3.235a.722.722 0 01-.24-1.265l9.159-7.073zm.593 1.367l-7.744 5.98 9.453 2.738 7.803-5.986-9.512-2.732z"/><path d="M51.472 28.248c.234.09.405.294.452.54l6.898 36.409a.722.722 0 01-.268.706l-9.257 7.163a.722.722 0 01-1.152-.437l-6.869-36.492a.722.722 0 01.27-.707l9.229-7.08a.722.722 0 01.697-.102zm-8.694 8.058l6.568 34.896 7.975-6.17-6.598-34.822-7.945 6.096z"/><path d="M30.329 32.228a.722.722 0 01.687-.159l11.171 3.24a.722.722 0 01.509.56l6.868 36.493a.722.722 0 01-.908.827L37.535 70a.722.722 0 01-.511-.559l-6.919-36.543a.722.722 0 01.224-.669zm1.414 1.556l6.617 34.95 9.569 2.744-6.57-34.905-9.616-2.79z"/><path d="M74.361 37.192a.722.722 0 01.623-.13l11.126 2.862a.722.722 0 01.27 1.265L58.09 63.628a.722.722 0 01-.65.128L46.27 60.52a.722.722 0 01-.244-1.264l28.335-22.064zm.607 1.358L48.03 59.527l9.453 2.738 26.86-21.304-9.375-2.411z"/><path d="M86.181 39.946a.724.724 0 01.459.541l2.389 12.455a.722.722 0 01-.26.7L60.367 76.248a.722.722 0 01-1.16-.432l-2.36-12.537a.722.722 0 01.261-.7l28.373-22.52a.722.722 0 01.7-.112zM58.349 63.44l2.057 10.932 27.123-21.586-2.082-10.855L58.349 63.44z"/><path d="M45.986 59.29a.722.722 0 01.685-.157l11.172 3.24c.263.077.46.296.509.566l2.276 12.614a.722.722 0 01-.91.823l-11.12-3.19a.722.722 0 01-.512-.563L45.76 59.957a.722.722 0 01.226-.666zm1.405 1.556l2.035 11.076L59 74.668l-1.99-11.032-9.62-2.79zm24.725-36.044a.722.722 0 01.638-.122l11.083 3.163a.722.722 0 01.24 1.268l-9.107 6.964a.722.722 0 01-.638.12l-11.016-3.17a.722.722 0 01-.24-1.267l9.04-6.956zm.592 1.367l-7.62 5.863 9.294 2.675 7.676-5.87-9.35-2.668z"/><path d="M83.896 27.863c.234.09.405.293.452.539l2.347 12.234a.722.722 0 01-.268.708l-9.137 7.045a.722.722 0 01-1.15-.438l-2.318-12.316a.722.722 0 01.27-.707l9.108-6.964a.722.722 0 01.696-.101zm-8.573 7.942l2.018 10.721 7.852-6.054L83.15 29.82l-7.827 5.984z"/><path d="M63.028 31.792a.722.722 0 01.687-.16l11.016 3.175c.262.076.46.292.51.56l2.318 12.317a.722.722 0 01-.907.828l-10.967-3.126a.722.722 0 01-.511-.558L62.806 32.46a.722.722 0 01.222-.669zm1.418 1.553l2.062 10.774 9.416 2.683-2.02-10.73-9.458-2.727z"/></g><path d="M109 63.5l6.5-1-28-30.499-24 18" stroke="#D3D9E5" stroke-width="2.001" stroke-linejoin="round"/><circle opacity=".7" cx="62.897" cy="49.902" r="14.897" transform="rotate(180 62.897 49.902)" fill="url(#9tvfykt0co)"/><circle cx="63.397" cy="50.036" r="2.525" transform="rotate(180 63.397 50.036)" fill="#fff"/><circle cx="86.732" cy="31.731" r="2.866" transform="rotate(-158 86.732 31.731)" fill="#fff"/><circle cx="115.387" cy="62.387" r="2.602" transform="rotate(-158 115.387 62.387)" fill="#fff"/><path fill="#6C9CE1" fill-opacity=".3" d="M47.81 88.064l8.845-1.665.185.983-8.845 1.665zm13.759-2.59l2.948-.555.185.983-2.948.555zm22.603-4.254l2.948-.555.185.983-2.948.555z"/><g filter="url(#jg3oc69zxp)" fill="#AECFFF"><path d="M37 90.099l8.845-1.665.185.983-8.845 1.665zm29.482-5.549l2.948-.556.185.983-2.948.555zm26.534-4.995L95.964 79l.185.983-2.948.555zm-35.378 6.659l2.948-.555.185.983-2.948.555zm31.447-5.919l2.948-.555.185.983-2.948.555zm-18.672 3.514l12.776-2.405.185.983-12.776 2.405z"/></g><path fill="#6C9CE1" fill-opacity=".3" d="M62.309 89.405l2.948-.555.185.983-2.948.555zm16.706-3.144l4.914-.925.185.983-4.914.925zM37.74 94.03l8.845-1.665.185.983-8.845 1.665zm51.103-9.62l3.931-.739.185.983-3.931.74z"/><path fill="#AECFFF" d="M84.912 85.15l2.948-.554.185.983-2.948.555zm-17.69 3.33l2.948-.555.185.983-2.948.555zm26.534-4.994l2.948-.555.185.983-2.948.555zM48.55 91.995l12.776-2.405.185.983-12.776 2.405zm22.603-4.255l6.88-1.295.184.983-6.88 1.295z"/><path fill="#6C9CE1" fill-opacity=".3" d="M49.29 95.926l8.845-1.665.185.983-8.845 1.665zm13.758-2.59l2.948-.555.185.983-2.948.555zm22.603-4.254l2.948-.555.185.983-2.948.555z"/><g filter="url(#2jnly62v7q)" fill="#AECFFF"><path d="M38.48 97.961l8.845-1.665.185.983-8.845 1.665zm29.482-5.55l2.948-.555.185.983-2.948.555zm26.534-4.994l2.948-.555.185.983-2.948.555zm-35.379 6.659l2.948-.555.185.983-2.948.555zm31.448-5.919l2.948-.555.185.983-2.948.555zm-18.672 3.514l12.776-2.405.185.983-12.776 2.405z"/></g><path fill="#6C9CE1" fill-opacity=".3" d="M63.788 97.267l2.948-.555.185.983-2.948.555zm16.707-3.144l4.914-.925.185.983-4.914.925zm-41.275 7.769l8.845-1.665.185.983-8.845 1.665zm51.102-9.619l3.931-.74.185.983-3.931.74z"/><path fill="#AECFFF" d="M86.391 93.013l2.948-.555.185.983-2.948.555zm-17.689 3.329l2.948-.555.185.983-2.948.555zm26.534-4.994l2.948-.555.185.983-2.948.555zM50.03 99.857l12.776-2.405.185.983-12.776 2.405zm22.603-4.255l6.88-1.295.184.983-6.88 1.295z"/><defs><linearGradient id="ir14yb1qvb" x1="28.5" y1="2.5" x2="97.5" y2="123" gradientUnits="userSpaceOnUse"><stop stop-color="#9BB0DE"/><stop offset="1" stop-color="#435B83"/></linearGradient><linearGradient id="u4ytd4expd" x1="4.38" y1="30.512" x2="4.38" y2="31.851" gradientUnits="userSpaceOnUse"><stop stop-color="#fff"/><stop offset="1" stop-color="#2D394B"/></linearGradient><linearGradient id="aescev9m6e" x1="6.17" y1="40.024" x2="6.17" y2="41.363" gradientUnits="userSpaceOnUse"><stop stop-color="#fff"/><stop offset="1" stop-color="#2D394B"/></linearGradient><linearGradient id="4f9i3pofpf" x1="9.381" y1="53.926" x2="9.381" y2="55.264" gradientUnits="userSpaceOnUse"><stop stop-color="#fff"/><stop offset="1" stop-color="#2D394B"/></linearGradient><linearGradient id="75edq8x6pg" x1="9.729" y1="60.511" x2="9.729" y2="61.85" gradientUnits="userSpaceOnUse"><stop stop-color="#fff"/><stop offset="1" stop-color="#2D394B"/></linearGradient><linearGradient id="ok75re8hlh" x1="12.549" y1="70.754" x2="12.549" y2="72.093" gradientUnits="userSpaceOnUse"><stop stop-color="#fff"/><stop offset="1" stop-color="#2D394B"/></linearGradient><linearGradient id="5v7u31zjwi" x1="8.142" y1="47.341" x2="8.142" y2="48.679" gradientUnits="userSpaceOnUse"><stop stop-color="#fff"/><stop offset="1" stop-color="#2D394B"/></linearGradient><linearGradient id="fbhp9czlll" x1="9" y1="21.425" x2="115" y2="96.425" gradientUnits="userSpaceOnUse"><stop stop-color="#98B4DD"/><stop offset="1" stop-color="#99B4DE"/></linearGradient><linearGradient id="5zazsin3qn" x1="18.225" y1="103.742" x2="18.225" y2="105.973" gradientUnits="userSpaceOnUse"><stop stop-color="#fff"/><stop offset="1" stop-color="#2D394B"/></linearGradient><radialGradient id="4b9redgkya" cx="0" cy="0" r="1" gradientUnits="userSpaceOnUse" gradientTransform="matrix(0 120 -120 0 60 0)"><stop stop-color="#263A5E"/><stop offset="1" stop-color="#0C1321"/></radialGradient><radialGradient id="ie951fl8fj" cx="0" cy="0" r="1" gradientUnits="userSpaceOnUse" gradientTransform="rotate(61.837 -8.919 28.385) scale(134.589)"><stop stop-color="#71A3EC"/><stop offset="1" stop-color="#132039"/></radialGradient><radialGradient id="aktdfae0ak" cx="0" cy="0" r="1" gradientUnits="userSpaceOnUse" gradientTransform="matrix(55.77517 100.44323 -225.42331 125.17543 22.48 13.593)"><stop stop-color="#D5DBE7"/><stop offset="1" stop-color="#233A64" stop-opacity="0"/></radialGradient><radialGradient id="9tvfykt0co" cx="0" cy="0" r="1" gradientUnits="userSpaceOnUse" gradientTransform="translate(62.895 49.908) scale(10.8985)"><stop stop-color="#fff"/><stop offset="1" stop-color="#757575" stop-opacity="0"/></radialGradient><filter id="hjgbzsuqoc" x="3.893" y="28.899" width="11.201" height="45.057" filterUnits="userSpaceOnUse" color-interpolation-filters="sRGB"><feFlood flood-opacity="0" result="BackgroundImageFix"/><feColorMatrix in="SourceAlpha" values="0 0 0 0 0 0 0 0 0 0 0 0 0 0 0 0 0 0 127 0" result="hardAlpha"/><feOffset/><feGaussianBlur stdDeviation=".62"/><feColorMatrix values="0 0 0 0 0.819608 0 0 0 0 0.847059 0 0 0 0 0.894118 0 0 0 1 0"/><feBlend in2="BackgroundImageFix" result="effect1_dropShadow_1305_27637"/><feBlend in="SourceGraphic" in2="effect1_dropShadow_1305_27637" result="shape"/></filter><filter id="3g2t7uh3jm" x="17.479" y="101.881" width="3.723" height="3.723" filterUnits="userSpaceOnUse" color-interpolation-filters="sRGB"><feFlood flood-opacity="0" result="BackgroundImageFix"/><feColorMatrix in="SourceAlpha" values="0 0 0 0 0 0 0 0 0 0 0 0 0 0 0 0 0 0 127 0" result="hardAlpha"/><feOffset/><feGaussianBlur stdDeviation=".62"/><feColorMatrix values="0 0 0 0 0.819608 0 0 0 0 0.847059 0 0 0 0 0.894118 0 0 0 1 0"/><feBlend in2="BackgroundImageFix" result="effect1_dropShadow_1305_27637"/><feBlend in="SourceGraphic" in2="effect1_dropShadow_1305_27637" result="shape"/></filter><filter id="jg3oc69zxp" x="35" y="77" width="63.15" height="16.082" filterUnits="userSpaceOnUse" color-interpolation-filters="sRGB"><feFlood flood-opacity="0" result="BackgroundImageFix"/><feColorMatrix in="SourceAlpha" values="0 0 0 0 0 0 0 0 0 0 0 0 0 0 0 0 0 0 127 0" result="hardAlpha"/><feOffset/><feGaussianBlur stdDeviation="1"/><feComposite in2="hardAlpha" operator="out"/><feColorMatrix values="0 0 0 0 0.682353 0 0 0 0 0.811765 0 0 0 0 1 0 0 0 0.53 0"/><feBlend in2="BackgroundImageFix" result="effect1_dropShadow_1305_27637"/><feBlend in="SourceGraphic" in2="effect1_dropShadow_1305_27637" result="shape"/></filter><filter id="2jnly62v7q" x="36.48" y="84.862" width="63.15" height="16.082" filterUnits="userSpaceOnUse" color-interpolation-filters="sRGB"><feFlood flood-opacity="0" result="BackgroundImageFix"/><feColorMatrix in="SourceAlpha" values="0 0 0 0 0 0 0 0 0 0 0 0 0 0 0 0 0 0 127 0" result="hardAlpha"/><feOffset/><feGaussianBlur stdDeviation="1"/><feComposite in2="hardAlpha" operator="out"/><feColorMatrix values="0 0 0 0 0.682353 0 0 0 0 0.811765 0 0 0 0 1 0 0 0 0.53 0"/><feBlend in2="BackgroundImageFix" result="effect1_dropShadow_1305_27637"/><feBlend in="SourceGraphic" in2="effect1_dropShadow_1305_27637" result="shape"/></filter></defs></svg>