<svg fill="none" xmlns="http://www.w3.org/2000/svg" viewBox="0 0 279 279"><circle opacity=".5" cx="139.5" cy="139.5" r="139.5" fill="url(#mwgcklpfla)"/><rect opacity=".3" width="142.528" height="134.869" rx="37.336" transform="matrix(.92975 -.36819 -.36854 -.92961 97.704 228.854)" fill="url(#63powhdylb)"/><rect opacity=".3" width="141.248" height="133.658" rx="37.336" transform="matrix(.27026 -.96279 -.96289 -.2699 184.372 225.962)" fill="url(#90up04xeyc)"/><rect width="131.953" height="124.863" rx="36" transform="matrix(1 0 -.00037 -1 73.047 201.863)" fill="url(#xlyabpekzd)"/><rect width="131.953" height="124.863" rx="36" transform="matrix(1 0 -.00037 -1 73.047 201.863)" fill="url(#mbhfpq6jve)"/><g clip-path="url(#kv839kuxtf)"><path fill-rule="evenodd" clip-rule="evenodd" d="M180.417 118.48c.028.106.043.216.043.326v17.116a1.252 1.252 0 01-.627 1.083l-14.366 8.271v16.394c0 .446-.237.858-.624 1.082l-29.988 17.263c-.068.039-.143.064-.218.091-.028.009-.055.026-.084.034-.21.055-.43.055-.64 0-.034-.009-.065-.028-.098-.04-.069-.025-.141-.047-.206-.085l-29.982-17.263a1.249 1.249 0 01-.627-1.082v-51.349c0-.113.016-.222.044-.328.009-.036.031-.068.043-.104.024-.066.046-.133.08-.194.023-.04.058-.073.086-.111.036-.049.068-.101.111-.145.035-.035.082-.062.123-.093.045-.038.086-.078.137-.108h.002l14.991-8.631a1.244 1.244 0 011.248 0l14.992 8.631h.003c.05.031.092.07.137.106.041.031.086.06.122.094.044.045.075.097.112.146.027.038.063.071.085.111.035.063.056.128.081.194.012.036.034.068.043.106.029.106.044.216.044.326v32.072l12.492-7.193v-16.396c0-.109.016-.22.044-.324.011-.038.031-.071.044-.106.025-.066.047-.133.081-.194.023-.04.058-.073.084-.111.038-.05.069-.101.113-.145.035-.036.081-.062.121-.093.047-.038.088-.078.137-.108h.002l14.993-8.631a1.244 1.244 0 011.248 0l14.992 8.631c.053.031.093.07.14.106.039.031.084.059.12.094.044.045.075.096.113.146.028.038.062.071.084.111.036.061.056.128.081.194.014.035.034.068.044.106zm-2.456 16.72v-14.234l-5.246 3.02-7.248 4.173v14.234l12.496-7.193h-.002zm-14.991 25.747v-14.242l-7.13 4.071-20.358 11.619v14.377l27.488-15.825zm-57.471-48.466v48.466l27.484 15.824v-14.374l-14.358-8.126-.005-.003-.006-.004c-.048-.028-.089-.068-.134-.103-.039-.031-.084-.056-.119-.09l-.003-.005c-.04-.039-.068-.087-.103-.131-.031-.042-.068-.078-.093-.121l-.002-.005c-.028-.047-.045-.103-.065-.156-.021-.047-.047-.091-.06-.14v-.002c-.015-.059-.018-.122-.025-.183-.006-.046-.018-.093-.018-.14v-33.513l-7.246-4.175-5.247-3.017v-.002zm13.744-9.35l-12.491 7.19 12.488 7.19 12.489-7.192-12.489-7.188h.003zm6.496 44.872l7.246-4.172v-31.35l-5.246 3.021-7.248 4.173v31.349l5.248-3.021zm38.48-36.387l-12.489 7.19 12.489 7.19 12.488-7.192-12.488-7.188zm-1.249 16.543l-7.248-4.173-5.246-3.02V135.2l7.246 4.171 5.248 3.022v-14.234zm-28.739 32.076l18.319-10.459 9.158-5.226-12.48-7.185-14.37 8.273-13.096 7.539 12.469 7.058z" fill="url(#n4fmj1kvjg)"/></g><path opacity=".3" fill-rule="evenodd" clip-rule="evenodd" d="M95.643 199.291c-13.254-5.313-22.618-18.277-22.623-33.428L73 113c-.007-19.882 16.104-36 35.987-36h59.953c11.662 0 22.031 5.546 28.613 14.144C140.39 93.912 94.986 136.44 94.986 188.5a88.7 88.7 0 00.657 10.791z" fill="url(#nvl7lthbdh)"/><defs><linearGradient id="63powhdylb" x1="44.265" y1="-194.295" x2="44.265" y2="134.869" gradientUnits="userSpaceOnUse"><stop stop-color="#6F90BC"/><stop offset="1" stop-color="#2E4469"/></linearGradient><linearGradient id="90up04xeyc" x1="43.868" y1="-192.551" x2="43.868" y2="133.658" gradientUnits="userSpaceOnUse"><stop stop-color="#6F90BC"/><stop offset="1" stop-color="#2E4469"/></linearGradient><linearGradient id="xlyabpekzd" x1="40.981" y1="-179.881" x2="40.981" y2="124.863" gradientUnits="userSpaceOnUse"><stop stop-color="#6F90BC"/><stop offset="1" stop-color="#2E4469"/></linearGradient><linearGradient id="mbhfpq6jve" x1="57.47" y1="46.363" x2="-38.947" y2="179.888" gradientUnits="userSpaceOnUse"><stop stop-color="#3CD6FC" stop-opacity="0"/><stop offset="1" stop-color="#3BD6FC"/></linearGradient><linearGradient id="nvl7lthbdh" x1="130.485" y1="155.5" x2="34.035" y2="21.964" gradientUnits="userSpaceOnUse"><stop stop-color="#3CD6FC" stop-opacity="0"/><stop offset="1" stop-color="#3BD6FC"/></linearGradient><radialGradient id="mwgcklpfla" cx="0" cy="0" r="1" gradientUnits="userSpaceOnUse" gradientTransform="rotate(90.352 .427 139.073) scale(117.818)"><stop stop-color="#2D56A0"/><stop offset="1" stop-color="#2D559F" stop-opacity="0"/></radialGradient><radialGradient id="n4fmj1kvjg" cx="0" cy="0" r="1" gradientUnits="userSpaceOnUse" gradientTransform="matrix(52.9827 0 0 252.263 88.403 140.311)"><stop stop-color="#21C8F6"/><stop offset="1" stop-color="#4BDEFF"/></radialGradient><clipPath id="kv839kuxtf"><path fill="#fff" transform="translate(103 100.44)" d="M0 0h78v81.12H0z"/></clipPath></defs></svg>