<svg width="50" height="50" xmlns="http://www.w3.org/2000/svg" xmlns:xlink="http://www.w3.org/1999/xlink"><defs><linearGradient x1="33.039%" y1="6.033%" x2="71.681%" y2="100%" id="e"><stop stop-color="#2E4469" offset="0%"/><stop stop-color="#2E4469" stop-opacity="0" offset="100%"/></linearGradient><linearGradient x1="14.484%" y1="43.121%" x2="51.414%" y2="62.697%" id="f"><stop stop-color="#2F4568" offset="0%"/><stop stop-color="#445D7F" stop-opacity="0" offset="100%"/></linearGradient><linearGradient x1="87.959%" y1="52.773%" x2="76.976%" y2="64.318%" id="g"><stop stop-color="#2E4469" offset="0%"/><stop stop-color="#2E4469" stop-opacity="0" offset="100%"/></linearGradient><linearGradient x1="26.207%" y1="35.744%" x2="86.349%" y2="24.815%" id="i"><stop stop-color="#5B79A2" stop-opacity="0" offset="0%"/><stop stop-color="#2E4469" offset="100%"/></linearGradient><linearGradient x1="0%" y1="50%" x2="100%" y2="50%" id="j"><stop stop-color="#5B79A2" offset="0%"/><stop stop-color="#2E4469" offset="100%"/></linearGradient><linearGradient x1="50%" y1="0%" x2="50%" y2="100%" id="k"><stop stop-color="#5B79A2" offset="0%"/><stop stop-color="#2E4469" offset="100%"/></linearGradient><linearGradient x1="91.619%" y1="52.587%" x2="39.267%" y2="50%" id="o"><stop stop-color="#F878B2" stop-opacity="0" offset="0%"/><stop stop-color="#EF437A" offset="100%"/></linearGradient><linearGradient x1="43.192%" y1="53.106%" x2="7.635%" y2="25.1%" id="p"><stop stop-color="#56749D" offset="0%"/><stop stop-color="#7093C2" offset="100%"/></linearGradient><linearGradient x1="12.1%" y1="81.38%" x2="67.343%" y2="27.22%" id="r"><stop stop-color="#F4487D" stop-opacity=".16" offset="0%"/><stop stop-color="#FF6E9C" offset="100%"/></linearGradient><linearGradient x1="0%" y1="50%" x2="124.706%" y2="50%" id="s"><stop stop-color="#F44881" offset="0%"/><stop stop-color="#E3356A" offset="100%"/></linearGradient><linearGradient x1="6.962%" y1="120.335%" x2="60.737%" y2="27.22%" id="u"><stop stop-color="#F4487D" stop-opacity=".16" offset="0%"/><stop stop-color="#FF6E9C" offset="100%"/></linearGradient><linearGradient x1="0%" y1="50%" x2="124.706%" y2="50%" id="v"><stop stop-color="#F44881" offset="0%"/><stop stop-color="#E3356A" offset="100%"/></linearGradient><linearGradient x1="33.014%" y1="50%" x2="56.115%" y2="24.815%" id="w"><stop stop-color="#5B79A2" stop-opacity="0" offset="0%"/><stop stop-color="#2E4469" offset="100%"/></linearGradient><linearGradient x1="73.096%" y1="-23.583%" x2="6.204%" y2="142.519%" id="x"><stop stop-color="#56749D" offset="0%"/><stop stop-color="#25395B" offset="100%"/></linearGradient><linearGradient x1="20.279%" y1="17.092%" x2="77.708%" y2="76.142%" id="y"><stop stop-color="#5B79A2" offset="0%"/><stop stop-color="#2E4469" offset="100%"/></linearGradient><linearGradient x1="22.318%" y1="12.159%" x2="75.808%" y2="80.06%" id="z"><stop stop-color="#395273" offset="0%"/><stop stop-color="#1D2D4A" offset="100%"/></linearGradient><filter x="-9.7%" y="-58.1%" width="119.4%" height="216.3%" filterUnits="objectBoundingBox" id="d"><feGaussianBlur stdDeviation="1.005" in="SourceGraphic"/></filter><filter x="-2.5%" y="-5.7%" width="105%" height="110.4%" filterUnits="objectBoundingBox" id="h"><feGaussianBlur stdDeviation=".353" in="SourceGraphic"/></filter><filter x="-4.7%" y="-7.5%" width="109.4%" height="114.9%" filterUnits="objectBoundingBox" id="l"><feGaussianBlur stdDeviation=".369" in="SourceGraphic"/></filter><filter x="-11.7%" y="-38.3%" width="123.4%" height="173.2%" filterUnits="objectBoundingBox" id="m"><feMorphology radius=".275" operator="dilate" in="SourceAlpha" result="shadowSpreadOuter1"/><feOffset in="shadowSpreadOuter1" result="shadowOffsetOuter1"/><feMorphology radius="1" in="SourceAlpha" result="shadowInner"/><feOffset in="shadowInner" result="shadowInner"/><feComposite in="shadowOffsetOuter1" in2="shadowInner" operator="out" result="shadowOffsetOuter1"/><feGaussianBlur stdDeviation=".5" in="shadowOffsetOuter1" result="shadowBlurOuter1"/><feColorMatrix values="0 0 0 0 1 0 0 0 0 0.0915967988 0 0 0 0 0.38564639 0 0 0 1 0" in="shadowBlurOuter1"/></filter><filter x="-70.5%" y="-71.9%" width="241%" height="243.8%" filterUnits="objectBoundingBox" id="q"><feGaussianBlur stdDeviation=".776" in="SourceGraphic"/></filter><filter x="-70.5%" y="-71.9%" width="241%" height="243.8%" filterUnits="objectBoundingBox" id="t"><feGaussianBlur stdDeviation=".776" in="SourceGraphic"/></filter><path id="a" d="M0 .814h50v49.02H0z"/><path d="M22.636 11.107l-4.62 2.888a.635.635 0 01-.526.068l-9.294-2.896a.635.635 0 01-.315-.22L6.565 9.225" id="n"/><radialGradient cx="52.101%" cy="30.594%" fx="52.101%" fy="30.594%" r="291.991%" gradientTransform="matrix(-.16712 0 0 -.25522 .608 .384)" id="c"><stop offset="0%"/><stop stop-opacity=".002" offset="100%"/></radialGradient></defs><g fill="none" fill-rule="evenodd"><mask id="b" fill="#fff"><use xlink:href="#a"/></mask><g mask="url(#b)"><g transform="translate(-3 -1.96)"><ellipse fill="url(#c)" opacity=".783" filter="url(#d)" transform="rotate(1 27.853 42.54)" cx="27.853" cy="42.541" rx="15.513" ry="2.592"/><path d="M6.762 19.505l21.812-.927c1.24-.106 2.74.415 3.351 1.165L49.284 35.86c.611.75-.462 2.465-1.701 2.572l-24.687 2.12c-1.24.107-2.74-.414-3.352-1.164L5.566 22.249c-.612-.75-.043-2.637 1.196-2.744z" fill="#1B283E"/><path d="M1.797 4.348c7.387 10.855 11.732 17.36 13.034 19.514 1.576 2.608-.89.524-1.052.286L1.347 5.855c-.11-.24-.17-.43-.18-.57-.03-.37.08-.794.254-1.114a2.69 2.69 0 01.364-.504c.177-.18.18.047.012.68z" fill="url(#e)" transform="rotate(-5 191.29 -34.257)"/><path d="M3.043 1.903l23.047.443c1.244.002 2.694.652 3.237 1.452l14.163 17.89c.544.8-.024 1.447-1.268 1.445l-24.778-.039c-1.244-.002-2.693-.652-3.237-1.452L1.776 3.349c-.544-.8.023-1.447 1.267-1.446z" fill="url(#f)" transform="rotate(-5 205.665 -36.123)"/><path d="M.492 6.252l13.86 16.35c.635.748 2.195 1.265 3.486 1.154l25.71-2.209c.296-.025.582-.135.84-.297-.284.68-.981 1.35-1.741 1.416l-24.687 2.12c-1.24.107-2.74-.415-3.352-1.164L.63 6.482a.968.968 0 01-.138-.23z" fill="url(#g)" transform="translate(4.936 15.767)"/><path d="M4.663 3.189l-1.126.37-1.71.18 13.655 16.34a4.23 4.23 0 003.622 1.5l24.669-2.199-1.358-1.476-18.264-13.65L4.663 3.19z" fill="#0E151F" opacity=".35" filter="url(#h)" transform="translate(4.936 15.767)"/><path d="M8.172 15.012l21.812-.927c1.24-.107 2.74.415 3.352 1.164l17.358 16.119c.611.75-.461 2.465-1.7 2.571L24.305 36.06c-1.24.107-2.74-.415-3.352-1.165L6.976 17.755c-.612-.749-.043-2.637 1.196-2.743z" fill="#1B283E"/><path d="M9.593 15.673l-.377 1.34.938 1.136.478-1.206-1.039-1.27z" fill="url(#i)" transform="translate(6.346 11.274)"/><path d="M3.043 1.903c.83.002 8.512.15 23.047.443 1.244.002 2.694.652 3.237 1.452l14.163 17.89c.544.8-.024 1.447-1.268 1.445l-24.778-.039c-1.244-.002-2.693-.652-3.237-1.452L1.776 3.349c-.544-.8.023-1.447 1.267-1.446z" fill="url(#j)" transform="rotate(-5 154.912 -54.52)"/><path d="M21.096 3.362c.022.02.042.04.057.061l2.423 3.19c.064.084.06.16-.008.202l-2.52 1.542 2.32 3.056c.064.083.061.16-.007.201L18.1 14.832c-.012.007-.028.012-.044.017-.005.002-.01.005-.016.006a.44.44 0 01-.165 0c-.01-.001-.02-.005-.03-.007-.022-.005-.043-.009-.066-.016L7.63 11.614a.658.658 0 01-.315-.201L.045 1.842a.257.257 0 01-.034-.061c-.003-.007-.002-.013-.004-.02C.004 1.75 0 1.736 0 1.725c0-.007.004-.014.006-.02.003-.01.004-.02.008-.028.004-.006.013-.011.019-.017.006-.007.01-.015.02-.02L2.683.03c.069-.041.19-.041.322 0l5.074 1.61.051.02c.015.005.03.01.045.017l.05.027.037.021c.018.012.032.024.048.036.008.007.019.013.026.02a.43.43 0 01.058.06l4.54 5.979 2.192-1.341-2.321-3.056a.254.254 0 01-.035-.06l-.003-.02c-.003-.013-.007-.025-.007-.036 0-.008.004-.014.006-.021.002-.01.003-.019.008-.027.004-.007.012-.012.018-.018.007-.007.012-.014.02-.02l2.632-1.608c.068-.042.19-.042.32 0L20.84 3.22l.051.02c.015.006.03.011.044.018.018.008.033.018.05.027l.037.02a.628.628 0 01.049.037c.008.006.018.012.026.02zm-.28.464l-.92.563-1.272.778L20.64 7.82l2.193-1.341-2.015-2.653zm1.808 7.452l-2.016-2.655-1.256.76-3.587 2.165 2.036 2.68 4.823-2.95zm-14.769 0l9.303 2.95-2.035-2.68-4.84-1.515c-.02-.006-.036-.013-.053-.02-.014-.006-.03-.01-.043-.017-.017-.008-.031-.017-.046-.025l-.042-.023-.04-.03-.035-.026c-.012-.011-.022-.023-.032-.034l-.025-.026-4.744-6.247-2.454-.778-1.775-.562 6.861 9.033zM1.01 1.842l4.227 1.34 2.191-1.34L3.201.501 1.01 1.842zm10.214 7.023l1.271-.777-4.438-5.844-.92.563-1.272.778 4.438 5.843.92-.563zm4.737-6.782l-2.191 1.34 4.227 1.34 2.191-1.34-4.227-1.34zm2.021 3.084l-2.453-.778-1.776-.563 2.015 2.653 2.453.777 1.777.564-2.016-2.653zm-2.844 5.978l3.227-1.95 1.614-.973-4.225-1.34-2.521 1.542-2.298 1.406 4.203 1.315z" fill="url(#k)" filter="url(#l)" transform="translate(15.513 16.804)"/><path d="M36.338 20.317c.021.018.04.038.054.057l2.311 3.005c.06.078.058.15-.007.19l-2.404 1.452 2.213 2.878c.06.078.058.15-.007.19l-5.019 3.03a.152.152 0 01-.041.016c-.006.002-.01.005-.016.006a.424.424 0 01-.157 0c-.01-.001-.02-.004-.03-.007-.02-.004-.04-.008-.061-.014l-9.68-3.031a.628.628 0 01-.3-.19l-6.932-9.015a.242.242 0 01-.034-.057c-.003-.006-.002-.012-.003-.018a.115.115 0 01-.007-.034c0-.007.004-.013.006-.02.002-.009.003-.018.008-.025.004-.007.011-.011.017-.017.006-.006.01-.013.02-.019l2.509-1.515c.064-.039.18-.039.305 0l4.84 1.515.049.019c.014.005.03.01.043.016l.047.026c.011.007.025.013.035.02.018.01.031.022.046.034l.025.018c.022.019.04.038.055.057l4.33 5.63 2.091-1.262-2.214-2.878a.238.238 0 01-.033-.057c-.002-.007-.001-.013-.003-.019-.003-.011-.007-.023-.006-.034 0-.007.004-.013.005-.02.003-.008.003-.017.008-.025.004-.006.012-.01.017-.016.007-.007.011-.014.02-.02l2.51-1.514c.064-.04.18-.04.305 0l4.84 1.515c.017.005.032.012.049.019l.042.016c.017.008.031.017.047.026.012.006.025.012.036.02.017.01.03.022.046.033l.025.019zm-.266.436l-.878.53-1.213.733 1.921 2.499 2.092-1.263-1.922-2.499zm1.724 7.02l-1.924-2.501-1.197.715-3.421 2.04 1.941 2.523 4.6-2.778zm-14.086 0l8.872 2.777-1.94-2.523-4.617-1.427c-.019-.006-.034-.013-.05-.02-.014-.005-.028-.009-.041-.015l-.045-.024-.039-.021-.038-.028c-.011-.009-.024-.016-.034-.025-.012-.01-.02-.022-.03-.032-.008-.009-.018-.017-.024-.025l-4.525-5.883-2.34-.733-1.693-.53 6.544 8.508zm-6.529-8.889l4.032 1.263 2.09-1.263-4.032-1.262-2.09 1.262zm9.741 6.616l1.213-.733-4.233-5.503-.878.53-1.213.733 4.233 5.503.878-.53zm4.519-6.388l-2.09 1.262 4.032 1.262 2.09-1.262-4.032-1.262zm1.927 2.904l-2.34-.733-1.693-.53 1.922 2.499 2.339.732 1.694.53-1.922-2.498zm-2.712 5.631l3.077-1.836 1.54-.917-4.03-1.262-2.405 1.452-2.191 1.324 4.009 1.239z" stroke="#1B283E" stroke-width=".55" fill="#1B283E"/><g stroke-linecap="round" stroke-linejoin="round" transform="translate(15.513 16.804)"><use fill="#000" filter="url(#m)" xlink:href="#n"/><use stroke="url(#o)" stroke-width=".55" xlink:href="#n"/></g><path d="M9.415 13.79l23.047.442c1.244.002 2.693.652 3.237 1.452L23.816 34.98c-1.244-.002-2.693-.653-3.237-1.453L8.147 15.234c-.543-.8.024-1.447 1.268-1.445z" fill="url(#p)" opacity=".376" transform="rotate(-5 21.82 24.384)"/><g transform="translate(0 15.814)"><ellipse fill="#F1476C" filter="url(#q)" cx="21.45" cy="9.946" rx="1.65" ry="1.618"/><path stroke="url(#r)" stroke-width=".705" stroke-linejoin="round" d="M.247 12.1L1.4 14.589l10.8-5.77-7.26-7.512" transform="scale(-1 1) rotate(-31 7.686 52.286)"/><g transform="scale(-1 1) rotate(-31 6.26 45.365)"><ellipse fill="#F1476C" cx="1.115" cy="1.093" rx="1.115" ry="1.093"/><path d="M1.061 0c.347 0 .656.163.85.416a1.072 1.072 0 00-.637-.208C.688.208.212.674.212 1.248c0 .235.08.452.213.626A1.033 1.033 0 010 1.04C0 .466.475 0 1.061 0z" fill-opacity=".2" fill="#FFF"/></g><g transform="scale(-1 1) rotate(-31 32.134 44.27)"><circle fill="#F1476C" cx=".796" cy=".781" r="1"/><path d="M.758 0c.248 0 .468.117.606.297A.767.767 0 00.91.149a.75.75 0 00-.758.743.73.73 0 00.15.446A.737.737 0 010 .743C0 .333.34 0 .758 0z" fill-opacity=".2" fill="#FFF"/></g><g transform="scale(-1 1) rotate(-31 15.782 29.02)"><ellipse fill="url(#s)" cx="1.274" cy="1.249" rx="1.274" ry="1.249"/><path d="M1.213 0c.397 0 .75.187.971.477a1.22 1.22 0 00-.728-.24A1.203 1.203 0 00.243 1.428c0 .268.09.515.243.714A1.18 1.18 0 010 1.19C0 .532.543 0 1.213 0z" fill-opacity=".2" fill="#FFF"/></g></g><g transform="scale(-1 1) rotate(64 -16.257 -25.528)"><ellipse fill="#F1476C" filter="url(#t)" cx="16.53" cy="7.979" rx="1.65" ry="1.618"/><path stroke="url(#u)" stroke-width=".705" stroke-linejoin="round" d="M.072 10.012l1.298 1.621 6.2-4.772L4.192 1.04" transform="scale(-1 1) rotate(-31 4.898 41.046)"/><g transform="scale(-1 1) rotate(-31 3.635 35.069)"><circle fill="#F1476C" cx=".889" cy=".871" r="1"/><path d="M.846 0a.85.85 0 01.678.333.851.851 0 00-.508-.167.838.838 0 00-.847.83c0 .187.063.359.17.498A.824.824 0 010 .83C0 .372.379 0 .846 0z" fill-opacity=".2" fill="#FFF"/></g><g transform="scale(-1 1) rotate(-31 24.266 34.196)"><circle fill="#F1476C" cx=".635" cy=".622" r="1"/><path d="M.611 0c.2 0 .377.094.489.239a.618.618 0 00-.366-.12.605.605 0 00-.612.6c0 .135.046.26.123.36A.596.596 0 01.611 0z" fill-opacity=".2" fill="#FFF"/></g><g transform="scale(-1 1) rotate(-31 12.17 26.35)"><ellipse fill="url(#v)" cx="1.016" cy=".996" rx="1.016" ry="1"/><path d="M.967 0c.317 0 .599.15.775.38a.972.972 0 00-.581-.19.958.958 0 00-.968.948c0 .214.072.41.194.569A.94.94 0 010 .948C0 .425.433 0 .967 0z" fill-opacity=".2" fill="#FFF"/></g></g><path d="M19.093 30.63l-.407 1.247.954 1.173.456-1.173-1.003-1.247z" fill="url(#w)"/><path d="M16.978 34.432l-.407 1.247.953 1.173.457-1.173-1.003-1.247z" fill="url(#w)" opacity=".689"/><path d="M18.686 31.796c-4.305-.957-5.372 3.896-1.432 4.019" stroke="url(#x)" stroke-width=".55"/><path d="M18.826 31.602c-.19.21-.163.313 0 .492.109.119.32.154.634.106.08-.129.12-.258.12-.387s-.04-.258-.12-.387c-.295-.022-.507.037-.634.176z" fill="#25395B"/><path d="M.47.104C.264.314.294.701.47.88c.117.119.372.119.764 0a.689.689 0 00.13-.387.689.689 0 00-.13-.388C.862-.035.607-.035.47.104z" fill="url(#y)" transform="translate(17.98 31.322)"/><path d="M17.078 35.656c-.115.14-.098.21 0 .328.065.08.192.103.38.071a.523.523 0 00.072-.258.523.523 0 00-.072-.258c-.177-.015-.304.025-.38.117z" fill="#25395B"/><path d="M.282.07C.158.209.176.467.282.586c.07.08.223.08.458 0A.494.494 0 00.82.328.494.494 0 00.74.07C.517-.023.364-.023.282.07z" fill="url(#z)" transform="translate(16.57 35.47)"/></g></g></g></svg>