<svg width="150" height="114" fill="none" xmlns="http://www.w3.org/2000/svg"><rect width="39.074" height="10.906" rx="5.453" transform="scale(1 -1) rotate(-15 -158.474 -352.58)" fill="url(#73guxitana)"/><rect width="74.614" height="12.058" rx="6.029" transform="scale(1 -1) rotate(-15 -110.03 -301.56)" fill="url(#d092lvim8b)"/><rect width="72.054" height="10.906" rx="5.453" transform="scale(1 -1) rotate(-15 -16.684 -257.141)" fill="url(#x0m3qfyo1c)"/><rect width="57.228" height="10.543" rx="5.271" transform="scale(1 -1) rotate(-15 -59.197 -270.644)" fill="url(#5g8jrbbhvd)"/><path fill-rule="evenodd" clip-rule="evenodd" d="M13.579 37.733a5.271 5.271 0 10-2.729-10.184l-6.942 1.86a5.271 5.271 0 002.729 10.184l6.942-1.86zm48.52-13.001a5.271 5.271 0 10-2.729-10.184l-32.63 8.743a5.271 5.271 0 102.73 10.184l32.629-8.743z" fill="url(#bfh8skarfe)"/><path fill-rule="evenodd" clip-rule="evenodd" d="M6.83 98.642L61.91 4.897A9.919 9.919 0 0170.603 0a9.918 9.918 0 018.506 4.897l55.079 93.745c2.693 4.583 1.16 10.482-3.423 13.175l-.126.072a9.882 9.882 0 01-5.94 1.238H17.031a9.85 9.85 0 01-.572-.017 9.877 9.877 0 01-6.08-1.221c-4.623-2.623-6.245-8.498-3.622-13.122a9.51 9.51 0 01.073-.126zm101.871-4.803L70.509 28.837 32.318 93.839H108.7z" fill="url(#vn2b4bhz5f)"/><defs><linearGradient id="73guxitana" x1="39.074" y1="6.059" x2=".443" y2="6.059" gradientUnits="userSpaceOnUse"><stop stop-color="#8B60ED"/><stop offset="1" stop-color="#B372BD"/></linearGradient><linearGradient id="d092lvim8b" x1=".847" y1="5.359" x2="74.614" y2="5.359" gradientUnits="userSpaceOnUse"><stop stop-color="#6EDCC4"/><stop offset="1" stop-color="#1AAB8B"/></linearGradient><linearGradient id="x0m3qfyo1c" x1="29.535" y1="6.558" x2="37.375" y2="-21.322" gradientUnits="userSpaceOnUse"><stop stop-color="#F44881"/><stop offset="1" stop-color="#EC454F"/></linearGradient><linearGradient id="5g8jrbbhvd" x1="57.228" y1="5.271" x2="19.624" y2="-21.873" gradientUnits="userSpaceOnUse"><stop stop-color="#F19A1A"/><stop offset="1" stop-color="#FFC73C"/></linearGradient><linearGradient id="bfh8skarfe" x1="70.916" y1="18.8" x2="52.67" y2="59.907" gradientUnits="userSpaceOnUse"><stop stop-color="#4BDEFF"/><stop offset="1" stop-color="#0487EB"/></linearGradient><linearGradient id="vn2b4bhz5f" x1="46.535" y1="15.689" x2="100.317" y2="106.677" gradientUnits="userSpaceOnUse"><stop stop-color="#4BDEFF"/><stop offset="1" stop-color="#0487EB"/></linearGradient></defs></svg>