<svg width="340" height="352" viewBox="0 0 340 352" fill="none" xmlns="http://www.w3.org/2000/svg">
    <ellipse opacity=".523" cx="102.695" cy="329.194" rx="102.287" ry="23.627" transform="rotate(.974 102.695 329.194)" fill="url(#9drm2h3xga)"/>
    <path fill-rule="evenodd" clip-rule="evenodd" d="m4.908 160.889 203.088-3.545c12.293-.214 22.431 9.576 22.646 21.869a22.254 22.254 0 0 1-.217 3.508l-14.331 101.244c-3.067 21.667-21.425 37.893-43.304 38.274l-126.942 2.216c-21.88.382-40.793-15.193-44.614-36.739l-17.856-100.683c-2.147-12.105 5.926-23.658 18.03-25.805a22.314 22.314 0 0 1 3.5-.339z" fill="#1B283E"/>
    <path fill-rule="evenodd" clip-rule="evenodd" d="m-2.22 150.395 216.975-3.788c12.292-.214 22.43 9.577 22.645 21.869a22.26 22.26 0 0 1-.27 3.868l-14.963 94.535c-3.377 21.342-21.592 37.178-43.196 37.555l-139.922 2.442c-21.604.377-40.36-14.813-44.48-36.024l-18.253-93.955c-2.345-12.069 5.538-23.753 17.607-26.097a22.198 22.198 0 0 1 3.856-.405z" fill="url(#rlns68f5lb)"/>
    <path fill-rule="evenodd" clip-rule="evenodd" d="m-2.22 150.395 216.975-3.788c12.292-.214 22.43 9.577 22.645 21.869a22.26 22.26 0 0 1-.27 3.868l-14.963 94.535c-3.377 21.342-21.592 37.178-43.196 37.555l-139.922 2.442c-21.604.377-40.36-14.813-44.48-36.024l-18.253-93.955c-2.345-12.069 5.538-23.753 17.607-26.097a22.198 22.198 0 0 1 3.856-.405z" fill="url(#5azrwphedc)"/>
    <path opacity=".705" fill-rule="evenodd" clip-rule="evenodd" d="m-2.22 150.395 216.975-3.788c12.292-.214 22.43 9.577 22.645 21.869a22.26 22.26 0 0 1-.27 3.868l-14.963 94.535c-3.377 21.342-21.592 37.178-43.196 37.555l-139.922 2.442c-21.604.377-40.36-14.813-44.48-36.024l-18.253-93.955c-2.345-12.069 5.538-23.753 17.607-26.097a22.198 22.198 0 0 1 3.856-.405z" fill="url(#fom60xyfzd)"/>
    <path opacity=".899" d="M246.357 202.542c1.259-7.948-4.164-15.412-12.113-16.671-7.948-1.259-15.412 4.164-16.671 12.112-1.258 7.949 4.164 15.413 12.113 16.671 7.948 1.259 15.412-4.164 16.671-12.112z" fill="url(#3ocxjadsde)"/>
    <path d="M242.305 200.298c21.575 4.461 5.391 22.959 5.391 41.897 0 16.782-12.347 25.495-25.455 23.502" stroke="url(#ijxwqpsk0f)" stroke-width="6.557"/>
    <path d="M238.251 205.633a5.203 5.203 0 1 1 1.448-10.306l.516.072a5.203 5.203 0 1 1-1.449 10.307l-.515-.073z" fill="#1B283E"/>
    <path d="m229.454 204.659 1.521-10.821a3.643 3.643 0 1 1 7.215 1.013l-1.521 10.822a3.643 3.643 0 1 1-7.215-1.014z" fill="url(#ir7xesnsxg)"/>
    <path fill-rule="evenodd" clip-rule="evenodd" d="m43.41 229.238 126.323-2.205a3.383 3.383 0 1 1 .118 6.765l-64.166 1.12-62.156 1.085a3.384 3.384 0 0 1-.118-6.765z" fill="#1B283E"/>
    <g filter="url(#twqp9ngsih)">
        <path d="m43.627 241.622 126.322-2.205a3.384 3.384 0 0 1 .118 6.765l-64.166 1.12-62.156 1.085a3.382 3.382 0 1 1-.118-6.765z" fill="#000"/>
    </g>
    <path d="m43.627 241.622 126.322-2.205a3.384 3.384 0 0 1 .118 6.765l-64.166 1.12-62.156 1.085a3.382 3.382 0 1 1-.118-6.765z" fill="url(#f8rxkjcdmi)"/>
    <path fill-rule="evenodd" clip-rule="evenodd" d="m45.614 253.975 126.323-2.205a3.383 3.383 0 0 1 .118 6.765l-64.167 1.12-62.156 1.085a3.382 3.382 0 1 1-.118-6.765zM45.83 266.36l126.323-2.205a3.383 3.383 0 0 1 .118 6.765l-64.167 1.12-62.155 1.085a3.383 3.383 0 0 1-.119-6.765z" fill="#1B283E"/>
    <path fill-rule="evenodd" clip-rule="evenodd" d="m34.829 151.518 145.687-2.543c12.292-.215 22.431 9.576 22.646 21.868a22.245 22.245 0 0 1-.921 6.735l-2.045 6.876c-5.535 18.607-22.487 31.482-41.896 31.821l-98.92 1.727c-19.409.338-36.8-11.938-42.98-30.34l-2.285-6.8c-3.914-11.654 2.36-24.275 14.015-28.189a22.227 22.227 0 0 1 6.699-1.155z" fill="url(#vg2enp6d1j)"/>
    <path fill-rule="evenodd" clip-rule="evenodd" d="m-.367 152.132 215.118-3.754c12.292-.215 22.431 9.576 22.646 21.868a22.266 22.266 0 0 1-1.684 8.89l-3.739 9.047a44.522 44.522 0 0 1-40.369 27.511L25.115 218.6a44.52 44.52 0 0 1-41.305-26.085l-4.052-8.911c-5.089-11.192-.142-24.39 11.05-29.478a22.268 22.268 0 0 1 8.825-1.994z" fill="url(#97aquvuj5k)"/>
    <path opacity=".705" fill-rule="evenodd" clip-rule="evenodd" d="m-.367 152.132 215.118-3.754c12.292-.215 22.431 9.576 22.646 21.868a22.266 22.266 0 0 1-1.684 8.89l-3.739 9.047a44.522 44.522 0 0 1-40.369 27.511L25.115 218.6a44.52 44.52 0 0 1-41.305-26.085l-4.052-8.911c-5.089-11.192-.142-24.39 11.05-29.478a22.268 22.268 0 0 1 8.825-1.994z" fill="url(#0eh1h7p27l)"/>
    <path opacity=".504" fill-rule="evenodd" clip-rule="evenodd" d="M236.692 170.258a22.266 22.266 0 0 1-1.684 8.89l-3.738 9.047a44.523 44.523 0 0 1-40.37 27.511l-166.49 2.906a44.52 44.52 0 0 1-41.305-26.085l-4.052-8.911a22.18 22.18 0 0 1-.985-15.849 19.227 19.227 0 0 0 1.945 12.854l2.145 3.99a44.52 44.52 0 0 0 39.985 23.422l170.653-2.979a44.52 44.52 0 0 0 39.143-24.803l2.006-4.062a19.361 19.361 0 0 0 1.489-12.948 22.233 22.233 0 0 1 1.258 7.017z" fill="#1B283E"/>
    <path fill-rule="evenodd" clip-rule="evenodd" d="m78.406 159.606 60.484-1.056a22.257 22.257 0 0 1 14.737 5.239l10.045 8.469a8.064 8.064 0 0 1-5.057 14.228l-98.947 1.727a8.064 8.064 0 0 1-5.55-14.043l9.743-8.815a22.264 22.264 0 0 1 14.545-5.749z" fill="#1B283E"/>
    <path fill-rule="evenodd" clip-rule="evenodd" d="m90.032 106.073 37.585-.656c9.56-.167 17.446 7.448 17.613 17.009l.737 42.246c.096 5.463-4.256 9.969-9.719 10.065l-52.423.915c-5.463.095-9.969-4.256-10.064-9.72l-.738-42.246c-.167-9.56 7.449-17.446 17.01-17.613z" fill="url(#4pjw47n7nm)"/>
    <path d="M108.557 167.474c14.08-.245 25.296-11.859 25.05-25.94-.246-14.081-11.86-25.296-25.94-25.05-14.081.245-25.297 11.859-25.05 25.94.245 14.081 11.859 25.296 25.94 25.05z" fill="#1B283E"/>
    <path fill-rule="evenodd" clip-rule="evenodd" d="m281.297 120.589-28.981 50.196c1.173.677 2.328 1.384 3.501 2.062a267.594 267.594 0 0 0 6.58 3.676l28.945-50.135-10.045-5.799z" fill="url(#4a6bm03lmn)"/>
    <path fill-rule="evenodd" clip-rule="evenodd" d="m308.176 110.142 4.716 17.599-21.136 5.663a9.09 9.09 0 0 1-11.157-6.441 9.092 9.092 0 0 1 6.442-11.158l21.135-5.663z" fill="url(#ng6y3mvw8o)"/>
    <path d="m291.021 83.742 18.953-4.866 14.874 57.933c1.344 5.233-1.809 10.566-7.043 11.909-5.233 1.344-10.565-1.809-11.909-7.043l-14.875-57.933z" fill="url(#huxlqyp16p)"/>
    <path d="M283.564 88.143c-12.154-7.017-16.318-22.558-9.301-34.71 7.017-12.154 22.557-16.318 34.711-9.301 12.153 7.016 16.317 22.557 9.3 34.71-7.017 12.153-22.557 16.317-34.71 9.3z" fill="url(#mgep4ni6jq)"/>
    <path d="M308.974 44.132c-12.154-7.017-27.694-2.853-34.711 9.3-6.139 10.633-3.72 23.858 5.12 31.7a25.322 25.322 0 0 1 2.906-17.718c7.017-12.154 22.558-16.318 34.711-9.3a25.54 25.54 0 0 1 4.18 3.01c-1.392-6.902-5.629-13.195-12.206-16.992z" fill="#F94167" style="mix-blend-mode:soft-light" opacity=".665"/>
    <path fill-rule="evenodd" clip-rule="evenodd" d="m291.339 108.842 9.641 28.396c.559 1.648 2.303 2.582 3.974 2.111l19.169-5.135a3.27 3.27 0 0 0 2.386-3.815l-5.851-29.412c-.36-1.865-2.261-3.036-4.091-2.546l-22.915 6.139a3.318 3.318 0 0 0-2.313 4.262z" fill="url(#rl7e0x3n2r)"/>
    <path d="M285.918 129.488c-2.151-1.242-2.838-4.079-1.534-6.338 1.304-2.259 4.105-3.083 6.256-1.841 2.151 1.242 2.838 4.08 1.534 6.338-1.304 2.259-4.105 3.083-6.256 1.841z" fill="url(#q7gmv0r90s)"/>
    <g opacity=".842" filter="url(#ryykna6plt)">
        <path d="M108.112 169.299c15.088 0 27.32-12.231 27.32-27.32s-12.232-27.321-27.32-27.321c-15.09 0-27.321 12.232-27.321 27.321 0 15.089 12.232 27.32 27.321 27.32z" fill="#328AF1"/>
    </g>
    <path d="M107.678 128.568c8.028-.561 14.99 5.491 15.552 13.519.561 8.028-5.492 14.991-13.519 15.552-8.028.561-14.99-5.491-15.552-13.519-.562-8.028 5.491-14.991 13.519-15.552z" fill="url(#qnrp9u509u)"/>
    <g style="mix-blend-mode:soft-light">
        <g style="mix-blend-mode:soft-light">
            <path fill-rule="evenodd" clip-rule="evenodd" d="m103.597 139.822 2.314 2.314a1.323 1.323 0 0 1 0 1.873 1.323 1.323 0 0 1-1.873 0l-2.315-2.314a1.325 1.325 0 0 1 1.874-1.873zM108.724 144.949l5.054 5.054a1.325 1.325 0 0 1-1.873 1.873l-5.054-5.054a1.325 1.325 0 0 1 1.873-1.873z" fill="#fff" style="mix-blend-mode:soft-light"/>
            <path fill-rule="evenodd" clip-rule="evenodd" d="m102.289 139.484 14.27-4.01a1.266 1.266 0 0 1 1.561.876l.008.029a1.33 1.33 0 0 1-.929 1.608l-14.27 4.01a1.265 1.265 0 0 1-1.56-.876l-.008-.03a1.329 1.329 0 0 1 .928-1.607z" fill="#fff" style="mix-blend-mode:soft-light"/>
            <path fill-rule="evenodd" clip-rule="evenodd" d="m111.61 150.678 4.01-14.27a1.33 1.33 0 0 1 1.608-.929 1.267 1.267 0 0 1 .906 1.569l-4.011 14.27a1.329 1.329 0 0 1-1.607.928 1.265 1.265 0 0 1-.914-1.538l.008-.03z" fill="#fff" style="mix-blend-mode:soft-light"/>
        </g>
        <path fill-rule="evenodd" clip-rule="evenodd" d="m111.325 144.117-5.306 5.306a1.29 1.29 0 0 1-1.821 0 1.29 1.29 0 0 1 0-1.821l5.306-5.306a1.29 1.29 0 0 1 1.821 0 1.29 1.29 0 0 1 0 1.821zM103.553 151.889l-.871.87a1.287 1.287 0 1 1-1.821-1.821l.871-.87a1.287 1.287 0 1 1 1.821 1.821z" fill="#fff" style="mix-blend-mode:soft-light"/>
    </g>
    <path fill-rule="evenodd" clip-rule="evenodd" d="M97.37 144.329a12.121 12.121 0 0 0 5.846 9.153 12.086 12.086 0 0 1-3.177-6.992c-.7-6.669 4.137-12.644 10.807-13.345a12.09 12.09 0 0 1 7.5 1.653 12.124 12.124 0 0 0-10.169-3.814c-6.67.701-11.508 6.675-10.807 13.345z" fill="#fff" fill-opacity=".547" style="mix-blend-mode:lighten" opacity=".58"/>
    <path fill-rule="evenodd" clip-rule="evenodd" d="M62.488 0h90.568c22.759 0 41.21 18.45 41.21 41.21v95.339c0 27.312-22.141 49.452-49.453 49.452H70.73c-27.312 0-49.452-22.14-49.452-49.452V41.21C21.278 18.45 39.728 0 62.488 0z" fill="url(#aqw2rtdcdv)"/>
    <path d="M57.286 21.448c3.009 0 5.448-2.478 5.448-5.535s-2.44-5.535-5.448-5.535c-3.009 0-5.448 2.478-5.448 5.535s2.44 5.535 5.448 5.535z" fill="url(#evu2kbncfw)"/>
    <path opacity=".405" fill-rule="evenodd" clip-rule="evenodd" d="M24.673 115.649c0 27.312 22.14 49.452 49.452 49.452h67.481c27.312 0 49.452-22.14 49.452-49.452v22.353c0 27.311-22.14 49.452-49.452 49.452h-67.48c-27.312 0-49.453-22.141-49.453-49.452v-22.353z" fill="url(#ml3pftvjbx)"/>
    <mask id="d5bll19xsy" style="mask-type:alpha" maskUnits="userSpaceOnUse" x="38" y="27" width="141" height="127">
        <path d="M57.487 27.675h101.838c10.621 0 19.231 8.61 19.231 19.231v81.677a19.232 19.232 0 0 1-12.243 17.916c-12.13 4.73-30.629 7.095-55.497 7.095-26.368 0-46.451-2.659-60.25-7.977a19.234 19.234 0 0 1-12.31-17.944V46.906c0-10.621 8.61-19.231 19.231-19.231z" fill="#fff"/>
    </mask>
    <g mask="url(#d5bll19xsy)">
        <path d="M57.487 27.675h101.838c10.621 0 19.231 8.61 19.231 19.231v81.677a19.232 19.232 0 0 1-12.243 17.916c-12.13 4.73-30.629 7.095-55.497 7.095-26.368 0-46.451-2.659-60.25-7.977a19.234 19.234 0 0 1-12.31-17.944V46.906c0-10.621 8.61-19.231 19.231-19.231z" fill="#1B283E"/>
    </g>
    <mask id="0jb17wef3z" style="mask-type:alpha" maskUnits="userSpaceOnUse" x="38" y="27" width="141" height="127">
        <path d="M57.487 27.675h101.838c10.621 0 19.231 8.61 19.231 19.231v81.677a19.232 19.232 0 0 1-12.243 17.916c-12.13 4.73-30.629 7.095-55.497 7.095-26.368 0-46.451-2.659-60.25-7.977a19.234 19.234 0 0 1-12.31-17.944V46.906c0-10.621 8.61-19.231 19.231-19.231z" fill="#fff"/>
    </mask>
    <g mask="url(#0jb17wef3z)">
        <path opacity=".705" d="M57.487 27.675h101.838c10.621 0 19.231 8.61 19.231 19.231v81.677a19.232 19.232 0 0 1-12.243 17.916c-12.13 4.73-30.629 7.095-55.497 7.095-26.368 0-46.451-2.659-60.25-7.977a19.234 19.234 0 0 1-12.31-17.944V46.906c0-10.621 8.61-19.231 19.231-19.231z" fill="url(#56566qi15A)"/>
        <g filter="url(#fzyr67za0B)">
            <path d="M126.666 139.116c-3.703 1.055-7.776.141-11.175-2.509-1.455-1.134-1.955-3.34-1.117-4.928.836-1.588 2.693-1.955 4.148-.822 1.877 1.463 4.124 1.968 6.165 1.386 2.041-.581 3.678-2.194 4.491-4.424.63-1.728 2.402-2.395 3.957-1.489 1.555.906 2.305 3.041 1.675 4.769-1.473 4.039-4.442 6.961-8.144 8.017z" fill="#000"/>
        </g>
        <path d="M126.666 139.116c-3.703 1.055-7.776.141-11.175-2.509-1.455-1.134-1.955-3.34-1.117-4.928.836-1.588 2.693-1.955 4.148-.822 1.877 1.463 4.124 1.968 6.165 1.386 2.041-.581 3.678-2.194 4.491-4.424.63-1.728 2.402-2.395 3.957-1.489 1.555.906 2.305 3.041 1.675 4.769-1.473 4.039-4.442 6.961-8.144 8.017z" fill="url(#x8lkg48d3C)"/>
    </g>
    <mask id="vbhbbn5h5D" style="mask-type:alpha" maskUnits="userSpaceOnUse" x="38" y="27" width="141" height="127">
        <path d="M57.487 27.675h101.838c10.621 0 19.231 8.61 19.231 19.231v81.677a19.232 19.232 0 0 1-12.243 17.916c-12.13 4.73-30.629 7.095-55.497 7.095-26.368 0-46.451-2.659-60.25-7.977a19.234 19.234 0 0 1-12.31-17.944V46.906c0-10.621 8.61-19.231 19.231-19.231z" fill="#fff"/>
    </mask>
    <g mask="url(#vbhbbn5h5D)">
        <path clip-rule="evenodd" d="M159.325 29.142a17.71 17.71 0 0 1 12.561 5.203 17.71 17.71 0 0 1 5.203 12.561v81.677a17.747 17.747 0 0 1-3.098 10.021 17.749 17.749 0 0 1-8.211 6.528c-12.013 4.685-30.34 6.995-54.964 6.995-26.133 0-46.044-2.607-59.721-7.879a17.751 17.751 0 0 1-8.255-6.525 17.745 17.745 0 0 1-3.117-10.05V46.906c0-4.905 1.989-9.346 5.203-12.56a17.708 17.708 0 0 1 12.561-5.204h101.838z" stroke="url(#7xg496ufnE)" stroke-width="2.935"/>
        <path d="M77.753 130.071c42.875 0 77.633-35.312 77.633-78.873 0-43.56-34.758-78.873-77.633-78.873C34.878-27.675.12 7.638.12 51.198s34.758 78.873 77.633 78.873z" fill="url(#l0qv8xdueF)"/>
    </g>
    <g filter="url(#0xmeoimteG)">
        <path d="M60.663 63.325h92.347c7.035 0 12.738 6.235 12.738 13.926 0 7.692-5.703 13.927-12.738 13.927H60.663c-7.035 0-12.738-6.235-12.738-13.927 0-7.69 5.703-13.926 12.738-13.926z" fill="#000"/>
    </g>
    <path d="M60.663 63.325h92.347c7.035 0 12.738 6.235 12.738 13.926 0 7.692-5.703 13.927-12.738 13.927H60.663c-7.035 0-12.738-6.235-12.738-13.927 0-7.69 5.703-13.926 12.738-13.926z" fill="url(#03caedktfH)"/>
    <path fill-rule="evenodd" clip-rule="evenodd" d="M126.297 19.649h-4.377c-1.198 0-2.17-.991-2.17-2.214 0-1.223.972-2.214 2.17-2.214h4.377c1.199 0 2.17.991 2.17 2.214 0 1.223-.971 2.214-2.17 2.214zM134.469 13.56h-4.377c-1.198 0-2.17-.991-2.17-2.214 0-1.222.972-2.214 2.17-2.214h4.377c1.198 0 2.17.992 2.17 2.214 0 1.223-.972 2.214-2.17 2.214zM156.802 19.649h-23.971c-1.207 0-2.185-.991-2.185-2.214 0-1.223.978-2.214 2.185-2.214h23.96c1.206 0 2.184.991 2.184 2.214 0 1.223-.978 2.214-2.184 2.214h.011zM164.877 13.56h-23.789c-1.253 0-2.27-.991-2.27-2.214 0-1.222 1.017-2.214 2.27-2.214h23.789c1.254 0 2.27.992 2.27 2.214 0 1.223-1.016 2.214-2.27 2.214z" fill="#243552"/>
    <mask id="20azwb2d8I" style="mask-type:alpha" maskUnits="userSpaceOnUse" x="16" y="33" width="81" height="81">
        <path d="M57.208 113.18c22.208-.388 39.9-18.628 39.513-40.74-.386-22.112-18.702-39.723-40.911-39.335-22.209.388-39.9 18.627-39.514 40.74.386 22.111 18.703 39.722 40.912 39.335z" fill="#fff"/>
    </mask>
    <g mask="url(#20azwb2d8I)">
        <path opacity=".398" d="M57.208 113.18c22.208-.388 39.9-18.628 39.513-40.74-.386-22.112-18.702-39.723-40.911-39.335-22.209.388-39.9 18.627-39.514 40.74.386 22.111 18.703 39.722 40.912 39.335z" fill="url(#ylzw3qezuJ)"/>
        <path opacity=".309" fill-rule="evenodd" clip-rule="evenodd" d="M53.937 37.429 24.49 96.002l24.423 14.852 29.65-65.707-24.625-7.718z" fill="url(#qu360h8w1K)"/>
    </g>
    <mask id="t9ybpod8cL" style="mask-type:alpha" maskUnits="userSpaceOnUse" x="120" y="31" width="81" height="81">
        <path d="M161.394 111.361c22.209-.388 39.9-18.627 39.514-40.74-.386-22.111-18.703-39.722-40.911-39.335-22.209.388-39.9 18.628-39.514 40.74.386 22.112 18.703 39.723 40.911 39.335z" fill="#fff"/>
    </mask>
    <g mask="url(#t9ybpod8cL)">
        <path opacity=".398" d="M161.394 111.361c22.209-.388 39.9-18.627 39.514-40.74-.386-22.111-18.703-39.722-40.911-39.335-22.209.388-39.9 18.628-39.514 40.74.386 22.112 18.703 39.723 40.911 39.335z" fill="url(#ke2a78ukiM)"/>
        <path opacity=".309" fill-rule="evenodd" clip-rule="evenodd" d="m157.913 35.614-29.448 58.572 24.423 14.853 29.65-65.707-24.625-7.718z" fill="url(#19gmpl2fpN)"/>
    </g>
    <path fill-rule="evenodd" clip-rule="evenodd" d="M160.492 109.197c-20.55.359-37.497-15.893-37.853-36.299-.356-20.405 16.013-37.238 36.563-37.596 20.549-.359 37.496 15.892 37.852 36.298.356 20.405-16.013 37.238-36.562 37.597zM56.595 111.01c-20.55.359-37.496-15.892-37.852-36.298-.356-20.405 16.013-37.238 36.562-37.597 20.55-.358 37.496 15.893 37.852 36.298.356 20.406-16.012 37.239-36.562 37.597zm142.18-62.11c-3.17-3.506-9.152-8.017-12.732-10.593a42.903 42.903 0 0 0-2.844-2.005l-.062-.044.002.005a43.083 43.083 0 0 0-24.039-6.781 43.094 43.094 0 0 0-30.287 13.112c-3.714 3.57-6.901 7.462-10.201 11.278-4.179 4.837-6.742 2.544-11.005 2.619-4.262.074-6.744 2.455-11.089-2.233-3.43-3.7-6.753-7.478-10.589-10.915-7.934-7.634-18.936-12.254-30.857-12.045-8.849.154-17.55 2.96-23.918 7.618v-.005l.068.043c-.957.663-1.814 1.367-2.71 2.103-3.489 2.7-9.463 7.419-12.509 11.034-4.524 5.37-14.61 5.9-14.61 5.9l.19 10.935s6.034-.46 8.028 1.8c1.177 1.332 2.536 7.825 4.686 14.606.662 2.418 1.585 4.744 2.642 6.969.99 2.212 2.139 4.259 3.438 5.932l.013-.012a43.117 43.117 0 0 0 36.3 18.609A43.094 43.094 0 0 0 95.49 91.014l.032-.042.098-.167c3-5.264 5.865-19.59 7.231-21.883 1.381-2.318 4.93-2.556 4.93-2.556s3.555.114 5.015 2.382c1.446 2.245 4.808 16.462 7.99 21.618l.103.163.033.041a43.087 43.087 0 0 0 39.672 24.446c15.03-.262 28.12-8.142 35.623-19.864l.003.011c1.241-1.717 2.294-3.8 3.205-6.047a42.185 42.185 0 0 0 2.354-7.056c1.911-6.852 2.939-13.387 4.068-14.76 1.914-2.327 7.766-2.075 7.766-2.075l-.191-10.935s-9.936-.18-14.646-5.39z" fill="#1B283E" stroke="#1B283E" stroke-width="2.847" stroke-linejoin="round"/>
    <path opacity=".298" d="M113.606 294.483c67.192 1.173 121.763-3.601 121.886-10.664.123-7.062-54.247-13.737-121.44-14.91C46.86 267.736-7.711 272.51-7.834 279.572c-.123 7.062 54.247 13.738 121.44 14.911z" fill="url(#fectwqpvsO)"/>
    <path fill-rule="evenodd" clip-rule="evenodd" d="M-36.08 227.347h292.303c7.687 0 13.919 12.983 13.919 28.999 0 16.015-6.232 28.998-13.919 28.998H-36.081c-7.687 0-13.919-12.983-13.919-28.998 0-16.016 6.232-28.999 13.92-28.999z" fill="url(#dhz0t0ltxP)"/>
    <path fill-rule="evenodd" clip-rule="evenodd" d="M-32.156 81.196h284.454c6.205 0 8.455.646 10.723 1.859a12.644 12.644 0 0 1 5.262 5.261c1.213 2.269 1.859 4.519 1.859 10.723v156.862c0 6.205-.646 8.455-1.859 10.723a12.652 12.652 0 0 1-5.262 5.262c-2.268 1.213-4.518 1.859-10.723 1.859H-32.156c-6.205 0-8.455-.646-10.723-1.859a12.655 12.655 0 0 1-5.262-5.262c-1.213-2.268-1.859-4.518-1.859-10.723V99.039c0-6.204.646-8.454 1.86-10.723a12.647 12.647 0 0 1 5.26-5.261c2.27-1.213 4.519-1.86 10.724-1.86z" fill="url(#5l3lrqxu3Q)"/>
    <defs>
        <linearGradient id="rlns68f5lb" x1="55.916" y1="199.094" x2="78.633" y2="265.978" gradientUnits="userSpaceOnUse">
            <stop stop-color="#5B79A2"/>
            <stop offset="1" stop-color="#2E4469"/>
        </linearGradient>
        <linearGradient id="5azrwphedc" x1="55.916" y1="199.094" x2="78.633" y2="265.978" gradientUnits="userSpaceOnUse">
            <stop stop-color="#5B79A2"/>
            <stop offset="1" stop-color="#2E4469"/>
        </linearGradient>
        <linearGradient id="ijxwqpsk0f" x1="244.065" y1="202.085" x2="218.433" y2="260.973" gradientUnits="userSpaceOnUse">
            <stop stop-color="#374F73"/>
            <stop offset="1" stop-color="#253652"/>
        </linearGradient>
        <linearGradient id="ir7xesnsxg" x1="240.999" y1="200.764" x2="230.215" y2="199.248" gradientUnits="userSpaceOnUse">
            <stop stop-color="#5B79A2"/>
            <stop offset="1" stop-color="#2E4469"/>
        </linearGradient>
        <linearGradient id="f8rxkjcdmi" x1="171.714" y1="242.685" x2="41.977" y2="244.949" gradientUnits="userSpaceOnUse">
            <stop stop-color="#21C8F6"/>
            <stop offset="1" stop-color="#637BFF"/>
        </linearGradient>
        <linearGradient id="vg2enp6d1j" x1="78.845" y1="178.152" x2="97.242" y2="206.901" gradientUnits="userSpaceOnUse">
            <stop stop-color="#5B79A2"/>
            <stop offset="1" stop-color="#2E4469"/>
        </linearGradient>
        <linearGradient id="97aquvuj5k" x1="56.325" y1="54.747" x2="59.175" y2="218.006" gradientUnits="userSpaceOnUse">
            <stop stop-color="#6F90BC"/>
            <stop offset="1" stop-color="#2E4469"/>
        </linearGradient>
        <linearGradient id="4pjw47n7nm" x1="127.923" y1="129.273" x2="139.656" y2="172.286" gradientUnits="userSpaceOnUse">
            <stop stop-color="#5B79A2"/>
            <stop offset="1" stop-color="#2E4469"/>
        </linearGradient>
        <linearGradient id="4a6bm03lmn" x1="283.811" y1="128.23" x2="246.978" y2="174.563" gradientUnits="userSpaceOnUse">
            <stop stop-color="#5B79A2"/>
            <stop offset="1" stop-color="#2E4469"/>
        </linearGradient>
        <linearGradient id="ng6y3mvw8o" x1="315.963" y1="117.95" x2="279.304" y2="133.725" gradientUnits="userSpaceOnUse">
            <stop stop-color="#5B79A2"/>
            <stop offset="1" stop-color="#2E4469"/>
        </linearGradient>
        <linearGradient id="huxlqyp16p" x1="286.413" y1="72.949" x2="339.678" y2="117.698" gradientUnits="userSpaceOnUse">
            <stop stop-color="#223C6F"/>
            <stop offset="1" stop-color="#0F1C3C"/>
        </linearGradient>
        <linearGradient id="mgep4ni6jq" x1="274.263" y1="53.432" x2="318.274" y2="78.842" gradientUnits="userSpaceOnUse">
            <stop stop-color="#21C8F6"/>
            <stop offset="1" stop-color="#637BFF"/>
        </linearGradient>
        <linearGradient id="rl7e0x3n2r" x1="334.363" y1="112.213" x2="283.36" y2="134.161" gradientUnits="userSpaceOnUse">
            <stop stop-color="#5B79A2"/>
            <stop offset="1" stop-color="#2E4469"/>
        </linearGradient>
        <linearGradient id="q7gmv0r90s" x1="289.15" y1="128.59" x2="285.882" y2="129.329" gradientUnits="userSpaceOnUse">
            <stop stop-color="#223C6F"/>
            <stop offset="1" stop-color="#0F1C3C"/>
        </linearGradient>
        <linearGradient id="aqw2rtdcdv" x1="87.275" y1="146.524" x2="94.919" y2="190.14" gradientUnits="userSpaceOnUse">
            <stop stop-color="#55739C"/>
            <stop offset="1" stop-color="#4179D5"/>
        </linearGradient>
        <linearGradient id="evu2kbncfw" x1="51.975" y1="15.774" x2="62.597" y2="15.774" gradientUnits="userSpaceOnUse">
            <stop stop-color="#21C8F6"/>
            <stop offset="1" stop-color="#637BFF"/>
        </linearGradient>
        <linearGradient id="56566qi15A" x1="108.406" y1="163.668" x2="108.406" y2="-11.603" gradientUnits="userSpaceOnUse">
            <stop stop-color="#25C2F2" stop-opacity=".22"/>
            <stop offset="1" stop-color="#293F64"/>
        </linearGradient>
        <linearGradient id="7xg496ufnE" x1="252.505" y1="199.092" x2="92.054" y2="28.83" gradientUnits="userSpaceOnUse">
            <stop stop-color="#76E1FF"/>
            <stop offset="1" stop-color="#637BFF" stop-opacity="0"/>
        </linearGradient>
        <linearGradient id="l0qv8xdueF" x1="21.796" y1="-26.702" x2="166.538" y2="125.859" gradientUnits="userSpaceOnUse">
            <stop stop-color="#587CB9"/>
            <stop offset="1" stop-color="#2E4469" stop-opacity="0"/>
        </linearGradient>
        <linearGradient id="ylzw3qezuJ" x1="95.691" y1="71.45" x2="17.291" y2="72.819" gradientUnits="userSpaceOnUse">
            <stop stop-color="#21C8F6"/>
            <stop offset="1" stop-color="#637BFF"/>
        </linearGradient>
        <linearGradient id="qu360h8w1K" x1="78.352" y1="72.748" x2="24.791" y2="73.683" gradientUnits="userSpaceOnUse">
            <stop stop-color="#21C8F6"/>
            <stop offset="1" stop-color="#637BFF"/>
        </linearGradient>
        <linearGradient id="ke2a78ukiM" x1="199.878" y1="69.632" x2="121.478" y2="71" gradientUnits="userSpaceOnUse">
            <stop stop-color="#21C8F6"/>
            <stop offset="1" stop-color="#637BFF"/>
        </linearGradient>
        <linearGradient id="19gmpl2fpN" x1="182.328" y1="70.933" x2="128.767" y2="71.868" gradientUnits="userSpaceOnUse">
            <stop stop-color="#21C8F6"/>
            <stop offset="1" stop-color="#637BFF"/>
        </linearGradient>
        <linearGradient id="dhz0t0ltxP" x1="-54.64" y1="256.346" x2="200.477" y2="293.473" gradientUnits="userSpaceOnUse">
            <stop stop-color="#5B79A2"/>
            <stop offset="1" stop-color="#2E4469"/>
        </linearGradient>
        <linearGradient id="5l3lrqxu3Q" x1="-26.929" y1="149.082" x2="157.309" y2="297.66" gradientUnits="userSpaceOnUse">
            <stop stop-color="#5B79A2"/>
            <stop offset="1" stop-color="#2E4469"/>
        </linearGradient>
        <radialGradient id="9drm2h3xga" cx="0" cy="0" r="1" gradientUnits="userSpaceOnUse" gradientTransform="matrix(99.8317 0 0 23.0601 106.991 320.027)">
            <stop/>
            <stop offset="1" stop-opacity=".01"/>
        </radialGradient>
        <radialGradient id="fom60xyfzd" cx="0" cy="0" r="1" gradientUnits="userSpaceOnUse" gradientTransform="rotate(77.33 -119.197 40.754) scale(284.144 110.814)">
            <stop stop-color="#25C2F2" stop-opacity=".626"/>
            <stop offset="1" stop-color="#293F64"/>
        </radialGradient>
        <radialGradient id="3ocxjadsde" cx="0" cy="0" r="1" gradientUnits="userSpaceOnUse" gradientTransform="matrix(-1.64636 10.39473 -2.19702 -.34797 207.585 230.039)">
            <stop stop-color="#172743"/>
            <stop offset="1" stop-opacity="0"/>
        </radialGradient>
        <radialGradient id="0eh1h7p27l" cx="0" cy="0" r="1" gradientUnits="userSpaceOnUse" gradientTransform="rotate(22.83 -409.591 -4.377) scale(214.505 131.293)">
            <stop stop-color="#25C2F2" stop-opacity=".626"/>
            <stop offset="1" stop-color="#293F64"/>
        </radialGradient>
        <radialGradient id="qnrp9u509u" cx="0" cy="0" r="1" gradientUnits="userSpaceOnUse" gradientTransform="rotate(-4 2103.328 -1484.742) scale(19.9195)">
            <stop stop-color="#21C8F6"/>
            <stop offset="1" stop-color="#4BDEFF"/>
        </radialGradient>
        <radialGradient id="ml3pftvjbx" cx="0" cy="0" r="1" gradientUnits="userSpaceOnUse" gradientTransform="matrix(10.82227 -111.48797 37.9739 3.68617 156.995 -14.9)">
            <stop stop-color="#25C2F2"/>
            <stop offset="1" stop-color="#293F64"/>
        </radialGradient>
        <radialGradient id="x8lkg48d3C" cx="0" cy="0" r="1" gradientUnits="userSpaceOnUse" gradientTransform="rotate(-16 558.201 -234.19) scale(14.7465)">
            <stop stop-color="#21C8F6"/>
            <stop offset="1" stop-color="#4BDEFF"/>
        </radialGradient>
        <radialGradient id="03caedktfH" cx="0" cy="0" r="1" gradientUnits="userSpaceOnUse" gradientTransform="matrix(80.5905 0 0 88.1104 25.723 77.251)">
            <stop stop-color="#21C8F6"/>
            <stop offset="1" stop-color="#4BDEFF"/>
        </radialGradient>
        <radialGradient id="fectwqpvsO" cx="0" cy="0" r="1" gradientUnits="userSpaceOnUse" gradientTransform="rotate(-179 -30.985 25.44) scale(110.092 16.0804)">
            <stop/>
            <stop offset="1" stop-opacity=".01"/>
        </radialGradient>
        <filter id="twqp9ngsih" x="20.472" y="222.418" width="172.751" height="48.633" filterUnits="userSpaceOnUse" color-interpolation-filters="sRGB">
            <feFlood flood-opacity="0" result="BackgroundImageFix"/>
            <feColorMatrix in="SourceAlpha" values="0 0 0 0 0 0 0 0 0 0 0 0 0 0 0 0 0 0 127 0" result="hardAlpha"/>
            <feOffset dy="2.833"/>
            <feGaussianBlur stdDeviation="9.916"/>
            <feColorMatrix values="0 0 0 0 0.0115609 0 0 0 0 0.46791 0 0 0 0 1 0 0 0 1 0"/>
            <feBlend in2="BackgroundImageFix" result="effect1_dropShadow_4443_55407"/>
            <feBlend in="SourceGraphic" in2="effect1_dropShadow_4443_55407" result="shape"/>
        </filter>
        <filter id="ryykna6plt" x="73.505" y="107.373" width="69.212" height="69.212" filterUnits="userSpaceOnUse" color-interpolation-filters="sRGB">
            <feFlood flood-opacity="0" result="BackgroundImageFix"/>
            <feBlend in="SourceGraphic" in2="BackgroundImageFix" result="shape"/>
            <feGaussianBlur stdDeviation="3.643" result="effect1_foregroundBlur_4443_55407"/>
        </filter>
        <filter id="fzyr67za0B" x="89.51" y="107.99" width="69.981" height="62.535" filterUnits="userSpaceOnUse" color-interpolation-filters="sRGB">
            <feFlood flood-opacity="0" result="BackgroundImageFix"/>
            <feColorMatrix in="SourceAlpha" values="0 0 0 0 0 0 0 0 0 0 0 0 0 0 0 0 0 0 127 0" result="hardAlpha"/>
            <feOffset dy="6.522"/>
            <feGaussianBlur stdDeviation="12.229"/>
            <feColorMatrix values="0 0 0 0 0.137255 0 0 0 0 0.788235 0 0 0 0 0.968627 0 0 0 1 0"/>
            <feBlend in2="BackgroundImageFix" result="effect1_dropShadow_4443_55407"/>
            <feBlend in="SourceGraphic" in2="effect1_dropShadow_4443_55407" result="shape"/>
        </filter>
        <filter id="0xmeoimteG" x="13.739" y="36.909" width="186.194" height="96.224" filterUnits="userSpaceOnUse" color-interpolation-filters="sRGB">
            <feFlood flood-opacity="0" result="BackgroundImageFix"/>
            <feColorMatrix in="SourceAlpha" values="0 0 0 0 0 0 0 0 0 0 0 0 0 0 0 0 0 0 127 0" result="hardAlpha"/>
            <feOffset dy="7.77"/>
            <feGaussianBlur stdDeviation="17.093"/>
            <feColorMatrix values="0 0 0 0 0.137255 0 0 0 0 0.788235 0 0 0 0 0.968627 0 0 0 1 0"/>
            <feBlend in2="BackgroundImageFix" result="effect1_dropShadow_4443_55407"/>
            <feBlend in="SourceGraphic" in2="effect1_dropShadow_4443_55407" result="shape"/>
        </filter>
    </defs>
</svg>
