<svg width="121" height="120" fill="none" xmlns="http://www.w3.org/2000/svg"><circle cx="61" cy="60" r="60" fill="url(#njjo19dkra)"/><circle opacity=".254" cx="61" cy="60" r="60" fill="url(#2u7hqgubpb)"/><circle cx="60.5" cy="60.5" r="53.5" fill="#070A11"/><mask id="a" style="mask-type:alpha" maskUnits="userSpaceOnUse" x="7" y="7" width="107" height="107"><circle cx="60.5" cy="60.5" r="53.5" fill="#fff"/></mask><g mask="url(#a)"><path d="M46 103.2a2 2 0 012-2h25a2 2 0 012 2v8a7 7 0 01-7 7H53a7 7 0 01-7-7v-8z" fill="url(#rsby0458qd)"/></g><ellipse opacity=".701" cx="62" cy="111" rx="24" ry="7" fill="url(#12u9cm5zbe)"/><ellipse opacity=".688" cx="79.089" cy="15.894" rx="10.166" ry="10.607" transform="rotate(-60 79.089 15.894)" fill="url(#o828lr9k0f)"/><circle cx="61" cy="60" r="59" stroke="url(#z1fhbz9y4g)" stroke-width="2"/><path d="M7.723 61.256l1.247-.002c-9.11-.003-8.482-21.54-3.017-29.258" stroke="#253857" stroke-width="2"/><rect x="11.476" y="58.201" width="5.143" height="4.204" rx="1.468" transform="rotate(90 11.476 58.2)" fill="#21324E"/><rect x="13.272" y="56.272" width="9" height="3.592" rx="1.468" transform="rotate(90 13.272 56.272)" fill="url(#h78nebsdlh)"/><rect x="5.189" y="29.952" width="3.429" height="2.803" rx="1.027" transform="rotate(30 5.189 29.952)" fill="#21324E"/><rect x="4.674" y="28.272" width="6" height="2.394" rx="1.027" transform="rotate(30 4.674 28.272)" fill="url(#moxl5sfnci)"/><path d="M113.277 61.256l-1.247-.002c9.111-.003 8.483-21.54 3.018-29.258" stroke="#253857" stroke-width="2"/><rect width="5.143" height="4.204" rx="1.468" transform="matrix(0 1 1 0 109.524 58.2)" fill="#21324E"/><rect width="9" height="3.592" rx="1.468" transform="matrix(0 1 1 0 107.728 56.272)" fill="url(#0u5vv51x0j)"/><rect width="3.429" height="2.803" rx="1.027" transform="scale(-1 1) rotate(30 -113.796 -201.13)" fill="#21324E"/><rect width="6" height="2.394" rx="1.027" transform="scale(-1 1) rotate(30 -110.92 -202.931)" fill="url(#ihdqmzamzk)"/><path d="M48.062 52.823a3.465 3.465 0 004.172-5.534l-29.76-22.43a3.465 3.465 0 00-4.17 5.534l29.758 22.43z" fill="url(#kr6j6xwexl)"/><path opacity=".396" d="M48.062 52.823a3.465 3.465 0 004.172-5.534l-29.76-22.43a3.465 3.465 0 00-4.17 5.534l29.758 22.43z" fill="url(#fr1ujtve4m)"/><path d="M17.056 14.142a6.9 6.9 0 00-9.638 1.526l-2.364 3.255a6.9 6.9 0 001.526 9.635l15.666 11.385a6.9 6.9 0 009.638-1.526l2.364-3.255a6.9 6.9 0 00-1.526-9.636L17.056 14.142z" fill="url(#fu0fbfa53n)"/><path opacity=".829" d="M17.056 14.142a6.9 6.9 0 00-9.638 1.526l-2.364 3.255a6.9 6.9 0 001.526 9.635l15.666 11.385a6.9 6.9 0 009.638-1.526l2.364-3.255a6.9 6.9 0 00-1.526-9.636L17.056 14.142z" fill="url(#oi3f4b7dao)"/><path opacity=".8" d="M17.056 14.142a6.9 6.9 0 00-9.638 1.526l-2.364 3.255a6.9 6.9 0 001.526 9.635l15.666 11.385a6.9 6.9 0 009.638-1.526l2.364-3.255a6.9 6.9 0 00-1.526-9.636L17.056 14.142z" fill="url(#fsy4s8b74p)"/><ellipse opacity=".814" cx="16.089" cy="25.894" rx="10.166" ry="10.607" transform="rotate(-55 16.089 25.894)" fill="url(#9ysxsjmkrq)"/><path d="M22.653 42.239c-3.058 4.71-8.545-3.161-7.902-8.332" stroke="#32445D" stroke-width="1.32"/><g opacity=".85"><rect x="23.258" y="43.18" width="1.997" height="2.097" rx=".885" transform="rotate(-145.011 23.258 43.18)" fill="#21324E"/><rect x="24.673" y="42.464" width="3.495" height="1.398" rx=".696" transform="rotate(-145.011 24.673 42.464)" fill="url(#o3ivlwggur)"/></g><path d="M12.752 33.68a1.478 1.478 0 011.344-1.6l.38-.034c.813-.071 1.53.53 1.6 1.344l.049.546a1.48 1.48 0 01-1.344 1.602l-.38.033a1.478 1.478 0 01-1.601-1.344l-.048-.546z" fill="#21324E"/><path d="M11.377 32.317a1.167 1.167 0 011.056-1.265l3.503-.306a1.167 1.167 0 011.26 1.062c.055.64-.417 1.21-1.057 1.266l-3.502.306a1.167 1.167 0 01-1.26-1.063z" fill="url(#la0st8vjvs)"/><ellipse rx="10.41" ry="10.381" transform="matrix(0 1 1 0 12.226 21.349)" fill="url(#cf4i1xpckt)"/><ellipse opacity=".349" rx="10.41" ry="10.381" transform="matrix(0 1 1 0 12.226 21.349)" fill="url(#1awgifze6u)"/><ellipse rx="10.41" ry="10.381" transform="matrix(0 1 1 0 12.226 21.349)" stroke="url(#ll7d7vkapv)" stroke-width=".3" stroke-linecap="round" stroke-linejoin="round"/><ellipse cx="12.06" cy="21.366" rx="5.745" ry="5.746" fill="#1B283E"/><ellipse opacity=".703" cx="12.06" cy="21.366" rx="5.745" ry="5.746" stroke="url(#5dbgx76h5w)" stroke-width=".5" stroke-linecap="round" stroke-linejoin="round"/><g filter="url(#w8fsx0wnpx)"><ellipse cx="12.06" cy="21.366" rx="2.298" ry="2.299" fill="url(#j6ixmbxgly)"/></g><path d="M73.442 52.823a3.465 3.465 0 01-4.172-5.534l29.76-22.43a3.465 3.465 0 114.171 5.534l-29.76 22.43z" fill="url(#grye1eh35z)"/><path opacity=".396" d="M73.442 52.823a3.465 3.465 0 01-4.172-5.534l29.76-22.43a3.465 3.465 0 114.171 5.534l-29.76 22.43z" fill="url(#2tqz438wiA)"/><path d="M104.448 14.142a6.9 6.9 0 019.638 1.526l2.364 3.255a6.899 6.899 0 01-1.526 9.635L99.258 39.943a6.9 6.9 0 01-9.638-1.526l-2.364-3.255a6.9 6.9 0 011.526-9.636l15.666-11.384z" fill="url(#8zrsqm75hB)"/><path opacity=".829" d="M104.448 14.142a6.9 6.9 0 019.638 1.526l2.364 3.255a6.899 6.899 0 01-1.526 9.635L99.258 39.943a6.9 6.9 0 01-9.638-1.526l-2.364-3.255a6.9 6.9 0 011.526-9.636l15.666-11.384z" fill="url(#052f1gak8C)"/><path opacity=".8" d="M104.448 14.142a6.9 6.9 0 019.638 1.526l2.364 3.255a6.899 6.899 0 01-1.526 9.635L99.258 39.943a6.9 6.9 0 01-9.638-1.526l-2.364-3.255a6.9 6.9 0 011.526-9.636l15.666-11.384z" fill="url(#yklnmm4aaD)"/><ellipse opacity=".814" rx="10.166" ry="10.607" transform="scale(-1 1) rotate(-55 -27.837 114.197)" fill="url(#6yq18rfhmE)"/><path d="M98.85 42.239c3.059 4.71 8.546-3.161 7.903-8.332" stroke="#32445D" stroke-width="1.32"/><g opacity=".85"><rect width="1.997" height="2.097" rx=".885" transform="scale(1 -1) rotate(34.989 117.62 134.258)" fill="#21324E"/><rect width="3.495" height="1.398" rx=".696" transform="scale(1 -1) rotate(34.989 115.776 132.372)" fill="url(#mer8xhzziF)"/></g><path d="M108.752 33.68a1.479 1.479 0 00-1.344-1.6l-.379-.034a1.478 1.478 0 00-1.602 1.344l-.048.546a1.479 1.479 0 001.344 1.602l.38.033c.813.071 1.53-.53 1.601-1.344l.048-.546z" fill="#21324E"/><path d="M110.127 32.317a1.167 1.167 0 00-1.056-1.265l-3.503-.306a1.168 1.168 0 00-.203 2.328l3.502.306a1.167 1.167 0 001.26-1.063z" fill="url(#356dz8kwjG)"/><ellipse cx="109.277" cy="21.349" rx="10.41" ry="10.381" transform="rotate(90 109.277 21.349)" fill="url(#m7ob4h7blH)"/><ellipse opacity=".349" cx="109.277" cy="21.349" rx="10.41" ry="10.381" transform="rotate(90 109.277 21.349)" fill="url(#iml4nrnmmI)"/><ellipse cx="109.277" cy="21.349" rx="10.41" ry="10.381" transform="rotate(90 109.277 21.349)" stroke="url(#y3gaacygxJ)" stroke-width=".3" stroke-linecap="round" stroke-linejoin="round"/><ellipse rx="5.745" ry="5.746" transform="matrix(-1 0 0 1 109.444 21.366)" fill="#1B283E"/><ellipse opacity=".703" rx="5.745" ry="5.746" transform="matrix(-1 0 0 1 109.444 21.366)" stroke="url(#t5d0trb49K)" stroke-width=".5" stroke-linecap="round" stroke-linejoin="round"/><g filter="url(#7okx3fsfbL)"><ellipse rx="2.298" ry="2.299" transform="matrix(-1 0 0 1 109.444 21.366)" fill="url(#epm027gmjM)"/></g><path d="M49.062 76.177a3.465 3.465 0 014.172 5.534l-29.76 22.43a3.465 3.465 0 11-4.17-5.534l29.758-22.43z" fill="url(#nszoa4mouN)"/><path opacity=".396" d="M49.062 76.177a3.465 3.465 0 014.172 5.534l-29.76 22.43a3.465 3.465 0 11-4.17-5.534l29.758-22.43z" fill="url(#bp5dbjbcoO)"/><path d="M18.056 114.858a6.899 6.899 0 01-9.638-1.526l-2.364-3.255a6.898 6.898 0 011.526-9.635l15.666-11.385a6.9 6.9 0 019.638 1.526l2.364 3.255a6.9 6.9 0 01-1.526 9.636l-15.666 11.384z" fill="url(#2gd0y099aP)"/><path opacity=".829" d="M18.056 114.858a6.899 6.899 0 01-9.638-1.526l-2.364-3.255a6.898 6.898 0 011.526-9.635l15.666-11.385a6.9 6.9 0 019.638 1.526l2.364 3.255a6.9 6.9 0 01-1.526 9.636l-15.666 11.384z" fill="url(#rv1b9qcjvQ)"/><path opacity=".8" d="M18.056 114.858a6.899 6.899 0 01-9.638-1.526l-2.364-3.255a6.898 6.898 0 011.526-9.635l15.666-11.385a6.9 6.9 0 019.638 1.526l2.364 3.255a6.9 6.9 0 01-1.526 9.636l-15.666 11.384z" fill="url(#k8lk2zh6xR)"/><ellipse opacity=".814" rx="10.166" ry="10.607" transform="scale(1 -1) rotate(-55 -90.488 -67.967)" fill="url(#xh2blw2meS)"/><path d="M22.653 86.761c-3.058-4.71-8.545 3.161-7.902 8.332" stroke="#32445D" stroke-width="1.32"/><g opacity=".85"><rect width="1.997" height="2.097" rx=".885" transform="scale(-1 1) rotate(34.989 -147.766 6.016)" fill="#21324E"/><rect width="3.495" height="1.398" rx=".696" transform="scale(-1 1) rotate(34.989 -149.61 4.13)" fill="url(#rfw5yj0g8T)"/></g><path d="M12.752 95.32c-.071.813.53 1.53 1.344 1.6l.38.034c.813.071 1.53-.53 1.6-1.344l.049-.546a1.478 1.478 0 00-1.344-1.602l-.38-.033a1.478 1.478 0 00-1.601 1.344l-.048.546z" fill="#21324E"/><path d="M11.377 96.683c-.056.64.416 1.21 1.056 1.265l3.503.306a1.167 1.167 0 001.26-1.062 1.167 1.167 0 00-1.057-1.265l-3.502-.307a1.167 1.167 0 00-1.26 1.063z" fill="url(#kwdn49wn7U)"/><path d="M37.848 105.335c-2.097 4.453-6.613 6.685-12.373 7.462" stroke="#32445D" stroke-width="1.32"/><g opacity=".85"><rect x="38.815" y="106.913" width="2.857" height="3" rx="1.274" transform="rotate(-149.011 38.815 106.913)" fill="#21324E"/><rect x="40.763" y="105.75" width="5" height="2" rx="1" transform="rotate(-149.011 40.763 105.75)" fill="url(#box9a2r24V)"/></g><path d="M23.449 113.948a1.479 1.479 0 01-.982-1.846l.112-.365a1.478 1.478 0 011.846-.981l.524.16c.78.239 1.22 1.065.981 1.846l-.111.364a1.478 1.478 0 01-1.846.982l-.524-.16z" fill="#21324E"/><path d="M21.67 114.712a1.167 1.167 0 01-.778-1.453l1.028-3.363a1.167 1.167 0 011.457-.77c.614.188.965.839.777 1.453l-1.028 3.363a1.167 1.167 0 01-1.457.77z" fill="url(#7ocg4pmybW)"/><ellipse cx="13.226" cy="107.651" rx="10.41" ry="10.381" transform="rotate(-90 13.226 107.651)" fill="url(#rkz5l6cw4X)"/><ellipse opacity=".5" cx="13.226" cy="107.651" rx="10.41" ry="10.381" transform="rotate(-90 13.226 107.651)" fill="url(#gfamf1kdqY)"/><ellipse opacity=".349" cx="13.226" cy="107.651" rx="10.41" ry="10.381" transform="rotate(-90 13.226 107.651)" fill="url(#ygrtxem92Z)"/><ellipse cx="13.226" cy="107.651" rx="10.41" ry="10.381" transform="rotate(-90 13.226 107.651)" stroke="url(#9w3wou3boaa)" stroke-width=".3" stroke-linecap="round" stroke-linejoin="round"/><ellipse rx="5.745" ry="5.746" transform="matrix(1 0 0 -1 13.06 107.634)" fill="#1B283E"/><ellipse opacity=".703" rx="5.745" ry="5.746" transform="matrix(1 0 0 -1 13.06 107.634)" stroke="url(#xhoa8pa49ab)" stroke-width=".5" stroke-linecap="round" stroke-linejoin="round"/><g filter="url(#i9nvra1jnac)"><ellipse rx="2.298" ry="2.299" transform="matrix(1 0 0 -1 13.06 107.634)" fill="url(#yqp0amp9ead)"/></g><path d="M71.938 76.177a3.465 3.465 0 10-4.172 5.534l29.76 22.43a3.464 3.464 0 104.171-5.534l-29.76-22.43z" fill="url(#h495t41ykae)"/><path opacity=".396" d="M71.938 76.177a3.465 3.465 0 10-4.172 5.534l29.76 22.43a3.464 3.464 0 104.171-5.534l-29.76-22.43z" fill="url(#ulevmv750af)"/><path d="M102.944 114.858a6.899 6.899 0 009.638-1.526l2.364-3.255a6.898 6.898 0 00-1.526-9.635L97.754 89.057a6.9 6.9 0 00-9.638 1.526l-2.364 3.255a6.9 6.9 0 001.526 9.636l15.666 11.384z" fill="url(#egrysfht0ag)"/><path opacity=".829" d="M102.944 114.858a6.899 6.899 0 009.638-1.526l2.364-3.255a6.898 6.898 0 00-1.526-9.635L97.754 89.057a6.9 6.9 0 00-9.638 1.526l-2.364 3.255a6.9 6.9 0 001.526 9.636l15.666 11.384z" fill="url(#s61rk26z2ah)"/><path opacity=".8" d="M102.944 114.858a6.899 6.899 0 009.638-1.526l2.364-3.255a6.898 6.898 0 00-1.526-9.635L97.754 89.057a6.9 6.9 0 00-9.638 1.526l-2.364 3.255a6.9 6.9 0 001.526 9.636l15.666 11.384z" fill="url(#f7bs71ueaai)"/><ellipse opacity=".814" cx="103.911" cy="103.106" rx="10.166" ry="10.607" transform="rotate(125 103.911 103.106)" fill="url(#udfqzyqc9aj)"/><path d="M98.347 86.761c3.058-4.71 8.545 3.161 7.902 8.332" stroke="#32445D" stroke-width="1.32"/><g opacity=".85"><rect x="97.742" y="85.82" width="1.997" height="2.097" rx=".885" transform="rotate(34.99 97.742 85.82)" fill="#21324E"/><rect x="96.327" y="86.536" width="3.495" height="1.398" rx=".696" transform="rotate(34.99 96.327 86.536)" fill="url(#hek57k72jak)"/></g><path d="M108.248 95.32a1.479 1.479 0 01-1.344 1.6l-.38.034a1.478 1.478 0 01-1.601-1.344l-.048-.546a1.479 1.479 0 011.344-1.602l.38-.033c.813-.071 1.53.53 1.601 1.344l.048.546z" fill="#21324E"/><path d="M109.623 96.683c.056.64-.417 1.21-1.056 1.265l-3.503.306a1.168 1.168 0 01-.203-2.328l3.502-.306a1.167 1.167 0 011.26 1.063z" fill="url(#9bnu8ec0eal)"/><path d="M83.152 105.335c2.097 4.453 6.613 6.685 12.373 7.462" stroke="#32445D" stroke-width="1.32"/><g opacity=".85"><rect width="2.857" height="3" rx="1.274" transform="scale(1 -1) rotate(30.989 233.919 94.771)" fill="#21324E"/><rect width="5" height="2" rx="1" transform="scale(1 -1) rotate(30.989 230.847 91.84)" fill="url(#fqg29ad4fam)"/></g><path d="M97.551 113.948a1.479 1.479 0 00.982-1.846l-.112-.365a1.478 1.478 0 00-1.846-.981l-.524.16a1.478 1.478 0 00-.981 1.846l.11.364a1.478 1.478 0 001.847.982l.524-.16z" fill="#21324E"/><path d="M99.33 114.712c.615-.188.966-.839.778-1.453l-1.028-3.363a1.167 1.167 0 00-1.457-.77 1.167 1.167 0 00-.777 1.453l1.028 3.363c.187.614.843.958 1.457.77z" fill="url(#sg9i6dgg2an)"/><ellipse rx="10.41" ry="10.381" transform="matrix(0 -1 -1 0 107.773 107.651)" fill="url(#gjl4qyovbao)"/><ellipse opacity=".5" rx="10.41" ry="10.381" transform="matrix(0 -1 -1 0 107.773 107.651)" fill="url(#5wimrd759ap)"/><ellipse opacity=".349" rx="10.41" ry="10.381" transform="matrix(0 -1 -1 0 107.773 107.651)" fill="url(#ej3i9t5x4aq)"/><ellipse rx="10.41" ry="10.381" transform="matrix(0 -1 -1 0 107.773 107.651)" stroke="url(#khj3fyo0par)" stroke-width=".3" stroke-linecap="round" stroke-linejoin="round"/><ellipse cx="107.94" cy="107.634" rx="5.745" ry="5.746" transform="rotate(-180 107.94 107.634)" fill="#1B283E"/><ellipse opacity=".703" cx="107.94" cy="107.634" rx="5.745" ry="5.746" transform="rotate(-180 107.94 107.634)" stroke="url(#m7fq8rbbtas)" stroke-width=".5" stroke-linecap="round" stroke-linejoin="round"/><g filter="url(#9b60zgllgat)"><ellipse cx="107.94" cy="107.634" rx="2.298" ry="2.299" transform="rotate(-180 107.94 107.634)" fill="url(#6it3exe7mau)"/></g><path d="M60.018 8.242C61.5-4.315 86.732 7 82.17 17.306" stroke="url(#uopqc2pqdav)" stroke-width="3"/><rect x="63.643" y="11.449" width="6.286" height="4.905" rx="1.761" transform="rotate(-180 63.643 11.449)" fill="#21324E"/><rect x="66" y="13.544" width="11" height="4.19" rx="1.761" transform="rotate(-180 66 13.544)" fill="url(#ghwdf4ke4aw)"/><circle cx="60.5" cy="60.5" r="48.5" fill="url(#ajo1jtnycax)"/><circle opacity=".45" cx="60.5" cy="60.5" r="48.5" fill="url(#x0y02wlllay)"/><circle cx="60.5" cy="60.5" r="45.5" fill="url(#7pqqi2zadaz)"/><circle opacity=".541" cx="60.5" cy="60.5" r="45.5" fill="url(#kq3ngjqzhaA)"/><ellipse opacity=".538" cx="85.692" cy="92.352" rx="3" ry="17.5" transform="rotate(-123 85.692 92.352)" fill="url(#1d9wczvugaB)"/><circle cx="60.5" cy="60.5" r="27.5" fill="url(#dcjps7doiaC)"/><circle cx="60.5" cy="60.5" r="33" fill="url(#ej61kemi0aD)"/><g filter="url(#7gdkaxuimaE)"><path fill-rule="evenodd" clip-rule="evenodd" d="M64.281 79.195c-.541-.199-.67-.352-.643-.922a5.272 5.272 0 01.678-2.392 1.28 1.28 0 011.215-.678c.304.004.607.004.911.003l.716.001c.121.002.242.015.36.04.216.02.388.183.418.395.014.27.003.54-.032.808-.005.044-.12.107-.186.11-.197.008-.395.007-.592.006h-.288c-.125 0-.165-.048-.154-.168.018-.215-.03-.268-.248-.275a5.712 5.712 0 00-.726.01c-.1.014-.19.07-.245.154A5.523 5.523 0 0065 78.091c-.013.144.058.197.2.195l.331.001.243.002c.404 0 .52-.099.59-.514h-.201c-.155-.002-.308-.004-.462.003-.164.007-.224-.043-.176-.202.036-.122.065-.248.093-.373l.016-.068a.21.21 0 01.231-.186h.005c.58.004 1.161.003 1.742 0 .144 0 .2.045.156.188-.036.119-.069.24-.101.36a8.928 8.928 0 01-.156.53c-.196.572-.527 1.03-1.2 1.166l-2.03.002zm-5.21-.06l-.001-.011a.413.413 0 010-.151c.126-.486.256-.98.383-1.462l.08-.303.085-.322c.126-.479.255-.966.38-1.447.033-.129.084-.203.251-.203h.005c.483.004.972.004 1.45.005h.12c.34 0 .69 0 1.034.003.09 0 .178.01.265.028.323.063.491.264.449.536-.058.357-.15.708-.277 1.047a.915.915 0 01-.76.536c.015.01.026.02.036.027a.114.114 0 00.044.027.49.49 0 01.327.196c.08.14.098.306.053.46a15.39 15.39 0 00-.075.385l-.012.061-.014.073a9.764 9.764 0 01-.073.372.436.436 0 01-.07.14l-.001.003a.985.985 0 00-.036.059h-1.145a.711.711 0 00-.016-.049l-.003-.009a.266.266 0 01-.024-.12c.02-.151.044-.304.068-.453l.005-.03.001-.01c.023-.143.046-.291.066-.436a.219.219 0 00-.04-.177.233.233 0 00-.183-.064c-.208 0-.414-.005-.612-.012h-.015a.2.2 0 00-.22.179c-.068.29-.149.595-.254.965a.636.636 0 01-.076.15l-.008.014a.51.51 0 00-.032.054h-1.15c0-.02-.002-.04-.005-.06zm-2.37-2.77a.33.33 0 01.35-.25l.017.002c.132.004.262.004.372.004h.297a.213.213 0 01.172.062.156.156 0 01.018.14 92.948 92.948 0 01-.466 1.73.242.242 0 01-.264.173h-.015c-.041-.002-.086-.002-.14-.002h-.436c-.05 0-.092.001-.13.004h-.031a.191.191 0 01-.154-.055.212.212 0 01-.023-.18l.017-.083c.044-.218.09-.445.149-.66.058-.215.126-.43.192-.64l.01-.033.066-.212zm-.993 2.795h1.724a.89.89 0 00.046-.012.593.593 0 01.102-.02c.273-.021.53-.142.717-.34.28-.311.486-.68.6-1.082.236-.579.35-1.2.336-1.824-.038-.47-.259-.666-.766-.672-.113-.002-.235-.002-.375-.002h-.672c-.217 0-.384-.002-.543-.006h-.043a1.232 1.232 0 00-1.168.678c-.216.414-.39.849-.52 1.297a5.542 5.542 0 00-.19 1.249c-.022.428.164.633.642.706.024.005.05.011.073.018l.037.01zm12.313.038a.763.763 0 01-.014-.224c.112-.462.226-.924.34-1.386.175-.711.35-1.423.521-2.136.046-.188.13-.25.336-.25.78.007 1.56.006 2.339.006h1.216c.081.006.162.016.241.032v.073a2.14 2.14 0 01-1.81.808 9.127 9.127 0 00-.549-.003l-.254.002c-.208 0-.31 0-.37.05-.06.048-.08.142-.122.327-.053.232-.048.237.197.238h1.532c.218 0 .23.014.184.221-.012.056-.027.112-.041.168a3.274 3.274 0 00-.061.274c-.024.149-.109.2-.263.198a65.484 65.484 0 00-1.359 0l-.157-.001c-.148-.002-.22-.003-.265.032-.043.034-.06.102-.092.236l-.037.149c-.063.244-.055.254.215.254h1.684c.28 0 .284.005.22.268l-.024.1c-.028.12-.055.24-.092.358-.03.072-.065.14-.108.206h-3.407zm-17.42-.677c-.33.062-.554.2-.6.533v.146h1.992c.043-.072.08-.148.11-.226.096-.333.187-.665.273-1l.001-.006a.233.233 0 01.268-.19c.182.005.365.004.547.003.15 0 .299-.001.448.001a.05.05 0 00.004 0l.004.002a.196.196 0 00.22-.169c.035-.16.078-.317.13-.472.056-.16-.005-.205-.168-.202-.256.004-.513.003-.77.001l-.168-.001c-.224-.001-.236-.018-.182-.217l.03-.11c.022-.074.043-.148.057-.224.034-.178.13-.247.329-.243.51.012 1.02.01 1.53 0a.34.34 0 00.235-.105c.139-.18.26-.37.382-.561l.041-.065a.758.758 0 00.055-.174h-.26c-1.358-.002-2.717-.002-4.076 0-.223.001-.317-.016-.373.022-.056.04-.072.139-.146.377-.035.11-.003.162.127.185.214.032.424.082.629.15a.334.334 0 01.249.475c-.145.532-.293 1.062-.445 1.592a.616.616 0 01-.473.478z" fill="url(#5qqyi898naF)"/></g><g filter="url(#f03qktot4aG)"><path fill-rule="evenodd" clip-rule="evenodd" d="M59.172 70v-5.271l7.586-4.26 2.656-1.493v5.222l-10.24 5.801-.002.001zm-.93 0L48 64.198v-17.77l1.955 1.107 2.7 1.528v12.289c0 .012.002.023.004.034v.035a.318.318 0 00.008.05.173.173 0 00.014.036l.008.017.005.015a.19.19 0 00.041.073l.014.016.011.015a.237.237 0 00.027.033.163.163 0 00.027.021l.019.014.018.014c.01.008.02.016.032.023h.004l5.347 2.98v5.269l.008.003zm.465-6.063l-4.645-2.587 4.882-2.764 5.355-3.032 4.65 2.635-3.412 1.916-6.831 3.829.001.003zm-5.12-3.378V49.063l2.7-1.527 1.955-1.108v11.497l-2.7 1.53-1.955 1.104zm16.758-3.164v-5.219l2.7-1.53L75 49.539v5.218l-4.655 2.637zm-.93 0l-1.955-1.108-2.7-1.53V49.54l1.955 1.108 2.7 1.53v5.218zm.465-6.012l-4.653-2.637 4.653-2.636 4.654 2.636-4.653 2.637h-.001zm-16.76-3.11l-4.655-2.637L53.12 43l4.65 2.635-4.65 2.637z" fill="url(#f9wogacamaH)"/></g><path opacity=".315" fill-rule="evenodd" clip-rule="evenodd" d="M85.66 45.091A29.378 29.378 0 0072.5 42C56.208 42 43 55.208 43 71.5a29.362 29.362 0 004.34 15.409C37.652 82.072 31 72.063 31 60.5 31 44.208 44.208 31 60.5 31c10.645 0 19.973 5.638 25.16 14.091z" fill="url(#zn3x5ic2faI)"/><path d="M78.172 115.412L73 98.795l25.723-18.499-22.265-29.64" stroke="url(#fzgcxlik4aJ)" stroke-width="2"/><circle cx="76.971" cy="49.831" r="7.945" transform="rotate(-90 76.97 49.83)" fill="url(#6t23yfpdaaK)" style="mix-blend-mode:lighten"/><circle cx="76.306" cy="49.813" r="2.525" transform="rotate(-90 76.306 49.813)" fill="#EABBFF"/><circle cx="98.437" cy="79.554" r="2.866" transform="rotate(-68 98.437 79.554)" fill="#B177CB"/><circle cx="73.091" cy="98.768" r="2.602" transform="rotate(-90 73.091 98.768)" fill="#B177CB"/><defs><linearGradient id="z1fhbz9y4g" x1="-24.227" y1="22.708" x2="5.038" y2="134.632" gradientUnits="userSpaceOnUse"><stop stop-color="#C47EDD"/><stop offset="1" stop-color="#7850D1"/></linearGradient><linearGradient id="h78nebsdlh" x1="59.453" y1="85.499" x2="60.898" y2="48.346" gradientUnits="userSpaceOnUse"><stop stop-color="#5B79A2"/><stop offset="1" stop-color="#182439"/></linearGradient><linearGradient id="moxl5sfnci" x1="35.462" y1="47.757" x2="36.425" y2="22.988" gradientUnits="userSpaceOnUse"><stop stop-color="#5B79A2"/><stop offset="1" stop-color="#182439"/></linearGradient><linearGradient id="0u5vv51x0j" x1="46.181" y1="29.227" x2="47.626" y2="-7.926" gradientUnits="userSpaceOnUse"><stop stop-color="#5B79A2"/><stop offset="1" stop-color="#182439"/></linearGradient><linearGradient id="ihdqmzamzk" x1="30.788" y1="19.485" x2="31.751" y2="-5.284" gradientUnits="userSpaceOnUse"><stop stop-color="#5B79A2"/><stop offset="1" stop-color="#182439"/></linearGradient><linearGradient id="kr6j6xwexl" x1="37.184" y1="47.009" x2="41.295" y2="36.805" gradientUnits="userSpaceOnUse"><stop stop-color="#233249"/><stop offset="1" stop-color="#0F1723"/></linearGradient><linearGradient id="fu0fbfa53n" x1="-7.498" y1="15.602" x2="4.352" y2="3.554" gradientUnits="userSpaceOnUse"><stop stop-color="#5B79A2"/><stop offset="1" stop-color="#2D4265"/></linearGradient><linearGradient id="o3ivlwggur" x1="8.482" y1="33.531" x2="8.762" y2="47.911" gradientUnits="userSpaceOnUse"><stop stop-color="#5B79A2"/><stop offset="1" stop-color="#182439"/></linearGradient><linearGradient id="la0st8vjvs" x1="45.656" y1="46.653" x2="44.03" y2="22.669" gradientUnits="userSpaceOnUse"><stop stop-color="#5B79A2"/><stop offset="1" stop-color="#182439"/></linearGradient><linearGradient id="cf4i1xpckt" x1="-10.41" y1="12.998" x2="15.602" y2="33.83" gradientUnits="userSpaceOnUse"><stop stop-color="#5B79A2"/><stop offset="1" stop-color="#2E4469"/></linearGradient><linearGradient id="ll7d7vkapv" x1="30.7" y1="6.707" x2="4.681" y2="-13.069" gradientUnits="userSpaceOnUse"><stop stop-color="#F44880" stop-opacity=".01"/><stop offset="1" stop-color="#fff"/></linearGradient><linearGradient id="5dbgx76h5w" x1="10.738" y1="26.057" x2="16.483" y2="28.701" gradientUnits="userSpaceOnUse"><stop stop-color="#F44880" stop-opacity=".01"/><stop offset="1" stop-color="#fff"/></linearGradient><linearGradient id="j6ixmbxgly" x1="7.929" y1="21.366" x2="7.929" y2="29.632" gradientUnits="userSpaceOnUse"><stop stop-color="#fff"/><stop offset="1" stop-color="#C42E6C"/></linearGradient><linearGradient id="grye1eh35z" x1="84.32" y1="47.009" x2="80.209" y2="36.805" gradientUnits="userSpaceOnUse"><stop stop-color="#233249"/><stop offset="1" stop-color="#0F1723"/></linearGradient><linearGradient id="8zrsqm75hB" x1="129.001" y1="15.602" x2="117.152" y2="3.554" gradientUnits="userSpaceOnUse"><stop stop-color="#5B79A2"/><stop offset="1" stop-color="#2D4265"/></linearGradient><linearGradient id="mer8xhzziF" x1="-16.191" y1="-8.933" x2="-15.911" y2="5.447" gradientUnits="userSpaceOnUse"><stop stop-color="#5B79A2"/><stop offset="1" stop-color="#182439"/></linearGradient><linearGradient id="356dz8kwjG" x1="75.848" y1="46.653" x2="77.474" y2="22.669" gradientUnits="userSpaceOnUse"><stop stop-color="#5B79A2"/><stop offset="1" stop-color="#182439"/></linearGradient><linearGradient id="m7ob4h7blH" x1="88.458" y1="23.966" x2="114.47" y2="44.798" gradientUnits="userSpaceOnUse"><stop stop-color="#5B79A2"/><stop offset="1" stop-color="#2E4469"/></linearGradient><linearGradient id="y3gaacygxJ" x1="116.514" y1="19.486" x2="94.084" y2="25.847" gradientUnits="userSpaceOnUse"><stop stop-color="#F44880" stop-opacity=".01"/><stop offset="1" stop-color="#fff"/></linearGradient><linearGradient id="t5d0trb49K" x1="4.423" y1="10.437" x2="10.168" y2="13.081" gradientUnits="userSpaceOnUse"><stop stop-color="#F44880" stop-opacity=".01"/><stop offset="1" stop-color="#fff"/></linearGradient><linearGradient id="epm027gmjM" x1="-1.834" y1="2.299" x2="-1.834" y2="10.564" gradientUnits="userSpaceOnUse"><stop stop-color="#fff"/><stop offset="1" stop-color="#C42E6C"/></linearGradient><linearGradient id="nszoa4mouN" x1="38.184" y1="81.991" x2="42.295" y2="92.195" gradientUnits="userSpaceOnUse"><stop stop-color="#233249"/><stop offset="1" stop-color="#0F1723"/></linearGradient><linearGradient id="2gd0y099aP" x1="-6.498" y1="113.398" x2="5.352" y2="125.446" gradientUnits="userSpaceOnUse"><stop stop-color="#5B79A2"/><stop offset="1" stop-color="#2D4265"/></linearGradient><linearGradient id="rfw5yj0g8T" x1="-16.191" y1="-8.933" x2="-15.911" y2="5.447" gradientUnits="userSpaceOnUse"><stop stop-color="#5B79A2"/><stop offset="1" stop-color="#182439"/></linearGradient><linearGradient id="kwdn49wn7U" x1="45.656" y1="82.347" x2="44.03" y2="106.331" gradientUnits="userSpaceOnUse"><stop stop-color="#5B79A2"/><stop offset="1" stop-color="#182439"/></linearGradient><linearGradient id="box9a2r24V" x1="17.599" y1="92.971" x2="18" y2="113.543" gradientUnits="userSpaceOnUse"><stop stop-color="#5B79A2"/><stop offset="1" stop-color="#182439"/></linearGradient><linearGradient id="7ocg4pmybW" x1="47.801" y1="88.297" x2="24.953" y2="80.822" gradientUnits="userSpaceOnUse"><stop stop-color="#5B79A2"/><stop offset="1" stop-color="#182439"/></linearGradient><linearGradient id="rkz5l6cw4X" x1="-7.593" y1="110.268" x2="18.419" y2="131.1" gradientUnits="userSpaceOnUse"><stop stop-color="#5B79A2"/><stop offset="1" stop-color="#2E4469"/></linearGradient><linearGradient id="9w3wou3boaa" x1="23.283" y1="112.167" x2="26.849" y2="97.196" gradientUnits="userSpaceOnUse"><stop stop-color="#F44880" stop-opacity=".01"/><stop offset="1" stop-color="#fff"/></linearGradient><linearGradient id="xhoa8pa49ab" x1="4.423" y1="10.437" x2="10.168" y2="13.081" gradientUnits="userSpaceOnUse"><stop stop-color="#F44880" stop-opacity=".01"/><stop offset="1" stop-color="#fff"/></linearGradient><linearGradient id="yqp0amp9ead" x1="-1.834" y1="2.299" x2="-1.834" y2="10.564" gradientUnits="userSpaceOnUse"><stop stop-color="#fff"/><stop offset="1" stop-color="#C42E6C"/></linearGradient><linearGradient id="h495t41ykae" x1="82.816" y1="81.991" x2="78.705" y2="92.195" gradientUnits="userSpaceOnUse"><stop stop-color="#233249"/><stop offset="1" stop-color="#0F1723"/></linearGradient><linearGradient id="egrysfht0ag" x1="127.497" y1="113.398" x2="115.648" y2="125.446" gradientUnits="userSpaceOnUse"><stop stop-color="#5B79A2"/><stop offset="1" stop-color="#2D4265"/></linearGradient><linearGradient id="hek57k72jak" x1="80.136" y1="77.603" x2="80.417" y2="91.983" gradientUnits="userSpaceOnUse"><stop stop-color="#5B79A2"/><stop offset="1" stop-color="#182439"/></linearGradient><linearGradient id="9bnu8ec0eal" x1="75.344" y1="82.347" x2="76.97" y2="106.331" gradientUnits="userSpaceOnUse"><stop stop-color="#5B79A2"/><stop offset="1" stop-color="#182439"/></linearGradient><linearGradient id="fqg29ad4fam" x1="-23.164" y1="-12.779" x2="-22.763" y2="7.793" gradientUnits="userSpaceOnUse"><stop stop-color="#5B79A2"/><stop offset="1" stop-color="#182439"/></linearGradient><linearGradient id="sg9i6dgg2an" x1="73.199" y1="88.297" x2="96.046" y2="80.822" gradientUnits="userSpaceOnUse"><stop stop-color="#5B79A2"/><stop offset="1" stop-color="#182439"/></linearGradient><linearGradient id="gjl4qyovbao" x1="-10.41" y1="12.998" x2="15.602" y2="33.83" gradientUnits="userSpaceOnUse"><stop stop-color="#5B79A2"/><stop offset="1" stop-color="#2E4469"/></linearGradient><linearGradient id="khj3fyo0par" x1="20.466" y1="14.897" x2="24.032" y2="-.074" gradientUnits="userSpaceOnUse"><stop stop-color="#F44880" stop-opacity=".01"/><stop offset="1" stop-color="#fff"/></linearGradient><linearGradient id="m7fq8rbbtas" x1="106.618" y1="112.324" x2="112.363" y2="114.968" gradientUnits="userSpaceOnUse"><stop stop-color="#F44880" stop-opacity=".01"/><stop offset="1" stop-color="#fff"/></linearGradient><linearGradient id="6it3exe7mau" x1="103.808" y1="107.634" x2="103.808" y2="115.899" gradientUnits="userSpaceOnUse"><stop stop-color="#fff"/><stop offset="1" stop-color="#C42E6C"/></linearGradient><linearGradient id="uopqc2pqdav" x1="60.062" y1="6.04" x2="64.64" y2="22.772" gradientUnits="userSpaceOnUse"><stop stop-color="#293C5C"/><stop offset="1" stop-color="#17253A"/></linearGradient><linearGradient id="ghwdf4ke4aw" x1="122.444" y1="47.643" x2="124.053" y2="4.291" gradientUnits="userSpaceOnUse"><stop stop-color="#5B79A2"/><stop offset="1" stop-color="#182439"/></linearGradient><linearGradient id="7pqqi2zadaz" x1="-42.955" y1="55.59" x2="38.225" y2="153.259" gradientUnits="userSpaceOnUse"><stop stop-color="#6BA0E2"/><stop offset="1" stop-color="#131E32"/></linearGradient><linearGradient id="5qqyi898naF" x1="40.824" y1="77.2" x2="40.824" y2="84.392" gradientUnits="userSpaceOnUse"><stop stop-color="#fff"/><stop offset="1" stop-color="#C42E6C"/></linearGradient><linearGradient id="f9wogacamaH" x1="37.228" y1="56.5" x2="37.228" y2="105.044" gradientUnits="userSpaceOnUse"><stop stop-color="#fff"/><stop offset="1" stop-color="#C42E6C"/></linearGradient><linearGradient id="fzgcxlik4aJ" x1="91.144" y1="124.598" x2="104.572" y2="55.595" gradientUnits="userSpaceOnUse"><stop stop-color="#15101B"/><stop offset=".29" stop-color="#684F95"/><stop offset="1" stop-color="#8B60ED"/></linearGradient><radialGradient id="njjo19dkra" cx="0" cy="0" r="1" gradientUnits="userSpaceOnUse" gradientTransform="rotate(68.456 12.684 30.46) scale(116.264)"><stop stop-color="#486AA8"/><stop offset="1" stop-color="#0C1321"/></radialGradient><radialGradient id="2u7hqgubpb" cx="0" cy="0" r="1" gradientUnits="userSpaceOnUse" gradientTransform="rotate(-87.409 10.36 -6.314) scale(118.329 114.2)"><stop stop-color="#C873DC"/><stop offset="1" stop-color="#8B60EC" stop-opacity=".01"/></radialGradient><radialGradient id="rsby0458qd" cx="0" cy="0" r="1" gradientUnits="userSpaceOnUse" gradientTransform="matrix(0 -20.6615 40.6504 0 60.5 121.861)"><stop stop-color="#2B436F"/><stop offset="1" stop-color="#18263E"/></radialGradient><radialGradient id="12u9cm5zbe" cx="0" cy="0" r="1" gradientUnits="userSpaceOnUse" gradientTransform="matrix(0 5.30053 -77.9728 0 62 108.576)"><stop/><stop offset="1" stop-opacity=".01"/></radialGradient><radialGradient id="o828lr9k0f" cx="0" cy="0" r="1" gradientUnits="userSpaceOnUse" gradientTransform="matrix(5.82876 0 0 10.5456 82.79 16.43)"><stop stop-color="#0F1827"/><stop offset="1" stop-color="#0F1827" stop-opacity=".01"/></radialGradient><radialGradient id="fr1ujtve4m" cx="0" cy="0" r="1" gradientUnits="userSpaceOnUse" gradientTransform="matrix(-25.94491 -22.28308 1.40142 -1.63172 31.997 50.13)"><stop stop-color="#354C71"/><stop offset="1" stop-color="#fff" stop-opacity=".01"/></radialGradient><radialGradient id="oi3f4b7dao" cx="0" cy="0" r="1" gradientUnits="userSpaceOnUse" gradientTransform="matrix(9.1272 22.41022 -20.5448 8.36745 9.849 54.755)"><stop stop-color="#fff"/><stop offset="1" stop-color="#fff" stop-opacity=".01"/></radialGradient><radialGradient id="fsy4s8b74p" cx="0" cy="0" r="1" gradientUnits="userSpaceOnUse" gradientTransform="rotate(-145.393 21.998 -.603) scale(32.6807 17.5894)"><stop stop-color="#C873DC"/><stop offset="1" stop-color="#8B60EC" stop-opacity=".01"/></radialGradient><radialGradient id="9ysxsjmkrq" cx="0" cy="0" r="1" gradientUnits="userSpaceOnUse" gradientTransform="matrix(10.1658 0 0 10.6069 16.089 25.894)"><stop stop-color="#0F1827"/><stop offset="1" stop-color="#0F1827" stop-opacity=".01"/></radialGradient><radialGradient id="1awgifze6u" cx="0" cy="0" r="1" gradientUnits="userSpaceOnUse" gradientTransform="matrix(.92834 -20.45154 20.50808 .9309 10.41 10.38)"><stop stop-color="#C873DC"/><stop offset="1" stop-color="#8B60EC" stop-opacity=".01"/></radialGradient><radialGradient id="2tqz438wiA" cx="0" cy="0" r="1" gradientUnits="userSpaceOnUse" gradientTransform="matrix(25.94472 -22.2833 1.40144 1.6317 89.507 50.13)"><stop stop-color="#354C71"/><stop offset="1" stop-color="#fff" stop-opacity=".01"/></radialGradient><radialGradient id="052f1gak8C" cx="0" cy="0" r="1" gradientUnits="userSpaceOnUse" gradientTransform="rotate(112.16 37.418 64.92) scale(24.1976 22.1834)"><stop stop-color="#fff"/><stop offset="1" stop-color="#fff" stop-opacity=".01"/></radialGradient><radialGradient id="yklnmm4aaD" cx="0" cy="0" r="1" gradientUnits="userSpaceOnUse" gradientTransform="matrix(26.8984 -18.56082 9.9898 14.47725 79.234 12.558)"><stop stop-color="#C873DC"/><stop offset="1" stop-color="#8B60EC" stop-opacity=".01"/></radialGradient><radialGradient id="6yq18rfhmE" cx="0" cy="0" r="1" gradientUnits="userSpaceOnUse" gradientTransform="matrix(10.1658 0 0 10.6069 10.166 10.607)"><stop stop-color="#0F1827"/><stop offset="1" stop-color="#0F1827" stop-opacity=".01"/></radialGradient><radialGradient id="iml4nrnmmI" cx="0" cy="0" r="1" gradientUnits="userSpaceOnUse" gradientTransform="matrix(.92834 -20.45154 20.50808 .9309 109.276 21.349)"><stop stop-color="#C873DC"/><stop offset="1" stop-color="#8B60EC" stop-opacity=".01"/></radialGradient><radialGradient id="bp5dbjbcoO" cx="0" cy="0" r="1" gradientUnits="userSpaceOnUse" gradientTransform="matrix(-25.94491 22.28308 -1.40142 -1.63172 32.997 78.87)"><stop stop-color="#354C71"/><stop offset="1" stop-color="#fff" stop-opacity=".01"/></radialGradient><radialGradient id="rv1b9qcjvQ" cx="0" cy="0" r="1" gradientUnits="userSpaceOnUse" gradientTransform="matrix(9.1272 -22.41022 20.5448 8.36745 10.849 74.247)"><stop stop-color="#fff"/><stop offset="1" stop-color="#fff" stop-opacity=".01"/></radialGradient><radialGradient id="k8lk2zh6xR" cx="0" cy="0" r="1" gradientUnits="userSpaceOnUse" gradientTransform="rotate(145.393 3.498 64.961) scale(32.6807 17.5894)"><stop stop-color="#C873DC"/><stop offset="1" stop-color="#8B60EC" stop-opacity=".01"/></radialGradient><radialGradient id="xh2blw2meS" cx="0" cy="0" r="1" gradientUnits="userSpaceOnUse" gradientTransform="matrix(10.1658 0 0 10.6069 10.166 10.607)"><stop stop-color="#0F1827"/><stop offset="1" stop-color="#0F1827" stop-opacity=".01"/></radialGradient><radialGradient id="gfamf1kdqY" cx="0" cy="0" r="1" gradientUnits="userSpaceOnUse" gradientTransform="matrix(-1.349 11.5514 -13.85017 -1.61746 13.226 107.65)"><stop stop-color="#00BAFF"/><stop offset="1" stop-color="#83234B" stop-opacity=".01"/></radialGradient><radialGradient id="ygrtxem92Z" cx="0" cy="0" r="1" gradientUnits="userSpaceOnUse" gradientTransform="matrix(.92834 -20.45154 20.50808 .9309 13.226 107.65)"><stop stop-color="#C873DC"/><stop offset="1" stop-color="#8B60EC" stop-opacity=".01"/></radialGradient><radialGradient id="ulevmv750af" cx="0" cy="0" r="1" gradientUnits="userSpaceOnUse" gradientTransform="matrix(25.94472 22.2833 -1.40144 1.6317 88.003 78.87)"><stop stop-color="#354C71"/><stop offset="1" stop-color="#fff" stop-opacity=".01"/></radialGradient><radialGradient id="s61rk26z2ah" cx="0" cy="0" r="1" gradientUnits="userSpaceOnUse" gradientTransform="rotate(-112.16 80.04 .086) scale(24.1976 22.1834)"><stop stop-color="#fff"/><stop offset="1" stop-color="#fff" stop-opacity=".01"/></radialGradient><radialGradient id="f7bs71ueaai" cx="0" cy="0" r="1" gradientUnits="userSpaceOnUse" gradientTransform="matrix(26.8984 18.56082 -9.9898 14.47725 77.73 116.444)"><stop stop-color="#C873DC"/><stop offset="1" stop-color="#8B60EC" stop-opacity=".01"/></radialGradient><radialGradient id="udfqzyqc9aj" cx="0" cy="0" r="1" gradientUnits="userSpaceOnUse" gradientTransform="matrix(10.1658 0 0 10.6069 103.911 103.106)"><stop stop-color="#0F1827"/><stop offset="1" stop-color="#0F1827" stop-opacity=".01"/></radialGradient><radialGradient id="5wimrd759ap" cx="0" cy="0" r="1" gradientUnits="userSpaceOnUse" gradientTransform="matrix(-1.349 11.5514 -13.85017 -1.61746 10.41 10.381)"><stop stop-color="#00BAFF"/><stop offset="1" stop-color="#83234B" stop-opacity=".01"/></radialGradient><radialGradient id="ej3i9t5x4aq" cx="0" cy="0" r="1" gradientUnits="userSpaceOnUse" gradientTransform="matrix(.92834 -20.45154 20.50808 .9309 10.41 10.38)"><stop stop-color="#C873DC"/><stop offset="1" stop-color="#8B60EC" stop-opacity=".01"/></radialGradient><radialGradient id="ajo1jtnycax" cx="0" cy="0" r="1" gradientUnits="userSpaceOnUse" gradientTransform="matrix(14.83144 83.30787 -118.43178 21.08461 10.543 -18.53)"><stop stop-color="#6BA0E2"/><stop offset="1" stop-color="#131E32"/></radialGradient><radialGradient id="x0y02wlllay" cx="0" cy="0" r="1" gradientUnits="userSpaceOnUse" gradientTransform="rotate(-86.588 58.632 -5.367) scale(65.6368)"><stop stop-color="#EC9AFF"/><stop offset="1" stop-color="#8B60EC" stop-opacity=".01"/></radialGradient><radialGradient id="kq3ngjqzhaA" cx="0" cy="0" r="1" gradientUnits="userSpaceOnUse" gradientTransform="rotate(57.867 15.106 37.77) scale(91.7479)"><stop stop-color="#B071BF"/><stop offset="1" stop-color="#8B60EC" stop-opacity=".01"/></radialGradient><radialGradient id="1d9wczvugaB" cx="0" cy="0" r="1" gradientUnits="userSpaceOnUse" gradientTransform="matrix(3 0 0 110.67 85.692 92.352)"><stop stop-color="#0F1827"/><stop offset="1" stop-color="#0F1827" stop-opacity=".01"/></radialGradient><radialGradient id="dcjps7doiaC" cx="0" cy="0" r="1" gradientUnits="userSpaceOnUse" gradientTransform="matrix(0 49.5935 -49.5935 0 60.5 33)"><stop stop-color="#2B436F"/><stop offset="1"/></radialGradient><radialGradient id="ej61kemi0aD" cx="0" cy="0" r="1" gradientUnits="userSpaceOnUse" gradientTransform="rotate(90 16.5 44) scale(59.5122)"><stop stop-color="#2B436F"/><stop offset="1"/></radialGradient><radialGradient id="zn3x5ic2faI" cx="0" cy="0" r="1" gradientUnits="userSpaceOnUse" gradientTransform="rotate(-87.466 38.025 -2.122) scale(55.1288 53.902)"><stop stop-color="#AFC2FF"/><stop offset="1" stop-color="#9279CA" stop-opacity=".01"/></radialGradient><radialGradient id="6t23yfpdaaK" cx="0" cy="0" r="1" gradientUnits="userSpaceOnUse" gradientTransform="translate(76.97 49.83) scale(7.94495)"><stop stop-color="#C42E6C"/><stop offset="1" stop-color="#621736" stop-opacity=".01"/></radialGradient><filter id="w8fsx0wnpx" x="4.762" y="14.068" width="14.596" height="14.597" filterUnits="userSpaceOnUse" color-interpolation-filters="sRGB"><feFlood flood-opacity="0" result="BackgroundImageFix"/><feColorMatrix in="SourceAlpha" values="0 0 0 0 0 0 0 0 0 0 0 0 0 0 0 0 0 0 127 0" result="hardAlpha"/><feOffset/><feGaussianBlur stdDeviation="2.5"/><feColorMatrix values="0 0 0 0 0.951002 0 0 0 0 0.370525 0 0 0 0 0.610455 0 0 0 1 0"/><feBlend in2="BackgroundImageFix" result="effect1_dropShadow_0_5087"/><feBlend in="SourceGraphic" in2="effect1_dropShadow_0_5087" result="shape"/></filter><filter id="7okx3fsfbL" x="102.146" y="14.068" width="14.596" height="14.597" filterUnits="userSpaceOnUse" color-interpolation-filters="sRGB"><feFlood flood-opacity="0" result="BackgroundImageFix"/><feColorMatrix in="SourceAlpha" values="0 0 0 0 0 0 0 0 0 0 0 0 0 0 0 0 0 0 127 0" result="hardAlpha"/><feOffset/><feGaussianBlur stdDeviation="2.5"/><feColorMatrix values="0 0 0 0 0.951002 0 0 0 0 0.370525 0 0 0 0 0.610455 0 0 0 1 0"/><feBlend in2="BackgroundImageFix" result="effect1_dropShadow_0_5087"/><feBlend in="SourceGraphic" in2="effect1_dropShadow_0_5087" result="shape"/></filter><filter id="i9nvra1jnac" x="5.762" y="100.335" width="14.596" height="14.597" filterUnits="userSpaceOnUse" color-interpolation-filters="sRGB"><feFlood flood-opacity="0" result="BackgroundImageFix"/><feColorMatrix in="SourceAlpha" values="0 0 0 0 0 0 0 0 0 0 0 0 0 0 0 0 0 0 127 0" result="hardAlpha"/><feOffset/><feGaussianBlur stdDeviation="2.5"/><feColorMatrix values="0 0 0 0 0.951002 0 0 0 0 0.370525 0 0 0 0 0.610455 0 0 0 1 0"/><feBlend in2="BackgroundImageFix" result="effect1_dropShadow_0_5087"/><feBlend in="SourceGraphic" in2="effect1_dropShadow_0_5087" result="shape"/></filter><filter id="9b60zgllgat" x="100.642" y="100.335" width="14.596" height="14.597" filterUnits="userSpaceOnUse" color-interpolation-filters="sRGB"><feFlood flood-opacity="0" result="BackgroundImageFix"/><feColorMatrix in="SourceAlpha" values="0 0 0 0 0 0 0 0 0 0 0 0 0 0 0 0 0 0 127 0" result="hardAlpha"/><feOffset/><feGaussianBlur stdDeviation="2.5"/><feColorMatrix values="0 0 0 0 0.951002 0 0 0 0 0.370525 0 0 0 0 0.610455 0 0 0 1 0"/><feBlend in2="BackgroundImageFix" result="effect1_dropShadow_0_5087"/><feBlend in="SourceGraphic" in2="effect1_dropShadow_0_5087" result="shape"/></filter><filter id="7gdkaxuimaE" x="46" y="71.2" width="31" height="12" filterUnits="userSpaceOnUse" color-interpolation-filters="sRGB"><feFlood flood-opacity="0" result="BackgroundImageFix"/><feColorMatrix in="SourceAlpha" values="0 0 0 0 0 0 0 0 0 0 0 0 0 0 0 0 0 0 127 0" result="hardAlpha"/><feOffset/><feGaussianBlur stdDeviation="2"/><feColorMatrix values="0 0 0 0 0.951002 0 0 0 0 0.370525 0 0 0 0 0.610455 0 0 0 1 0"/><feBlend in2="BackgroundImageFix" result="effect1_dropShadow_0_5087"/><feBlend in="SourceGraphic" in2="effect1_dropShadow_0_5087" result="shape"/></filter><filter id="f03qktot4aG" x="45" y="40" width="33" height="33" filterUnits="userSpaceOnUse" color-interpolation-filters="sRGB"><feFlood flood-opacity="0" result="BackgroundImageFix"/><feColorMatrix in="SourceAlpha" values="0 0 0 0 0 0 0 0 0 0 0 0 0 0 0 0 0 0 127 0" result="hardAlpha"/><feOffset/><feGaussianBlur stdDeviation="1.5"/><feColorMatrix values="0 0 0 0 0.951002 0 0 0 0 0.370525 0 0 0 0 0.610455 0 0 0 1 0"/><feBlend in2="BackgroundImageFix" result="effect1_dropShadow_0_5087"/><feBlend in="SourceGraphic" in2="effect1_dropShadow_0_5087" result="shape"/></filter></defs></svg>