<svg width="131" height="120" fill="none" xmlns="http://www.w3.org/2000/svg"><circle cx="65" cy="60" r="60" fill="url(#wyipg7d6pa)"/><circle cx="65" cy="60" r="59" stroke="url(#fs8s80omzb)" stroke-width="2"/><rect x="21.844" y="4.968" width="88.077" height="108.859" rx="7.193" fill="#152134"/><rect x="15" y="11" width="101" height="97" rx="7.193" fill="#1E2F4A"/><path d="M115.829 55.683C115.829 44 105 43.353 105 46" stroke="#33558C" stroke-width="2.3"/><rect x="117.724" y="56.921" width="3.585" height="2.937" rx="1.02" transform="rotate(-180 117.724 56.92)" fill="#385688"/><rect x="119.068" y="58.176" width="6.274" height="2.51" rx="1.255" transform="rotate(-180 119.068 58.176)" fill="url(#fv74pww9ac)"/><path d="M115.829 79.696C115.829 89.5 103 91.146 103 88.5" stroke="#33558C" stroke-width="2.3"/><rect width="3.585" height="2.937" rx="1.02" transform="matrix(-1 0 0 1 117.724 78.459)" fill="#385688"/><rect width="6.274" height="2.51" rx="1.255" transform="matrix(-1 0 0 1 119.068 77.203)" fill="url(#gachdb4agd)"/><path d="M14.98 66.741C14.98 77.5 27.5 77.647 27.5 75" stroke="#33558C" stroke-width="2.3"/><rect x="13.084" y="65.504" width="3.585" height="2.937" rx="1.02" fill="#385688"/><rect x="11.74" y="64.248" width="6.274" height="2.51" rx="1.255" fill="url(#bi4b712y8e)"/><path d="M14.98 42.412c.053-7.371 11.52-12.559 11.52-9.912" stroke="#33558C" stroke-width="2.3"/><rect width="3.585" height="2.937" rx="1.02" transform="matrix(1 0 0 -1 13.084 43.65)" fill="#385688"/><rect width="6.274" height="2.51" rx="1.255" transform="matrix(1 0 0 -1 11.74 44.905)" fill="url(#jq7r2t8z4f)"/><circle cx="61.295" cy="110.583" r="1.549" fill="#27425A"/><g filter="url(#y33eil6elg)"><circle cx="66.459" cy="110.583" r="1.549" fill="url(#65a3pvxrwh)"/></g><circle cx="71.623" cy="110.583" r="1.549" fill="#27425A"/><path fill="#27425A" d="M64.672 8.285h5.264v1.439h-5.264z"/><g filter="url(#qlqcf7rngi)"><path fill="url(#zhq6knp0bj)" d="M45.121 8.286h7.912v1.439h-7.912z"/><path fill="url(#y7qzf7e6lk)" d="M60.16 8.286h3.008v1.439H60.16z"/><path fill="url(#q7i4acdz2l)" d="M71.439 8.286h16.543v1.439H71.439z"/></g><path fill="#27425A" d="M54.145 8.285h4.512v1.439h-4.512z"/><path fill-rule="evenodd" clip-rule="evenodd" d="M18.748 19.555a7.193 7.193 0 017.192-7.192h23.736v24.694H18.748V19.555zm32.127-7.192h30.928v24.694H50.875V12.363zm30.928 68.81H50.875v24.695h30.928V81.173zm-39.32 0h7.193v24.695H34.812V93.52l7.672-12.347zm69.769-42.678h-29.25v57.062h29.25V38.495zm-93.504-.24h63.055v12.108L66.04 62.71l-15.764.24H18.748V38.255zm93.504-15.343h-29.25v14.385h29.25V22.912zm-29.25 73.843H96.19v9.111H83.002v-9.11zm22.057-84.392H83.002v9.11h29.25v-1.918a7.193 7.193 0 00-7.193-7.192zm-7.672 93.504h7.672a7.192 7.192 0 007.193-7.193v-1.918H97.387v9.111zm-71.447 0h7.673v-9.11H18.748v1.917a7.193 7.193 0 007.192 7.193zm55.863-53.946v28.051H66.219V64.15l15.584-12.23zM65.021 64.148H50.874v15.824H65.02V64.15zm-46.273 0h30.928v15.824H18.748V64.15zm22.537 17.025H18.748v14.385h14.865V93.52l7.672-12.347z" fill="url(#xn6r5novhm)"/><path opacity=".705" fill-rule="evenodd" clip-rule="evenodd" d="M18.748 19.555a7.193 7.193 0 017.192-7.192h23.736v24.694H18.748V19.555zm32.127-7.192h30.928v24.694H50.875V12.363zm30.928 68.81H50.875v24.695h30.928V81.173zm-39.32 0h7.193v24.695H34.811V93.52l7.672-12.347zm69.769-42.678h-29.25v57.062h29.25V38.495zm-93.504-.24h63.055v12.108L66.04 62.71l-15.764.24H18.748V38.255zm93.504-15.343h-29.25v14.385h29.25V22.912zm-29.25 73.843H96.19v9.111H83.002v-9.11zm22.057-84.392H83.002v9.11h29.25v-1.918a7.193 7.193 0 00-7.193-7.192zm-7.672 93.504h7.672a7.192 7.192 0 007.193-7.193v-1.918H97.387v9.111zm-71.447 0h7.672v-9.11H18.748v1.917a7.192 7.192 0 007.192 7.193zm55.863-53.946v28.051H66.219V64.15l15.584-12.23zM65.021 64.148H50.874v15.824H65.02V64.15zm-46.273 0h30.928v15.824H18.748V64.15zm22.537 17.025H18.748v14.385h14.865V93.52l7.672-12.347z" fill="url(#jw3hia8bnn)"/><path d="M92.955 46.303a1 1 0 01.718-.303H109a1 1 0 011 1v32.754a1 1 0 01-.395.796l-5.587 4.246a.999.999 0 01-.605.204H86a1 1 0 01-1-1V54.906a1 1 0 01.282-.697l7.673-7.906z" fill="#1E2F4A"/><g filter="url(#yjrzzf6qco)"><path fill-rule="evenodd" clip-rule="evenodd" d="M13.388 45.93a2 2 0 00-1.7.946l-4.035 6.511a2 2 0 000 2.107l4.035 6.512a2 2 0 001.7.946h2.161a2 2 0 002-2V47.929a2 2 0 00-2-2h-2.161zm104.224 30.21a2 2 0 001.7-.946l4.035-6.511a2 2 0 000-2.107l-4.035-6.511a2 2 0 00-1.7-.947h-2.161a2 2 0 00-2 2v13.023a2 2 0 002 2h2.161z" fill="url(#tbo519jzwp)"/></g><g filter="url(#p5zaeyrlwq)"><path d="M88.599 75.573C91.222 77.847 94.043 79 97.925 79c6.102 0 10.084-3.031 10.074-7.941 0-8.765-13.469-6.524-13.469-10.643 0-1.087 1.162-2.142 3.12-2.142a10.51 10.51 0 014.94 1.154c.432.228.909.363 1.397.395a1.87 1.87 0 001.56-.89l.597-.89c.224-.318.34-.699.332-1.087a2.012 2.012 0 00-.83-1.647 15.226 15.226 0 00-8.328-2.307c-5.18 0-9.162 2.702-9.162 7.546 0 9.028 13.475 6.82 13.475 10.84 0 1.55-1.46 2.307-3.285 2.307a11.033 11.033 0 01-6.171-1.812 3.095 3.095 0 00-1.66-.593 1.667 1.667 0 00-1.327.725l-.786 1.021A1.677 1.677 0 0088 74.189a1.814 1.814 0 00.597 1.384z" fill="url(#xj1mhc5nar)"/></g><path d="M97.244 9.011c-.071-9.681-17.958-7.317-17.958-3.84" stroke="#33558C" stroke-width="2.3"/><rect x="99.732" y="10.642" width="4.708" height="3.858" rx="1.339" transform="rotate(-180 99.732 10.642)" fill="#21324E"/><rect x="101.498" y="12.288" width="8.24" height="3.296" rx="1.648" transform="rotate(-180 101.498 12.288)" fill="url(#fk4hl7v2ms)"/><path d="M35.47 9.011c.07-9.681 17.957-7.317 17.957-3.84" stroke="#33558C" stroke-width="2.3"/><rect width="4.708" height="3.858" rx="1.339" transform="matrix(1 0 0 -1 32.981 10.642)" fill="#21324E"/><rect width="8.24" height="3.296" rx="1.648" transform="matrix(1 0 0 -1 31.215 12.288)" fill="url(#1kmnvwngct)"/><path fill="#152134" d="M57.348 13.802h.959v3.596h-.959zm2.158 0h.959v3.596h-.959zm2.158 0h.959v3.596h-.959zm2.158 0h.959v3.596h-.959zm2.157 0h.959v3.596h-.959zm2.158 0h.959v3.596h-.959zm2.158 0h.959v3.596h-.959zm2.158 0h.959v3.596h-.959z"/><circle cx="39.186" cy="103.526" r="1.257" fill="#152134"/><circle cx="42.303" cy="103.526" r="1.257" fill="#152134"/><circle cx="45.542" cy="103.526" r="1.257" fill="#152134"/><path d="M36.37 105.866v-2.158h11.628v-4.915H45.84v-2.157h3.836" stroke="#152134" stroke-width=".719"/><circle cx="7.854" cy="76.854" r="2.193" transform="rotate(-158 7.854 76.854)" fill="url(#0qlejsc5bu)"/><path d="M15 77.5H8.5l49.776 25.236 32.579-18.68" stroke="url(#kwe7x1ym0v)" stroke-width="1.8" stroke-linejoin="round"/><circle cx="57.98" cy="102.215" r="2.917" transform="rotate(-158 57.98 102.215)" fill="url(#4aqyigiwjw)"/><g style="mix-blend-mode:lighten" filter="url(#oj3y3f21vx)"><circle cx="89.727" cy="84.642" r="8" transform="rotate(-158 89.727 84.642)" fill="#C42E6C" fill-opacity=".68"/></g><g style="mix-blend-mode:lighten" filter="url(#688j3gbg6y)"><circle cx="89.727" cy="84.642" r="4" transform="rotate(-158 89.727 84.642)" fill="#C42E6C"/></g><circle cx="89.727" cy="84.642" r="2.542" transform="rotate(-158 89.727 84.642)" fill="url(#z5ipcbxznz)"/><defs><linearGradient id="wyipg7d6pa" x1="24" y1="30.5" x2="101" y2="115" gradientUnits="userSpaceOnUse"><stop stop-color="#B9437C"/><stop offset="1" stop-color="#16202F"/></linearGradient><linearGradient id="fs8s80omzb" x1="-20.227" y1="22.708" x2="9.038" y2="134.632" gradientUnits="userSpaceOnUse"><stop stop-color="#FF5E92"/><stop offset="1" stop-color="#ED4653"/></linearGradient><linearGradient id="fv74pww9ac" x1="118.415" y1="56.871" x2="116.083" y2="62.968" gradientUnits="userSpaceOnUse"><stop stop-color="#70A5E8"/><stop offset="1" stop-color="#203354"/></linearGradient><linearGradient id="gachdb4agd" x1="-.653" y1="-1.306" x2="-2.985" y2="4.791" gradientUnits="userSpaceOnUse"><stop stop-color="#70A5E8"/><stop offset="1" stop-color="#203354"/></linearGradient><linearGradient id="bi4b712y8e" x1="11.087" y1="62.942" x2="8.755" y2="69.039" gradientUnits="userSpaceOnUse"><stop stop-color="#70A5E8"/><stop offset="1" stop-color="#203354"/></linearGradient><linearGradient id="jq7r2t8z4f" x1="-.653" y1="-1.306" x2="-2.985" y2="4.791" gradientUnits="userSpaceOnUse"><stop stop-color="#70A5E8"/><stop offset="1" stop-color="#203354"/></linearGradient><linearGradient id="65a3pvxrwh" x1="63.674" y1="110.583" x2="63.674" y2="116.153" gradientUnits="userSpaceOnUse"><stop stop-color="#fff"/><stop offset="1" stop-color="#C42E6C"/></linearGradient><linearGradient id="zhq6knp0bj" x1="41.964" y1="9.005" x2="41.964" y2="11.591" gradientUnits="userSpaceOnUse"><stop stop-color="#fff"/><stop offset="1" stop-color="#C42E6C"/></linearGradient><linearGradient id="y7qzf7e6lk" x1="58.96" y1="9.005" x2="58.96" y2="11.591" gradientUnits="userSpaceOnUse"><stop stop-color="#fff"/><stop offset="1" stop-color="#C42E6C"/></linearGradient><linearGradient id="q7i4acdz2l" x1="64.839" y1="9.005" x2="64.839" y2="11.591" gradientUnits="userSpaceOnUse"><stop stop-color="#fff"/><stop offset="1" stop-color="#C42E6C"/></linearGradient><linearGradient id="xn6r5novhm" x1="-31.91" y1="42.072" x2="49.383" y2="143.387" gradientUnits="userSpaceOnUse"><stop stop-color="#70A5E8"/><stop offset="1" stop-color="#203354"/></linearGradient><linearGradient id="jw3hia8bnn" x1="19" y1="9.5" x2="84.5" y2="97.5" gradientUnits="userSpaceOnUse"><stop stop-color="#D691B0"/><stop offset="1" stop-color="#293F64" stop-opacity="0"/></linearGradient><linearGradient id="tbo519jzwp" x1="-39.044" y1="61.035" x2="-39.044" y2="115.352" gradientUnits="userSpaceOnUse"><stop stop-color="#fff"/><stop offset="1" stop-color="#C42E6C"/></linearGradient><linearGradient id="xj1mhc5nar" x1="80.021" y1="66" x2="80.021" y2="112.746" gradientUnits="userSpaceOnUse"><stop stop-color="#fff"/><stop offset="1" stop-color="#C42E6C"/></linearGradient><linearGradient id="fk4hl7v2ms" x1="100.641" y1="10.573" x2="97.578" y2="18.581" gradientUnits="userSpaceOnUse"><stop stop-color="#70A5E8"/><stop offset="1" stop-color="#203354"/></linearGradient><linearGradient id="1kmnvwngct" x1="-.857" y1="-1.715" x2="-3.92" y2="6.293" gradientUnits="userSpaceOnUse"><stop stop-color="#70A5E8"/><stop offset="1" stop-color="#203354"/></linearGradient><linearGradient id="0qlejsc5bu" x1="12.682" y1="72.408" x2=".318" y2="64.901" gradientUnits="userSpaceOnUse"><stop stop-color="#DD1E5B"/><stop offset="1" stop-color="#EFC7D8"/></linearGradient><linearGradient id="kwe7x1ym0v" x1="14" y1="66" x2="21.651" y2="86.042" gradientUnits="userSpaceOnUse"><stop stop-color="#F4487D" stop-opacity=".16"/><stop offset="1" stop-color="#FC3A78"/></linearGradient><linearGradient id="4aqyigiwjw" x1="64.401" y1="96.3" x2="47.955" y2="86.314" gradientUnits="userSpaceOnUse"><stop stop-color="#DD1E5B"/><stop offset="1" stop-color="#EFC7D8"/></linearGradient><linearGradient id="z5ipcbxznz" x1="89.02" y1="80.043" x2="84.907" y2="84.598" gradientUnits="userSpaceOnUse"><stop stop-color="#FB3B78"/><stop offset="1" stop-color="#EFC7D8"/></linearGradient><filter id="y33eil6elg" x="62.844" y="106.968" width="7.229" height="7.229" filterUnits="userSpaceOnUse" color-interpolation-filters="sRGB"><feFlood flood-opacity="0" result="BackgroundImageFix"/><feColorMatrix in="SourceAlpha" values="0 0 0 0 0 0 0 0 0 0 0 0 0 0 0 0 0 0 127 0" result="hardAlpha"/><feOffset/><feGaussianBlur stdDeviation="1.033"/><feColorMatrix values="0 0 0 0 0.951002 0 0 0 0 0.370525 0 0 0 0 0.610455 0 0 0 1 0"/><feBlend in2="BackgroundImageFix" result="effect1_dropShadow_808_27294"/><feBlend in="SourceGraphic" in2="effect1_dropShadow_808_27294" result="shape"/></filter><filter id="qlqcf7rngi" x="43.617" y="6.782" width="45.869" height="4.446" filterUnits="userSpaceOnUse" color-interpolation-filters="sRGB"><feFlood flood-opacity="0" result="BackgroundImageFix"/><feColorMatrix in="SourceAlpha" values="0 0 0 0 0 0 0 0 0 0 0 0 0 0 0 0 0 0 127 0" result="hardAlpha"/><feOffset/><feGaussianBlur stdDeviation=".752"/><feColorMatrix values="0 0 0 0 0.951002 0 0 0 0 0.370525 0 0 0 0 0.610455 0 0 0 1 0"/><feBlend in2="BackgroundImageFix" result="effect1_dropShadow_808_27294"/><feBlend in="SourceGraphic" in2="effect1_dropShadow_808_27294" result="shape"/></filter><filter id="yjrzzf6qco" x=".586" y="39.163" width="129.828" height="43.745" filterUnits="userSpaceOnUse" color-interpolation-filters="sRGB"><feFlood flood-opacity="0" result="BackgroundImageFix"/><feColorMatrix in="SourceAlpha" values="0 0 0 0 0 0 0 0 0 0 0 0 0 0 0 0 0 0 127 0" result="hardAlpha"/><feOffset/><feGaussianBlur stdDeviation="3.383"/><feColorMatrix values="0 0 0 0 0.951002 0 0 0 0 0.370525 0 0 0 0 0.610455 0 0 0 1 0"/><feBlend in2="BackgroundImageFix" result="effect1_dropShadow_808_27294"/><feBlend in="SourceGraphic" in2="effect1_dropShadow_808_27294" result="shape"/></filter><filter id="p5zaeyrlwq" x="81.233" y="46.233" width="33.533" height="39.533" filterUnits="userSpaceOnUse" color-interpolation-filters="sRGB"><feFlood flood-opacity="0" result="BackgroundImageFix"/><feColorMatrix in="SourceAlpha" values="0 0 0 0 0 0 0 0 0 0 0 0 0 0 0 0 0 0 127 0" result="hardAlpha"/><feOffset/><feGaussianBlur stdDeviation="3.383"/><feColorMatrix values="0 0 0 0 0.951002 0 0 0 0 0.370525 0 0 0 0 0.610455 0 0 0 1 0"/><feBlend in2="BackgroundImageFix" result="effect1_dropShadow_808_27294"/><feBlend in="SourceGraphic" in2="effect1_dropShadow_808_27294" result="shape"/></filter><filter id="oj3y3f21vx" x="74.172" y="69.087" width="31.109" height="31.109" filterUnits="userSpaceOnUse" color-interpolation-filters="sRGB"><feFlood flood-opacity="0" result="BackgroundImageFix"/><feBlend in="SourceGraphic" in2="BackgroundImageFix" result="shape"/><feGaussianBlur stdDeviation="3.776" result="effect1_foregroundBlur_808_27294"/></filter><filter id="688j3gbg6y" x="78.174" y="73.088" width="23.107" height="23.107" filterUnits="userSpaceOnUse" color-interpolation-filters="sRGB"><feFlood flood-opacity="0" result="BackgroundImageFix"/><feBlend in="SourceGraphic" in2="BackgroundImageFix" result="shape"/><feGaussianBlur stdDeviation="3.776" result="effect1_foregroundBlur_808_27294"/></filter></defs></svg>