<svg xmlns="http://www.w3.org/2000/svg" xmlns:xlink="http://www.w3.org/1999/xlink" width="120" height="120"><defs><radialGradient id="b" cx="50%" cy="0%" r="100%" fx="50%" fy="0%"><stop offset="0%" stop-color="#263A5E"/><stop offset="100%" stop-color="#0C1321"/></radialGradient><radialGradient id="c" cx="50%" cy="6.235%" r="125.301%" fx="50%" fy="6.235%"><stop offset="0%" stop-color="#6BA0E2"/><stop offset="100%" stop-color="#131E32"/></radialGradient><radialGradient id="e" cx="38.592%" cy="18.836%" r="68.933%" fx="38.592%" fy="18.836%"><stop offset="0%" stop-color="#B071BF"/><stop offset="100%" stop-color="#8B60EC" stop-opacity="0"/></radialGradient><radialGradient id="f" cx="55.875%" cy="-34.033%" r="194.227%" fx="55.875%" fy="-34.033%" gradientTransform="matrix(-.65036 .60677 -.49644 -.79488 .753 -.95)"><stop offset="0%" stop-color="#6BA0E2"/><stop offset="30.5%" stop-color="#54729A"/><stop offset="52.6%" stop-color="#385076"/><stop offset="100%" stop-color="#131E32"/></radialGradient><radialGradient id="g" cx="50%" cy="-5.983%" r="70.159%" fx="50%" fy="-5.983%" gradientTransform="scale(.81818 1) rotate(64.772 .556 .028)"><stop offset="0%" stop-color="#B071BF"/><stop offset="100%" stop-color="#8B60EC" stop-opacity="0"/></radialGradient><radialGradient id="h" cx="10.635%" cy="9.467%" r="96.553%" fx="10.635%" fy="9.467%" gradientTransform="scale(1 .94405) rotate(62.927 .102 .097)"><stop offset="0%" stop-color="#E87BFF"/><stop offset="100%" stop-color="#C868FF" stop-opacity="0"/></radialGradient><radialGradient id="k" cx="0%" cy="0%" r="1278.653%" fx="0%" fy="0%" gradientTransform="scale(.30258 1)"><stop offset="0%" stop-color="#FFF"/><stop offset="100%" stop-color="#BF67F0"/></radialGradient><radialGradient id="n" cx="0%" cy="0%" r="386.9%" fx="0%" fy="0%" gradientTransform="scale(1 .80535)"><stop offset="0%" stop-color="#FFF"/><stop offset="100%" stop-color="#BF67F0"/></radialGradient><radialGradient id="o" cx="50%" cy="50%" r="547.939%" fx="50%" fy="50%" gradientTransform="matrix(-.7061 0 0 -1 .853 1)"><stop offset="0%" stop-color="#FFF"/><stop offset="100%" stop-color="#BF67F0"/></radialGradient><radialGradient id="p" cx="50%" cy="50%" r="2868.894%" fx="50%" fy="50%" gradientTransform="matrix(-.13486 0 0 -1 .567 1)"><stop offset="0%" stop-color="#FFF"/><stop offset="100%" stop-color="#BF67F0"/></radialGradient><radialGradient id="q" cx="50%" cy="50%" r="1901.829%" fx="50%" fy="50%" gradientTransform="matrix(-.20344 0 0 -1 .602 1)"><stop offset="0%" stop-color="#FFF"/><stop offset="100%" stop-color="#BF67F0"/></radialGradient><radialGradient id="t" cx="0%" cy="0%" r="2095.242%" fx="0%" fy="0%" gradientTransform="scale(.18466 1)"><stop offset="0%" stop-color="#FFF"/><stop offset="100%" stop-color="#BF67F0"/></radialGradient><radialGradient id="u" cx="50%" cy="50%" r="1676.31%" fx="50%" fy="50%" gradientTransform="matrix(-.2308 0 0 -1 .615 1)"><stop offset="0%" stop-color="#FFF"/><stop offset="100%" stop-color="#BF67F0"/></radialGradient><radialGradient id="x" cx="0%" cy="0%" r="711.953%" fx="0%" fy="0%" gradientTransform="scale(.54344 1)"><stop offset="0%" stop-color="#FFF"/><stop offset="100%" stop-color="#BF67F0"/></radialGradient><radialGradient id="y" cx="0%" cy="0%" r="2176.747%" fx="0%" fy="0%" gradientTransform="scale(.17774 1)"><stop offset="0%" stop-color="#FFF"/><stop offset="100%" stop-color="#BF67F0"/></radialGradient><radialGradient id="z" cx="0%" cy="0%" r="1901.829%" fx="0%" fy="0%" gradientTransform="scale(.20344 1)"><stop offset="0%" stop-color="#FFF"/><stop offset="100%" stop-color="#BF67F0"/></radialGradient><radialGradient id="A" cx="50%" cy="50%" r="2643.374%" fx="50%" fy="50%" gradientTransform="matrix(-.14637 0 0 -1 .573 1)"><stop offset="0%" stop-color="#FFF"/><stop offset="100%" stop-color="#BF67F0"/></radialGradient><radialGradient id="D" cx="50%" cy="50%" r="711.953%" fx="50%" fy="50%" gradientTransform="matrix(-.54344 0 0 -1 .772 1)"><stop offset="0%" stop-color="#FFF"/><stop offset="100%" stop-color="#BF67F0"/></radialGradient><radialGradient id="E" cx="0%" cy="0%" r="2868.894%" fx="0%" fy="0%" gradientTransform="scale(.13486 1)"><stop offset="0%" stop-color="#FFF"/><stop offset="100%" stop-color="#BF67F0"/></radialGradient><radialGradient id="H" cx="0%" cy="0%" r="1676.31%" fx="0%" fy="0%" gradientTransform="scale(.2308 1)"><stop offset="0%" stop-color="#FFF"/><stop offset="100%" stop-color="#BF67F0"/></radialGradient><radialGradient id="I" cx="0%" cy="0%" r="725.582%" fx="0%" fy="0%" gradientTransform="scale(.53323 1)"><stop offset="0%" stop-color="#FFF"/><stop offset="100%" stop-color="#BF67F0"/></radialGradient><radialGradient id="N" cx="0%" cy="0%" r="547.939%" fx="0%" fy="0%" gradientTransform="scale(.7061 1)"><stop offset="0%" stop-color="#FFF"/><stop offset="100%" stop-color="#BF67F0"/></radialGradient><radialGradient id="Q" cx="0%" cy="0%" r="1869.723%" fx="0%" fy="0%" gradientTransform="scale(.20693 1)"><stop offset="0%" stop-color="#FFF"/><stop offset="100%" stop-color="#BF67F0"/></radialGradient><radialGradient id="R" cx="50%" cy="50%" r="1278.653%" fx="50%" fy="50%" gradientTransform="matrix(-.30258 0 0 -1 .651 1)"><stop offset="0%" stop-color="#FFF"/><stop offset="100%" stop-color="#BF67F0"/></radialGradient><radialGradient id="S" cx="50%" cy="50%" r="851.21%" fx="50%" fy="50%" gradientTransform="matrix(-.45453 0 0 -1 .727 1)"><stop offset="0%" stop-color="#FFF"/><stop offset="100%" stop-color="#BF67F0"/></radialGradient><radialGradient id="T" cx="50%" cy="50%" r="3255.72%" fx="50%" fy="50%" gradientTransform="matrix(-.11884 0 0 -1 .56 1)"><stop offset="0%" stop-color="#FFF"/><stop offset="100%" stop-color="#BF67F0"/></radialGradient><radialGradient id="W" cx="50%" cy="50%" r="2081.123%" fx="50%" fy="50%" gradientTransform="matrix(-.1859 0 0 -1 .593 1)"><stop offset="0%" stop-color="#FFF"/><stop offset="100%" stop-color="#BF67F0"/></radialGradient><radialGradient id="ad" cx="0%" cy="0%" r="1451.165%" fx="0%" fy="0%" gradientTransform="scale(.26661 1)"><stop offset="0%" stop-color="#FFF"/><stop offset="100%" stop-color="#BF67F0"/></radialGradient><radialGradient id="ae" cx="50%" cy="50%" r="1515.003%" fx="50%" fy="50%" gradientTransform="matrix(-.25538 0 0 -1 .628 1)"><stop offset="0%" stop-color="#FFF"/><stop offset="100%" stop-color="#BF67F0"/></radialGradient><radialGradient id="ah" cx="23.96%" cy="10.577%" r="124.83%" fx="23.96%" fy="10.577%" gradientTransform="matrix(.3891 .71636 -.3995 .69773 .189 -.14)"><stop offset="0%" stop-color="#6BA0E2"/><stop offset="30.5%" stop-color="#54729A"/><stop offset="52.6%" stop-color="#385076"/><stop offset="100%" stop-color="#131E32"/></radialGradient><radialGradient id="ak" cx="43.709%" cy="30.606%" r="77.154%" fx="43.709%" fy="30.606%" gradientTransform="scale(.55767 1) rotate(55.346 .61 .637)"><stop offset="0%" stop-color="#B071BF"/><stop offset="100%" stop-color="#8B60EC" stop-opacity="0"/></radialGradient><radialGradient id="am" cx="49.994%" cy="50.021%" r="40.098%" fx="49.994%" fy="50.021%"><stop offset="0%" stop-color="#BC5AEC"/><stop offset="100%" stop-color="#632F7C" stop-opacity="0"/></radialGradient><radialGradient id="an" cx="0%" cy="0%" r="386.9%" fx="0%" fy="0%"><stop offset="0%" stop-color="#FFF"/><stop offset="100%" stop-color="#BF67F0"/></radialGradient><radialGradient id="aq" cx="-4.731%" cy="-7.602%" r="78.977%" fx="-4.731%" fy="-7.602%" gradientTransform="scale(.58998 1) rotate(52.812 -.064 -.11)"><stop offset="0%" stop-color="#B071BF"/><stop offset="100%" stop-color="#8B60EC" stop-opacity="0"/></radialGradient><path id="j" d="M0 0h5.287v1.6H0z"/><path id="m" d="M0 0h1.288v1.6H0z"/><path id="s" d="M0 0h8.663v1.6H0z"/><path id="w" d="M0 0h2.944v1.6H0z"/><path id="C" d="M0 0h5.287v1.6H0z"/><path id="G" d="M0 0h6.931v1.6H0z"/><path id="K" d="M0 0h1.288v1.6H0z"/><path id="M" d="M0 0h2.266v1.6H0z"/><path id="P" d="M0 0h11.862v1.6H0z"/><path id="V" d="M0 0h7.863v1.6H0z"/><path id="Y" d="M0 0h6.931v1.6H0z"/><path id="aa" d="M0 0h3v1.6H0z"/><path id="ac" d="M0 0h6v1.6H0z"/><path id="ag" d="M0 0h6.931v1.6H0z"/><path id="ai" d="M.007.211c1.082 4.207 2.705 8.18 5.31 11.697.306.409.847.83 1.325.897 6.026.803 11.722-.208 17.024-3.231.598-.341 1.179-.442 1.549.231.37.673-.011 1.067-.63 1.415A28.385 28.385 0 0 1 9.32 14.938c-.424-.016-.85 0-1.274 0 .26.452.601.852 1.008 1.178 2.473 2.082 5.34 3.42 8.419 4.317 7.37 2.154 14.892 2.693 22.508 1.914a84.298 84.298 0 0 0 8.723-1.275c13.285-2.815 17.405-11.67-3.565-11.498C25.246 9.737-.48-1.68.007.21z"/><filter id="i" width="270.2%" height="662.6%" x="-85.1%" y="-281.3%" filterUnits="objectBoundingBox"><feOffset in="SourceAlpha" result="shadowOffsetOuter1"/><feGaussianBlur in="shadowOffsetOuter1" result="shadowBlurOuter1" stdDeviation="1.5"/><feColorMatrix in="shadowBlurOuter1" values="0 0 0 0 0.75205105 0 0 0 0 0.222881907 0 0 0 0 0.965324955 0 0 0 1 0"/></filter><filter id="l" width="798.6%" height="662.6%" x="-349.3%" y="-281.3%" filterUnits="objectBoundingBox"><feOffset in="SourceAlpha" result="shadowOffsetOuter1"/><feGaussianBlur in="shadowOffsetOuter1" result="shadowBlurOuter1" stdDeviation="1.5"/><feColorMatrix in="shadowBlurOuter1" values="0 0 0 0 0.75205105 0 0 0 0 0.222881907 0 0 0 0 0.965324955 0 0 0 1 0"/></filter><filter id="r" width="203.9%" height="662.6%" x="-51.9%" y="-281.3%" filterUnits="objectBoundingBox"><feOffset in="SourceAlpha" result="shadowOffsetOuter1"/><feGaussianBlur in="shadowOffsetOuter1" result="shadowBlurOuter1" stdDeviation="1.5"/><feColorMatrix in="shadowBlurOuter1" values="0 0 0 0 0.75205105 0 0 0 0 0.222881907 0 0 0 0 0.965324955 0 0 0 1 0"/></filter><filter id="v" width="405.7%" height="662.6%" x="-152.9%" y="-281.3%" filterUnits="objectBoundingBox"><feOffset in="SourceAlpha" result="shadowOffsetOuter1"/><feGaussianBlur in="shadowOffsetOuter1" result="shadowBlurOuter1" stdDeviation="1.5"/><feColorMatrix in="shadowBlurOuter1" values="0 0 0 0 0.75205105 0 0 0 0 0.222881907 0 0 0 0 0.965324955 0 0 0 1 0"/></filter><filter id="B" width="270.2%" height="662.6%" x="-85.1%" y="-281.3%" filterUnits="objectBoundingBox"><feOffset in="SourceAlpha" result="shadowOffsetOuter1"/><feGaussianBlur in="shadowOffsetOuter1" result="shadowBlurOuter1" stdDeviation="1.5"/><feColorMatrix in="shadowBlurOuter1" values="0 0 0 0 0.75205105 0 0 0 0 0.222881907 0 0 0 0 0.965324955 0 0 0 1 0"/></filter><filter id="F" width="229.9%" height="662.6%" x="-64.9%" y="-281.3%" filterUnits="objectBoundingBox"><feOffset in="SourceAlpha" result="shadowOffsetOuter1"/><feGaussianBlur in="shadowOffsetOuter1" result="shadowBlurOuter1" stdDeviation="1.5"/><feColorMatrix in="shadowBlurOuter1" values="0 0 0 0 0.75205105 0 0 0 0 0.222881907 0 0 0 0 0.965324955 0 0 0 1 0"/></filter><filter id="J" width="798.6%" height="662.6%" x="-349.3%" y="-281.3%" filterUnits="objectBoundingBox"><feOffset in="SourceAlpha" result="shadowOffsetOuter1"/><feGaussianBlur in="shadowOffsetOuter1" result="shadowBlurOuter1" stdDeviation="1.5"/><feColorMatrix in="shadowBlurOuter1" values="0 0 0 0 0.75205105 0 0 0 0 0.222881907 0 0 0 0 0.965324955 0 0 0 1 0"/></filter><filter id="L" width="497.3%" height="662.6%" x="-198.6%" y="-281.3%" filterUnits="objectBoundingBox"><feOffset in="SourceAlpha" result="shadowOffsetOuter1"/><feGaussianBlur in="shadowOffsetOuter1" result="shadowBlurOuter1" stdDeviation="1.5"/><feColorMatrix in="shadowBlurOuter1" values="0 0 0 0 0.75205105 0 0 0 0 0.222881907 0 0 0 0 0.965324955 0 0 0 1 0"/></filter><filter id="O" width="175.9%" height="662.6%" x="-37.9%" y="-281.3%" filterUnits="objectBoundingBox"><feOffset in="SourceAlpha" result="shadowOffsetOuter1"/><feGaussianBlur in="shadowOffsetOuter1" result="shadowBlurOuter1" stdDeviation="1.5"/><feColorMatrix in="shadowBlurOuter1" values="0 0 0 0 0.75205105 0 0 0 0 0.222881907 0 0 0 0 0.965324955 0 0 0 1 0"/></filter><filter id="U" width="214.5%" height="662.6%" x="-57.2%" y="-281.3%" filterUnits="objectBoundingBox"><feOffset in="SourceAlpha" result="shadowOffsetOuter1"/><feGaussianBlur in="shadowOffsetOuter1" result="shadowBlurOuter1" stdDeviation="1.5"/><feColorMatrix in="shadowBlurOuter1" values="0 0 0 0 0.75205105 0 0 0 0 0.222881907 0 0 0 0 0.965324955 0 0 0 1 0"/></filter><filter id="X" width="229.9%" height="662.6%" x="-64.9%" y="-281.3%" filterUnits="objectBoundingBox"><feOffset in="SourceAlpha" result="shadowOffsetOuter1"/><feGaussianBlur in="shadowOffsetOuter1" result="shadowBlurOuter1" stdDeviation="1.5"/><feColorMatrix in="shadowBlurOuter1" values="0 0 0 0 0.75205105 0 0 0 0 0.222881907 0 0 0 0 0.965324955 0 0 0 1 0"/></filter><filter id="Z" width="400%" height="662.6%" x="-150%" y="-281.3%" filterUnits="objectBoundingBox"><feOffset in="SourceAlpha" result="shadowOffsetOuter1"/><feGaussianBlur in="shadowOffsetOuter1" result="shadowBlurOuter1" stdDeviation="1.5"/><feColorMatrix in="shadowBlurOuter1" values="0 0 0 0 0.75205105 0 0 0 0 0.222881907 0 0 0 0 0.965324955 0 0 0 1 0"/></filter><filter id="ab" width="250%" height="662.6%" x="-75%" y="-281.3%" filterUnits="objectBoundingBox"><feOffset in="SourceAlpha" result="shadowOffsetOuter1"/><feGaussianBlur in="shadowOffsetOuter1" result="shadowBlurOuter1" stdDeviation="1.5"/><feColorMatrix in="shadowBlurOuter1" values="0 0 0 0 0.75205105 0 0 0 0 0.222881907 0 0 0 0 0.965324955 0 0 0 1 0"/></filter><filter id="af" width="229.9%" height="662.6%" x="-64.9%" y="-281.3%" filterUnits="objectBoundingBox"><feOffset in="SourceAlpha" result="shadowOffsetOuter1"/><feGaussianBlur in="shadowOffsetOuter1" result="shadowBlurOuter1" stdDeviation="1.5"/><feColorMatrix in="shadowBlurOuter1" values="0 0 0 0 0.75205105 0 0 0 0 0.222881907 0 0 0 0 0.965324955 0 0 0 1 0"/></filter><linearGradient id="al" x1="23.455%" x2="128.307%" y1="59.578%" y2="71.94%"><stop offset="0%" stop-color="#AF7EF9"/><stop offset="100%" stop-color="#8B60ED" stop-opacity="0"/></linearGradient><linearGradient id="ao" x1="50%" x2="50%" y1="100%" y2="0%"><stop offset="0%" stop-color="#A987F7"/><stop offset="100%" stop-color="#B372BD"/></linearGradient><linearGradient id="ap" x1="25.613%" x2="50%" y1="6.73%" y2="100%"><stop offset="0%" stop-color="#C47EDD"/><stop offset="100%" stop-color="#7850D1"/></linearGradient><circle id="a" cx="60" cy="60" r="60"/></defs><g fill="none" fill-rule="evenodd"><mask id="d" fill="#fff"><use xlink:href="#a"/></mask><use xlink:href="#a" fill="url(#b)" fill-rule="nonzero"/><path fill="url(#c)" d="M60 1c33.137 0 60 26.863 60 60s-26.863 60-60 60S0 94.137 0 61 26.863 1 60 1zm4 6C34.177 7 10 31.177 10 61s24.177 54 54 54 54-24.177 54-54S93.823 7 64 7z" mask="url(#d)"/><path fill="url(#e)" fill-rule="nonzero" d="M60 1c33.137 0 60 26.863 60 60s-26.863 60-60 60S0 94.137 0 61 26.863 1 60 1zm4 6C34.177 7 10 31.177 10 61s24.177 54 54 54 54-24.177 54-54S93.823 7 64 7z" mask="url(#d)" opacity=".239"/><g fill-rule="nonzero" mask="url(#d)"><path fill="url(#f)" d="M36.805 24.006h42c6.628 0 12 5.373 12 12v30.8c0 6.186-5.014 11.2-11.2 11.2h-43.6c-6.185 0-11.2-5.014-11.2-11.2v-30.8c0-6.627 5.373-12 12-12z" transform="translate(2 3)"/><path fill="url(#g)" d="M36.805 24.006h42c6.628 0 12 5.373 12 12v30.8c0 6.186-5.014 11.2-11.2 11.2h-43.6c-6.185 0-11.2-5.014-11.2-11.2v-30.8c0-6.627 5.373-12 12-12z" opacity=".6" transform="translate(2 3)"/><path fill="url(#h)" d="M54 0c17.776 0 33.546 8.589 43.386 21.843A53.815 53.815 0 0 0 75 17c-29.823 0-54 24.177-54 54a53.76 53.76 0 0 0 10.614 32.157C12.964 94.649 0 75.838 0 54 0 24.177 24.177 0 54 0z" opacity=".301" transform="translate(2 3)"/><path fill="#1B283E" d="M39.136 28.54h41.339c6.075 0 11 4.924 11 11v29.552a9.6 9.6 0 0 1-9.6 9.6h-44.14a9.6 9.6 0 0 1-9.6-9.6V39.539c0-6.075 4.926-11 11-11z"/><g transform="matrix(-1 0 0 1 38.704 49.013)"><use xlink:href="#j" fill="#000" filter="url(#i)"/><use xlink:href="#j" fill="url(#k)"/></g><g transform="matrix(-1 0 0 1 34.706 49.013)"><use xlink:href="#m" fill="#000" filter="url(#l)"/><use xlink:href="#m" fill="url(#n)"/></g><path fill="url(#o)" d="M0 0h2.266v1.6H0z" transform="matrix(-1 0 0 1 42.727 49.013)"/><path fill="url(#p)" d="M0 0h11.862v1.6H0z" opacity=".2" transform="matrix(-1 0 0 1 66.685 49.013)"/><path fill="url(#q)" d="M0 0h7.863v1.6H0z" opacity=".2" transform="matrix(-1 0 0 1 76.281 49.013)"/><g transform="matrix(-1 0 0 1 86.677 49.013)"><use xlink:href="#s" fill="#000" filter="url(#r)"/><use xlink:href="#s" fill="url(#t)"/></g><path fill="url(#u)" d="M0 0h6.931v1.6H0z" opacity=".2" transform="matrix(-1 0 0 1 51.243 49.013)"/><path fill="url(#k)" d="M0 0h5.287v1.6H0z" opacity=".2" transform="matrix(-1 0 0 1 86.677 53.812)"/><g transform="matrix(-1 0 0 1 79.832 53.812)"><use xlink:href="#w" fill="#000" filter="url(#v)"/><use xlink:href="#w" fill="url(#x)"/></g><path fill="url(#y)" d="M0 0h9v1.6H0z" opacity=".2" transform="matrix(-1 0 0 1 62.408 53.812)"/><path fill="url(#q)" d="M0 0h7.863v1.6H0z" transform="matrix(-1 0 0 1 51.675 53.812)"/><path fill="url(#z)" d="M0 0h7.863v1.6H0z" opacity=".2" transform="matrix(-1 0 0 1 41.279 53.812)"/><path fill="url(#A)" d="M0 0h10.929v1.6H0z" opacity=".2" transform="matrix(-1 0 0 1 74.986 53.812)"/><g transform="matrix(-1 0 0 1 86.677 58.61)"><use xlink:href="#C" fill="#000" filter="url(#B)"/><use xlink:href="#C" fill="url(#k)"/></g><path fill="url(#D)" d="M0 0h2.944v1.6H0z" opacity=".2" transform="matrix(-1 0 0 1 79.832 58.61)"/><path fill="url(#E)" d="M0 0h11.862v1.6H0z" transform="matrix(-1 0 0 1 65.27 58.61)"/><path fill="url(#z)" d="M0 0h7.863v1.6H0z" opacity=".2" transform="matrix(-1 0 0 1 51.675 58.61)"/><path fill="url(#z)" d="M0 0h7.863v1.6H0z" opacity=".2" transform="matrix(-1 0 0 1 41.279 58.61)"/><g transform="matrix(-1 0 0 1 75.785 58.61)"><use xlink:href="#G" fill="#000" filter="url(#F)"/><use xlink:href="#G" fill="url(#H)"/></g><path fill="url(#I)" d="M0 0h3v1.6H0z" opacity=".2" transform="matrix(-1 0 0 1 84.39 33.816)"/><g transform="matrix(-1 0 0 1 86.677 33.816)"><use xlink:href="#K" fill="#000" filter="url(#J)"/><use xlink:href="#K" fill="url(#n)"/></g><g transform="matrix(-1 0 0 1 79.632 33.816)"><use xlink:href="#M" fill="#000" filter="url(#L)"/><use xlink:href="#M" fill="url(#N)"/></g><g transform="matrix(-1 0 0 1 65.27 33.816)"><use xlink:href="#P" fill="#000" filter="url(#O)"/><use xlink:href="#P" fill="url(#E)"/></g><path fill="url(#z)" d="M0 0h7.863v1.6H0z" opacity=".2" transform="matrix(-1 0 0 1 51.675 33.816)"/><path fill="url(#z)" d="M0 0h7.863v1.6H0z" opacity=".2" transform="matrix(-1 0 0 1 41.279 33.816)"/><path fill="url(#Q)" d="M0 0h7.731v1.6H0z" opacity=".2" transform="matrix(-1 0 0 1 75.785 33.816)"/><path fill="url(#R)" d="M0 0h5.287v1.6H0z" opacity=".2" transform="matrix(-1 0 0 1 38.702 38.615)"/><path fill="url(#S)" d="M0 0h3.519v1.6H0z" opacity=".2" transform="matrix(-1 0 0 1 42.98 38.615)"/><path fill="url(#T)" d="M0 0h13.461v1.6H0z" opacity=".2" transform="matrix(-1 0 0 1 66.683 38.615)"/><g transform="matrix(-1 0 0 1 76.28 38.615)"><use xlink:href="#V" fill="#000" filter="url(#U)"/><use xlink:href="#V" fill="url(#z)"/></g><path fill="url(#W)" d="M0 0h8.605v1.6H0z" opacity=".2" transform="matrix(-1 0 0 1 86.676 38.615)"/><g transform="matrix(-1 0 0 1 51.241 38.615)"><use xlink:href="#Y" fill="#000" filter="url(#X)"/><use xlink:href="#Y" fill="url(#H)"/></g><path fill="url(#R)" d="M0 0h5.287v1.6H0z" opacity=".2" transform="matrix(-1 0 0 1 38.702 43.414)"/><g transform="matrix(-1 0 0 1 42.98 43.414)"><use xlink:href="#aa" fill="#000" filter="url(#Z)"/><use xlink:href="#aa" fill="url(#I)"/></g><g transform="matrix(-1 0 0 1 66.683 43.414)"><use xlink:href="#ac" fill="#000" filter="url(#ab)"/><use xlink:href="#ac" fill="url(#ad)"/></g><path fill="url(#ae)" d="M0 0h6.264v1.6H0z" opacity=".2" transform="matrix(-1 0 0 1 59.486 43.414)"/><path fill="url(#q)" d="M0 0h7.863v1.6H0z" opacity=".2" transform="matrix(-1 0 0 1 76.28 43.414)"/><path fill="url(#W)" d="M0 0h8.605v1.6H0z" opacity=".2" transform="matrix(-1 0 0 1 86.676 43.414)"/><g transform="matrix(-1 0 0 1 51.241 43.414)"><use xlink:href="#ag" fill="#000" filter="url(#af)"/><use xlink:href="#ag" fill="url(#H)"/></g></g><g mask="url(#d)"><path fill="url(#ah)" fill-rule="nonzero" d="M83.407 17.755c-1 .575-1.88 1.2-2.851 1.616a20.982 20.982 0 0 1-8.34 1.639c-23.204.015-43.803.019-66.995.01-1.843.011-5.252.558-5.221 4.568.032 4.01.559 6.055 1.562 9.938 1.082 4.207 2.705 8.18 5.31 11.696.306.41.847.832 1.325.898 6.027.803 11.722-.208 17.024-3.231.598-.342 1.18-.442 1.549.231.37.673-.011 1.067-.63 1.415a28.385 28.385 0 0 1-15.265 3.718c-.424-.016-.85 0-1.274 0 .26.452.601.851 1.009 1.177 2.472 2.083 5.34 3.42 8.418 4.318 7.37 2.154 14.892 2.693 22.508 1.914a84.298 84.298 0 0 0 8.723-1.275c13.285-2.815 23.834-9.683 31.202-21.173 2.68-4.176 4.774-8.642 6.55-13.26.276-.718.637-.948 1.387-.897 1.049.076 2.102.069 3.15-.02 4.776-.454 8.604-2.492 11.05-6.74.627-1.09.59-1.206-.561-1.718-2.768-1.231-5.686-1.436-8.656-1.147-1.36.13-2.705.37-4.159.573C89.975 6.799 87.549 2.894 83.338 0c-2.645 3.438-5.123 11.303.069 17.755z" transform="translate(20.198 42.53)"/><g transform="translate(21.753 77.844)"><mask id="aj" fill="#fff"><use xlink:href="#ai"/></mask><path fill="#000" fill-rule="nonzero" d="M24.215 10.805c.528 2.677 2.947 5.002 7.254 6.974 4.308 1.972 10.541 3.607 18.698 4.906-25.147 1.02-37.72 1.353-37.72 1s-2.784-3.135-8.35-8.347h5.168l7.832-1.123 7.118-3.41z" mask="url(#aj)" opacity=".084"/></g><path fill="url(#ak)" fill-rule="nonzero" d="M83.407 17.755c-1 .575-1.88 1.2-2.851 1.616a20.982 20.982 0 0 1-8.34 1.639c-23.204.015-43.803.019-66.995.01-1.843.011-5.252.558-5.221 4.568.032 4.01.559 6.055 1.562 9.938 1.082 4.207 2.705 8.18 5.31 11.696.306.41.847.832 1.325.898 6.027.803 11.722-.208 17.024-3.231.598-.342 1.18-.442 1.549.231.37.673-.011 1.067-.63 1.415a28.385 28.385 0 0 1-15.265 3.718c-.424-.016-.85 0-1.274 0 .26.452.601.851 1.009 1.177 2.472 2.083 5.34 3.42 8.418 4.318 7.37 2.154 14.892 2.693 22.508 1.914a84.298 84.298 0 0 0 8.723-1.275c13.285-2.815 23.834-9.683 31.202-21.173 2.68-4.176 4.774-8.642 6.55-13.26.276-.718.637-.948 1.387-.897 1.049.076 2.102.069 3.15-.02 4.776-.454 8.604-2.492 11.05-6.74.627-1.09.59-1.206-.561-1.718-2.768-1.231-5.686-1.436-8.656-1.147-1.36.13-2.705.37-4.159.573C89.975 6.799 87.549 2.894 83.338 0c-2.645 3.438-5.123 11.303.069 17.755z" opacity=".6" transform="translate(20.198 42.53)"/></g><path stroke="url(#al)" stroke-width="2.001" d="m78.846 41.539-15.9-3.913-21.635-33.2-14.033 21.996" transform="translate(39.154 28.102)"/><g fill-rule="nonzero" transform="rotate(-158 46.378 33.343)"><circle cx="20.349" cy="20.349" r="14.897" fill="url(#am)" transform="rotate(30 20.35 20.35)"/><circle cx="19.85" cy="21.216" r="2.525" fill="url(#an)"/></g><circle cx="2.866" cy="2.866" r="2.866" fill="url(#ao)" fill-rule="nonzero" transform="rotate(-158 44.044 9.893)"/><circle cx="2.602" cy="2.602" r="2.602" fill="url(#ao)" fill-rule="nonzero" transform="rotate(-158 58.651 24.735)"/><circle cx="60" cy="60" r="59" stroke="url(#ap)" stroke-width="2"/><path fill="url(#aq)" fill-rule="nonzero" d="M87.966 32.064c-40.016 22.449-59.96 33.002-59.83 31.66.108-1.121.126-9.5.053-25.138-.025-5.523 4.43-10.021 9.954-10.047h49.823v3.525z" opacity=".5"/></g></svg>