<svg width="120" height="120" fill="none" xmlns="http://www.w3.org/2000/svg"><mask id="a" style="mask-type:alpha" maskUnits="userSpaceOnUse" x="0" y="0" width="120" height="120"><circle cx="60" cy="60" r="60" fill="url(#s01p65hnea)"/></mask><g mask="url(#a)"><path fill="url(#5irgvbou1c)" d="M-3.5-3h126v126h-126z"/><path fill-rule="evenodd" clip-rule="evenodd" d="M68.544-87.289c0 .348.104.672.282.942l-4.04 4.391a1.71 1.71 0 10-1.503 3.072v17.865a1.711 1.711 0 000 3.348V-11.9a1.711 1.711 0 000 3.347v29.548a1.71 1.71 0 000 2.87v11.106a1.712 1.712 0 00.708 3.348l6.879 11.385a1.71 1.71 0 103.061 1.428h17.185a1.711 1.711 0 102.54-1.924l4.856-11.88a1.712 1.712 0 002.151-1.308h6.235a1.71 1.71 0 002.94-1.616l9.672-13.447a1.71 1.71 0 101.069-3.248l.082-11.977 11.466-12.75a1.71 1.71 0 10.647-3.178l-3.639-8.87a1.711 1.711 0 00.735-2.368l4.54-8.047a1.71 1.71 0 10-.211-3.316l-14.624-30.018a1.71 1.71 0 10-2.66-1.792h-2.436a1.71 1.71 0 00-2.137-1.243l-3.965-7.588a1.71 1.71 0 10-2.448-2.351L79.836-87.665l-.082-.037h-7.839a1.712 1.712 0 00-3.371.413zm-4.434 29.59v45.828c.198.057.382.148.544.268L84.13-47.659a1.708 1.708 0 01-.62-1.842L64.97-58.27a1.71 1.71 0 01-.86.57zm1.21-1.32l18.288 8.65-19.442-28.376a1.694 1.694 0 01-.056.005v17.75a1.712 1.712 0 011.21 1.97zm.372-21.427c0 .58-.288 1.093-.73 1.402l19.495 28.452a1.7 1.7 0 01.357-.114l-.857-10.075a1.711 1.711 0 01-.92-2.955L70.573-85.608a1.724 1.724 0 01-1.14-.18L65.4-81.401c.185.273.292.602.292.956zM64.11-8.58v29.303a1.703 1.703 0 01.837.16L88.2-3.44a1.703 1.703 0 01-.336-1.126L65.21-9.545a1.715 1.715 0 01-1.1.965zm1.235-1.782l22.769 5.005c.21-.342.537-.604.925-.732l-4.366-40.835-19.46 36.026c.072.167.117.347.132.536zm-.607 48.32l6.761 11.19c.235-.122.502-.19.785-.19h.018l7.8-18.62a1.708 1.708 0 01-.691-1.449l-13.948-5.287a1.706 1.706 0 01-1.353.536V35a1.712 1.712 0 01.628 2.957zm8.371 11.212c.084.046.163.099.237.158L97.323 36.09a1.716 1.716 0 01-.049-.406v-.025l-14.826-5.62a1.707 1.707 0 01-1.582.614L73.109 49.17zm.746.821c.044.1.078.206.101.315h17.135a1.712 1.712 0 011.73-1.347h.023l.02.002L97.79 36.91l-.015-.015-.017-.018a1.734 1.734 0 01-.05-.054L73.854 49.991zm44.976-29.504a1.702 1.702 0 01-.412-.906l-25.116-2.735a1.71 1.71 0 01-2.113.62l-8.694 10.478a1.703 1.703 0 01.304 1.345l14.688 5.568a1.71 1.71 0 013.136.337h5.893a1.71 1.71 0 012.843-1.54l9.471-13.167zm-.319-1.728c.201-.54.668-.95 1.241-1.074l.076-11.145-3.121 2.956a1.71 1.71 0 01-2.902 1.735L93.632 16.05l24.88 2.71zm-52.924 2.65c.098.131.178.277.235.434l24.348-5.817a1.71 1.71 0 013.286-.785l19.761-4.72L90.872-3.35a1.707 1.707 0 01-2.03.434L65.588 21.41zm.322 1.263c-.01.068-.023.135-.04.2l13.776 5.222a1.71 1.71 0 012.212-.676l8.677-10.458a1.73 1.73 0 01-.103-.146L65.91 22.672zm66.093-32.57l-3.689-8.991a1.711 1.711 0 01-1.649-1.71l-11.958-8.122a1.694 1.694 0 01-.461.288l1.126 36.877c.319.047.609.181.844.378l3.737-3.538 11.58-12.877a1.708 1.708 0 01.47-2.304zm-5.114-11.548c.056-.098.121-.189.194-.273L113.516-52.37l.633 20.743a1.712 1.712 0 011.033 2.229l11.707 7.952zm1.487-.864a1.7 1.7 0 01.896.254l4.381-7.766a1.709 1.709 0 01-.161-2.538l-14.688-30.148a1.712 1.712 0 01-1.883-1.27h-2.448a1.713 1.713 0 01-1.268 1.24l.211 6.912a1.711 1.711 0 01.742 2.664l13.616 30.761c.187-.07.39-.109.602-.109zM112.69-52.317l.629 20.615a1.707 1.707 0 00-.938.474L86.855-48.84a1.704 1.704 0 00-.157-.928L111.46-63.16c.227.294.548.513.917.61l.209 6.832a1.711 1.711 0 00.104 3.402zm-.74 21.797L86.553-48.044c-.253.36-.643.618-1.094.699L89.864-6.15a1.7 1.7 0 01.668.27l21.88-22.886a1.71 1.71 0 01-.462-1.755zM83.762-64.132L71.328-85.956c.286-.23.496-.552.587-.92h7.66l26.037 11.852a1.71 1.71 0 002.014 1.935l4 7.655a1.708 1.708 0 00-.494.924l-25.307 1.518a1.712 1.712 0 00-2.063-1.14zm1.017 3.264a1.713 1.713 0 001.098-1.298l24.753-1.486-24.474 13.236a1.706 1.706 0 00-.509-.252l-.868-10.2zm29.769 69.392a1.715 1.715 0 00-1.082 1.177L91.243-4.092a1.714 1.714 0 00-.157-1.17l22.076-23.091c.085.021.172.037.261.045l1.125 36.832zM52.406 56.7a1.133 1.133 0 00.577.992c.22.125.465.17.7.146h2.912a1.138 1.138 0 100-2.276H55.57l4.506-7.669 4.506 7.67h-3.34v-2.034a1.158 1.158 0 10-2.315 0v6.343a1.158 1.158 0 002.316 0v-2.034h5.227c.235.025.48-.02.7-.146l.015-.009a1.135 1.135 0 00.404-1.554l-6.498-11.06a1.17 1.17 0 00-1.015-.579 1.17 1.17 0 00-1.014.578l-6.45 10.977c-.13.185-.207.411-.207.655zm8.838 7.226v-.954a1.158 1.158 0 10-2.316 0v.954a1.158 1.158 0 002.316 0z" fill="url(#ppmyeed3td)"/><path fill-rule="evenodd" clip-rule="evenodd" d="M51.2-86.347a1.71 1.71 0 10-3.089-1.355h-7.84l-.08.037-26.094 11.877a1.71 1.71 0 10-2.448 2.351L7.684-65.85a1.712 1.712 0 00-2.138 1.243H3.111a1.712 1.712 0 10-2.66 1.792l-14.625 30.018a1.71 1.71 0 00-2.226 1.632 1.71 1.71 0 002.016 1.684l4.54 8.047a1.71 1.71 0 00.735 2.367l-3.64 8.871a1.71 1.71 0 10.647 3.178L-.635 5.733l.083 11.977a1.712 1.712 0 101.069 3.248l9.671 13.446a1.71 1.71 0 002.94 1.616h6.236a1.711 1.711 0 002.151 1.31l4.856 11.88a1.71 1.71 0 00.893 3.17c.784 0 1.444-.528 1.647-1.247h17.185a1.712 1.712 0 103.061-1.428l6.879-11.385a1.71 1.71 0 00.708-3.348V23.865a1.71 1.71 0 000-2.869V-8.552a1.711 1.711 0 000-3.347v-45.772a1.711 1.711 0 000-3.348v-17.864a1.711 1.711 0 10-1.504-3.073l-4.04-4.391zm3.506 27.328a1.712 1.712 0 011.21-1.971v-17.75a1.694 1.694 0 01-.056-.005L36.418-50.37l18.288-8.65zm1.21 1.32a1.713 1.713 0 01-.86-.57l-18.54 8.768a1.713 1.713 0 01-.62 1.842l19.475 36.056c.162-.12.346-.211.545-.268V-57.7zm-20.348 7.107l19.495-28.452a1.709 1.709 0 01-.438-2.358l-4.034-4.385a1.703 1.703 0 01-1.14.18L36.99-63.737a1.711 1.711 0 01-.92 2.955l-.857 10.075c.124.025.243.064.356.114zm19.113 40.23c.015-.189.06-.37.132-.536l-19.46-36.026L30.987-6.09c.388.128.715.39.925.732l22.769-5.005zm1.235 1.782a1.715 1.715 0 01-1.1-.965l-22.655 4.98a1.703 1.703 0 01-.336 1.126L55.08 20.882a1.704 1.704 0 01.837-.16V-8.58zm-7.39 57.728l6.762-11.19A1.711 1.711 0 0155.916 35V24.137a1.706 1.706 0 01-1.353-.536L40.615 28.89l.001.046v.027c0 .564-.272 1.064-.692 1.375l7.8 18.621h.018c.283 0 .55.069.785.19zm-1.847.18c.075-.06.154-.112.237-.158L39.16 30.654a1.718 1.718 0 01-1.582-.614L22.75 35.66v.025c0 .14-.016.276-.048.406L46.68 49.328zm-.61.978c.024-.109.058-.214.102-.315L22.319 36.823a2.29 2.29 0 01-.083.087l4.926 12.05a1.712 1.712 0 011.774 1.346H46.07zM1.608 19.581a1.704 1.704 0 01-.412.906l9.471 13.167a1.71 1.71 0 012.843 1.54h5.89a1.712 1.712 0 013.137-.337l14.688-5.568a1.714 1.714 0 01.304-1.345l-8.694-10.478a1.71 1.71 0 01-2.113-.62L1.607 19.58zM.273 17.685c.573.124 1.04.535 1.24 1.074l24.881-2.71L6.22 11.23a1.71 1.71 0 01-2.902-1.735L.197 6.54l.076 11.145zm53.93 4.158c.057-.157.137-.303.235-.434L31.183-2.915a1.707 1.707 0 01-2.03-.435L6.81 10.52l19.76 4.721a1.711 1.711 0 013.287.785l24.348 5.817zm-.046 1.03a1.713 1.713 0 01-.04-.2l-24.523-5.859c-.032.05-.066.1-.103.146l8.677 10.458a1.71 1.71 0 012.212.676l13.777-5.222zM-8.288-18.89l-3.689 8.992a1.709 1.709 0 01.47 2.304L.073 5.284l3.736 3.538c.236-.197.526-.331.844-.378L5.78-28.433a1.711 1.711 0 01-.46-.288l-11.96 8.122a1.71 1.71 0 01-1.65 1.71zm1.231-2.83c.073.084.138.175.194.273l11.707-7.952a1.712 1.712 0 011.033-2.229L6.51-52.37-7.057-21.72zm-2.19-.337a1.703 1.703 0 011.5-.145l13.614-30.76a1.712 1.712 0 01.742-2.664l.21-6.912a1.714 1.714 0 01-1.268-1.241H3.105a1.711 1.711 0 01-1.884 1.27L-13.466-32.36a1.708 1.708 0 01-.161 2.538l4.38 7.767zm15.954-9.646l.629-20.615a1.71 1.71 0 00.104-3.402l.208-6.831c.37-.098.69-.317.918-.61L33.329-49.77a1.704 1.704 0 00-.158.928L7.645-31.228a1.707 1.707 0 00-.938-.474zm26.765-16.342L8.075-30.521a1.71 1.71 0 01-.461 1.756l21.88 22.886a1.7 1.7 0 01.668-.27l4.405-41.196a1.711 1.711 0 01-1.095-.7zm15.226-37.912L36.264-64.132a1.712 1.712 0 00-2.063 1.14L8.893-64.51a1.707 1.707 0 00-.494-.924l4-7.655a1.712 1.712 0 002.014-1.936l26.037-11.85h7.66c.09.367.301.688.587.919zM34.15-62.166c.11.601.535 1.094 1.098 1.298l-.868 10.2a1.703 1.703 0 00-.51.252L9.397-63.652l24.753 1.486zM6.56 9.7a1.715 1.715 0 00-1.08-1.177l1.124-36.832c.089-.008.176-.024.26-.045L28.94-5.261a1.703 1.703 0 00-.157 1.169L6.56 9.7z" fill="url(#e5q0o1g8oe)"/><path d="M-1.5 59H49l11 19.5L71 59h50" stroke="url(#el1876a6xf)" stroke-width="1.943" stroke-linecap="round"/><path fill-rule="evenodd" clip-rule="evenodd" d="M60 115c33.137 0 60-26.863 60-60S93.137-5 60-5 0 21.863 0 55s26.863 60 60 60zm0-11c27.062 0 49-21.938 49-49S87.062 6 60 6 11 27.938 11 55s21.938 49 49 49z" fill="url(#5ei1c4o03g)"/><path d="M74.036 62.476L59.96 87.054 45.883 62.476h-59.867L59.96 185.552l73.944-123.076H74.036z" fill="url(#ui327zgdhh)"/><path d="M77.036 65.476L59.96 95.054 42.883 65.476h-56.867L59.96 193.552l73.944-128.076H77.036z" fill="url(#jmd178cmfi)"/><path d="M77.036 65.476L59.96 95.054 42.883 65.476h-27.29L59.96 142.32l44.366-76.844h-27.29z" fill="url(#t5ws7f3p8j)"/><path fill-rule="evenodd" clip-rule="evenodd" d="M107.877 26.408C100.476 22.938 92.214 21 83.5 21 51.744 21 26 46.744 26 78.5c0 11.455 3.35 22.128 9.123 31.092C15.553 100.418 2 80.542 2 57.5 2 25.744 27.744 0 59.5 0c20.301 0 38.145 10.521 48.377 26.408z" fill="url(#9b3smzg3ak)" fill-opacity=".4"/><rect x="59.018" y="105" width="4.04" height="1.278" rx=".639" fill="#152036"/><g filter="url(#yyxcat6o9l)"><rect x="64.183" y="105" width="3.688" height="1.286" rx=".643" fill="url(#rnjsq00fnm)"/></g><g filter="url(#nqdxsqk80n)"><rect x="52" y="105" width="5.584" height="1.286" rx=".643" fill="url(#ghfk214eno)"/></g><g filter="url(#p6fzntsd5p)"><rect x="62.904" y="108.714" width="4.952" height="1.286" rx=".643" fill="url(#uk9iwumc1q)"/></g><g filter="url(#u8kv5lpwmr)"><rect x="59.273" y="108.714" width="2.423" height="1.286" rx=".643" fill="url(#9k14c9l2ws)"/></g><g filter="url(#i1nhty259t)"><rect x="52.012" y="108.714" width="2.423" height="1.286" rx=".643" fill="url(#rb2t6zxg6u)"/></g><rect x="55.643" y="108.714" width="2.423" height="1.286" rx=".643" fill="#152036"/></g><circle cx="60" cy="60" r="59" stroke="url(#wr5m95rmdv)" stroke-width="2"/><path d="M60 94.5l18-29" stroke="url(#1iocf36fpw)" stroke-width=".5"/><path d="M59.5 94L43 66" stroke="url(#ym5bjmn1sx)" stroke-width=".5"/><path d="M59.251 95.433L103 66 92.5 50l23-5.5" stroke="url(#kgbx021uny)" stroke-width="2.495" stroke-linejoin="round"/><circle r="2.934" transform="matrix(0 1 1 0 59.934 94.934)" fill="url(#zzyg98a7dz)"/><circle r="3.715" transform="scale(1 -1) rotate(-68 2.115 -108.407)" fill="url(#bzzswlfibA)"/><circle r="2.884" transform="scale(1 -1) rotate(-68 9.495 -93.634)" fill="url(#w3gr8kjduB)"/><defs><linearGradient id="ppmyeed3td" x1="53.214" y1="20.879" x2="122.259" y2="38.577" gradientUnits="userSpaceOnUse"><stop stop-color="#70A6E9"/><stop offset="1" stop-color="#385076"/></linearGradient><linearGradient id="e5q0o1g8oe" x1="57.934" y1="11.82" x2="-3.943" y2="27.261" gradientUnits="userSpaceOnUse"><stop stop-color="#70A6E9"/><stop offset="1" stop-color="#385076"/></linearGradient><linearGradient id="el1876a6xf" x1="121" y1="59" x2="-1.5" y2="59" gradientUnits="userSpaceOnUse"><stop stop-color="#507AB3"/><stop offset="1" stop-color="#2A4068" stop-opacity="0"/></linearGradient><linearGradient id="5ei1c4o03g" x1="-2" y1="-13" x2="11.594" y2="39.085" gradientUnits="userSpaceOnUse"><stop stop-color="#82BAFF"/><stop offset="1" stop-color="#233D65"/></linearGradient><linearGradient id="ui327zgdhh" x1="60" y1="31.5" x2="70.241" y2="116.77" gradientUnits="userSpaceOnUse"><stop stop-color="#345082"/><stop offset="1" stop-color="#16243A"/></linearGradient><linearGradient id="jmd178cmfi" x1="23.5" y1="12" x2="58.015" y2="110.646" gradientUnits="userSpaceOnUse"><stop stop-color="#70A6E9"/><stop offset="1" stop-color="#274471"/></linearGradient><linearGradient id="9b3smzg3ak" x1="27" y1="19" x2="72.435" y2="64.569" gradientUnits="userSpaceOnUse"><stop stop-color="#759EE4"/><stop offset="1" stop-color="#2E4469" stop-opacity=".01"/></linearGradient><linearGradient id="rnjsq00fnm" x1="62.711" y1="105.643" x2="62.711" y2="107.954" gradientUnits="userSpaceOnUse"><stop stop-color="#fff"/><stop offset="1" stop-color="#C42E6C"/></linearGradient><linearGradient id="ghfk214eno" x1="49.772" y1="105.643" x2="49.772" y2="107.954" gradientUnits="userSpaceOnUse"><stop stop-color="#fff"/><stop offset="1" stop-color="#C42E6C"/></linearGradient><linearGradient id="uk9iwumc1q" x1="60.928" y1="109.357" x2="60.928" y2="111.669" gradientUnits="userSpaceOnUse"><stop stop-color="#fff"/><stop offset="1" stop-color="#C42E6C"/></linearGradient><linearGradient id="9k14c9l2ws" x1="58.307" y1="109.357" x2="58.307" y2="111.669" gradientUnits="userSpaceOnUse"><stop stop-color="#fff"/><stop offset="1" stop-color="#C42E6C"/></linearGradient><linearGradient id="rb2t6zxg6u" x1="51.045" y1="109.357" x2="51.045" y2="111.669" gradientUnits="userSpaceOnUse"><stop stop-color="#fff"/><stop offset="1" stop-color="#C42E6C"/></linearGradient><linearGradient id="wr5m95rmdv" x1="-25.227" y1="22.708" x2="4.038" y2="134.632" gradientUnits="userSpaceOnUse"><stop stop-color="#FF5E92"/><stop offset="1" stop-color="#ED4653"/></linearGradient><linearGradient id="1iocf36fpw" x1="60.5" y1="95.362" x2="78" y2="66.5" gradientUnits="userSpaceOnUse"><stop stop-color="#F58BAF"/><stop offset=".82" stop-color="#F9568B" stop-opacity="0"/></linearGradient><linearGradient id="ym5bjmn1sx" x1="60.5" y1="95.362" x2="40" y2="89.862" gradientUnits="userSpaceOnUse"><stop stop-color="#F58BAF"/><stop offset="1" stop-color="#F9568B" stop-opacity="0"/></linearGradient><linearGradient id="kgbx021uny" x1="100.5" y1="47" x2="113" y2="37" gradientUnits="userSpaceOnUse"><stop stop-color="#F44881"/><stop offset="1" stop-color="#F44881" stop-opacity="0"/></linearGradient><linearGradient id="zzyg98a7dz" x1="2.118" y1="-2.373" x2="-2.629" y2="2.884" gradientUnits="userSpaceOnUse"><stop stop-color="#FB3B78"/><stop offset="1" stop-color="#EFC7D8"/></linearGradient><linearGradient id="bzzswlfibA" x1="11.895" y1="-3.819" x2="-9.057" y2="-16.539" gradientUnits="userSpaceOnUse"><stop stop-color="#DD1E5B"/><stop offset="1" stop-color="#EFC7D8"/></linearGradient><linearGradient id="w3gr8kjduB" x1="9.234" y1="-2.964" x2="-7.03" y2="-12.838" gradientUnits="userSpaceOnUse"><stop stop-color="#DD1E5B"/><stop offset="1" stop-color="#EFC7D8"/></linearGradient><filter id="yyxcat6o9l" x="59.334" y="100.151" width="13.386" height="10.984" filterUnits="userSpaceOnUse" color-interpolation-filters="sRGB"><feFlood flood-opacity="0" result="BackgroundImageFix"/><feColorMatrix in="SourceAlpha" values="0 0 0 0 0 0 0 0 0 0 0 0 0 0 0 0 0 0 127 0" result="hardAlpha"/><feOffset/><feGaussianBlur stdDeviation="2.425"/><feColorMatrix values="0 0 0 0 0.951002 0 0 0 0 0.370525 0 0 0 0 0.610455 0 0 0 1 0"/><feBlend in2="BackgroundImageFix" result="effect1_dropShadow_111_27420"/><feBlend in="SourceGraphic" in2="effect1_dropShadow_111_27420" result="shape"/></filter><filter id="nqdxsqk80n" x="47.151" y="100.151" width="15.282" height="10.984" filterUnits="userSpaceOnUse" color-interpolation-filters="sRGB"><feFlood flood-opacity="0" result="BackgroundImageFix"/><feColorMatrix in="SourceAlpha" values="0 0 0 0 0 0 0 0 0 0 0 0 0 0 0 0 0 0 127 0" result="hardAlpha"/><feOffset/><feGaussianBlur stdDeviation="2.425"/><feColorMatrix values="0 0 0 0 0.951002 0 0 0 0 0.370525 0 0 0 0 0.610455 0 0 0 1 0"/><feBlend in2="BackgroundImageFix" result="effect1_dropShadow_111_27420"/><feBlend in="SourceGraphic" in2="effect1_dropShadow_111_27420" result="shape"/></filter><filter id="p6fzntsd5p" x="58.055" y="103.865" width="14.65" height="10.984" filterUnits="userSpaceOnUse" color-interpolation-filters="sRGB"><feFlood flood-opacity="0" result="BackgroundImageFix"/><feColorMatrix in="SourceAlpha" values="0 0 0 0 0 0 0 0 0 0 0 0 0 0 0 0 0 0 127 0" result="hardAlpha"/><feOffset/><feGaussianBlur stdDeviation="2.425"/><feColorMatrix values="0 0 0 0 0.951002 0 0 0 0 0.370525 0 0 0 0 0.610455 0 0 0 1 0"/><feBlend in2="BackgroundImageFix" result="effect1_dropShadow_111_27420"/><feBlend in="SourceGraphic" in2="effect1_dropShadow_111_27420" result="shape"/></filter><filter id="u8kv5lpwmr" x="54.424" y="103.865" width="12.121" height="10.984" filterUnits="userSpaceOnUse" color-interpolation-filters="sRGB"><feFlood flood-opacity="0" result="BackgroundImageFix"/><feColorMatrix in="SourceAlpha" values="0 0 0 0 0 0 0 0 0 0 0 0 0 0 0 0 0 0 127 0" result="hardAlpha"/><feOffset/><feGaussianBlur stdDeviation="2.425"/><feColorMatrix values="0 0 0 0 0.951002 0 0 0 0 0.370525 0 0 0 0 0.610455 0 0 0 1 0"/><feBlend in2="BackgroundImageFix" result="effect1_dropShadow_111_27420"/><feBlend in="SourceGraphic" in2="effect1_dropShadow_111_27420" result="shape"/></filter><filter id="i1nhty259t" x="47.163" y="103.865" width="12.121" height="10.984" filterUnits="userSpaceOnUse" color-interpolation-filters="sRGB"><feFlood flood-opacity="0" result="BackgroundImageFix"/><feColorMatrix in="SourceAlpha" values="0 0 0 0 0 0 0 0 0 0 0 0 0 0 0 0 0 0 127 0" result="hardAlpha"/><feOffset/><feGaussianBlur stdDeviation="2.425"/><feColorMatrix values="0 0 0 0 0.951002 0 0 0 0 0.370525 0 0 0 0 0.610455 0 0 0 1 0"/><feBlend in2="BackgroundImageFix" result="effect1_dropShadow_111_27420"/><feBlend in="SourceGraphic" in2="effect1_dropShadow_111_27420" result="shape"/></filter><radialGradient id="s01p65hnea" cx="0" cy="0" r="1" gradientUnits="userSpaceOnUse" gradientTransform="rotate(90 1.72 58.28) scale(111.44)"><stop stop-color="#2B436F"/><stop offset="1"/></radialGradient><radialGradient id="5irgvbou1c" cx="0" cy="0" r="1" gradientUnits="userSpaceOnUse" gradientTransform="rotate(59.571 -.974 34.77) scale(119.454)"><stop stop-color="#263A5E"/><stop offset="1" stop-color="#0C1321"/></radialGradient><radialGradient id="t5ws7f3p8j" cx="0" cy="0" r="1" gradientUnits="userSpaceOnUse" gradientTransform="matrix(0 60.5 -62.2993 0 60 59.5)"><stop stop-color="#2B436F"/><stop offset="1" stop-color="#18263E"/></radialGradient></defs></svg>