<svg width="120" height="120" xmlns="http://www.w3.org/2000/svg" xmlns:xlink="http://www.w3.org/1999/xlink"><defs><radialGradient cx="50%" cy="0%" fx="50%" fy="0%" r="82.112%" id="c"><stop stop-color="#35558F" offset="0%"/><stop stop-color="#0B1220" offset="100%"/></radialGradient><radialGradient cx="50%" cy="2.702%" fx="50%" fy="2.702%" r="45.008%" gradientTransform="matrix(0 1 -1.5492 0 .542 -.473)" id="f"><stop stop-color="#D12A6F" offset="0%"/><stop stop-color="#83234B" stop-opacity="0" offset="100%"/></radialGradient><radialGradient cx="51.886%" cy="108.206%" fx="51.886%" fy="108.206%" r="113.366%" gradientTransform="matrix(0 -1 .92725 0 -.484 1.6)" id="g"><stop stop-color="#152036" stop-opacity="0" offset="0%"/><stop stop-color="#5F82B4" offset="100%"/></radialGradient><radialGradient cx="-21.057%" cy="-19.769%" fx="-21.057%" fy="-19.769%" r="307.589%" gradientTransform="scale(1 .45252) rotate(66.823 -.03 -.317)" id="i"><stop stop-color="#6BA0E2" offset="0%"/><stop stop-color="#385076" offset="48.594%"/><stop offset="100%"/></radialGradient><radialGradient cx="90.72%" cy="5.851%" fx="90.72%" fy="5.851%" r="128.142%" gradientTransform="matrix(.95518 -.13395 .3839 .56056 .018 .147)" id="k"><stop stop-color="#D12A6F" offset="0%"/><stop stop-color="#83234B" stop-opacity="0" offset="100%"/></radialGradient><radialGradient cx="51.931%" cy="83.449%" fx="51.931%" fy="83.449%" r="86.819%" gradientTransform="matrix(-.02225 -.99975 .92702 -.02063 -.243 1.37)" id="l"><stop stop-color="#141F34" stop-opacity="0" offset="0%"/><stop stop-color="#5F82B4" offset="100%"/></radialGradient><radialGradient cx="47.873%" cy="-167.447%" fx="47.873%" fy="-167.447%" r="306.786%" gradientTransform="matrix(0 1 -.2957 0 -.016 -2.153)" id="m"><stop stop-color="#6BA0E2" offset="0%"/><stop stop-color="#385076" offset="52.562%"/><stop stop-color="#131E32" offset="100%"/></radialGradient><radialGradient cx="50%" cy="-50.602%" fx="50%" fy="-50.602%" r="329.183%" gradientTransform="matrix(0 -1 .89099 0 .95 -.006)" id="p"><stop stop-color="#FFF" offset="0%"/><stop stop-color="#C42E6C" offset="100%"/></radialGradient><radialGradient cx="92.427%" cy="79.5%" fx="92.427%" fy="79.5%" r="4799.08%" gradientTransform="matrix(-.01791 -.01657 .00057 -1.93042 .94 2.345)" id="s"><stop stop-color="#FFF" offset="0%"/><stop stop-color="#C42E6C" offset="100%"/></radialGradient><radialGradient cx="46.989%" cy="-76.511%" fx="46.989%" fy="-76.511%" r="195.76%" gradientTransform="matrix(.0247 .99704 -.45298 .10858 .112 -1.15)" id="t"><stop stop-color="#D12A6F" offset="0%"/><stop stop-color="#FF006A" stop-opacity="0" offset="100%"/></radialGradient><linearGradient x1="22.4%" y1="5.3%" x2="82.5%" y2="95.5%" id="a"><stop stop-color="#FF5F94" offset="0%"/><stop stop-color="#EC454F" offset="100%"/></linearGradient><linearGradient x1="25.613%" y1="6.73%" x2="50%" y2="100%" id="b"><stop stop-color="#FF5E92" offset="0%"/><stop stop-color="#ED4653" offset="100%"/></linearGradient><linearGradient x1="52.408%" y1="15.242%" x2="42.309%" y2="113.505%" id="j"><stop stop-color="#2B436F" offset="0%"/><stop offset="100%"/></linearGradient><linearGradient x1="0%" y1="53.18%" x2="150.721%" y2="43.281%" id="u"><stop stop-color="#F04765" stop-opacity="0" offset="0%"/><stop stop-color="#EF4663" offset="100%"/></linearGradient><linearGradient x1="100%" y1="50.765%" x2="4.75%" y2="48.812%" id="v"><stop stop-color="#F04765" stop-opacity="0" offset="0%"/><stop stop-color="#EF4663" offset="100%"/></linearGradient><linearGradient x1="74.488%" y1="89.582%" x2="-207.458%" y2="-81.619%" id="w"><stop stop-color="#DD1E5B" offset="0%"/><stop stop-color="#EFC7D8" offset="100%"/></linearGradient><linearGradient x1="5.215%" y1="31.839%" x2="100%" y2="57.073%" id="x"><stop stop-color="#F4487D" stop-opacity=".16" offset="0%"/><stop stop-color="#FF709D" offset="100%"/></linearGradient><linearGradient x1="80.884%" y1="0%" x2="0%" y2="89.582%" id="A"><stop stop-color="#FB3B78" offset="0%"/><stop stop-color="#EFC7D8" offset="100%"/></linearGradient><filter x="-52.5%" y="-116.6%" width="205%" height="333.3%" filterUnits="objectBoundingBox" id="n"><feOffset in="SourceAlpha" result="shadowOffsetOuter1"/><feGaussianBlur stdDeviation="3.5" in="shadowOffsetOuter1" result="shadowBlurOuter1"/><feColorMatrix values="0 0 0 0 0.951002038 0 0 0 0 0.370524746 0 0 0 0 0.61045536 0 0 0 1 0" in="shadowBlurOuter1"/></filter><filter x="-8.6%" y="-480.7%" width="117.2%" height="1061.4%" filterUnits="objectBoundingBox" id="q"><feOffset in="SourceAlpha" result="shadowOffsetOuter1"/><feGaussianBlur stdDeviation="1.5" in="shadowOffsetOuter1" result="shadowBlurOuter1"/><feColorMatrix values="0 0 0 0 0.951002038 0 0 0 0 0.370524746 0 0 0 0 0.61045536 0 0 0 1 0" in="shadowBlurOuter1"/></filter><filter x="-52.1%" y="-52.1%" width="204.2%" height="204.2%" filterUnits="objectBoundingBox" id="y"><feGaussianBlur stdDeviation="2.778" in="SourceGraphic"/></filter><filter x="-104.2%" y="-104.2%" width="308.4%" height="308.4%" filterUnits="objectBoundingBox" id="z"><feGaussianBlur stdDeviation="2.778" in="SourceGraphic"/></filter><circle id="d" cx="58.5" cy="58.5" r="58.5"/><circle id="e" cx="58.5" cy="58.5" r="58.5"/><rect id="r" x="10.212" y="4.937" width="52.257" height="1" rx=".5"/><path d="M12.938.002a.65.65 0 01.378.12l6.346 3.78a.69.69 0 01.333.517l.003.033v.096l-.003.033a.69.69 0 01-.333.516l-6.39 3.806a.658.658 0 01-.138.063h-.01a.652.652 0 01-.729-.256c-.003-.008-.008-.015-.012-.022a.656.656 0 01-.073-.153l-.006-.023a.66.66 0 01-.026-.245l.001-3.083h-1.166l-.075-.006-2.426 2.918H5.15l3.268-3.697L5.15 1.19h3.462l2.525 2.637h3.626a.679.679 0 010 1.358h-1.167v1.958L18.032 4.5l-4.436-2.643v.61a.658.658 0 11-1.316 0L12.278.733a.69.69 0 01.006-.157L12.282.6l.008-.055.008-.039.02-.066.008-.02a.656.656 0 01.612-.418zM3.462 1.189l3.074 3.21-3.074 3.697H0l3.268-3.697L0 1.19h3.462z" id="o"/></defs><g fill="none" fill-rule="evenodd"><circle fill-opacity=".15" fill="#000" cx="59.5" cy="59.5" r="58.5"/><path d="M59.529 119.032a59.227 59.227 0 01-33.27-10.162 59.679 59.679 0 01-21.56-26.182 59.426 59.426 0 015.487-56.43A59.679 59.679 0 0136.368 4.7a59.425 59.425 0 0156.43 5.486 59.677 59.677 0 0121.558 26.182 59.428 59.428 0 01-5.487 56.43 59.677 59.677 0 01-26.181 21.559 59.132 59.132 0 01-23.16 4.675zm0-117.025a57.253 57.253 0 00-32.161 9.823 57.686 57.686 0 00-20.84 25.307 57.445 57.445 0 005.303 54.546 57.688 57.688 0 0025.307 20.84 57.444 57.444 0 0054.546-5.304 57.69 57.69 0 0020.84-25.307 57.445 57.445 0 00-5.304-54.545 57.69 57.69 0 00-25.307-20.84 57.163 57.163 0 00-22.384-4.52z" fill="url(#a)" fill-rule="nonzero"/><circle fill-opacity=".15" fill="#000" cx="60" cy="60" r="60"/><circle stroke="url(#b)" stroke-width="2" cx="60" cy="60" r="59"/><g transform="translate(1 1)"><use fill="url(#c)" xlink:href="#d"/><mask id="h" fill="#fff"><use xlink:href="#e"/></mask><use fill="url(#f)" opacity=".645" xlink:href="#e"/><path d="M59 101c23.748 0 43-19.252 43-43S82.748 15 59 15 16 34.252 16 58s19.252 43 43 43z" stroke="url(#g)" stroke-width="4" stroke-dasharray="2,4" mask="url(#h)"/><g mask="url(#h)"><path fill="url(#i)" d="M0 61.876V0l28 6.384v55.492z" transform="translate(31 39)"/><path fill="#FFF" fill-rule="nonzero" opacity=".05" style="mix-blend-mode:soft-light" d="M59 48.589L31 78l.087-39z"/><path fill="url(#j)" d="M28 61.876V6.348L56 0v61.876z" transform="translate(31 39)"/><path fill="url(#k)" fill-rule="nonzero" opacity=".411" d="M28 61.876V6.348L56 0v61.876z" transform="translate(31 39)"/><path fill="#FFF" fill-rule="nonzero" opacity=".08" style="mix-blend-mode:soft-light" d="M59 49.021L86.186 39 87 78z"/></g><path d="M59 108c27.614 0 50-22.386 50-50S86.614 8 59 8 9 30.386 9 58s22.386 50 50 50z" stroke="url(#l)" stroke-width="4" stroke-dasharray="1" mask="url(#h)"/><g mask="url(#h)"><path d="M7.463 0h65.074A7.463 7.463 0 0180 7.463v7.945a7.463 7.463 0 01-6.853 7.438c-6.588.54-17.637.81-33.147.81-15.51 0-26.559-.27-33.147-.81A7.463 7.463 0 010 15.408V7.463A7.463 7.463 0 017.463 0z" fill="url(#m)" transform="translate(18 92)"/><g transform="translate(49 101.998)" opacity=".9"><use fill="#000" filter="url(#n)" xlink:href="#o"/><use fill="url(#p)" xlink:href="#o"/></g><path d="M28.768 95.863h58.88a1.56 1.56 0 110 3.12h-58.88a1.56 1.56 0 010-3.12z" fill="#0D1422"/><g transform="translate(18 92)"><use fill="#000" filter="url(#q)" xlink:href="#r"/><use fill="url(#s)" xlink:href="#r"/></g></g></g><path d="M59.5 1C91.809 1 118 27.191 118 59.5S91.809 118 59.5 118 1 91.809 1 59.5 27.191 1 59.5 1zm0 3C28.848 4 4 28.848 4 59.5S28.848 115 59.5 115 115 90.152 115 59.5 90.152 4 59.5 4z" fill="#000"/><path d="M59.529 119.032a59.227 59.227 0 01-33.27-10.162 59.679 59.679 0 01-21.56-26.182 59.426 59.426 0 015.487-56.43A59.679 59.679 0 0136.368 4.7a59.425 59.425 0 0156.43 5.486 59.677 59.677 0 0121.558 26.182 59.428 59.428 0 01-5.487 56.43 59.677 59.677 0 01-26.181 21.559 59.132 59.132 0 01-23.16 4.675zm0-117.025a57.253 57.253 0 00-32.161 9.823 57.686 57.686 0 00-20.84 25.307 57.445 57.445 0 005.303 54.546 57.688 57.688 0 0025.307 20.84 57.444 57.444 0 0054.546-5.304 57.69 57.69 0 0020.84-25.307 57.445 57.445 0 00-5.304-54.545 57.69 57.69 0 00-25.307-20.84 57.163 57.163 0 00-22.384-4.52z" fill="url(#a)" fill-rule="nonzero"/><path fill="#3E63A1" opacity=".15" d="M32 52.092L59.804 62 88 52.092 59.804 44z"/><path fill="#5884BD" d="M32 40.092L59.804 50 88 40.092 59.804 32z"/><path fill="url(#t)" fill-rule="nonzero" opacity=".648" d="M32 40.092L59.804 50 88 40.092 59.804 32z"/><path fill="#3E63A1" opacity=".15" d="M32 63.092L59.804 73 88 63.092 59.804 55z"/><path fill="#3E63A1" opacity=".15" d="M32 74.092L59.804 84 88 74.092 59.804 66z"/><path stroke="url(#u)" stroke-width=".4" opacity=".343" stroke-linecap="round" d="M71.245 69.122L88 63.092 60 55l-28 8.092"/><path stroke="url(#v)" stroke-width=".4" opacity=".343" stroke-linecap="round" d="M71.101 69.208L60 66l-28 8.092"/><circle cx="2" cy="2" r="2" transform="rotate(88 -7.315 69.03)" fill="url(#w)"/><path stroke="url(#x)" stroke-width="1.8" stroke-linejoin="round" d="M0 0l15.125 6.734 16.902 38.417 32.578-18.68" transform="rotate(-114 60.197 27.018)"/><g transform="rotate(88 23.763 68)"><circle fill="url(#w)" cx="3.5" cy="3.517" r="3.5"/><path d="M3.35 0c1.09 0 2.06.524 2.668 1.334a3.334 3.334 0 00-4.666 4.67A3.334 3.334 0 013.35 0z" fill-opacity=".2" fill="#FFF"/></g><g transform="rotate(88 25.162 42.357)"><circle fill="#C42E6C" opacity=".061" style="mix-blend-mode:lighten" filter="url(#y)" cx="8" cy="8" r="8"/><circle fill="#C42E6C" style="mix-blend-mode:lighten" filter="url(#z)" cx="8" cy="8" r="4"/><circle fill="url(#A)" cx="8" cy="8" r="3"/></g><path fill="#FFF" opacity=".021" d="M59.39 50L32 40.092 60 32l14 13z"/><path fill="#FFF" opacity=".021" d="M59.39 50L32 40.092 60 32z"/><path fill="#FFF" opacity=".021" d="M46 45l-14-4.908L60 32z"/></g></svg>