<svg xmlns="http://www.w3.org/2000/svg" xmlns:xlink="http://www.w3.org/1999/xlink" width="122" height="122"><defs><linearGradient id="c" x1="14.496%" x2="84.643%" y1="11.24%" y2="89.769%"><stop offset="0%" stop-color="#B595FD"/><stop offset="100%" stop-color="#B372BD" stop-opacity="0"/></linearGradient><linearGradient id="g" x1="9.5%" x2="79.488%" y1="0%" y2="50%"><stop offset="0%" stop-color="#6F90BC"/><stop offset="100%" stop-color="#2E4469"/></linearGradient><linearGradient id="j" x1="11.844%" x2="69.66%" y1="0%" y2="122.507%"><stop offset="0%" stop-color="#B595FD"/><stop offset="100%" stop-color="#B372BD" stop-opacity="0"/></linearGradient><linearGradient id="k" x1="50%" x2="35.328%" y1="100%" y2="0%"><stop offset="0%" stop-color="#8B60ED"/><stop offset="100%" stop-color="#B372BD" stop-opacity="0"/></linearGradient><linearGradient id="l" x1="0%" x2="64.22%" y1="70.234%" y2="29.766%"><stop offset="0%" stop-color="#8B60ED"/><stop offset="100%" stop-color="#B372BD" stop-opacity="0"/></linearGradient><linearGradient id="m" x1="53.262%" x2="57.089%" y1="-4.866%" y2="92.183%"><stop offset="0%" stop-color="#8B60ED"/><stop offset="100%" stop-color="#B372BD" stop-opacity="0"/></linearGradient><linearGradient id="n" x1="55.054%" x2="60.984%" y1="-4.866%" y2="92.183%"><stop offset="0%" stop-color="#8B60ED"/><stop offset="100%" stop-color="#B372BD" stop-opacity="0"/></linearGradient><linearGradient id="o" x1="50%" x2="28.659%" y1="100%" y2="0%"><stop offset="0%" stop-color="#8B60ED"/><stop offset="100%" stop-color="#B372BD" stop-opacity="0"/></linearGradient><linearGradient id="p" x1="50%" x2="17.148%" y1="100%" y2="0%"><stop offset="0%" stop-color="#8B60ED"/><stop offset="100%" stop-color="#B372BD" stop-opacity="0"/></linearGradient><linearGradient id="q" x1="50%" x2="9.949%" y1="73.837%" y2="26.163%"><stop offset="0%" stop-color="#8B60ED"/><stop offset="100%" stop-color="#B372BD" stop-opacity="0"/></linearGradient><linearGradient id="w" x1="2.894%" x2="74.271%" y1="0%" y2="122.507%"><stop offset="0%" stop-color="#B595FD"/><stop offset="100%" stop-color="#B372BD" stop-opacity="0"/></linearGradient><linearGradient id="z" x1="53.088%" x2="56.711%" y1="-4.866%" y2="92.183%"><stop offset="0%" stop-color="#8B60ED"/><stop offset="100%" stop-color="#B372BD" stop-opacity="0"/></linearGradient><linearGradient id="B" x1="0%" y1="50%" y2="50%"><stop offset="0%" stop-color="#5B79A2"/><stop offset="100%" stop-color="#2E4469"/></linearGradient><linearGradient id="E" x1="45.584%" x2="58.66%" y1="0%" y2="126.966%"><stop offset="0%" stop-color="#446493"/><stop offset="100%" stop-color="#253652"/></linearGradient><linearGradient id="F" x1="50.694%" x2="49.651%" y1="54.332%" y2="47.823%"><stop offset="0%" stop-color="#5B79A2"/><stop offset="100%" stop-color="#2E4469"/></linearGradient><linearGradient id="I" x1="50%" x2="50%" y1="100%" y2="0%"><stop offset="0%" stop-color="#8B60ED"/><stop offset="100%" stop-color="#B372BD"/></linearGradient><linearGradient id="Y" x1="36.665%" x2="86.195%" y1="50%" y2="-11.747%"><stop offset="0%" stop-color="#B595FD"/><stop offset="100%" stop-color="#B372BD" stop-opacity="0"/></linearGradient><linearGradient id="Z" x1="68.141%" x2="50%" y1="100%" y2="0%"><stop offset="0%" stop-color="#9A77EB"/><stop offset="100%" stop-color="#CB7DD7"/></linearGradient><filter id="f" width="125.9%" height="242.5%" x="-13%" y="-71.2%" filterUnits="objectBoundingBox"><feGaussianBlur in="SourceGraphic" stdDeviation="2.85"/></filter><filter id="h" width="105.6%" height="105%" x="-2.8%" y="-2.5%" filterUnits="objectBoundingBox"><feMorphology in="SourceAlpha" operator="dilate" radius=".5" result="shadowSpreadOuter1"/><feOffset in="shadowSpreadOuter1" result="shadowOffsetOuter1"/><feMorphology in="SourceAlpha" radius="1" result="shadowInner"/><feOffset in="shadowInner" result="shadowInner"/><feComposite in="shadowOffsetOuter1" in2="shadowInner" operator="out" result="shadowOffsetOuter1"/><feGaussianBlur in="shadowOffsetOuter1" result="shadowBlurOuter1" stdDeviation=".5"/><feColorMatrix in="shadowBlurOuter1" values="0 0 0 0 0.730146759 0 0 0 0 0.285446628 0 0 0 0 0.812245245 0 0 0 1 0"/></filter><filter id="r" width="154.5%" height="154.5%" x="-27.3%" y="-27.3%" filterUnits="objectBoundingBox"><feOffset in="SourceAlpha" result="shadowOffsetOuter1"/><feGaussianBlur in="shadowOffsetOuter1" result="shadowBlurOuter1" stdDeviation="2"/><feColorMatrix in="shadowBlurOuter1" values="0 0 0 0 0.803048242 0 0 0 0 0.208830007 0 0 0 0 0.969429348 0 0 0 1 0"/></filter><filter id="u" width="118.2%" height="118.2%" x="-9.1%" y="-9.1%" filterUnits="objectBoundingBox"><feMorphology in="SourceAlpha" operator="dilate" radius=".5" result="shadowSpreadOuter1"/><feOffset in="shadowSpreadOuter1" result="shadowOffsetOuter1"/><feMorphology in="SourceAlpha" radius="1" result="shadowInner"/><feOffset in="shadowInner" result="shadowInner"/><feComposite in="shadowOffsetOuter1" in2="shadowInner" operator="out" result="shadowOffsetOuter1"/><feGaussianBlur in="shadowOffsetOuter1" result="shadowBlurOuter1" stdDeviation=".5"/><feColorMatrix in="shadowBlurOuter1" values="0 0 0 0 0.730146759 0 0 0 0 0.285446628 0 0 0 0 0.812245245 0 0 0 1 0"/></filter><filter id="y" width="118.6%" height="242.5%" x="-9.3%" y="-71.2%" filterUnits="objectBoundingBox"><feGaussianBlur in="SourceGraphic" stdDeviation="2.85"/></filter><filter id="A" width="125.9%" height="242.5%" x="-13%" y="-71.2%" filterUnits="objectBoundingBox"><feGaussianBlur in="SourceGraphic" stdDeviation="2.85"/></filter><filter id="D" width="100%" height="100%" x="0%" y="0%" filterUnits="objectBoundingBox"><feGaussianBlur in="SourceGraphic"/></filter><filter id="G" width="400%" height="400%" x="-150%" y="-150%" filterUnits="objectBoundingBox"><feOffset in="SourceAlpha" result="shadowOffsetOuter1"/><feGaussianBlur in="shadowOffsetOuter1" result="shadowBlurOuter1" stdDeviation="2"/><feColorMatrix in="shadowBlurOuter1" values="0 0 0 0 0.721924836 0 0 0 0 0.397503811 0 0 0 0 1 0 0 0 1 0"/></filter><filter id="J" width="400%" height="400%" x="-150%" y="-150%" filterUnits="objectBoundingBox"><feOffset in="SourceAlpha" result="shadowOffsetOuter1"/><feGaussianBlur in="shadowOffsetOuter1" result="shadowBlurOuter1" stdDeviation="2"/><feColorMatrix in="shadowBlurOuter1" values="0 0 0 0 0.721924836 0 0 0 0 0.397503811 0 0 0 0 1 0 0 0 1 0"/></filter><filter id="L" width="400%" height="400%" x="-150%" y="-150%" filterUnits="objectBoundingBox"><feOffset in="SourceAlpha" result="shadowOffsetOuter1"/><feGaussianBlur in="shadowOffsetOuter1" result="shadowBlurOuter1" stdDeviation="2"/><feColorMatrix in="shadowBlurOuter1" values="0 0 0 0 0.721924836 0 0 0 0 0.397503811 0 0 0 0 1 0 0 0 1 0"/></filter><filter id="N" width="400%" height="400%" x="-150%" y="-150%" filterUnits="objectBoundingBox"><feOffset in="SourceAlpha" result="shadowOffsetOuter1"/><feGaussianBlur in="shadowOffsetOuter1" result="shadowBlurOuter1" stdDeviation="2"/><feColorMatrix in="shadowBlurOuter1" values="0 0 0 0 0.721924836 0 0 0 0 0.397503811 0 0 0 0 1 0 0 0 1 0"/></filter><filter id="P" width="400%" height="400%" x="-150%" y="-150%" filterUnits="objectBoundingBox"><feOffset in="SourceAlpha" result="shadowOffsetOuter1"/><feGaussianBlur in="shadowOffsetOuter1" result="shadowBlurOuter1" stdDeviation="2"/><feColorMatrix in="shadowBlurOuter1" values="0 0 0 0 0.721924836 0 0 0 0 0.397503811 0 0 0 0 1 0 0 0 1 0"/></filter><filter id="R" width="400%" height="400%" x="-150%" y="-150%" filterUnits="objectBoundingBox"><feOffset in="SourceAlpha" result="shadowOffsetOuter1"/><feGaussianBlur in="shadowOffsetOuter1" result="shadowBlurOuter1" stdDeviation="2"/><feColorMatrix in="shadowBlurOuter1" values="0 0 0 0 0.721924836 0 0 0 0 0.397503811 0 0 0 0 1 0 0 0 1 0"/></filter><filter id="T" width="400%" height="400%" x="-150%" y="-150%" filterUnits="objectBoundingBox"><feOffset in="SourceAlpha" result="shadowOffsetOuter1"/><feGaussianBlur in="shadowOffsetOuter1" result="shadowBlurOuter1" stdDeviation="2"/><feColorMatrix in="shadowBlurOuter1" values="0 0 0 0 0.721924836 0 0 0 0 0.397503811 0 0 0 0 1 0 0 0 1 0"/></filter><filter id="V" width="125.5%" height="120.2%" x="-12.8%" y="-10.1%" filterUnits="objectBoundingBox"><feGaussianBlur in="SourceGraphic" stdDeviation="2"/></filter><filter id="W" width="144.4%" height="144.4%" x="-22.2%" y="-22.2%" filterUnits="objectBoundingBox"><feGaussianBlur in="SourceGraphic" stdDeviation="2"/></filter><filter id="X" width="180%" height="180%" x="-40%" y="-40%" filterUnits="objectBoundingBox"><feGaussianBlur in="SourceGraphic" stdDeviation="2"/></filter><path id="H" d="M0 0h4v4H0z"/><path id="K" d="M0 0h4v4H0z"/><path id="M" d="M36 0h4v4h-4z"/><path id="O" d="M36 0h4v4h-4z"/><path id="Q" d="M9 0h4v4H9z"/><path id="S" d="M9 0h4v4H9z"/><path id="U" d="M45 0h4v4h-4z"/><circle id="a" cx="60" cy="60" r="60"/><circle id="b" cx="60.5" cy="60.5" r="54.5"/><circle id="d" cx="60" cy="60" r="60"/><circle id="s" cx="39" cy="57" r="11"/><circle id="v" cx="39" cy="57" r="11"/><radialGradient id="e" cx="52.101%" cy="30.594%" r="268.378%" fx="52.101%" fy="30.594%" gradientTransform="matrix(-.18182 0 0 -.25522 .616 .384)"><stop offset="0%"/><stop offset="100%" stop-opacity=".002"/></radialGradient><radialGradient id="t" r="74.367%" fx="50%" fy="50%"><stop offset="0%" stop-color="#B372BD"/><stop offset="100%" stop-color="#8B60ED"/></radialGradient><radialGradient id="x" cx="52.101%" cy="30.594%" r="374.103%" fx="52.101%" fy="30.594%" gradientTransform="matrix(-.13043 0 0 -.25522 .589 .384)"><stop offset="0%"/><stop offset="100%" stop-opacity=".002"/></radialGradient><radialGradient id="C" cx="52.436%" cy="42.955%" r="61.91%" fx="52.436%" fy="42.955%" gradientTransform="matrix(-.58333 0 0 -.21136 .83 .52)"><stop offset="0%" stop-color="#172743"/><stop offset="100%" stop-opacity="0"/></radialGradient><rect id="i" width="72" height="80" x="3" rx="4.374"/></defs><g fill="none" fill-rule="evenodd" transform="translate(1 1)"><use xlink:href="#a" fill="#000" fill-opacity=".152"/><use xlink:href="#b" fill="#000" fill-opacity=".152"/><use xlink:href="#d" stroke="url(#c)" stroke-width="2"/><g transform="translate(6 19)"><ellipse cx="34" cy="82" fill="url(#e)" filter="url(#f)" opacity=".783" rx="33" ry="6" transform="rotate(1 34 82)"/><rect width="72" height="80" x="3" fill="url(#g)" rx="4.374"/><use xlink:href="#i" fill="#000" filter="url(#h)"/><use xlink:href="#i" stroke="url(#j)"/></g><g fill="#25395B" transform="translate(25 83)"><rect width="27" height="3" rx="1.5"/><rect width="27" height="3" y="5" rx="1.5"/></g><circle cx="39" cy="57" r="16" fill="#1B283E"/><path stroke="url(#k)" stroke-width=".3" d="M34.511 47.217v-2.485h1.757V43.52h-3.205v-1.598"/><path stroke="url(#l)" stroke-width=".3" d="M40.345 46v-2.114h2.328v-1.165H45.5"/><path stroke="url(#m)" stroke-width=".3" d="M37.384 67v3.39h-2.718v1.166H39V73"/><path stroke="url(#n)" stroke-width=".3" d="M41.56 67.491v2.05h-1.215v2.015H44"/><path stroke="url(#o)" stroke-width=".3" d="M29.72 52.057v-4.17h1.566V46h-4.422"/><path stroke="url(#p)" stroke-width=".3" d="M28.33 55h-1.49v-1.587h-1.27v-2.217h-1.272v-2.081H23"/><path stroke="url(#q)" stroke-width=".3" d="M28.33 57h-1.96v1.812H28v1.672h-2.865V58h-1.851"/><g opacity=".156"><use xlink:href="#s" fill="#000" filter="url(#r)"/><use xlink:href="#s" fill="url(#t)"/></g><use xlink:href="#v" fill="#000" filter="url(#u)"/><use xlink:href="#v" stroke="url(#w)"/><ellipse cx="43" cy="59" fill="url(#x)" filter="url(#y)" opacity=".605" rx="46" ry="6" transform="rotate(94 43 59)"/><path stroke="url(#z)" stroke-width=".3" d="M30.166 63.427h-3.302v2.895h3.302V68h2.412v3.556"/><g transform="translate(42 15)"><ellipse cx="34" cy="87" fill="url(#e)" filter="url(#A)" opacity=".783" rx="33" ry="6" transform="rotate(1 34 87)"/><g transform="translate(2)"><rect width="64" height="88" x="1" y="1" fill="#25395B" rx="4.374"/><rect width="66" height="88" fill="url(#B)" rx="4.374"/><rect width="66" height="88" fill="url(#B)" rx="4.374"/><rect width="62" height="84" x="2" y="2" fill="#1B283E" rx="4.374"/></g><g transform="rotate(83 -29.716 60.654)"><ellipse cx="5.527" cy="6.812" fill="url(#C)" filter="url(#D)" opacity=".899" rx="6" ry="3.5" transform="rotate(-81 5.527 6.812)"/><path stroke="url(#E)" stroke-width="3" d="M4 6c-6.036.388-2.343 6.035-3.066 11.183-.641 4.563 1.431 7.486 5.07 7.445" transform="scale(-1 1) rotate(-8 5.3 91.154)"/><path fill="#304972" d="M5.766 4.905 5.26 8.764a1 1 0 0 0 .834 1.117l.988.158a1 1 0 0 0 1.15-.857l.506-3.858a1 1 0 0 0-.834-1.118l-.988-.158a1 1 0 0 0-1.149.857z"/><path fill="url(#F)" d="m1.5 1.035 7.956-.07a1 1 0 0 1 1.008.965l.001.026A.975.975 0 0 1 9.5 2.965l-7.956.07A1 1 0 0 1 .536 2.07l-.001-.026A.975.975 0 0 1 1.5 1.035z" transform="scale(-1 1) rotate(83 -2.752 -1.792)"/></g></g><g transform="translate(53 23)"><use xlink:href="#H" fill="#000" filter="url(#G)"/><use xlink:href="#H" fill="url(#I)"/></g><path fill="url(#I)" d="M18 0h4v4h-4z" opacity=".252" style="mix-blend-mode:luminosity" transform="translate(53 23)"/><path fill="url(#I)" d="M36 0h4v4h-4z" transform="translate(53 23)"/><path fill="none" stroke="#9B67DA" stroke-width=".5" d="M62 23h4v4h-4z"/><path fill="url(#I)" d="M27 0h4v4h-4zm18 0h4v4h-4z" opacity=".252" style="mix-blend-mode:luminosity" transform="translate(53 23)"/><g opacity=".601"><g transform="translate(53 61.857)"><use xlink:href="#K" fill="#000" filter="url(#J)"/><use xlink:href="#K" fill="url(#I)"/></g><path fill="url(#I)" d="M18 0h4v4h-4z" opacity=".252" style="mix-blend-mode:luminosity" transform="translate(53 61.857)"/><path fill="url(#I)" d="M36 0h4v4h-4zM9 0h4v4H9z" transform="translate(53 61.857)"/><path fill="url(#I)" d="M27 0h4v4h-4zm18 0h4v4h-4z" opacity=".252" style="mix-blend-mode:luminosity" transform="translate(53 61.857)"/></g><g fill="url(#I)" transform="translate(53 32.714)"><path d="M0 0h4v4H0zm18 0h4v4h-4z" opacity=".252" style="mix-blend-mode:luminosity"/><path d="M36 0h4v4h-4zM9 0h4v4H9z"/><path d="M27 0h4v4h-4z" opacity=".252" style="mix-blend-mode:luminosity"/><path d="M45 0h4v4h-4z"/></g><g opacity=".402"><path fill="url(#I)" d="M0 0h4v4H0zm18 0h4v4h-4z" opacity=".252" style="mix-blend-mode:luminosity" transform="translate(53 71.571)"/><g transform="translate(53 71.571)"><use xlink:href="#M" fill="#000" filter="url(#L)"/><use xlink:href="#M" fill="url(#I)"/></g><path fill="none" stroke="#9B67DA" stroke-width=".5" d="M62 71.571h4v4h-4z"/><path fill="url(#I)" d="M27 0h4v4h-4z" opacity=".252" style="mix-blend-mode:luminosity" transform="translate(53 71.571)"/><path fill="url(#I)" d="M45 0h4v4h-4z" transform="translate(53 71.571)"/></g><path fill="url(#I)" d="M0 0h4v4H0zm18 0h4v4h-4z" opacity=".252" style="mix-blend-mode:luminosity" transform="translate(53 42.429)"/><g transform="translate(53 42.429)"><use xlink:href="#O" fill="#000" filter="url(#N)"/><use xlink:href="#O" fill="url(#I)"/></g><g transform="translate(53 42.429)"><use xlink:href="#Q" fill="#000" filter="url(#P)"/><use xlink:href="#Q" fill="url(#I)"/></g><path fill="url(#I)" d="M45 0h4v4h-4z" opacity=".252" style="mix-blend-mode:luminosity" transform="translate(53 42.429)"/><g opacity=".302"><path fill="url(#I)" d="M0 0h4v4H0zm18 0h4v4h-4z" opacity=".252" style="mix-blend-mode:luminosity" transform="translate(53 81.286)"/><path fill="url(#I)" d="M36 0h4v4h-4z" transform="translate(53 81.286)"/><g transform="translate(53 81.286)"><use xlink:href="#S" fill="#000" filter="url(#R)"/><use xlink:href="#S" fill="url(#I)"/></g><path fill="url(#I)" d="M27 0h4v4h-4z" transform="translate(53 81.286)"/><path fill="url(#I)" d="M45 0h4v4h-4z" opacity=".252" style="mix-blend-mode:luminosity" transform="translate(53 81.286)"/></g><path fill="url(#I)" d="M0 0h4v4H0zm18 0h4v4h-4zm18 0h4v4h-4z" transform="translate(53 52.143)"/><path fill="url(#I)" d="M9 0h4v4H9zm18 0h4v4h-4z" opacity=".252" style="mix-blend-mode:luminosity" transform="translate(53 52.143)"/><g transform="translate(53 52.143)"><use xlink:href="#U" fill="#000" filter="url(#T)"/><use xlink:href="#U" fill="url(#I)"/></g><g fill="url(#I)" opacity=".25" transform="translate(53 91)"><path d="M0 0h4v4H0zm18 0h4v4h-4z"/><path fill="none" stroke="#9B67DA" stroke-width=".5" d="M36 0h4v4h-4z"/><path d="M9 0h4v4H9zm18 0h4v4h-4z" opacity=".252" style="mix-blend-mode:luminosity"/><path d="M45 0h4v4h-4z"/></g><path fill="none" stroke="#9B67DA" stroke-width=".625" d="m80.53 46.421-.007-3.835a.375.375 0 0 1 .56-.327l3.378 1.916a.375.375 0 0 1 .001.651l-3.373 1.92a.375.375 0 0 1-.56-.325z"/><path fill="#FF65ED" d="M48.605 15h58.136a1.8 1.8 0 0 1 1.445 2.873L47.623 99.474a2 2 0 0 1-3.606-1.197l.214-78.915A4.374 4.374 0 0 1 48.605 15z" opacity=".078"/><path fill="#E992DE" d="M84 16 44 69.291l.396 6.209L91 16z" filter="url(#V)" opacity=".663" style="mix-blend-mode:overlay"/><g transform="translate(12 38)"><circle cx="26.828" cy="19.5" r="13.5" fill="#92BAE9" filter="url(#W)" opacity=".136" style="mix-blend-mode:overlay" transform="rotate(33 26.828 19.5)"/><circle cx="26.828" cy="19.5" r="7.5" fill="#BC5AEC" filter="url(#X)" transform="rotate(33 26.828 19.5)"/><path stroke="url(#Y)" stroke-width="2" d="M38.835 37.803 26.908 25.384 9.246 41.062 12.089 68.9" transform="scale(1 -1) rotate(-29 -158.242 0)"/><g transform="scale(1 -1) rotate(37 114.104 -11.58)"><circle cx="2.5" cy="2.5" r="2.5" fill="url(#Z)"/><path fill="#FFF" fill-opacity=".2" d="M.952 4.286A2.38 2.38 0 1 1 4.285.953 2.38 2.38 0 0 0 .953 4.285z"/></g><circle cx="26.794" cy="19.846" r="4" fill="url(#Z)" transform="scale(1 -1) rotate(37 86.108 0)"/><path fill="#FFF" fill-opacity=".4" d="M23.143 18.588a3.333 3.333 0 1 0 6.536.919 3.333 3.333 0 0 1-6.536-.919z"/><g transform="scale(1 -1) rotate(37 79.223 -13.528)"><circle cx="3.5" cy="3.5" r="3.5" fill="url(#Z)"/><path fill="#FFF" fill-opacity=".3" d="M1.333 6A3.333 3.333 0 1 1 6 1.333 3.333 3.333 0 0 0 1.333 6z"/></g></g></g></svg>