<svg xmlns="http://www.w3.org/2000/svg" xmlns:xlink="http://www.w3.org/1999/xlink" width="120" height="120.001"><defs><linearGradient id="linear-gradient" x1=".304" x2=".423" y2="1.727" gradientUnits="objectBoundingBox"><stop offset="0" stop-color="#f0b123"/><stop offset="1" stop-color="#1a2536"/></linearGradient><linearGradient id="linear-gradient-2" x1=".549" x2=".5" y1=".842" gradientUnits="objectBoundingBox"><stop offset="0" stop-color="#1b283e"/><stop offset="1" stop-color="#445d7f"/></linearGradient><linearGradient id="linear-gradient-4" x2=".887" y1=".5" y2=".5" gradientUnits="objectBoundingBox"><stop offset="0" stop-color="#f7b500" stop-opacity="0"/><stop offset="1" stop-color="#f7b500"/></linearGradient><linearGradient id="linear-gradient-5" x1=".057" x2="1.568" y1=".848" y2="-.245" xlink:href="#linear-gradient-2"/><linearGradient id="linear-gradient-6" x1=".945" x2="0" y1="0" y2=".5" xlink:href="#radial-gradient-7"/><linearGradient id="linear-gradient-7" x1=".878" x2="1" y1=".805" y2="-.091" xlink:href="#linear-gradient-2"/><linearGradient id="linear-gradient-8" x1=".065" x2="2.255" y1="0" y2="1.489" xlink:href="#linear-gradient-2"/><linearGradient id="linear-gradient-9" x1=".266" x2="1.208" y1=".232" y2=".5" xlink:href="#linear-gradient-2"/><linearGradient id="linear-gradient-10" x1=".5" x2=".5" y1="-.132" y2=".59" gradientUnits="objectBoundingBox"><stop offset="0" stop-color="#5b79a2"/><stop offset="1" stop-color="#1f3253"/></linearGradient><linearGradient id="linear-gradient-13" x1=".909" x2=".149" y1=".795" y2=".148" gradientUnits="objectBoundingBox"><stop offset="0" stop-color="#f19a1a"/><stop offset="1" stop-color="#ffc73c"/></linearGradient><radialGradient id="radial-gradient" cx=".5" cy=".698" r=".698" gradientUnits="objectBoundingBox"><stop offset="0" stop-color="#fec53a"/><stop offset="1" stop-color="#f19b1b"/></radialGradient><radialGradient id="radial-gradient-2" cx=".524" cy=".5" r=".488" gradientUnits="objectBoundingBox"><stop offset="0"/><stop offset="1" stop-opacity="0"/></radialGradient><radialGradient id="radial-gradient-3" cx=".521" cy=".306" r=".488" xlink:href="#radial-gradient-2"/><radialGradient id="radial-gradient-5" cx=".404" cy=".055" r="1.13" gradientUnits="objectBoundingBox"><stop offset="0" stop-color="#fac446"/><stop offset="1" stop-color="#fac446" stop-opacity="0"/></radialGradient><radialGradient id="radial-gradient-7" cx=".433" cy="-.182" r="2.079" gradientUnits="objectBoundingBox"><stop offset="0" stop-color="#5b79a2"/><stop offset="1" stop-color="#2e4469"/></radialGradient><radialGradient id="radial-gradient-10" cx=".5" cy=".5" r=".5" gradientUnits="objectBoundingBox"><stop offset="0" stop-color="#c08d17"/><stop offset="1" stop-color="#ffbe24" stop-opacity="0"/></radialGradient><clipPath id="clip-path"><circle id="Mask" cx="60" cy="60" r="60" fill="url(#radial-gradient)"/></clipPath><clipPath id="clip-path-2"><circle id="Mask-2" cx="60" cy="60" r="60" fill="none" stroke="#707070" stroke-miterlimit="10" data-name="Mask"/></clipPath><style>.cls-22{fill:none;stroke-miterlimit:10}.cls-5{opacity:.498;fill:url(#radial-gradient-2)}.cls-8{fill:url(#linear-gradient-2)}.cls-24,.cls-26{mix-blend-mode:soft-light}.cls-15,.cls-24,.cls-26{isolation:isolate}.cls-24,.cls-26{fill:url(#radial-gradient-5)}.cls-14{fill:url(#linear-gradient-4)}.cls-15{mix-blend-mode:overlay;fill:url(#radial-gradient-10)}.cls-17{fill:#fac446}.cls-19{fill:rgba(255,255,255,.3)}.cls-22{stroke:#fac446;stroke-linecap:round;stroke-linejoin:round}.cls-24{opacity:.413}</style></defs><g id="languages-obj-ori-constructs" transform="translate(-505 -387)"><g id="php-obj-oriented" transform="translate(505 387)"><g id="Group_19" data-name="Group 19"><circle id="Mask-3" cx="60" cy="60" r="60" fill="url(#linear-gradient)" data-name="Mask"/><g id="Group_19-2" clip-path="url(#clip-path)" data-name="Group 19"><ellipse id="shadow_copy_24" cx="20" cy="6" class="cls-5" data-name="shadow copy 24" rx="20" ry="6" transform="rotate(8 -528.576 73.104)"/><ellipse id="shadow_copy_13" cx="43" cy="12" fill="url(#radial-gradient-3)" data-name="shadow copy 13" opacity=".498" rx="43" ry="12" transform="translate(29 78)"/><ellipse id="shadow_copy_22" cx="20" cy="6" class="cls-5" data-name="shadow copy 22" rx="20" ry="6" transform="translate(38 105)"/></g></g><g id="Group_32" data-name="Group 32" transform="translate(25 18)"><g id="Group_21" data-name="Group 21"><path id="Path_100" d="M0 0l43.416 6.323v48.723L0 48.16z" class="cls-8" data-name="Path 100" transform="translate(11 9.308)"/><path id="Path_100_Copy" fill="url(#radial-gradient-5)" d="M0 0l43.416 6.323v48.723L0 48.16z" data-name="Path 100 Copy" transform="translate(11 9.308)" style="isolation:isolate;mix-blend-mode:soft-light" opacity=".253"/><ellipse id="shadow_copy_13-2" cx="24" cy="17" fill="url(#radial-gradient-3)" data-name="shadow copy 13" opacity=".783" rx="24" ry="17" transform="rotate(-90 37.5 37.5)"/><path id="Path_102" fill="url(#radial-gradient-7)" d="M27.126 0L0 9.308l43.416 6.323L66.9 5.4z" data-name="Path 102" transform="translate(11)"/><path id="Path_102_Copy" fill="url(#radial-gradient-5)" d="M27.126 0L0 9.308l43.416 6.323L66.9 5.4z" data-name="Path 102 Copy" transform="translate(11)" style="isolation:isolate;mix-blend-mode:soft-light" opacity=".226"/><path id="Path_103" d="M23.483 0v47.851L0 58.957V10.233z" class="cls-8" data-name="Path 103" transform="translate(54.416 5.398)"/><path id="Path_103_Copy" fill="url(#radial-gradient-5)" d="M23.483 0v47.851L0 58.957V10.233z" data-name="Path 103 Copy" transform="translate(54.416 5.398)" style="isolation:isolate;mix-blend-mode:soft-light" opacity=".365"/></g><path id="Union_1" d="M-1071.322 353.07v-48.081l-42.167-6.337a.6.6 0 01-.5-.683.6.6 0 01.682-.5l42.269 6.353a.6.6 0 01.189-.078l22.5-9.691a.6.6 0 01.788.314.6.6 0 01-.314.788c-15.5 6.675-20.554 8.872-22.244 9.577v48.338a.6.6 0 01-.6.6.6.6 0 01-.603-.6z" class="cls-14" data-name="Union 1" transform="translate(1125.155 -288.806)"/></g><g id="Group_35" data-name="Group 35" transform="translate(65 17)"><circle id="Oval_Copy_52" cx="13.5" cy="13.5" r="13.5" class="cls-15" data-name="Oval Copy 52" transform="translate(-27)"/><circle id="Oval_Copy_53" cx="7.5" cy="7.5" r="7.5" class="cls-15" data-name="Oval Copy 53" transform="translate(-21 6)"/><g id="Group_20_Copy_3" data-name="Group 20 Copy 3" transform="rotate(-175.99 -2.476 40.037)"><path id="Path_14_Copy_4" fill="none" stroke="#ffc73c" stroke-miterlimit="10" stroke-width="2" d="M27.764 17.136l-4.27-14.387L3.553 27.356l5.82 34.693" data-name="Path 14 Copy 4"/><circle id="Oval_5_Copy" cx="4" cy="4" r="4" class="cls-17" data-name="Oval 5 Copy" transform="translate(6.5 61.5)"/><path id="Combined_Shape" fill="rgba(255,255,255,0.4)" d="M1.327 6a3.333 3.333 0 012.007-6A3.307 3.307 0 016 1.333a3.334 3.334 0 00-4.671 4.661z" data-name="Combined Shape" transform="translate(7.115 62.133)"/><g id="Group_32_Copy_15" data-name="Group 32 Copy 15" transform="translate(0 24)"><circle id="Oval" cx="3.402" cy="3.402" r="3.402" class="cls-17"/><path id="Combined_Shape-2" d="M1.291 5.828A3.24 3.24 0 013.24 0a3.215 3.215 0 012.592 1.3A3.211 3.211 0 003.888.648a3.24 3.24 0 00-2.6 5.179z" class="cls-19" data-name="Combined Shape"/></g><g id="Group_32_Copy_15-2" data-name="Group 32 Copy 15" transform="translate(20.842 -.409)"><circle id="Oval-2" cx="2.653" cy="2.653" r="2.653" class="cls-17" data-name="Oval"/><path id="Combined_Shape-3" d="M1.007 4.545A2.527 2.527 0 012.527 0a2.508 2.508 0 012.021 1.011A2.5 2.5 0 003.032.505a2.527 2.527 0 00-2.024 4.039z" class="cls-19" data-name="Combined Shape"/></g></g></g><g id="Group_28" data-name="Group 28" transform="translate(10 45)"><g id="Group_23" data-name="Group 23"><g id="Group_21_Copy" data-name="Group 21 Copy"><path id="Path_100-2" fill="url(#linear-gradient-5)" d="M0 0l24.12 3.513v27.068L0 26.756z" data-name="Path 100" transform="translate(0 5.171)"/><path id="Path_100_Copy_2" fill="#101d33" d="M0 0l24.12 3.513v27.068L0 26.756z" data-name="Path 100 Copy 2" transform="translate(0 5.171)" style="isolation:isolate;mix-blend-mode:soft-light" opacity=".602"/><g id="Group_39" data-name="Group 39" transform="translate(3.897 10.831)"><path id="Path_108" d="M0 0l14.287 2" class="cls-22" data-name="Path 108"/><path id="Path_108_Copy" d="M0 0l16.371 2.357" class="cls-22" data-name="Path 108 Copy" transform="translate(.103 4.169)"/><path id="Path_108_Copy_2" d="M0 0l13.285 1.755" class="cls-22" data-name="Path 108 Copy 2" transform="translate(.103 8.169)"/><path id="Path_108_Copy_3" d="M0 0l16.371 2.357" class="cls-22" data-name="Path 108 Copy 3" transform="translate(.103 12.169)"/><path id="Path_108_Copy_4" d="M0 0l8.979 1.439" class="cls-22" data-name="Path 108 Copy 4" transform="translate(.103 16.169)"/></g><path id="Path_102-2" fill="url(#linear-gradient-6)" d="M15.07 0L0 5.171l24.12 3.513L37.166 3z" data-name="Path 102"/><path id="Path_102_Copy_2" d="M15.07 0L0 5.171l24.12 3.513L37.166 3z" class="cls-24" data-name="Path 102 Copy 2"/><path id="Path_103-2" fill="url(#linear-gradient-7)" d="M13.046 0v26.584L0 32.754V5.685z" data-name="Path 103" transform="translate(24.12 2.999)"/><path id="Path_103_Copy_2" d="M13.046 0v26.584L0 32.754V5.685z" class="cls-26" data-name="Path 103 Copy 2" transform="translate(24.12 2.999)"/></g></g></g><g id="Group_23_Copy" data-name="Group 23 Copy" transform="translate(40 75)"><g id="Group_21_Copy-2" data-name="Group 21 Copy"><path id="Path_100-3" fill="url(#linear-gradient-8)" d="M0 0l22.923 3.338v25.726L0 25.429z" data-name="Path 100" transform="translate(0 4.915)"/><path id="Path_100_Copy_3" fill="#2e4469" d="M0 0l22.923 3.338v25.726L0 25.429z" data-name="Path 100 Copy 3" transform="translate(0 4.915)" style="isolation:isolate;mix-blend-mode:soft-light" opacity=".602"/><g id="Group_39_Copy" data-name="Group 39 Copy" transform="translate(3 10)"><path id="Path_108-2" d="M0 0l15.846 2.216" class="cls-22" data-name="Path 108"/><path id="Path_108_Copy-2" d="M0 0l12.867 1.853" class="cls-22" data-name="Path 108 Copy" transform="translate(.103 4.169)"/><path id="Path_108_Copy_2-2" d="M0 0l13.285 1.755" class="cls-22" data-name="Path 108 Copy 2" transform="translate(.103 8.169)"/><path id="Path_108_Copy_3-2" d="M0 0l11.877 1.71" class="cls-22" data-name="Path 108 Copy 3" transform="translate(.103 12.169)"/><path id="Path_108_Copy_4-2" d="M0 0l13.824 2.216" class="cls-22" data-name="Path 108 Copy 4" transform="translate(.103 16.169)"/></g><path id="Path_102-3" fill="url(#linear-gradient-9)" d="M14.323 0L0 4.915l22.923 3.338 12.4-5.4z" data-name="Path 102"/><path id="Path_102_Copy_3" d="M14.323 0L0 4.915l22.923 3.338 12.4-5.4z" class="cls-24" data-name="Path 102 Copy 3"/><path id="Path_103-3" fill="url(#linear-gradient-10)" d="M12.4 0v25.265L0 31.129V5.4z" data-name="Path 103" transform="translate(22.923 2.85)"/><path id="Path_103_Copy_3" d="M12.4 0v25.265L0 31.129V5.4z" class="cls-26" data-name="Path 103 Copy 3" transform="translate(22.923 2.85)"/></g></g><path id="Union_2" d="M-1063.006 346.286l-.061-26.277-23.634-3.359a.35.35 0 01.1-.693l23.712 3.37a.417.417 0 01.042-.021l12.37-5.275a.35.35 0 01.274.644l-12.162 5.186.062 26.422a.336.336 0 01-.351.348.334.334 0 01-.352-.345z" class="cls-14" data-name="Union 2" transform="translate(1096.712 -265.944)"/><path id="Union_3" d="M-1064.146 345.071v-24.919l-22.553-3a.35.35 0 01.093-.694l22.249 2.96 12.313-5.384a.35.35 0 01.28.641l-11.686 5.111a.351.351 0 01.005.06v25.225a.335.335 0 01-.35.347.335.335 0 01-.351-.347z" class="cls-14" data-name="Union 3" transform="translate(1129.069 -237.504)"/></g><g id="Color_Crown_Shadow" data-name="Color Crown + Shadow" transform="translate(2961 777)"><g id="Color_Crown" data-name="Color Crown" transform="translate(-2456 -390)"><path id="Ring" fill="url(#linear-gradient-13)" d="M780 826a59.72 59.72 0 01-33.547-10.247 60.176 60.176 0 01-21.739-26.4 59.921 59.921 0 015.532-56.9 60.176 60.176 0 0126.4-21.738 59.92 59.92 0 0156.9 5.532 60.174 60.174 0 0121.738 26.4 59.923 59.923 0 01-5.532 56.9 60.174 60.174 0 01-26.4 21.739A59.623 59.623 0 01780 826zm0-118a57.729 57.729 0 00-32.429 9.905 58.167 58.167 0 00-21.014 25.518 57.924 57.924 0 005.348 55 58.169 58.169 0 0025.518 21.014 57.923 57.923 0 0055-5.348 58.17 58.17 0 0021.014-25.518 57.924 57.924 0 00-5.348-55 58.171 58.171 0 00-25.518-21.013A57.638 57.638 0 00780 708z" transform="translate(-720 -706)"/></g></g></g></svg>