<svg width="364" height="400" fill="none" xmlns="http://www.w3.org/2000/svg"><path opacity=".15" fill="url(#na1uxu2z5a)" d="M-143 0h507v400h-507z"/><path opacity=".558" fill-rule="evenodd" clip-rule="evenodd" d="M-10 153.014v190.25h63.686V195.578L-10 153.014z" fill="url(#kqc3qbpqeb)"/><g filter="url(#j2uqj5rb8c)"><path fill-rule="evenodd" clip-rule="evenodd" d="M157.898 75.933l-12.156 5.872-16.793 8.113v32.979l28.953-13.984-.004-32.98zm-34.736 89.42v-33.001l-16.519 7.904-47.17 22.55v33.312l63.689-30.765zM-10 153.014l63.682 42.564v-33.305l-33.269-21.911-.01-.009-.015-.008c-.112-.076-.206-.178-.31-.268-.091-.08-.196-.148-.276-.235l-.007-.011c-.094-.099-.159-.217-.238-.326-.073-.104-.16-.195-.217-.302l-.004-.011c-.065-.115-.105-.248-.152-.376-.047-.112-.108-.219-.137-.338v-.003c-.036-.141-.043-.286-.058-.429-.014-.109-.043-.22-.043-.329V60.065L2.156 48.836-10 40.72v112.295zM21.845 22.001L-7.097 35.978 21.837 55.32l28.939-13.981L21.837 22h.008zm15.05 105.365l16.79-8.11V46.617L41.53 52.488l-16.794 8.113v72.639l12.16-5.874zm89.162-76.049L97.119 65.296l28.938 19.34 28.935-13.981-28.935-19.338zm-2.895 38.065l-16.794-11.225-12.155-8.125v32.98l16.789 11.221 12.16 8.128v-32.98zM56.574 157.53l42.446-20.299 21.218-10.143-28.917-19.328-33.294 16.083L27.682 138.5l28.892 19.03z" fill="url(#q2j1lys7ed)"/></g><g opacity=".482"><g filter="url(#2ax88wnjwe)"><path fill-rule="evenodd" clip-rule="evenodd" d="M172.275 262.201V96.666l22.123 12.562v152.973h-22.123z" fill="url(#pk02ey7knf)"/></g><g filter="url(#5nkcgudfyg)"><path fill-rule="evenodd" clip-rule="evenodd" d="M194.398 262.201V109.228l22.124-12.482V262.2h-22.124z" fill="url(#d39qmbigvh)"/></g><g filter="url(#kk5t3fm8ni)"><path fill-rule="evenodd" clip-rule="evenodd" d="M172.275 96.745l21.969 12.799 22.278-12.799-22.278-12.957-21.969 12.957z" fill="url(#t9rnjp13hj)"/></g></g><g opacity=".147"><path fill-rule="evenodd" clip-rule="evenodd" d="M241.014 343.264V140.305l25.442 16.764v186.195h-25.442z" fill="url(#0146a6o19k)"/><path fill-rule="evenodd" clip-rule="evenodd" d="M266.456 343.264V156.973l25.443-16.668v202.959h-25.443z" fill="url(#0ioxosws3l)"/><g filter="url(#szvptxcnlm)"><path fill-rule="evenodd" clip-rule="evenodd" d="M241.014 140.396L266.278 157l25.621-16.604-25.621-14.901-25.264 14.901z" fill="url(#nqht49al5n)"/></g></g><g opacity=".065"><g filter="url(#4rwrqp7c9o)"><path fill-rule="evenodd" clip-rule="evenodd" d="M230.973 195.316V83.278l17.699 10.049v101.989h-17.699z" fill="url(#iwik52k2sp)"/></g><g filter="url(#f0ozwppvxq)"><path fill-rule="evenodd" clip-rule="evenodd" d="M248.672 195.315V93.327l17.699-9.986v111.974h-17.699z" fill="url(#nnj2rbp35r)"/></g><g filter="url(#tkbjczbr9s)"><path fill-rule="evenodd" clip-rule="evenodd" d="M230.973 83.34l17.575 10.24 17.823-10.24-17.823-10.365-17.575 10.366z" fill="url(#ecal3u84nt)"/></g></g><ellipse opacity=".491" rx="139.657" ry="19.333" transform="rotate(-10.498 1973.701 -607.158) skewX(-.001)" fill="url(#q50qq6zvou)"/><path d="M188.085 352.985h-68.479" stroke="url(#whowf1cecv)" stroke-width="4.634" stroke-linejoin="round"/><path fill-rule="evenodd" clip-rule="evenodd" d="M12.398 95.55c-.38-8.084 7.249-14.18 15.05-12.023l14.37 3.972 154.891 83.733a11.894 11.894 0 016.208 9.63l9.134 130.033a11.895 11.895 0 01-8.387 12.208L51.832 369.526l-13.531 1.8c-6.908.918-13.122-4.271-13.45-11.231L12.399 95.551z" fill="url(#00z9wmpbrw)"/><path fill-rule="evenodd" clip-rule="evenodd" d="M12.398 95.55c-.38-8.084 7.249-14.18 15.05-12.023l14.37 3.972 154.891 83.733a11.894 11.894 0 016.208 9.63l9.134 130.033a11.895 11.895 0 01-8.387 12.208L51.832 369.526l-13.531 1.8c-6.908.918-13.122-4.271-13.45-11.231L12.399 95.551z" fill="#1B283E"/><path fill-rule="evenodd" clip-rule="evenodd" d="M37.898 371.671c3.493 0 14.64-2.353 14.64-2.353l3.365-14.696-31.256.744s0 8.354 3.133 12.231c3.133 3.876 6.626 4.074 10.118 4.074z" fill="url(#t9kxajboex)"/><path opacity=".905" d="M19.64 84.732l.008-.004 14.333-4.865 8.87 17.322-29.746 4.128a45.735 45.735 0 01-.134-4.319c.025-1.345.12-2.79.349-4.118.23-1.338.586-2.51 1.104-3.338a13.648 13.648 0 013.47-3.745c.521-.383.971-.654 1.288-.829a7.642 7.642 0 01.458-.232z" fill="url(#j5ajmlmpny)" stroke="url(#r1ebynr7iz)" stroke-width="1.159"/><path fill-rule="evenodd" clip-rule="evenodd" d="M26.62 90.775c-.418-9.13 9.189-15.299 17.317-11.122l166.605 85.614a11.893 11.893 0 016.431 9.77l9.146 134.142a11.893 11.893 0 01-8.555 12.233L54.022 368.828c-7.392 2.144-14.843-3.192-15.194-10.88L26.619 90.775z" fill="url(#imip9yt5jA)"/><path opacity=".905" d="M43.673 80.168l166.605 85.614a11.316 11.316 0 016.117 9.294l9.146 134.143a11.315 11.315 0 01-8.138 11.637L53.861 368.272c-7.033 2.039-14.12-3.037-14.454-10.351L27.198 90.749c-.397-8.685 8.742-14.554 16.475-10.58z" fill="url(#ofxiehuigB)" stroke="url(#z7c12atteC)" stroke-width="1.159"/><g opacity=".35" filter="url(#bxdm1boj3D)"><path fill-rule="evenodd" clip-rule="evenodd" d="M37.572 99.262c-.418-9.127 9.185-15.297 17.313-11.125l156.081 80.123a11.895 11.895 0 016.434 9.772l8.579 125.695a11.895 11.895 0 01-8.557 12.235L64.207 360.338c-7.391 2.14-14.84-3.194-15.19-10.881L37.571 99.262z" fill="#0E151F"/></g><path fill-rule="evenodd" clip-rule="evenodd" d="M49.47 95.55c-.38-8.084 7.25-14.18 15.05-12.023L78.89 87.5l154.891 83.733a11.895 11.895 0 016.209 9.63l9.134 130.033a11.895 11.895 0 01-8.387 12.208L88.905 369.526l-13.531 1.8c-6.908.918-13.122-4.271-13.45-11.231L49.47 95.551z" fill="url(#gx50d3k1nE)"/><path fill-rule="evenodd" clip-rule="evenodd" d="M49.47 95.55c-.38-8.084 7.25-14.18 15.05-12.023L78.89 87.5l154.891 83.733a11.895 11.895 0 016.209 9.63l9.134 130.033a11.895 11.895 0 01-8.387 12.208L88.905 369.526l-13.531 1.8c-6.908.918-13.122-4.271-13.45-11.231L49.47 95.551z" fill="#1B283E"/><path opacity=".905" d="M56.713 84.732l.008-.004 14.333-4.865 8.87 17.322-29.746 4.128a45.735 45.735 0 01-.134-4.319c.025-1.345.12-2.79.348-4.118.23-1.338.587-2.51 1.105-3.338a13.648 13.648 0 013.47-3.745c.52-.383.97-.654 1.287-.829a7.642 7.642 0 01.459-.232z" fill="url(#14fw5cd6uF)" stroke="url(#3dpddoutlG)" stroke-width="1.159"/><path fill-rule="evenodd" clip-rule="evenodd" d="M74.935 371.671c3.492 0 14.692-2.459 14.692-2.459l3.312-14.59-31.285.644s.307 9.049 3.163 12.331c2.856 3.281 6.625 4.074 10.118 4.074z" fill="url(#4ujckoj1zH)"/><path fill-rule="evenodd" clip-rule="evenodd" d="M63.692 90.775c-.417-9.13 9.19-15.299 17.318-11.122l166.605 85.614a11.892 11.892 0 016.43 9.77l9.147 134.142a11.894 11.894 0 01-8.555 12.233L91.095 368.828c-7.393 2.144-14.843-3.192-15.194-10.88L63.692 90.775z" fill="url(#9gtovyo2fI)"/><path opacity=".705" fill-rule="evenodd" clip-rule="evenodd" d="M63.692 90.775c-.417-9.13 9.19-15.299 17.318-11.122l166.605 85.614a11.892 11.892 0 016.43 9.77l9.147 134.142a11.894 11.894 0 01-8.555 12.233L91.095 368.828c-7.393 2.144-14.843-3.192-15.194-10.88L63.692 90.775z" fill="url(#hkta81iayJ)"/><g filter="url(#58v1ab0p4K)"><path d="M171.939 213.543l85.583 20.216" stroke="url(#gcu3cp1c7L)" stroke-width="1.699" stroke-linecap="round" stroke-linejoin="round"/></g><g style="mix-blend-mode:hard-light" filter="url(#c29ll0gktM)"><ellipse cx="163.392" cy="213.543" rx="38.231" ry="37.845" fill="url(#iewrblafoN)"/></g><g style="mix-blend-mode:overlay" filter="url(#un6gk673oO)"><path clip-rule="evenodd" d="M63.692 90.775c-.417-9.13 9.19-15.299 17.318-11.122l166.605 85.614a11.892 11.892 0 016.43 9.77l9.147 134.142a11.894 11.894 0 01-8.555 12.233L91.095 368.828c-7.393 2.144-14.843-3.192-15.194-10.88L63.692 90.775z" stroke="url(#2eceo4q58P)" stroke-width="1.738"/></g><path d="M52.735 194.781c-24.715 0 3.818 53.826-6.775 67.42-15.48 19.865-47.996-25.426-19.66-24.522" stroke="#354D71" stroke-width="3.862"/><path d="M52.735 194.781c-24.715 0 3.818 53.826-6.775 67.42-15.48 19.865-47.996-25.426-19.66-24.522" stroke="url(#hv1dovm7vQ)" stroke-width="3.862"/><path fill-rule="evenodd" clip-rule="evenodd" d="M54.165 192.706c-1.947 2.131-1.663 3.193 0 5.013 1.663 1.82 6.465 1.09 6.465 1.09s1.234-1.975 1.234-3.951c0-1.975-1.233-3.95-1.233-3.95s-4.519-.333-6.466 1.798z" fill="url(#aebizhharR)"/><path fill-rule="evenodd" clip-rule="evenodd" d="M50.333 190.908c-2.102 2.131-1.795 6.081 0 7.901 1.796 1.82 7.795 0 7.795 0s1.332-1.975 1.332-3.951c0-1.975-1.332-3.95-1.332-3.95s-5.692-2.131-7.795 0z" fill="url(#z0ubyzjs3S)"/><path fill-rule="evenodd" clip-rule="evenodd" d="M24.987 236.305c-1.168 1.421-.998 2.129 0 3.342s3.879.727 3.879.727.74-1.317.74-2.634-.74-2.634-.74-2.634-2.711-.221-3.88 1.199z" fill="url(#haydr0jzaT)"/><path fill-rule="evenodd" clip-rule="evenodd" d="M22.688 235.106c-1.261 1.421-1.077 4.055 0 5.268s4.677 0 4.677 0 .799-1.317.799-2.634-.8-2.634-.8-2.634-3.415-1.42-4.676 0z" fill="url(#hiqiriyxtU)"/><g filter="url(#rzs1ndzieV)"><path d="M62.6 209.681l4.245 82.814" stroke="url(#kqz43tx8nW)" stroke-width="1.699" stroke-linecap="round" stroke-linejoin="round"/></g><path d="M192.101 355.258l-20.359-142.945" stroke="url(#q9t9phipfX)" stroke-width="4.634" stroke-linejoin="round"/><circle r="6.579" transform="scale(-1 1) rotate(-66 176.236 324.11)" fill="url(#0pv78r2t1Y)"/><path fill-rule="evenodd" clip-rule="evenodd" d="M196.017 350.257a6.238 6.238 0 00-2.673-2.924 6.265 6.265 0 11-4.447 11.58 6.266 6.266 0 007.12-8.656z" fill="#fff" fill-opacity=".2"/><circle r="11.747" transform="scale(-1 1) rotate(-66 77.566 238.907)" fill="url(#1zyejwp1pZ)"/><g filter="url(#068fiqnrxaa)"><circle r="11.747" transform="scale(-1 1) rotate(-66 77.566 238.907)" stroke="url(#bdq4s6nklab)" stroke-width="1.699" stroke-linecap="round" stroke-linejoin="round"/></g><path fill-rule="evenodd" clip-rule="evenodd" d="M181.441 209.011a9.358 9.358 0 00-4.011-4.387 9.398 9.398 0 11-6.668 17.372 9.361 9.361 0 005.916-.577c4.741-2.111 6.874-7.667 4.763-12.408z" fill="#fff" fill-opacity=".2"/><g style="mix-blend-mode:overlay" opacity=".667" filter="url(#288ccm97xac)"><path fill-rule="evenodd" clip-rule="evenodd" d="M167.892 241.347l4.047-7.588 15.635 107.201-7.207 2.304-12.475-101.917z" fill="url(#qjrs21g4qad)"/></g><defs><linearGradient id="na1uxu2z5a" x1="-153.529" y1="180.995" x2="363.863" y2="191.14" gradientUnits="userSpaceOnUse"><stop stop-color="#EC454F"/><stop offset="1" stop-color="#F44881" stop-opacity="0"/></linearGradient><linearGradient id="kqc3qbpqeb" x1="-6.389" y1="174.591" x2="-6.389" y2="343.264" gradientUnits="userSpaceOnUse"><stop stop-color="#EAA9C4"/><stop offset="1" stop-color="#C42E6C" stop-opacity=".01"/></linearGradient><linearGradient id="pk02ey7knf" x1="173.529" y1="115.44" x2="173.529" y2="262.201" gradientUnits="userSpaceOnUse"><stop stop-color="#EAA9C4"/><stop offset="1" stop-color="#C42E6C" stop-opacity=".01"/></linearGradient><linearGradient id="d39qmbigvh" x1="195.653" y1="115.51" x2="195.653" y2="262.201" gradientUnits="userSpaceOnUse"><stop stop-color="#E673A2"/><stop offset="1" stop-color="#C00D57" stop-opacity=".01"/></linearGradient><linearGradient id="t9rnjp13hj" x1="195.476" y1="113.54" x2="224.675" y2="78.951" gradientUnits="userSpaceOnUse"><stop stop-color="#EAA9C4"/><stop offset="1" stop-color="#C42E6C" stop-opacity=".01"/></linearGradient><linearGradient id="0146a6o19k" x1="242.456" y1="163.323" x2="242.456" y2="343.264" gradientUnits="userSpaceOnUse"><stop stop-color="#EAA9C4"/><stop offset="1" stop-color="#C42E6C" stop-opacity=".01"/></linearGradient><linearGradient id="0ioxosws3l" x1="267.899" y1="163.323" x2="267.899" y2="343.264" gradientUnits="userSpaceOnUse"><stop stop-color="#E673A2"/><stop offset="1" stop-color="#C00D57" stop-opacity=".01"/></linearGradient><linearGradient id="nqht49al5n" x1="267.696" y1="161.887" x2="303.716" y2="121.77" gradientUnits="userSpaceOnUse"><stop stop-color="#EAA9C4"/><stop offset="1" stop-color="#C42E6C" stop-opacity=".01"/></linearGradient><linearGradient id="iwik52k2sp" x1="231.977" y1="95.984" x2="231.977" y2="195.316" gradientUnits="userSpaceOnUse"><stop stop-color="#fff"/><stop offset="1" stop-color="#C42E6C" stop-opacity=".01"/></linearGradient><linearGradient id="nnj2rbp35r" x1="249.676" y1="96.04" x2="249.676" y2="195.315" gradientUnits="userSpaceOnUse"><stop stop-color="#E673A2"/><stop offset="1" stop-color="#C00D57" stop-opacity=".01"/></linearGradient><linearGradient id="ecal3u84nt" x1="249.534" y1="96.777" x2="272.893" y2="69.105" gradientUnits="userSpaceOnUse"><stop stop-color="#EAA9C4"/><stop offset="1" stop-color="#C42E6C" stop-opacity=".01"/></linearGradient><linearGradient id="whowf1cecv" x1="204.224" y1="352.893" x2="204.205" y2="351.525" gradientUnits="userSpaceOnUse"><stop stop-color="#FF7EA7"/><stop offset="1" stop-color="#F4487D" stop-opacity=".16"/></linearGradient><linearGradient id="j5ajmlmpny" x1="8.937" y1="81.785" x2="12.893" y2="101.22" gradientUnits="userSpaceOnUse"><stop stop-color="#B9437C"/><stop offset="1" stop-color="#1A2536"/></linearGradient><linearGradient id="r1ebynr7iz" x1="20.159" y1="96.392" x2="35.233" y2="83.215" gradientUnits="userSpaceOnUse"><stop stop-color="#D45D96" stop-opacity=".01"/><stop offset=".5" stop-color="#FED2E9"/><stop offset="1" stop-color="#C42E6C" stop-opacity=".01"/></linearGradient><linearGradient id="imip9yt5jA" x1="52.54" y1="129.338" x2="157.058" y2="323.326" gradientUnits="userSpaceOnUse"><stop stop-color="#5F80AB"/><stop offset="1" stop-color="#293F64"/></linearGradient><linearGradient id="ofxiehuigB" x1="4.157" y1="105.191" x2="100.41" y2="333.113" gradientUnits="userSpaceOnUse"><stop stop-color="#B9437C"/><stop offset="1" stop-color="#1A2536"/></linearGradient><linearGradient id="z7c12atteC" x1="75.937" y1="299.022" x2="220.397" y2="238.145" gradientUnits="userSpaceOnUse"><stop stop-color="#D45D96" stop-opacity=".01"/><stop offset=".5" stop-color="#FED2E9"/><stop offset="1" stop-color="#C42E6C" stop-opacity=".01"/></linearGradient><linearGradient id="14fw5cd6uF" x1="46.01" y1="81.785" x2="49.966" y2="101.22" gradientUnits="userSpaceOnUse"><stop stop-color="#B9437C"/><stop offset="1" stop-color="#1A2536"/></linearGradient><linearGradient id="3dpddoutlG" x1="57.231" y1="96.392" x2="72.306" y2="83.215" gradientUnits="userSpaceOnUse"><stop stop-color="#D45D96" stop-opacity=".01"/><stop offset=".5" stop-color="#FED2E9"/><stop offset="1" stop-color="#C42E6C" stop-opacity=".01"/></linearGradient><linearGradient id="9gtovyo2fI" x1="89.613" y1="129.338" x2="194.13" y2="323.326" gradientUnits="userSpaceOnUse"><stop stop-color="#5F80AB"/><stop offset="1" stop-color="#293F64"/></linearGradient><linearGradient id="hkta81iayJ" x1="90.14" y1="108.771" x2="145.695" y2="321.188" gradientUnits="userSpaceOnUse"><stop stop-color="#FE68AB"/><stop offset="1" stop-color="#293F64"/></linearGradient><linearGradient id="gcu3cp1c7L" x1="262.145" y1="223.931" x2="252.557" y2="202.56" gradientUnits="userSpaceOnUse"><stop stop-color="#F878B2" stop-opacity=".01"/><stop offset="1" stop-color="#EF437A"/></linearGradient><linearGradient id="iewrblafoN" x1="140.557" y1="209.01" x2="131.578" y2="266.097" gradientUnits="userSpaceOnUse"><stop stop-color="#F44881"/><stop offset="1" stop-color="#EC454F"/></linearGradient><linearGradient id="hv1dovm7vQ" x1="14.446" y1="284.256" x2="51.96" y2="282.783" gradientUnits="userSpaceOnUse"><stop stop-color="#82569D" stop-opacity=".769"/><stop offset="1" stop-color="#1C2D4B"/></linearGradient><linearGradient id="aebizhharR" x1="48.358" y1="191.855" x2="53.224" y2="200.335" gradientUnits="userSpaceOnUse"><stop stop-color="#3F213A"/><stop offset="1" stop-color="#132138"/></linearGradient><linearGradient id="z0ubyzjs3S" x1="43.664" y1="191.044" x2="49.659" y2="201.134" gradientUnits="userSpaceOnUse"><stop stop-color="#563050"/><stop offset="1" stop-color="#203454"/></linearGradient><linearGradient id="haydr0jzaT" x1="21.503" y1="235.738" x2="24.909" y2="241.081" gradientUnits="userSpaceOnUse"><stop stop-color="#2E4468"/><stop offset="1" stop-color="#132138"/></linearGradient><linearGradient id="hiqiriyxtU" x1="19.294" y1="236.458" x2="23.45" y2="241.527" gradientUnits="userSpaceOnUse"><stop stop-color="#844377"/><stop offset="1" stop-color="#203454"/></linearGradient><linearGradient id="kqz43tx8nW" x1="68.965" y1="243.071" x2="60.508" y2="242.638" gradientUnits="userSpaceOnUse"><stop stop-color="#F878B2" stop-opacity=".01"/><stop offset="1" stop-color="#EF437A"/></linearGradient><linearGradient id="q9t9phipfX" x1="285.276" y1="476.707" x2="367.432" y2="357.215" gradientUnits="userSpaceOnUse"><stop stop-color="#F4487D" stop-opacity=".16"/><stop offset="1" stop-color="#FF7EA7"/></linearGradient><linearGradient id="0pv78r2t1Y" x1="15.694" y1="6.886" x2="5.893" y2="-4.9" gradientUnits="userSpaceOnUse"><stop stop-color="#FB3B78"/><stop offset="1" stop-color="#EFC7D8"/></linearGradient><linearGradient id="1zyejwp1pZ" x1="28.025" y1="12.297" x2="10.524" y2="-8.75" gradientUnits="userSpaceOnUse"><stop stop-color="#FB3B78"/><stop offset="1" stop-color="#EFC7D8"/></linearGradient><linearGradient id="bdq4s6nklab" x1="24.764" y1="12.074" x2="12.464" y2="5.597" gradientUnits="userSpaceOnUse"><stop stop-color="#F878B2" stop-opacity=".01"/><stop offset="1" stop-color="#EF437A"/></linearGradient><linearGradient id="qjrs21g4qad" x1="154.2" y1="144.709" x2="265.799" y2="261.987" gradientUnits="userSpaceOnUse"><stop stop-color="#1F2C43" stop-opacity=".045"/><stop offset="1" stop-color="#040507"/></linearGradient><filter id="j2uqj5rb8c" x="-31.255" y=".745" width="210.411" height="216.628" filterUnits="userSpaceOnUse" color-interpolation-filters="sRGB"><feFlood flood-opacity="0" result="BackgroundImageFix"/><feColorMatrix in="SourceAlpha" values="0 0 0 0 0 0 0 0 0 0 0 0 0 0 0 0 0 0 127 0" result="hardAlpha"/><feOffset/><feGaussianBlur stdDeviation="10.627"/><feColorMatrix values="0 0 0 0 0.951002 0 0 0 0 0.370525 0 0 0 0 0.610455 0 0 0 1 0"/><feBlend in2="BackgroundImageFix" result="effect1_dropShadow_4446_52699"/><feBlend in="SourceGraphic" in2="effect1_dropShadow_4446_52699" result="shape"/></filter><filter id="2ax88wnjwe" x="151.02" y="75.411" width="64.634" height="208.045" filterUnits="userSpaceOnUse" color-interpolation-filters="sRGB"><feFlood flood-opacity="0" result="BackgroundImageFix"/><feColorMatrix in="SourceAlpha" values="0 0 0 0 0 0 0 0 0 0 0 0 0 0 0 0 0 0 127 0" result="hardAlpha"/><feOffset/><feGaussianBlur stdDeviation="10.627"/><feColorMatrix values="0 0 0 0 0.951002 0 0 0 0 0.370525 0 0 0 0 0.610455 0 0 0 1 0"/><feBlend in2="BackgroundImageFix" result="effect1_dropShadow_4446_52699"/><feBlend in="SourceGraphic" in2="effect1_dropShadow_4446_52699" result="shape"/></filter><filter id="5nkcgudfyg" x="173.143" y="75.491" width="64.634" height="207.965" filterUnits="userSpaceOnUse" color-interpolation-filters="sRGB"><feFlood flood-opacity="0" result="BackgroundImageFix"/><feColorMatrix in="SourceAlpha" values="0 0 0 0 0 0 0 0 0 0 0 0 0 0 0 0 0 0 127 0" result="hardAlpha"/><feOffset/><feGaussianBlur stdDeviation="10.627"/><feColorMatrix values="0 0 0 0 0.951002 0 0 0 0 0.370525 0 0 0 0 0.610455 0 0 0 1 0"/><feBlend in2="BackgroundImageFix" result="effect1_dropShadow_4446_52699"/><feBlend in="SourceGraphic" in2="effect1_dropShadow_4446_52699" result="shape"/></filter><filter id="kk5t3fm8ni" x="151.02" y="62.533" width="86.757" height="68.266" filterUnits="userSpaceOnUse" color-interpolation-filters="sRGB"><feFlood flood-opacity="0" result="BackgroundImageFix"/><feColorMatrix in="SourceAlpha" values="0 0 0 0 0 0 0 0 0 0 0 0 0 0 0 0 0 0 127 0" result="hardAlpha"/><feOffset/><feGaussianBlur stdDeviation="10.627"/><feColorMatrix values="0 0 0 0 0.951002 0 0 0 0 0.370525 0 0 0 0 0.610455 0 0 0 1 0"/><feBlend in2="BackgroundImageFix" result="effect1_dropShadow_4446_52699"/><feBlend in="SourceGraphic" in2="effect1_dropShadow_4446_52699" result="shape"/></filter><filter id="szvptxcnlm" x="215.508" y="99.989" width="101.897" height="82.516" filterUnits="userSpaceOnUse" color-interpolation-filters="sRGB"><feFlood flood-opacity="0" result="BackgroundImageFix"/><feColorMatrix in="SourceAlpha" values="0 0 0 0 0 0 0 0 0 0 0 0 0 0 0 0 0 0 127 0" result="hardAlpha"/><feOffset/><feGaussianBlur stdDeviation="12.753"/><feColorMatrix values="0 0 0 0 0.951002 0 0 0 0 0.370525 0 0 0 0 0.610455 0 0 0 1 0"/><feBlend in2="BackgroundImageFix" result="effect1_dropShadow_4446_52699"/><feBlend in="SourceGraphic" in2="effect1_dropShadow_4446_52699" result="shape"/></filter><filter id="4rwrqp7c9o" x="213.969" y="66.274" width="51.707" height="146.046" filterUnits="userSpaceOnUse" color-interpolation-filters="sRGB"><feFlood flood-opacity="0" result="BackgroundImageFix"/><feColorMatrix in="SourceAlpha" values="0 0 0 0 0 0 0 0 0 0 0 0 0 0 0 0 0 0 127 0" result="hardAlpha"/><feOffset/><feGaussianBlur stdDeviation="8.502"/><feColorMatrix values="0 0 0 0 0.951002 0 0 0 0 0.370525 0 0 0 0 0.610455 0 0 0 1 0"/><feBlend in2="BackgroundImageFix" result="effect1_dropShadow_4446_52699"/><feBlend in="SourceGraphic" in2="effect1_dropShadow_4446_52699" result="shape"/></filter><filter id="f0ozwppvxq" x="231.668" y="66.337" width="51.707" height="145.982" filterUnits="userSpaceOnUse" color-interpolation-filters="sRGB"><feFlood flood-opacity="0" result="BackgroundImageFix"/><feColorMatrix in="SourceAlpha" values="0 0 0 0 0 0 0 0 0 0 0 0 0 0 0 0 0 0 127 0" result="hardAlpha"/><feOffset/><feGaussianBlur stdDeviation="8.502"/><feColorMatrix values="0 0 0 0 0.951002 0 0 0 0 0.370525 0 0 0 0 0.610455 0 0 0 1 0"/><feBlend in2="BackgroundImageFix" result="effect1_dropShadow_4446_52699"/><feBlend in="SourceGraphic" in2="effect1_dropShadow_4446_52699" result="shape"/></filter><filter id="tkbjczbr9s" x="213.969" y="55.971" width="69.406" height="54.612" filterUnits="userSpaceOnUse" color-interpolation-filters="sRGB"><feFlood flood-opacity="0" result="BackgroundImageFix"/><feColorMatrix in="SourceAlpha" values="0 0 0 0 0 0 0 0 0 0 0 0 0 0 0 0 0 0 127 0" result="hardAlpha"/><feOffset/><feGaussianBlur stdDeviation="8.502"/><feColorMatrix values="0 0 0 0 0.951002 0 0 0 0 0.370525 0 0 0 0 0.610455 0 0 0 1 0"/><feBlend in2="BackgroundImageFix" result="effect1_dropShadow_4446_52699"/><feBlend in="SourceGraphic" in2="effect1_dropShadow_4446_52699" result="shape"/></filter><filter id="bxdm1boj3D" x="29.161" y="78.409" width="205.244" height="290.803" filterUnits="userSpaceOnUse" color-interpolation-filters="sRGB"><feFlood flood-opacity="0" result="BackgroundImageFix"/><feBlend in="SourceGraphic" in2="BackgroundImageFix" result="shape"/><feGaussianBlur stdDeviation="4.199" result="effect1_foregroundBlur_4446_52699"/></filter><filter id="58v1ab0p4K" x="164.712" y="206.316" width="100.035" height="34.669" filterUnits="userSpaceOnUse" color-interpolation-filters="sRGB"><feFlood flood-opacity="0" result="BackgroundImageFix"/><feColorMatrix in="SourceAlpha" values="0 0 0 0 0 0 0 0 0 0 0 0 0 0 0 0 0 0 127 0" result="hardAlpha"/><feOffset/><feGaussianBlur stdDeviation="3.188"/><feColorMatrix values="0 0 0 0 1 0 0 0 0 0.0915968 0 0 0 0 0.385646 0 0 0 1 0"/><feBlend in2="BackgroundImageFix" result="effect1_dropShadow_4446_52699"/><feBlend in="SourceGraphic" in2="effect1_dropShadow_4446_52699" result="shape"/></filter><filter id="c29ll0gktM" x="51.68" y="102.216" width="223.425" height="222.653" filterUnits="userSpaceOnUse" color-interpolation-filters="sRGB"><feFlood flood-opacity="0" result="BackgroundImageFix"/><feBlend in="SourceGraphic" in2="BackgroundImageFix" result="shape"/><feGaussianBlur stdDeviation="36.741" result="effect1_foregroundBlur_4446_52699"/></filter><filter id="un6gk673oO" x="48.994" y="63.634" width="228.91" height="320.356" filterUnits="userSpaceOnUse" color-interpolation-filters="sRGB"><feFlood flood-opacity="0" result="BackgroundImageFix"/><feColorMatrix in="SourceAlpha" values="0 0 0 0 0 0 0 0 0 0 0 0 0 0 0 0 0 0 127 0" result="hardAlpha"/><feOffset/><feGaussianBlur stdDeviation="6.908"/><feColorMatrix values="0 0 0 0 1 0 0 0 0 0.794627 0 0 0 0 0.903282 0 0 0 1 0"/><feBlend in2="BackgroundImageFix" result="effect1_dropShadow_4446_52699"/><feBlend in="SourceGraphic" in2="effect1_dropShadow_4446_52699" result="shape"/></filter><filter id="rzs1ndzieV" x="55.375" y="202.455" width="18.697" height="97.266" filterUnits="userSpaceOnUse" color-interpolation-filters="sRGB"><feFlood flood-opacity="0" result="BackgroundImageFix"/><feColorMatrix in="SourceAlpha" values="0 0 0 0 0 0 0 0 0 0 0 0 0 0 0 0 0 0 127 0" result="hardAlpha"/><feOffset/><feGaussianBlur stdDeviation="3.188"/><feColorMatrix values="0 0 0 0 1 0 0 0 0 0.0915968 0 0 0 0 0.385646 0 0 0 1 0"/><feBlend in2="BackgroundImageFix" result="effect1_dropShadow_4446_52699"/><feBlend in="SourceGraphic" in2="effect1_dropShadow_4446_52699" result="shape"/></filter><filter id="068fiqnrxaa" x="153.258" y="193.618" width="37.953" height="37.953" filterUnits="userSpaceOnUse" color-interpolation-filters="sRGB"><feFlood flood-opacity="0" result="BackgroundImageFix"/><feColorMatrix in="SourceAlpha" values="0 0 0 0 0 0 0 0 0 0 0 0 0 0 0 0 0 0 127 0" result="hardAlpha"/><feOffset/><feGaussianBlur stdDeviation="3.188"/><feColorMatrix values="0 0 0 0 1 0 0 0 0 0.0915968 0 0 0 0 0.385646 0 0 0 1 0"/><feBlend in2="BackgroundImageFix" result="effect1_dropShadow_4446_52699"/><feBlend in="SourceGraphic" in2="effect1_dropShadow_4446_52699" result="shape"/></filter><filter id="288ccm97xac" x="146.898" y="212.764" width="61.671" height="151.494" filterUnits="userSpaceOnUse" color-interpolation-filters="sRGB"><feFlood flood-opacity="0" result="BackgroundImageFix"/><feBlend in="SourceGraphic" in2="BackgroundImageFix" result="shape"/><feGaussianBlur stdDeviation="10.497" result="effect1_foregroundBlur_4446_52699"/></filter><radialGradient id="q2j1lys7ed" cx="0" cy="0" r="1" gradientUnits="userSpaceOnUse" gradientTransform="matrix(0 177.272 -330.037 0 73.95 109.059)"><stop stop-color="#fff"/><stop offset="1" stop-color="#C42E6C"/></radialGradient><radialGradient id="q50qq6zvou" cx="0" cy="0" r="1" gradientUnits="userSpaceOnUse" gradientTransform="matrix(142.37894 -3.66084 .3923 15.25736 139.169 22.839)"><stop/><stop offset="1" stop-opacity=".01"/></radialGradient><radialGradient id="00z9wmpbrw" cx="0" cy="0" r="1" gradientUnits="userSpaceOnUse" gradientTransform="matrix(14.9986 257.0548 -176.5687 10.3024 21.072 90.692)"><stop stop-color="#31344A"/><stop offset="1" stop-color="#1B283E"/></radialGradient><radialGradient id="t9kxajboex" cx="0" cy="0" r="1" gradientUnits="userSpaceOnUse" gradientTransform="matrix(-.20754 -16.29938 27.40728 -.34897 28.433 372.705)"><stop stop-color="#5F658A"/><stop offset="1" stop-color="#1B283E"/></radialGradient><radialGradient id="gx50d3k1nE" cx="0" cy="0" r="1" gradientUnits="userSpaceOnUse" gradientTransform="matrix(14.9986 257.0548 -176.5687 10.3024 58.145 90.692)"><stop stop-color="#31344A"/><stop offset="1" stop-color="#1B283E"/></radialGradient><radialGradient id="4ujckoj1zH" cx="0" cy="0" r="1" gradientUnits="userSpaceOnUse" gradientTransform="matrix(-.2243 -16.36976 27.34623 -.37469 65.535 372.67)"><stop stop-color="#5F658A"/><stop offset="1" stop-color="#1B283E"/></radialGradient><radialGradient id="2eceo4q58P" cx="0" cy="0" r="1" gradientUnits="userSpaceOnUse" gradientTransform="matrix(50.39342 251.35414 -338.09698 67.7843 147.495 84.156)"><stop stop-color="#fff"/><stop offset="1" stop-color="#C42E6C" stop-opacity=".01"/></radialGradient></defs></svg>