<svg width="120" height="129" fill="none" xmlns="http://www.w3.org/2000/svg"><mask id="a" style="mask-type:alpha" maskUnits="userSpaceOnUse" x="0" y="0" width="120" height="120"><circle cx="60" cy="60" r="60" fill="#151F32"/></mask><g mask="url(#a)"><path fill="#151F32" d="M.685 0h119.156v119.156H.685z"/></g><circle cx="60" cy="60" r="59" stroke="url(#u2fw9saw0b)" stroke-width="2"/><mask id="b" style="mask-type:alpha" maskUnits="userSpaceOnUse" x="1" y="0" width="118" height="118"><circle cx="60" cy="59" r="59" fill="#151F32"/></mask><g mask="url(#b)"><path d="M80.401 74.827l-2.067 1.714a31.457 31.457 0 00-33.053.962l.027-2.99c-6.86 6.757-23.981 20.237-20.703 33.899 1.667 6.943 6.892 8.635 11.637 7.725a74.31 74.31 0 005.751 10.525l40.799.363a89.747 89.747 0 005.758-10.458c4.775 1.072 10.14-.48 11.953-7.48 3.518-13.601-13.365-27.384-20.102-34.26z" fill="url(#rps3ukuj0d)"/><path opacity=".4" d="M80.401 74.827l-2.067 1.714a31.457 31.457 0 00-33.053.962l.027-2.99c-6.86 6.757-23.981 20.237-20.703 33.899 1.667 6.943 6.892 8.635 11.637 7.725a74.31 74.31 0 005.751 10.525l40.799.363a89.747 89.747 0 005.758-10.458c4.775 1.072 10.14-.48 11.953-7.48 3.518-13.601-13.365-27.384-20.102-34.26z" fill="url(#tz3apcu1xe)"/><path opacity=".1" d="M96 103.731C96 114.373 81.001 123 62.5 123c-18.502 0-33.5-8.627-33.5-19.269C29 93.089 41 113 61 113c21.024 0 35-19.91 35-9.269z" fill="url(#15y5xqm4qf)"/><path fill-rule="evenodd" clip-rule="evenodd" d="M87.145 80.937l-6.399-4.465-36.437 6.465-16.734 10.192 11.598 13.118 34.535 1.495 17.84-22.157-4.403-4.648z" fill="url(#8agibej70g)"/><path opacity=".1" fill-rule="evenodd" clip-rule="evenodd" d="M80.454 70.373a25.38 25.38 0 01-3.004 3.611 597.678 597.678 0 01-7.362 8.894l-.457.54-.23.272-.462.543-.232.272-.698.815-.466.54c-2.829 3.274 6.189 8.482 9.24 9.532 3.216 1.107 6.595-2.782 6.595-2.782l8.17-7.025s-4.9 20.687-21.894 20.536c-7.067-.063-15.883-4.857-20.308-10.405-4.762-5.985-17.598.111-17.846-3.106-1.774-1.312 8.388-16.534 7.025-18.213 6.498 4.036 14.754 6.486 23.76 6.566 10.558.094 11.181-5.353 18.148-10.575l.02-.016z" fill="url(#e6i3ky1ymh)"/></g><path opacity=".204" d="M83.5 99c-2.581 6.792-1.33 16.988 4.695 19.278 6.025 2.289 11.44-.779 14.022-7.57 2.581-6.792 1.349-14.736-4.675-17.025C91.52 91.394 86.081 92.21 83.5 99z" fill="url(#nv3152zwdi)"/><path d="M81.117 104.155c-.065 7.265 5.105 13.201 11.55 13.259 6.445.057 11.719-5.786 11.783-13.052.065-7.265-5.106-13.201-11.55-13.258-6.443-.058-11.718 5.787-11.783 13.051z" fill="url(#928crtp2hj)"/><path d="M81.117 104.155c-.065 7.265 5.105 13.201 11.55 13.259 6.445.057 11.719-5.786 11.783-13.052.065-7.265-5.106-13.201-11.55-13.258-6.443-.058-11.718 5.787-11.783 13.051z" fill="url(#ld6c83r8lk)"/><path opacity=".3" d="M81.117 104.155c-.065 7.265 5.105 13.201 11.55 13.259 6.445.057 11.719-5.786 11.783-13.052.065-7.265-5.106-13.201-11.55-13.258-6.443-.058-11.718 5.787-11.783 13.051z" fill="url(#54z56ao4ql)"/><path opacity=".3" fill-rule="evenodd" clip-rule="evenodd" d="M98.05 115.835c3.62-2.207 6.097-6.508 6.141-11.473.065-7.265-5.106-13.201-11.55-13.258-3.974-.036-7.504 2.175-9.641 5.578a10.603 10.603 0 015.642-1.578c6.443.057 11.614 5.993 11.549 13.258-.024 2.784-.814 5.359-2.141 7.473z" fill="#fff" fill-opacity=".06"/><ellipse opacity=".3" cx="86.177" cy="94.94" rx="11.5" ry="2" transform="rotate(-26.616 86.177 94.94)" fill="url(#vedml9ufxm)"/><ellipse opacity=".3" cx="91.128" cy="105.93" rx="5" ry="6.5" transform="rotate(157.201 91.128 105.93)" fill="url(#j4x2i32gln)"/><path opacity=".204" d="M21.746 100.836c-2.581 6.791.207 14.152 6.232 16.442 6.025 2.289 11.44-.779 14.022-7.57 2.581-6.792 1.349-14.736-4.675-17.025-6.023-2.289-12.999 1.362-15.58 8.153z" fill="url(#gvmn84dxuo)"/><path d="M20.746 99.836c-2.581 6.791.207 14.152 6.232 16.442 6.025 2.289 12.999-1.361 15.58-8.153 2.581-6.791-.21-14.153-6.233-16.442-6.023-2.289-12.999 1.362-15.58 8.153z" fill="url(#xfbprai0zp)"/><path opacity=".3" d="M20.746 99.836c-2.581 6.791.207 14.152 6.232 16.442 6.025 2.289 12.999-1.361 15.58-8.153 2.581-6.791-.21-14.153-6.233-16.442-6.023-2.289-12.999 1.362-15.58 8.153z" fill="url(#jy0xz7yftq)"/><ellipse opacity=".3" cx="33.878" cy="106.406" rx="5" ry="6.5" transform="rotate(36.304 33.878 106.406)" fill="url(#eq4qwyrmor)"/><path opacity=".5" fill-rule="evenodd" clip-rule="evenodd" d="M26.142 115.94c-3.62-2.208-6.097-6.509-6.141-11.473-.065-7.266 5.106-13.202 11.55-13.259 3.974-.035 7.504 2.175 9.641 5.579-1.678-1.023-3.601-1.597-5.642-1.579-6.443.057-11.614 5.993-11.55 13.259.025 2.783.815 5.358 2.142 7.473z" fill="url(#8b1yid32ys)"/><ellipse opacity=".3" cx="31.5" cy="92" rx="11.5" ry="2" fill="url(#21o6czcpmt)"/><ellipse opacity=".3" cx="85.5" cy="92" rx="11.5" ry="2" transform="rotate(-32.719 85.5 92)" fill="url(#uep3c2n1gu)"/><path d="M64.071 53.827c2.972 17.682 18.002 29.896 35.643 26.93 17.641-2.965 18.468-16.359 18.437-34.288-.037-20.787-9.88-32.993-27.52-30.028-17.617 2.931-29.507 19.669-26.56 37.386z" fill="url(#89tzja4zjv)"/><path opacity=".1" fill-rule="evenodd" clip-rule="evenodd" d="M63.66 49.974c3.416 17.06 18.174 28.684 35.431 25.783 17.641-2.965 18.469-16.359 18.437-34.288a60.683 60.683 0 00-.166-4.44c.517 2.9.783 6.057.789 9.44.031 17.93-.796 31.323-18.437 34.288-17.641 2.966-32.67-9.248-35.643-26.93a33.04 33.04 0 01-.411-3.853z" fill="url(#0mleenmmpw)"/><path fill-rule="evenodd" clip-rule="evenodd" d="M98.014 70.646c5.873-.987 7.204-3.147 8.064-5.276 1.73-4.274 1.857-11.374 1.844-18.892-.015-8.52-2.039-15.113-5.553-18.088-3.476-2.942-8.415-2.112-10.038-1.839-12.044 2.02-20.172 13.462-18.173 25.58a23.349 23.349 0 008.475 14.786 19.3 19.3 0 0015.381 3.729z" fill="url(#ae5vm9b93x)"/><path d="M57.348 54.957C60.32 72.639 50.11 89.095 32.469 92.06 14.828 95.026 9.667 82.64 3.835 65.686-2.927 46.03 2.383 31.276 20.023 28.31a32.241 32.241 0 0124.137 5.562 32.615 32.615 0 0113.188 21.085z" fill="url(#jaiw5rr0gy)"/><path opacity=".1" fill-rule="evenodd" clip-rule="evenodd" d="M56.547 51.436c2.254 17.168-7.881 32.877-25.078 35.768C13.828 90.17 8.667 77.784 2.835 60.83a60.207 60.207 0 01-1.382-4.584c.454 2.987 1.248 6.145 2.382 9.44C9.667 82.64 14.828 95.026 32.469 92.06 50.11 89.094 60.32 72.64 57.348 54.957a32.713 32.713 0 00-.8-3.521z" fill="url(#2w9brii0iz)"/><path fill-rule="evenodd" clip-rule="evenodd" d="M30.77 81.95c-5.874.987-7.837-.619-9.346-2.35-3.032-3.473-5.474-10.141-7.92-17.25-2.771-8.055-3.02-14.944-.663-18.91 2.32-3.916 7.266-4.748 8.882-5.02 12.042-2.029 23.465 6.126 25.537 18.233a23.348 23.348 0 01-3.175 16.744A19.3 19.3 0 0130.77 81.95z" fill="url(#3bp9vo6d9A)"/><path d="M80.237 86.92c-3.197-.503-3.764-3.4-1.544-7.127 3.286-5.529 6.584-11.442 7.702-13.46a25.555 25.555 0 004.292-18.705c-2.503-14.898-18.08-24.691-34.792-21.882-16.713 2.81-28.232 17.158-25.729 32.048 1.49 8.118 6.707 15.058 14.07 18.72.807 3.132 3.218 10.452 8.968 15.528 5.339 4.703 14.883 7.894 21.872 6.719 10.34-1.739 14.95-6.45 16.967-9.817 1.18-1.972-.124-4.186-2.32-4.861-2.033-.625-4.18.318-5.845 1.641-1.006.8-2.264 1.412-3.641 1.195z" fill="url(#k2xh1d5fbB)"/><path opacity=".4" d="M80.237 86.92c-3.197-.503-3.764-3.4-1.544-7.127 3.286-5.529 6.584-11.442 7.702-13.46a25.555 25.555 0 004.292-18.705c-2.503-14.898-18.08-24.691-34.792-21.882-16.713 2.81-28.232 17.158-25.729 32.048 1.49 8.118 6.707 15.058 14.07 18.72.807 3.132 3.218 10.452 8.968 15.528 5.339 4.703 14.883 7.894 21.872 6.719 10.34-1.739 14.95-6.45 16.967-9.817 1.18-1.972-.124-4.186-2.32-4.861-2.033-.625-4.18.318-5.845 1.641-1.006.8-2.264 1.412-3.641 1.195z" fill="url(#inam2o08vC)"/><path opacity=".1" fill-rule="evenodd" clip-rule="evenodd" d="M38.895 33.954c-4.455 5.738-6.588 12.895-5.363 20.18a26.218 26.218 0 008.5 14.986c3.211 2.815 6.036 6.182 7.85 10.047 1.432 3.048 3.569 6.462 6.687 9.215 5.34 4.703 14.884 7.894 21.873 6.72 6.238-1.05 10.39-3.18 13.146-5.444-2.224 3.288-6.883 7.484-16.512 9.103-6.99 1.175-16.533-2.016-21.872-6.72-3.12-2.753-5.256-6.167-6.687-9.215-1.815-3.865-4.64-7.232-7.851-10.046a26.219 26.219 0 01-8.5-14.986c-1.502-8.933 2.044-17.671 8.73-23.84z" fill="url(#pwxp8kyn8D)"/><path d="M48.512 66.041a2.56 2.56 0 002.097-2.952 2.56 2.56 0 00-2.947-2.104 2.56 2.56 0 00-2.097 2.952 2.56 2.56 0 002.947 2.104zm27.481-3.827a2.56 2.56 0 002.097-2.952 2.56 2.56 0 00-2.947-2.104 2.56 2.56 0 00-2.097 2.952 2.56 2.56 0 002.947 2.104z" fill="#10192A"/><path opacity=".398" d="M70.903 67.029c6.642 4.907 16.005 3.5 20.913-3.142 4.908-6.642 3.501-16.005-3.141-20.913-6.643-4.907-16.006-3.501-20.913 3.142-4.908 6.642-3.502 16.005 3.14 20.913z" fill="url(#mcxpboykxE)"/><path opacity=".3" d="M70.903 67.029c6.642 4.907 16.005 3.5 20.913-3.142 4.908-6.642 3.501-16.005-3.141-20.913-6.643-4.907-16.006-3.501-20.913 3.142-4.908 6.642-3.502 16.005 3.14 20.913z" fill="url(#gygeldspyF)"/><path opacity=".309" fill-rule="evenodd" clip-rule="evenodd" d="M79.115 60.708c3.971 2.934 8.926 3.594 13.318 2.215-.2.318-.413.63-.64.937-4.92 6.662-14.28 8.095-20.903 3.201-6.624-4.893-8.003-14.26-3.082-20.922a14.987 14.987 0 017.586-5.417c-4.144 6.578-2.598 15.318 3.72 19.986z" fill="url(#brnu0r1baG)"/><path opacity=".3" fill-rule="evenodd" clip-rule="evenodd" d="M79.115 60.708c3.645 2.693 8.118 3.47 12.224 2.514.378-.088.686.326.455.638-4.922 6.662-14.28 8.095-20.904 3.201-6.624-4.893-8.003-14.26-3.082-20.922 1.927-2.607 5.087.39 5.313 3.624.293 4.205 2.35 8.252 5.994 10.945z" fill="url(#uauf46kujH)"/><path opacity=".398" d="M32.077 72.19c6.642 4.907 16.006 3.501 20.913-3.141 4.908-6.643 3.501-16.006-3.141-20.914-6.643-4.907-16.006-3.5-20.913 3.142-4.908 6.642-3.502 16.005 3.141 20.913z" fill="url(#jpmhoompuI)"/><path opacity=".3" d="M32.077 72.19c6.642 4.907 16.006 3.501 20.913-3.141 4.908-6.643 3.501-16.006-3.141-20.914-6.643-4.907-16.006-3.5-20.913 3.142-4.908 6.642-3.502 16.005 3.141 20.913z" fill="url(#0d50ocmjhJ)"/><path opacity=".309" fill-rule="evenodd" clip-rule="evenodd" d="M40.29 65.869c3.97 2.934 8.925 3.594 13.317 2.216-.2.317-.412.63-.639.936-4.922 6.662-14.28 8.095-20.904 3.201-6.623-4.893-8.003-14.26-3.081-20.922a14.988 14.988 0 017.585-5.416C32.424 52.46 33.971 61.2 40.29 65.869z" fill="url(#iuhts645zK)"/><path opacity=".3" fill-rule="evenodd" clip-rule="evenodd" d="M40.29 65.869c3.644 2.693 8.117 3.47 12.223 2.514.379-.088.686.326.455.638-4.922 6.662-14.28 8.095-20.904 3.201-6.623-4.893-8.003-14.26-3.081-20.922 1.926-2.607 5.087.39 5.312 3.624.293 4.205 2.35 8.252 5.994 10.945z" fill="url(#p4ujonuodL)"/><path opacity=".15" fill-rule="evenodd" clip-rule="evenodd" d="M82.156 72.92c-6.257.949-12.504-1.927-15.985-7.359l-.014-.013-.046-.06c-.856-1.07-1.898-3.352-2.736-5.188a19.072 19.072 0 00-1.328-2.648c-.65-.783-1.974-.662-1.986-.661-.011.001-1.311.275-1.703 1.215-.24.958-.404 1.935-.492 2.921-.262 2-.587 4.489-1.09 5.764l-.028.07-.01.017c-1.616 5.762-6.16 10.158-11.879 11.492-5.718 1.334-11.716-.603-15.678-5.064l-.004.005a11.24 11.24 0 01-1.578-2.088c-.517-.8-.964-1.645-1.335-2.525-.413-.893-.785-1.782-1.115-2.565a11.667 11.667 0 00-1.366-2.764c-.66-.588-2.144-.439-2.752-.348-.19.029-.31.054-.323.057l-.624-4.153c.697-.147 1.38-.358 2.038-.631a6.625 6.625 0 003.096-2.332 35.353 35.353 0 014.092-4.814l.018-.018c.292-.32.568-.621.884-.915l-.026-.012a15.695 15.695 0 018.506-4.072 15.97 15.97 0 016.45.342 16.053 16.053 0 015.633 2.725c1.31.921 2.525 1.96 3.697 2.962l.004.003c.257.22.523.45.785.67a2.701 2.701 0 002.238.83c.3-.055.595-.133.883-.235a5.542 5.542 0 012.264-.34c.306.012.611 0 .914-.036.53-.08 1.169-.314 1.895-1.45.188-.292.377-.591.56-.88l.003-.005c.825-1.301 1.678-2.648 2.66-3.904 4.577-6.309 12.882-8.43 19.878-5.076l.025.011a16 16 0 011.158.624 35.677 35.677 0 015.27 3.407 6.274 6.274 0 003.614 1.324c.7.068 1.404.072 2.103.01l.624 4.152c-.004.001-.127.012-.317.04-.59.089-2.012.376-2.466 1.131-.281.937-.433 1.91-.452 2.891-.083.888-.176 1.894-.315 2.927a16.44 16.44 0 01-.519 2.801c-.198.854-.495 1.68-.886 2.46v-.005c-2.279 5.017-6.875 8.513-12.239 9.31zM77.61 42.645c-5.534.822-10.031 4.947-11.426 10.48-1.396 5.592.692 11.513 5.269 14.94 3.747 2.822 8.606 3.571 12.973 2.001 4.367-1.57 7.674-5.255 8.83-9.84 1.397-5.592-.691-11.512-5.268-14.94-2.989-2.249-6.72-3.2-10.376-2.644l-.002.003zm-38.536 5.788c-5.536.822-10.034 4.947-11.428 10.48-1.397 5.593.69 11.513 5.266 14.941 3.747 2.822 8.606 3.572 12.973 2.002 4.367-1.57 7.675-5.256 8.83-9.84 1.396-5.592-.69-11.51-5.265-14.938-2.989-2.25-6.72-3.2-10.376-2.645z" fill="#000"/><path fill-rule="evenodd" clip-rule="evenodd" d="M82.156 70.92c-6.257.949-12.504-1.927-15.985-7.359l-.014-.013-.046-.06c-.856-1.07-1.898-3.352-2.736-5.188a19.072 19.072 0 00-1.328-2.648c-.65-.783-1.974-.662-1.986-.661-.011.001-1.311.275-1.703 1.215-.24.958-.404 1.935-.492 2.921-.262 2-.587 4.489-1.09 5.764l-.028.07-.01.017c-1.616 5.762-6.16 10.158-11.879 11.492-5.718 1.334-11.716-.603-15.678-5.064l-.004.005a11.24 11.24 0 01-1.578-2.088c-.517-.8-.964-1.645-1.335-2.525-.413-.893-.785-1.782-1.115-2.565a11.667 11.667 0 00-1.366-2.764c-.66-.588-2.144-.439-2.752-.348-.19.029-.31.054-.323.057l-.624-4.153c.697-.147 1.38-.358 2.038-.631a6.625 6.625 0 003.096-2.332 35.353 35.353 0 014.092-4.814l.018-.018c.292-.32.568-.621.884-.915l-.026-.012a15.695 15.695 0 018.506-4.072 15.97 15.97 0 016.45.342 16.053 16.053 0 015.633 2.725c1.31.921 2.525 1.96 3.697 2.962l.004.003c.257.22.523.45.785.67a2.701 2.701 0 002.238.83c.3-.055.595-.133.883-.235a5.542 5.542 0 012.264-.34c.306.012.611 0 .914-.036.53-.08 1.169-.314 1.895-1.45.188-.292.377-.591.56-.88l.003-.005c.825-1.301 1.678-2.648 2.66-3.904 4.577-6.309 12.882-8.43 19.878-5.076l.025.011a16 16 0 011.158.624 35.677 35.677 0 015.27 3.407 6.274 6.274 0 003.614 1.324c.7.068 1.404.072 2.103.01l.624 4.152c-.004.001-.127.012-.317.04-.59.089-2.012.376-2.466 1.131-.281.937-.433 1.91-.452 2.891-.083.888-.176 1.894-.315 2.927a16.45 16.45 0 01-.519 2.801c-.198.854-.495 1.68-.886 2.46v-.005c-2.279 5.017-6.875 8.513-12.239 9.31zM77.61 40.645c-5.534.822-10.031 4.947-11.426 10.48-1.396 5.592.692 11.513 5.269 14.94 3.747 2.822 8.606 3.571 12.973 2.001 4.367-1.57 7.674-5.255 8.83-9.84 1.397-5.592-.691-11.512-5.268-14.94-2.989-2.249-6.72-3.2-10.376-2.644l-.002.003zm-38.536 5.788c-5.536.822-10.034 4.947-11.428 10.48-1.397 5.593.69 11.513 5.266 14.941 3.747 2.822 8.606 3.572 12.973 2.002 4.367-1.57 7.675-5.256 8.83-9.84 1.396-5.592-.69-11.51-5.265-14.938-2.989-2.25-6.72-3.2-10.376-2.645z" fill="#152238" stroke="#152238" stroke-width="1.424"/><path opacity=".15" d="M38.5 37.5l-3-12 35.74-7.675L74.5 30.5s2.746 4.972-14.71 9.85C42.333 45.227 38.5 37.5 38.5 37.5z" fill="url(#n90n7g2ikM)"/><path d="M38.016 35.534l-2.44-11.637 35.664-8.072 2.627 13.14s3.379 4.507-14.077 9.384c-17.457 4.878-21.774-2.815-21.774-2.815z" fill="url(#7iu94e7tzN)"/><path d="M25.787 21.86L40.809 6.838a8 8 0 016.81-2.26l29.503 4.3c1.615.236 2.283 2.204 1.144 3.374L63.42 27.508a8 8 0 01-6.959 2.326L26.895 25.25c-1.618-.25-2.266-2.233-1.108-3.39z" fill="url(#gya31n0zhO)"/><ellipse cx="50" cy="17.5" rx="2" ry="1.5" fill="url(#x3k69n62uP)"/><path d="M50 17.5c-7.5-.167-21.7 2.3-18.5 13.5 3.2 11.2-6.667 16-12 17m-.463-.842l-.994 3.974m1.93-3.123l-3.917 1.2m2.91-.966L15.063 47" stroke="#000"/><g opacity=".271" filter="url(#u7yoym4w7Q)"><circle transform="matrix(0 -1 -1 0 60.5 105.5)" fill="#C08D17" r="13.5"/></g><path d="M114 80l-21.225 6.604 6.946 21.678-38.99.509" stroke="url(#rolcccgbcR)" stroke-width="2.005" stroke-linecap="round" stroke-linejoin="round"/><ellipse rx="2.453" ry="2.454" transform="scale(-1 1) rotate(-75.094 40.065 93.984)" fill="#FAC446"/><path fill-rule="evenodd" clip-rule="evenodd" d="M62.89 107.674a2.33 2.33 0 00-.812-1.235 2.338 2.338 0 01-.271 4.428 2.33 2.33 0 01-2.046-.424 2.32 2.32 0 001.474.092 2.338 2.338 0 001.655-2.861z" fill="#fff" fill-opacity=".2"/><g opacity=".587" filter="url(#04w4kdl82S)"><circle r="9" transform="matrix(1 0 0 -1 61.113 109.113)" fill="url(#7jv8l2vq8T)"/></g><ellipse rx="3.858" ry="3.853" transform="scale(-1 1) rotate(-75.094 20.672 118.702)" fill="#FAC446"/><path fill-rule="evenodd" clip-rule="evenodd" d="M102.226 106.809a3.658 3.658 0 00-1.277-1.942 3.667 3.667 0 012.175 2.463 3.673 3.673 0 01-2.601 4.495 3.666 3.666 0 01-3.215-.665 3.671 3.671 0 004.918-4.351z" fill="#fff" fill-opacity=".2"/><ellipse rx="2.405" ry="2.402" transform="scale(-1 1) rotate(-75.094 10.163 103.584)" fill="#FAC446"/><path fill-rule="evenodd" clip-rule="evenodd" d="M94.372 85.997a2.22 2.22 0 00-.773-1.177c.626.254 1.13.789 1.318 1.493a2.226 2.226 0 01-3.525 2.321 2.226 2.226 0 002.98-2.637z" fill="#fff" fill-opacity=".2"/><defs><radialGradient id="rps3ukuj0d" cx="0" cy="0" r="1" gradientUnits="userSpaceOnUse" gradientTransform="matrix(-72.49987 -38.00035 27.74317 -52.93046 59 97)"><stop stop-color="#32466C"/><stop offset="1" stop-color="#10192A"/></radialGradient><radialGradient id="tz3apcu1xe" cx="0" cy="0" r="1" gradientUnits="userSpaceOnUse" gradientTransform="rotate(139.211 6.892 74.84) scale(35.8061 62.342)"><stop stop-color="#FAC446"/><stop offset="1" stop-color="#233452" stop-opacity="0"/></radialGradient><radialGradient id="15y5xqm4qf" cx="0" cy="0" r="1" gradientUnits="userSpaceOnUse" gradientTransform="matrix(0 39.0611 -20.9626 0 -89.884 98.285)"><stop stop-color="#283F62"/><stop offset="1" stop-color="#101A2A"/></radialGradient><radialGradient id="e6i3ky1ymh" cx="0" cy="0" r="1" gradientUnits="userSpaceOnUse" gradientTransform="rotate(90.509 -73.544 7.9) scale(36.9815 17.8042)"><stop stop-color="#283F62"/><stop offset="1" stop-color="#101A2A"/></radialGradient><radialGradient id="nv3152zwdi" cx="0" cy="0" r="1" gradientUnits="userSpaceOnUse" gradientTransform="matrix(0 26.855 -6.6522 0 44.504 102.037)"><stop stop-color="#283F62"/><stop offset="1" stop-color="#101A2A"/></radialGradient><radialGradient id="54z56ao4ql" cx="0" cy="0" r="1" gradientUnits="userSpaceOnUse" gradientTransform="matrix(20.49999 20 -19.16062 19.63962 81.5 108)"><stop stop-color="#FAC446"/><stop offset="1" stop-color="#233452" stop-opacity="0"/></radialGradient><radialGradient id="vedml9ufxm" cx="0" cy="0" r="1" gradientUnits="userSpaceOnUse" gradientTransform="matrix(11.5 0 0 2 86.177 94.94)"><stop/><stop offset="1" stop-opacity=".01"/></radialGradient><radialGradient id="j4x2i32gln" cx="0" cy="0" r="1" gradientUnits="userSpaceOnUse" gradientTransform="matrix(0 13.4129 -2.95765 0 69.901 103.943)"><stop stop-color="#283F62"/><stop offset="1" stop-color="#101A2A"/></radialGradient><radialGradient id="gvmn84dxuo" cx="0" cy="0" r="1" gradientUnits="userSpaceOnUse" gradientTransform="scale(6.6522 26.855) rotate(90 -3.062 .7)"><stop stop-color="#283F62"/><stop offset="1" stop-color="#101A2A"/></radialGradient><radialGradient id="jy0xz7yftq" cx="0" cy="0" r="1" gradientUnits="userSpaceOnUse" gradientTransform="matrix(-22 4.00006 -3.79534 -20.87407 43 109)"><stop stop-color="#FFC12F"/><stop offset="1" stop-color="#233452" stop-opacity="0"/></radialGradient><radialGradient id="eq4qwyrmor" cx="0" cy="0" r="1" gradientUnits="userSpaceOnUse" gradientTransform="matrix(0 13.4129 -2.95765 0 12.651 104.42)"><stop stop-color="#283F62"/><stop offset="1" stop-color="#101A2A"/></radialGradient><radialGradient id="8b1yid32ys" cx="0" cy="0" r="1" gradientUnits="userSpaceOnUse" gradientTransform="matrix(20 14.49994 -14.91739 20.5758 16.45 93.104)"><stop stop-color="#0C1421"/><stop offset="1" stop-color="#233452" stop-opacity="0"/></radialGradient><radialGradient id="21o6czcpmt" cx="0" cy="0" r="1" gradientUnits="userSpaceOnUse" gradientTransform="matrix(11.5 0 0 2 31.5 92)"><stop/><stop offset="1" stop-opacity=".01"/></radialGradient><radialGradient id="uep3c2n1gu" cx="0" cy="0" r="1" gradientUnits="userSpaceOnUse" gradientTransform="matrix(11.5 0 0 2 85.5 92)"><stop/><stop offset="1" stop-opacity=".01"/></radialGradient><radialGradient id="0mleenmmpw" cx="0" cy="0" r="1" gradientUnits="userSpaceOnUse" gradientTransform="matrix(0 45.5757 -16.1168 0 -24.762 52.365)"><stop stop-color="#283F62"/><stop offset="1" stop-color="#101A2A"/></radialGradient><radialGradient id="ae5vm9b93x" cx="0" cy="0" r="1" gradientUnits="userSpaceOnUse" gradientTransform="matrix(4.03598 24.00995 -38.95477 6.54815 -.711 103.008)"><stop stop-color="#283F62"/><stop offset="1" stop-color="#101A2A"/></radialGradient><radialGradient id="2w9brii0iz" cx="0" cy="0" r="1" gradientUnits="userSpaceOnUse" gradientTransform="matrix(0 42.3686 -16.6828 0 -90.074 65.693)"><stop stop-color="#283F62"/><stop offset="1" stop-color="#101A2A"/></radialGradient><radialGradient id="3bp9vo6d9A" cx="0" cy="0" r="1" gradientUnits="userSpaceOnUse" gradientTransform="matrix(4.0363 24.0108 -38.95325 6.54818 -8.8 54.893)"><stop stop-color="#283F62"/><stop offset="1" stop-color="#101A2A"/></radialGradient><radialGradient id="inam2o08vC" cx="0" cy="0" r="1" gradientUnits="userSpaceOnUse" gradientTransform="matrix(-10.49985 37.50008 -51.38931 -14.38877 62 98.5)"><stop stop-color="#FAC446"/><stop offset="1" stop-color="#233452" stop-opacity="0"/></radialGradient><radialGradient id="pwxp8kyn8D" cx="0" cy="0" r="1" gradientUnits="userSpaceOnUse" gradientTransform="matrix(0 67.117 -18.2674 0 -70.396 56.54)"><stop stop-color="#283F62"/><stop offset="1" stop-color="#101A2A"/></radialGradient><radialGradient id="gygeldspyF" cx="0" cy="0" r="1" gradientUnits="userSpaceOnUse" gradientTransform="matrix(-30.90648 13.03825 -14.28462 -33.86094 85.14 66.391)"><stop stop-color="#FAC446"/><stop offset="1" stop-color="#233452" stop-opacity="0"/></radialGradient><radialGradient id="uauf46kujH" cx="0" cy="0" r="1" gradientUnits="userSpaceOnUse" gradientTransform="rotate(163.003 36.941 40.21) scale(28.6522 34.2279)"><stop stop-color="#FAC446"/><stop offset="1" stop-color="#233452" stop-opacity="0"/></radialGradient><radialGradient id="0d50ocmjhJ" cx="0" cy="0" r="1" gradientUnits="userSpaceOnUse" gradientTransform="matrix(-30.90648 13.03825 -14.28462 -33.86094 46.313 71.552)"><stop stop-color="#FAC446"/><stop offset="1" stop-color="#233452" stop-opacity="0"/></radialGradient><radialGradient id="p4ujonuodL" cx="0" cy="0" r="1" gradientUnits="userSpaceOnUse" gradientTransform="rotate(163.003 17.143 39.89) scale(28.6522 34.2279)"><stop stop-color="#FAC446"/><stop offset="1" stop-color="#233452" stop-opacity="0"/></radialGradient><radialGradient id="n90n7g2ikM" cx="0" cy="0" r="1" gradientUnits="userSpaceOnUse" gradientTransform="matrix(0 24.9753 -10.8048 0 -23.702 26.23)"><stop stop-color="#283F62"/><stop offset="1" stop-color="#101A2A"/></radialGradient><radialGradient id="7iu94e7tzN" cx="0" cy="0" r="1" gradientUnits="userSpaceOnUse" gradientTransform="matrix(4.56779 12.95628 -40.3201 14.215 -48.813 57.255)"><stop stop-color="#283F62"/><stop offset="1" stop-color="#101A2A"/></radialGradient><radialGradient id="x3k69n62uP" cx="0" cy="0" r="1" gradientUnits="userSpaceOnUse" gradientTransform="matrix(.4739 1.60988 -4.32808 1.27408 39.245 21.148)"><stop stop-color="#283F62"/><stop offset="1" stop-color="#101A2A"/></radialGradient><radialGradient id="7jv8l2vq8T" cx="0" cy="0" r="1" gradientUnits="userSpaceOnUse" gradientTransform="matrix(2.86363 9 -9 2.86363 9 9)"><stop stop-color="#FFD26C"/><stop offset="1" stop-color="#FFD26C" stop-opacity="0"/></radialGradient><linearGradient id="u2fw9saw0b" x1="-25.227" y1="22.708" x2="4.038" y2="134.632" gradientUnits="userSpaceOnUse"><stop stop-color="#FFC63B"/><stop offset="1" stop-color="#F29D1C"/></linearGradient><linearGradient id="8agibej70g" x1="51.174" y1="73.103" x2="48.856" y2="99.438" gradientUnits="userSpaceOnUse"><stop stop-color="#101A2A"/><stop offset="1" stop-color="#213350" stop-opacity="0"/></linearGradient><linearGradient id="928crtp2hj" x1="106" y1="83.043" x2="91.142" y2="111.201" gradientUnits="userSpaceOnUse"><stop stop-color="#5B79A2"/><stop offset="1" stop-color="#243655"/></linearGradient><linearGradient id="ld6c83r8lk" x1="106" y1="83.043" x2="91.142" y2="111.201" gradientUnits="userSpaceOnUse"><stop stop-color="#5B79A2"/><stop offset="1" stop-color="#243655"/></linearGradient><linearGradient id="xfbprai0zp" x1="21.5" y1="74.251" x2="36.555" y2="115.071" gradientUnits="userSpaceOnUse"><stop stop-color="#5B79A2"/><stop offset="1" stop-color="#243655"/></linearGradient><linearGradient id="89tzja4zjv" x1="64.071" y1="53.827" x2="118.646" y2="44.653" gradientUnits="userSpaceOnUse"><stop stop-color="#5B79A2"/><stop offset="1" stop-color="#2F476D"/></linearGradient><linearGradient id="jaiw5rr0gy" x1="2.773" y1="64.131" x2="57.348" y2="54.957" gradientUnits="userSpaceOnUse"><stop stop-color="#5B79A2"/><stop offset="1" stop-color="#2E4469"/></linearGradient><linearGradient id="k2xh1d5fbB" x1="41.965" y1="66.207" x2="77.896" y2="85.951" gradientUnits="userSpaceOnUse"><stop stop-color="#5B79A2"/><stop offset="1" stop-color="#2F4367"/></linearGradient><linearGradient id="mcxpboykxE" x1="91.737" y1="63.361" x2="68.288" y2="46.036" gradientUnits="userSpaceOnUse"><stop stop-color="#21C8F6"/><stop offset="1" stop-color="#637BFF"/></linearGradient><linearGradient id="brnu0r1baG" x1="89.848" y1="65.862" x2="66.467" y2="48.587" gradientUnits="userSpaceOnUse"><stop stop-color="#21C8F6"/><stop offset="1" stop-color="#637BFF"/></linearGradient><linearGradient id="jpmhoompuI" x1="52.911" y1="68.522" x2="29.462" y2="51.198" gradientUnits="userSpaceOnUse"><stop stop-color="#21C8F6"/><stop offset="1" stop-color="#637BFF"/></linearGradient><linearGradient id="iuhts645zK" x1="51.023" y1="71.023" x2="27.641" y2="53.748" gradientUnits="userSpaceOnUse"><stop stop-color="#21C8F6"/><stop offset="1" stop-color="#637BFF"/></linearGradient><linearGradient id="gya31n0zhO" x1="23.477" y1="19.355" x2="73.466" y2="-2.666" gradientUnits="userSpaceOnUse"><stop stop-color="#5B79A2"/><stop offset="1" stop-color="#283D61"/></linearGradient><linearGradient id="rolcccgbcR" x1="89.912" y1="98.971" x2="116" y2="80" gradientUnits="userSpaceOnUse"><stop stop-color="#EEB20D"/><stop offset="1" stop-color="#F8BA0F" stop-opacity="0"/></linearGradient><filter id="u7yoym4w7Q" x="37.789" y="82.789" width="45.423" height="45.423" filterUnits="userSpaceOnUse" color-interpolation-filters="sRGB"><feFlood flood-opacity="0" result="BackgroundImageFix"/><feBlend in="SourceGraphic" in2="BackgroundImageFix" result="shape"/><feGaussianBlur stdDeviation="4.606" result="effect1_foregroundBlur_535_31725"/></filter><filter id="04w4kdl82S" x="46.233" y="94.232" width="29.76" height="29.76" filterUnits="userSpaceOnUse" color-interpolation-filters="sRGB"><feFlood flood-opacity="0" result="BackgroundImageFix"/><feBlend in="SourceGraphic" in2="BackgroundImageFix" result="shape"/><feGaussianBlur stdDeviation="2.94" result="effect1_foregroundBlur_535_31725"/></filter></defs></svg>