<svg xmlns="http://www.w3.org/2000/svg" fill="none" viewBox="43.46 42.33 373.68 253.4"><g style="mix-blend-mode:luminosity"><path opacity=".278" d="M241.163 228.752c29.583 31.142 58.468 51.73 64.517 45.984 6.048-5.746-13.031-35.649-42.614-66.791-29.583-31.142-58.468-51.73-64.517-45.984-6.048 5.745 13.031 35.649 42.614 66.791z" fill="url(#1v3oi8at3a)"/><path clip-rule="evenodd" d="M360.86 120.122c6.492 6.834 11.338 15.249 12.282 22.417.826 6.268-4.33 16.293-4.488 16.6.919 2.202 12.721 21.509 14.386 32.947l.05.355-.202-.101a5.978 5.978 0 01-.807-.536l-.197-.153c-2.04-1.612-4.645-4.254-5.573-5.211l-1.642-1.694.288 2.342c.04.321.077.638.112.953.626 1.877 1.705 5.075 2.842 8.781l.238.781a199.62 199.62 0 011.351 4.651l.287 1.055c1.209 4.492 2.194 8.936 2.284 11.868-.339-.133-.569-.302-.809-.498-1.534-1.255-3.415-3.372-4.121-4.184l-1.287-1.481-.101 1.959c-.02.392-.043.779-.067 1.163.713 5.238 2.69 22.307-.575 35.647l-.035.135-5.05-9.767-.762.698-.474.433c-1.122 2.117-3.929 7.63-7.248 13.379l-.398.686-.607 1.035-.407.685-.412.686c-.9 1.49-1.819 2.955-2.732 4.335-.707-.293-1.003-.64-1.282-1.059-.956-1.431-1.637-3.7-2.033-5.247a35.276 35.276 0 01-.288-1.215l-.977.797c-1.073.87-2.178 1.758-3.31 2.656-4.491 6.583-13.091 18.692-22.092 27.803-.998-1.483.778-9.888.778-9.888s.049-.234.139-.628l.065-.285c.119-.513.284-1.203.482-1.97-.79.863-1.492 1.625-2.051 2.232a882.685 882.685 0 01-6.928 7.439l-.518.548a279.506 279.506 0 01-3.725 3.873c.331-1.69.959-4.073 1.307-5.432.124-.483.279-1.096.451-1.759a108.906 108.906 0 01-4.675 2.447c-2.658 2.44-6.17 2.912-10.38 2.03-4.801-1.006-10.497-3.772-16.708-7.825-13.937-9.096-30.413-24.664-45.155-41.778-14.62-16.974-27.536-35.47-34.559-50.696-3.125-6.777-5.083-12.896-5.473-17.929-.344-4.443.53-8.03 3.033-10.374a342.14 342.14 0 012.64-3.914c.429-.624.861-1.243 1.294-1.858l-2.173.652c-1.73.517-3.749 1.12-5.811 1.733l-1.55.46-1.544.456c7.849-11.383 23.043-22.259 29.937-26.866.68-.727 1.203-1.312 1.722-1.889l1.716-1.91-2.494.612c-.53.131-1.128.263-1.741.371-1.679.23-3.155.356-3.854-.132-.157-.709-.001-1.112.281-1.611 2.271-2.146 4.995-4.254 7.773-6.194l.696-.481.697-.474c7.313-4.936 14.555-8.57 14.555-8.57.142-.071 2.507-1.251 6.026-2.783-3.12.971-6.455 1.288-6.455 1.288-.246.022-5.513.491-9.176-.529-.905-.252-1.71-.592-2.278-1.081a2.156 2.156 0 01-.558-.704c10.566-3.114 26.228-.666 34.096.913 1.235-.022 2.316-.049 3.431-.061.87-.009 1.719-.009 2.551-.002-.76-.46-1.486-.975-2.085-1.423-1.306-.978-3.083-2.443-3.856-3.823-.204-.365-.346-.719-.308-1.049 8.605.535 21.502 5.833 26.389 7.939l.807.128 3.038.496-10.434-10.983c10.798 1.135 31.77 15.629 35.23 18.049.175.123 1.284.062 3.312-.592 3.612-1.167 10.259-3.351 14.796-2.616 7.294 1.183 14.947 6.261 21.103 12.742z" stroke="url(#00u11hsneb)" stroke-width="1.583"/><path opacity=".705" fill-rule="evenodd" clip-rule="evenodd" d="M339.956 106.531c15.276 2.476 32.168 21.598 34.043 35.837.861 6.535-4.572 17.072-4.572 17.072s13.845 22.319 14.635 34c-.942.895-6.751-4.974-8.247-6.517.04.323.077.643.112.962a271.95 271.95 0 012.813 8.638l.239.782c2.03 6.702 4.149 14.792 3.948 18.807-.933.886-5.157-3.838-6.311-5.166-.021.395-.043.785-.068 1.171.742 5.34 2.858 23.763-1.028 37.422l-.035.687-5.615-10.861-.475.433c-.951 1.894-3.767 7.424-7.096 13.192l-.4.69-.202.345-.406.691-.41.69-.414.688a124.176 124.176 0 01-2.935 4.643c-2.28.744-3.859-4.101-4.556-6.827a352.103 352.103 0 01-3.317 2.662c-4.413 6.535-13.256 18.978-22.45 28.173-1.703-.346-.138-10.993-.138-10.993l-.301.326-.187.204a876.962 876.962 0 01-6.447 6.917l-.519.548c-2.07 2.187-4.073 4.263-5.255 5.386-.222-.785.932-5.486 1.496-7.686a111.74 111.74 0 01-3.106 1.594c-23.445 21.932-134.006-105.505-110.134-127.859a162.832 162.832 0 012.529-3.784 2529.86 2529.86 0 01-10.971 3.26c7.465-12.111 24.024-24.007 31.336-28.893.529-.596 1.053-1.182 1.573-1.76-.549.135-1.168.272-1.804.384l-.348.058c-2.906.462-5.942.3-3.981-3.077 8.667-8.233 23.995-15.933 23.995-15.933s-12.594 1.176-13.041-3.634c10.682-3.484 27.066-.964 35.207.669 1.059-.037 2.146-.064 3.267-.076-2.342-1.753-6.056-5.026-3.77-6.732 8.43.83 21.625 6.22 26.692 8.4.473.073.95.15 1.428.229l-10.132-10.666c10.267-.626 34.368 15.994 37.691 18.324l.186.13.197.14s10.771-4.746 17.284-3.69z" fill="url(#0k8hsgy0mc)"/><path fill-rule="evenodd" clip-rule="evenodd" d="M345.529 161.737c-8.231 7.819-20.94 7.803-28.387-.037-7.447-7.839-6.811-20.532 1.42-28.351 8.231-7.819 20.94-7.803 28.387.036 7.447 7.84 6.811 20.533-1.42 28.352z" fill="#24385A" stroke="url(#4oaa0jencd)" stroke-width="1.541"/><path fill-rule="evenodd" clip-rule="evenodd" d="M345.529 161.737c-8.231 7.819-20.94 7.803-28.387-.037-7.447-7.839-6.811-20.532 1.42-28.351 8.231-7.819 20.94-7.803 28.387.036 7.447 7.84 6.811 20.533-1.42 28.352z" fill="#000" fill-opacity=".152" stroke="url(#l6hohulyle)" stroke-width="1.541"/><g filter="url(#41se1cb0tf)"><path d="M337.023 138.01s-.618-.515-1.673-1.093c-2.306-1.265-6.701-2.835-11.291.01a13.778 13.778 0 00-1.676 1.618c-1.605 1.859-2.286 4.188-2.253 6.604.044 3.235 1.366 6.627 3.463 9.259 3.238 4.064 8.321 6.314 13.391 3.371a27.8 27.8 0 001.468-.92c2.545-1.999 4.06-4.146 4.683-6.316a8.496 8.496 0 00.327-2.052c.095-2.747-1.165-5.475-3.5-7.933a21.32 21.32 0 00-2.939-2.548z" fill="#000"/></g><path d="M337.023 138.01s-.618-.515-1.673-1.093c-2.306-1.265-6.701-2.835-11.291.01a13.778 13.778 0 00-1.676 1.618c-1.605 1.859-2.286 4.188-2.253 6.604.044 3.235 1.366 6.627 3.463 9.259 3.238 4.064 8.321 6.314 13.391 3.371a27.8 27.8 0 001.468-.92c2.545-1.999 4.06-4.146 4.683-6.316a8.496 8.496 0 00.327-2.052c.095-2.747-1.165-5.475-3.5-7.933a21.32 21.32 0 00-2.939-2.548z" fill="url(#a51a4uk32g)"/><path fill-rule="evenodd" clip-rule="evenodd" d="M340.57 145.161s-1.373-1.145-3.169-1.067c-.969.042-2.062.44-3.128 1.567-.721.76-1.024 1.74-1.012 2.758.013.864.253 1.756.662 2.567.848 1.681 2.418 3.009 4.174 3.006.614-.001 1.252-.165 1.889-.535.743-.432 1.346-.888 1.817-1.361.882-.883 1.305-1.821 1.337-2.753.035-1.007-.386-2.007-1.177-2.923a6.187 6.187 0 00-.22-.243 8.46 8.46 0 00-1.173-1.016z" fill="url(#oggmsh7xah)"/><path d="M340.76 152.155c-.598.569-1.522.568-2.063-.002-.542-.57-.496-1.493.103-2.062.598-.568 1.522-.567 2.064.003.541.57.495 1.493-.104 2.061z" fill="url(#8awzib6pmi)"/><path d="M313.34 206.057c-3.401-1.475-5.887-4.447-6.821-8.157-.4-1.587.561-3.315 2.147-3.859 1.584-.545 3.192.3 3.592 1.887.516 2.047 1.887 3.688 3.762 4.501 1.875.813 4.072.72 6.028-.257 1.514-.756 3.24-.156 3.852 1.341.613 1.498-.119 3.325-1.634 4.081-3.542 1.769-7.525 1.938-10.926.463z" fill="#1C2737"/><g filter="url(#61r5gqmgxm)"><path d="M371.464 101.475l-5.997-6.313-6.317 6 5.997 6.314 6.317-6.001z" fill="url(#g1y1zryben)"/><path d="M379.137 109.552l-5.998-6.313-6.316 6.001 5.997 6.313 6.317-6.001z" fill="url(#wsm09qt73o)"/><path d="M386.81 117.629l-5.998-6.313-6.316 6 5.997 6.314 6.317-6.001z" fill="url(#ip71gcdq6p)"/><path d="M379.545 93.798l-5.997-6.313-6.316 6 5.997 6.314 6.316-6z" fill="url(#qtz5cyg8rq)"/><path d="M387.627 86.121l-5.997-6.313-6.317 6 5.997 6.314 6.317-6z" fill="#4BDEFF"/><path d="M395.708 78.445l-5.997-6.313-6.317 6 5.998 6.313 6.316-6z" fill="url(#74wfxcn5sr)"/></g><g filter="url(#5m6yoovuws)"><path d="M381.653 125.385a1.583 1.583 0 00-.494 1.113l-.166 3.375c-.022.449.106.821.384 1.114.279.293.644.44 1.094.441l31.485.069a1.585 1.585 0 001.631-1.549l1.547-31.447c.022-.45-.106-.821-.385-1.115-.279-.293-.643-.44-1.093-.441l-3.378-.008a1.584 1.584 0 00-1.63 1.548l-1.305 26.522-26.554-.058a1.584 1.584 0 00-1.136.436z" fill="#000"/></g><path d="M381.653 125.385a1.583 1.583 0 00-.494 1.113l-.166 3.375c-.022.449.106.821.384 1.114.279.293.644.44 1.094.441l31.485.069a1.585 1.585 0 001.631-1.549l1.547-31.447c.022-.45-.106-.821-.385-1.115-.279-.293-.643-.44-1.093-.441l-3.378-.008a1.584 1.584 0 00-1.63 1.548l-1.305 26.522-26.554-.058a1.584 1.584 0 00-1.136.436z" fill="url(#7k13uzmhwt)"/><g filter="url(#divdd2mmcu)"><path d="M384.016 67.808c.307-.292.471-.663.493-1.113l.166-3.374c.022-.45-.105-.822-.384-1.115-.278-.293-.643-.44-1.093-.44l-31.486-.07a1.578 1.578 0 00-1.136.437c-.308.291-.472.663-.494 1.112l-1.547 31.448c-.023.45.105.82.384 1.114.279.294.643.44 1.093.441l3.378.009a1.584 1.584 0 001.63-1.549l1.306-26.522 26.553.058c.451.002.829-.144 1.137-.436z" fill="#000"/></g><path d="M384.016 67.808c.307-.292.471-.663.493-1.113l.166-3.374c.022-.45-.105-.822-.384-1.115-.278-.293-.643-.44-1.093-.44l-31.486-.07a1.578 1.578 0 00-1.136.437c-.308.291-.472.663-.494 1.112l-1.547 31.448c-.023.45.105.82.384 1.114.279.294.643.44 1.093.441l3.378.009a1.584 1.584 0 001.63-1.549l1.306-26.522 26.553.058c.451.002.829-.144 1.137-.436z" fill="url(#hwacluey7v)"/><path fill-rule="evenodd" clip-rule="evenodd" d="M105.773 243.246c-7.337-5.68-7.856-16.574-1.092-22.926l100.299-94.199c6.764-6.352 17.604-5.151 22.813 2.528l38.931 57.388c8.326 12.273 6.497 28.779-4.314 38.932l-62.678 58.866c-10.811 10.154-27.4 10.944-39.128 1.864l-54.831-42.453z" fill="#172133"/><path fill-rule="evenodd" clip-rule="evenodd" d="M97.612 241.369c-7.509-5.619-8.125-16.655-1.289-23.075l107.159-100.641c6.836-6.42 17.812-5.113 22.949 2.733l35.558 54.305c8.023 12.252 6.089 28.496-4.586 38.522L188.314 278.1c-10.676 10.026-27.01 10.938-38.736 2.163l-51.966-38.894z" fill="url(#z12mbqeigw)"/><path fill-rule="evenodd" clip-rule="evenodd" d="M97.612 241.369c-7.509-5.619-8.125-16.655-1.289-23.075l107.159-100.641c6.836-6.42 17.812-5.113 22.949 2.733l35.558 54.305c8.023 12.252 6.089 28.496-4.586 38.522L188.314 278.1c-10.676 10.026-27.01 10.938-38.736 2.163l-51.966-38.894z" fill="url(#cdrfk1fnix)"/><path opacity=".705" fill-rule="evenodd" clip-rule="evenodd" d="M97.612 241.369c-7.509-5.619-8.125-16.655-1.289-23.075l107.159-100.641c6.836-6.42 17.812-5.113 22.949 2.733l35.558 54.305c8.023 12.252 6.089 28.496-4.586 38.522L188.314 278.1c-10.676 10.026-27.01 10.938-38.736 2.163l-51.966-38.894z" fill="url(#den8htroay)"/><ellipse opacity=".899" cx="236.561" cy="136.767" rx="9.879" ry="9.872" transform="rotate(-123.203 236.561 136.767)" fill="url(#hx76772xbz)"/><path d="M241.768 132.077c12.858-7.579 13.16 9.079 21.784 18.591 7.643 8.43 5.415 18.426-2.07 23.391" stroke="url(#dvmxl2zxzA)" stroke-width="4.444"/><rect width="7.051" height="7.41" rx="2.469" transform="scale(1 -1) rotate(-55.797 -7.729 -288.571)" fill="#1B283E"/><rect width="12.339" height="4.94" rx="2.469" transform="scale(1 -1) rotate(-55.797 -8.74 -284.84)" fill="url(#2mvj3evyhB)"/><path fill-rule="evenodd" clip-rule="evenodd" d="M155.03 240.37a2.294 2.294 0 01.102-3.242l62.388-58.593a2.294 2.294 0 113.141 3.343l-31.691 29.764-30.697 28.83a2.294 2.294 0 01-3.243-.102z" fill="#1B283E"/><g filter="url(#cncb7vzcpC)"><path fill-rule="evenodd" clip-rule="evenodd" d="M160.78 246.492a2.294 2.294 0 01.101-3.242l62.389-58.594a2.293 2.293 0 113.14 3.344l-31.69 29.763-30.698 28.831a2.293 2.293 0 01-3.242-.102z" fill="url(#6r0aialkvD)"/></g><path fill-rule="evenodd" clip-rule="evenodd" d="M167.404 251.792a2.293 2.293 0 01.101-3.242l62.389-58.593a2.294 2.294 0 013.14 3.344l-31.69 29.763-30.698 28.83a2.293 2.293 0 01-3.242-.102zm5.749 6.122a2.293 2.293 0 01.102-3.242l62.388-58.593a2.294 2.294 0 013.14 3.344l-31.69 29.763-30.698 28.83a2.293 2.293 0 01-3.242-.102z" fill="#1B283E"/><path fill-rule="evenodd" clip-rule="evenodd" d="M118.384 226.158c-8.899-4.983-10.392-17.177-2.957-24.16l71.952-67.575c7.435-6.983 19.512-4.728 23.927 4.466l2.112 4.399a30.172 30.172 0 01-6.543 35.054l-48.837 45.867a30.173 30.173 0 01-35.397 4.333l-4.257-2.384z" fill="url(#3zdsvnt84E)"/><path fill-rule="evenodd" clip-rule="evenodd" d="M102.388 243.171c-9.967-4.305-12.26-17.413-4.345-24.846l106.245-99.783c7.915-7.433 20.854-4.324 24.526 5.894l2.249 6.259a30.174 30.174 0 01-7.739 32.199l-82.21 77.209a30.17 30.17 0 01-32.621 5.705l-6.105-2.637z" fill="url(#2w5dhd2vhF)"/><path fill-rule="evenodd" clip-rule="evenodd" d="M102.388 243.171c-9.967-4.305-12.26-17.413-4.345-24.846l106.245-99.783c7.915-7.433 20.854-4.324 24.526 5.894l2.249 6.259a30.174 30.174 0 01-7.739 32.199l-82.21 77.209a30.17 30.17 0 01-32.621 5.705l-6.105-2.637z" fill="url(#4imcp30vsG)"/><path opacity=".504" fill-rule="evenodd" clip-rule="evenodd" d="M97.694 218.651c-7.914 7.433-5.622 20.541 4.346 24.846l6.105 2.638a30.174 30.174 0 0032.621-5.705l82.211-77.209a30.173 30.173 0 007.739-32.199l-2.25-6.258c-3.672-10.218-16.61-13.328-24.525-5.895l-1.196 1.124c8.193-7.695 21.625-3.988 24.713 6.819a30.026 30.026 0 01-8.316 30.135l-84.398 79.262a30.026 30.026 0 01-30.597 6.41c-10.592-3.759-13.45-17.397-5.256-25.092l-1.197 1.124z" fill="#1B283E"/><path fill-rule="evenodd" clip-rule="evenodd" d="M136.5 193.685a9.585 9.585 0 012.977-6.045l32.876-30.876a9.579 9.579 0 016.22-2.592c8.848-.316 13.358 10.506 6.905 16.567l-32.876 30.876c-6.454 6.061-16.972.881-16.102-7.93z" fill="#1B283E"/><path d="M121.913 170.635c-4.436-4.724-4.203-12.15.521-16.586l18.557-17.428c4.724-4.436 12.149-4.203 16.586.52l19.617 20.889a6.706 6.706 0 01-.297 9.478l-25.888 24.313a6.705 6.705 0 01-9.478-.298l-19.618-20.888z" fill="url(#qapwoermpH)"/><ellipse cx="147.858" cy="163.858" rx="17.275" ry="17.289" transform="rotate(-43.203 147.858 163.858)" fill="#1B283E"/><g opacity=".842" filter="url(#aamkbil5fI)"><ellipse cx="147.858" cy="163.858" rx="18.509" ry="18.524" transform="rotate(-42.203 147.858 163.858)" fill="#328AF1"/></g><ellipse rx="9.871" ry="9.879" transform="scale(1 -1) rotate(46.203 266.75 92.178)" fill="url(#eoq2rsfb7J)"/><g style="mix-blend-mode:soft-light" fill-rule="evenodd" clip-rule="evenodd" fill="#fff"><path d="M143.667 165.683a.898.898 0 01.94-.853l2.218.109a.897.897 0 11-.088 1.792l-2.218-.108a.896.896 0 01-.852-.94zm4.91.24a.898.898 0 01.94-.853l4.843.237a.896.896 0 11-.088 1.792l-4.842-.236a.898.898 0 01-.853-.94z"/><path d="M144.045 166.474a.88.88 0 01-.259-1.201l5.34-8.506a.878.878 0 111.488.935l-5.34 8.506a.879.879 0 01-1.229.266z"/><path d="M154.765 166.997a.879.879 0 01-1.198-.384l-4.485-8.986a.88.88 0 011.573-.785l4.485 8.986a.878.878 0 01-.375 1.169zm-5.149-4.441a.872.872 0 01.829.914l-.248 5.076a.874.874 0 01-1.744-.085l.248-5.076a.873.873 0 01.915-.829zm-.364 7.437a.874.874 0 01.83.915l-.041.831a.873.873 0 01-1.744-.085l.041-.832a.873.873 0 01.914-.829z"/></g><path fill-rule="evenodd" clip-rule="evenodd" d="M145.857 169.799a8.183 8.183 0 004.777 2.062 8.21 8.21 0 01-7.101-1.931c-3.387-3.028-3.676-8.231-.646-11.62a8.224 8.224 0 016.843-2.718 8.207 8.207 0 00-4.519 2.587c-3.03 3.389-2.741 8.592.646 11.62z" fill="#fff" fill-opacity=".547" style="mix-blend-mode:lighten" opacity=".58"/><path d="M50.978 143.361c-9.697-9.247-10.062-24.606-.815-34.303l36.773-38.563c9.248-9.698 24.606-10.063 34.304-.815l40.658 38.771c11.637 11.097 12.075 29.527.978 41.164l-30.075 31.539c-11.097 11.637-29.527 12.075-41.165.978l-40.658-38.771z" fill="url(#q2qfw69pxK)"/><ellipse cx="54.828" cy="117.748" rx="3.206" ry="3.26" transform="rotate(-46.361 54.828 117.748)" fill="url(#8flv6av7qL)"/><path opacity=".405" fill-rule="evenodd" clip-rule="evenodd" d="M84.106 172.19l9.529 9.086c11.637 11.097 30.067 10.66 41.164-.978l27.394-28.726c11.097-11.638 10.659-30.068-.978-41.165l-9.529-9.086c11.637 11.097 12.075 29.527.978 41.164l-27.393 28.727c-11.097 11.637-29.527 12.075-41.165.978z" fill="url(#rd6cida28M)"/><path fill-rule="evenodd" clip-rule="evenodd" d="M60.306 138.449c-4.525-4.316-4.695-11.483-.38-16.008l41.357-43.37c4.316-4.526 11.483-4.696 16.008-.38l35.93 34.261c2.125 2.026 3.327 4.825 2.481 7.636-1.624 5.394-6.403 15.605-20.441 30.327-13.832 14.505-24.508 20.652-30.452 23.207-3.223 1.385-6.748.329-9.287-2.092l-35.216-33.581z" fill="#1B283E"/><path opacity=".705" fill-rule="evenodd" clip-rule="evenodd" d="M60.306 138.449c-4.525-4.316-4.695-11.483-.38-16.008l41.357-43.37c4.316-4.526 11.483-4.696 16.008-.38l35.93 34.261c2.125 2.026 3.327 4.825 2.481 7.636-1.624 5.394-6.403 15.605-20.441 30.327-13.832 14.505-24.508 20.652-30.452 23.207-3.223 1.385-6.748.329-9.287-2.092l-35.216-33.581z" fill="url(#g41kz4z4jN)"/><mask id="a" style="mask-type:alpha" maskUnits="userSpaceOnUse" x="56" y="75" width="100" height="100"><path fill-rule="evenodd" clip-rule="evenodd" d="M60.306 138.449c-4.525-4.316-4.695-11.483-.38-16.008l41.357-43.37c4.316-4.526 11.483-4.696 16.008-.38l35.93 34.261c2.125 2.026 3.327 4.825 2.481 7.636-1.624 5.394-6.403 15.605-20.441 30.327-13.832 14.505-24.508 20.652-30.452 23.207-3.223 1.385-6.748.329-9.287-2.092l-35.216-33.581z" fill="#fff"/></mask><g filter="url(#s3vgz1wefP)" mask="url(#a)"><path d="M139.685 135.102a7.14 7.14 0 01-4.725 3.629 1.645 1.645 0 01-1.966-1.203 1.59 1.59 0 011.194-1.934 3.94 3.94 0 002.607-2.001 3.92 3.92 0 00.164-3.278 1.59 1.59 0 01.914-2.08 1.647 1.647 0 012.111.926 7.108 7.108 0 01-.299 5.941z" fill="url(#e08fj111uQ)"/></g><path d="M60.551 123.037l41.357-43.37c3.987-4.18 10.607-4.338 14.787-.351l35.93 34.261c1.973 1.882 2.972 4.36 2.249 6.762-1.575 5.232-6.268 15.329-20.239 29.979-13.762 14.432-24.343 20.507-30.167 23.01-2.829 1.215-5.995.322-8.35-1.923l-35.215-33.581c-4.18-3.987-4.338-10.607-.352-14.787z" stroke="url(#w1mfc7t43R)" stroke-width="1.728"/><mask id="b" style="mask-type:alpha" maskUnits="userSpaceOnUse" x="56" y="75" width="100" height="100"><path d="M60.551 123.037l41.357-43.37c3.987-4.18 10.607-4.338 14.787-.351l35.93 34.261c1.973 1.882 2.972 4.36 2.249 6.762-1.575 5.232-6.268 15.329-20.239 29.979-13.762 14.432-24.343 20.507-30.167 23.01-2.829 1.215-5.995.322-8.35-1.923l-35.215-33.581c-4.18-3.987-4.338-10.607-.352-14.787z" fill="#fff" stroke="#fff" stroke-width="1.728"/></mask><g mask="url(#b)"><ellipse cx="78.182" cy="123.374" rx="45.691" ry="46.458" transform="rotate(-46.361 78.182 123.374)" fill="url(#qtnw3u7w3T)"/></g><g filter="url(#vl66026xjU)"><path d="M77.863 147.745a7.684 7.684 0 01-.258-10.863l38.402-40.271a7.683 7.683 0 1111.121 10.604l-19.572 20.524-18.83 19.748a7.683 7.683 0 01-10.863.258z" fill="#fff"/></g><g opacity=".542" filter="url(#ygxkfty8qV)"><path d="M77.863 147.745a7.684 7.684 0 01-.258-10.863l38.402-40.271a7.683 7.683 0 1111.121 10.604l-19.572 20.524-18.83 19.748a7.683 7.683 0 01-10.863.258z" fill="url(#2s1wustcpW)"/></g><path fill-rule="evenodd" clip-rule="evenodd" d="M84.45 89.873l-1.778 1.864c-.486.51-1.303.521-1.825.024-.52-.497-.549-1.313-.062-1.824l1.778-1.864c.486-.51 1.303-.521 1.825-.024a1.29 1.29 0 01.062 1.824zm.724-5.956l-1.778 1.864a1.291 1.291 0 01-1.825.025c-.521-.497-.55-1.314-.062-1.825l1.777-1.864c.487-.51 1.304-.521 1.826-.024.52.497.549 1.314.062 1.824zM96.84 76.88l-9.736 10.21c-.49.514-1.31.527-1.831.03a1.295 1.295 0 01-.057-1.83l9.732-10.206a1.295 1.295 0 011.831-.03c.521.497.547 1.317.057 1.83l.004-.004zm.685-5.915l-9.663 10.133c-.509.534-1.344.564-1.865.067-.522-.497-.531-1.333-.022-1.867l9.662-10.133c.51-.534 1.345-.564 1.866-.067.521.497.53 1.333.022 1.867z" fill="#243552"/><ellipse opacity=".398" cx="82.934" cy="145.182" rx="23.671" ry="23.587" transform="rotate(-47.361 82.934 145.182)" fill="url(#do69xj1hcX)"/><mask id="c" style="mask-type:alpha" maskUnits="userSpaceOnUse" x="59" y="121" width="48" height="48"><ellipse cx="82.934" cy="145.182" rx="23.671" ry="23.587" transform="rotate(-47.361 82.934 145.182)" fill="#fff"/></mask><g mask="url(#c)"><path opacity=".309" fill-rule="evenodd" clip-rule="evenodd" d="M66.665 131.76l13.008 36.352 16.251-4.365-15.967-39.338-13.292 7.351z" fill="url(#ruj72qs0zZ)"/></g><ellipse opacity=".398" cx="124.476" cy="100.067" rx="23.671" ry="23.587" transform="rotate(-47.361 124.476 100.067)" fill="url(#w0cbk3cxzaa)"/><mask id="d" style="mask-type:alpha" maskUnits="userSpaceOnUse" x="100" y="76" width="49" height="48"><ellipse cx="124.476" cy="100.067" rx="23.671" ry="23.587" transform="rotate(-47.361 124.476 100.067)" fill="#fff"/></mask><g mask="url(#d)"><path opacity=".309" fill-rule="evenodd" clip-rule="evenodd" d="M108.124 86.736l13.007 36.352 16.251-4.365-15.966-39.338-13.292 7.351z" fill="url(#rja0xg5caac)"/></g><path fill-rule="evenodd" clip-rule="evenodd" d="M140.538 115.548c-8.194 8.899-22.004 9.511-30.848 1.368-8.843-8.143-9.37-21.957-1.176-30.856 8.193-8.898 22.004-9.51 30.847-1.368 8.844 8.144 9.371 21.958 1.177 30.856zm-41.427 44.99c-8.193 8.898-22.004 9.511-30.847 1.367-8.843-8.142-9.37-21.957-1.177-30.855 8.194-8.899 22.005-9.51 30.848-1.368 8.843 8.143 9.37 21.957 1.176 30.856zm31.273-85.805c-2.782-.076-7.135.639-9.687 1.117-.674.106-1.344.234-2.01.396l-.044.008.003.002a25.336 25.336 0 00-12.654 7.482 25.352 25.352 0 00-6.712 18.23c.012 3.033.377 5.973.664 8.929.364 3.746-1.654 3.906-3.354 5.752-1.7 1.845-1.693 3.87-5.456 3.816-2.97-.043-5.93-.164-8.954.073-6.476.276-12.914 3.084-17.667 8.247-3.529 3.831-5.867 8.678-6.468 13.284l-.002-.002.046-.012c-.106.677-.154 1.329-.204 2.01-.266 2.583-.681 7.045-.377 9.812.452 4.111-3.42 8.622-3.42 8.622l4.74 4.363s2.255-2.756 4.027-2.687c1.046.04 4.366 2.101 8.13 3.941 1.3.701 2.666 1.253 4.044 1.708 1.345.477 2.684.82 3.925.946v-.01a25.371 25.371 0 0022.677-7.897 25.363 25.363 0 004.754-27.019l-.005-.031-.031-.11c-1.026-3.417-5.969-10.46-6.392-11.975-.427-1.53.913-3.138.913-3.138s1.493-1.468 3.053-1.168c1.544.296 8.969 4.643 12.46 5.384l.112.022.03.003a25.36 25.36 0 0026.535-6.96 25.365 25.365 0 006.001-23.248l.006.004c-.228-1.227-.689-2.522-1.276-3.824a24.765 24.765 0 00-2.052-3.87c-2.144-3.6-4.513-6.694-4.639-7.733-.215-1.761 2.269-4.151 2.269-4.151l-4.738-4.364s-4.113 4.16-8.247 4.048z" fill="#1B283E"/><path d="M120.697 75.85l.131.828.012-.002.011-.002-.154-.824zm-2.01.396l.164.821.017-.003.016-.004-.197-.814zm-.044.008l-.164-.822-2.388.478 2.176 1.093.376-.749zm.003.002l.199.814 2.212-.541-2.035-1.022-.376.749zM99.28 101.968l.838-.004v-.014l-.001-.015-.837.033zm.664 8.929l-.835.081v.001l.835-.082zm-8.81 9.568l.013-.838-.013.838zm-8.954.073l.036.837h.015l.015-.002-.066-.835zm-24.135 21.531l-.568.616 1.19 1.095.21-1.603-.832-.108zm-.002-.002l-.198-.815-1.521.371 1.151 1.06.568-.616zm.046-.012l.828.13.195-1.242-1.221.298.198.814zm-.204 2.01l.834.086v-.012l.002-.012-.836-.062zm-.377 9.812l-.833.092.833-.092zm-3.42 8.622l-.636-.546-.526.614.595.548.568-.616zm4.74 4.363l-.568.617.654.602.562-.688-.648-.531zm4.027-2.687l-.032.837.032-.837zm8.13 3.941l.398-.738-.015-.008-.015-.007-.368.753zm4.044 1.708l.28-.79-.009-.004-.009-.002-.262.796zm3.925.946l-.085.834.904.092.019-.909-.838-.017zm0-.01l.132-.828-.95-.151-.02.962.838.017zm27.431-34.916l-.829.126.016.103.041.096.772-.325zm-.005-.031l.829-.126-.008-.054-.016-.053-.805.233zm-.031-.11l.805-.232-.003-.008-.802.24zm-6.392-11.975l.808-.225-.808.225zm.913-3.138l-.588-.598-.03.029-.026.032.644.537zm3.053-1.168l-.158.823.158-.823zm12.46 5.384l-.174.82.009.002.165-.822zm.112.022l-.166.822.041.008.041.004.084-.834zm.03.003l.261-.796-.086-.028-.091-.009-.084.833zm32.536-30.208l.4-.736-1.665-.905.451 1.84.814-.199zm.006.004l-.4.736 1.545.84-.321-1.73-.824.154zm-1.276-3.824l-.771.327.003.01.004.008.764-.345zm-2.052-3.87l-.72.428.009.015.009.013.702-.457zM141.1 79.2l.832-.101-.832.101zm2.269-4.151l.582.604.641-.618-.655-.603-.568.617zm-4.738-4.364l.567-.616-.595-.548-.568.575.596.59zm1.291 44.296c-7.884 8.561-21.165 9.145-29.664 1.318l-1.136 1.234c9.188 8.459 23.529 7.819 32.033-1.417l-1.233-1.135zm-29.664 1.318c-8.499-7.825-9.011-21.11-1.128-29.67l-1.233-1.136c-8.504 9.235-7.962 23.58 1.225 32.04l1.136-1.234zm-1.128-29.67c7.884-8.562 21.165-9.146 29.664-1.32l1.135-1.233c-9.187-8.46-23.528-7.819-32.032 1.417l1.233 1.135zm29.664-1.32c8.499 7.826 9.011 21.11 1.128 29.672l1.233 1.135c8.503-9.235 7.962-23.58-1.226-32.04l-1.135 1.233zm-40.3 74.662c-7.882 8.561-21.163 9.144-29.663 1.318l-1.135 1.233c9.187 8.46 23.528 7.819 32.032-1.416l-1.233-1.135zm-29.663 1.318c-8.499-7.826-9.01-21.11-1.127-29.671l-1.233-1.136c-8.504 9.236-7.962 23.58 1.225 32.04l1.135-1.233zm-1.127-29.671c7.883-8.562 21.164-9.145 29.663-1.319l1.135-1.233c-9.187-8.46-23.527-7.819-32.031 1.416l1.233 1.136zm29.663-1.319c8.499 7.826 9.012 21.11 1.128 29.672l1.233 1.135c8.504-9.236 7.962-23.58-1.225-32.04l-1.136 1.233zm33.04-56.404c-2.885-.078-7.323.655-9.864 1.13l.308 1.648c2.564-.48 6.831-1.175 9.51-1.102l.046-1.676zm-9.841 1.127a26.1 26.1 0 00-2.076.409l.394 1.63a24.11 24.11 0 011.944-.384l-.262-1.655zm-2.043.402l-.044.008.328 1.644.044-.009-.328-1.643zm-.256 1.58h.003l.752-1.497-.003-.002-.752 1.498zm.18-1.563a26.177 26.177 0 00-13.072 7.73l1.233 1.135a24.503 24.503 0 0112.237-7.236l-.398-1.628zm-13.072 7.73A26.189 26.189 0 0098.442 102l1.675-.066a24.515 24.515 0 016.491-17.63l-1.233-1.135zm-6.933 18.801c.013 3.083.384 6.079.668 9.006l1.668-.162c-.29-2.986-.648-5.869-.66-8.852l-1.676.008zm.668 9.007c.084.864.024 1.465-.103 1.906a2.527 2.527 0 01-.586 1.037c-.28.307-.619.572-1.057.918-.423.333-.916.726-1.39 1.241l1.233 1.136c.375-.408.772-.728 1.194-1.061.407-.32.868-.675 1.26-1.107a4.2 4.2 0 00.957-1.7c.202-.7.258-1.524.16-2.533l-1.668.163zm-3.136 5.102c-.475.516-.825 1.039-1.123 1.487-.308.466-.544.826-.828 1.13a2.53 2.53 0 01-.985.67c-.43.163-1.023.271-1.891.259l-.025 1.676c1.013.014 1.83-.11 2.511-.369a4.18 4.18 0 001.616-1.093c.398-.426.714-.916 1-1.347.297-.448.583-.87.958-1.277l-1.233-1.136zm-4.828 3.546c-2.94-.043-5.957-.165-9.03.075l.13 1.671c2.973-.232 5.876-.113 8.876-.07l.024-1.676zm-9.001.074c-6.693.285-13.342 3.186-18.249 8.516l1.233 1.135c4.6-4.994 10.826-7.71 17.087-7.977l-.071-1.674zm-18.249 8.516c-3.633 3.945-6.056 8.949-6.682 13.743l1.662.217c.577-4.416 2.83-9.107 6.253-12.825l-1.233-1.135zm-5.283 13.235l-.002-.002-1.136 1.233.002.002 1.136-1.233zm-.371 1.429l.046-.011-.397-1.629-.046.011.397 1.629zm-.98-.956c-.113.717-.163 1.402-.213 2.078l1.672.124c.05-.687.096-1.304.196-1.942l-1.656-.26zm-.21 2.054c-.264 2.558-.693 7.116-.377 9.99l1.666-.183c-.292-2.661.109-7.028.378-9.635l-1.668-.172zm-.377 9.99c.197 1.791-.553 3.756-1.44 5.354a18.535 18.535 0 01-1.636 2.451l-.112.138-.028.033-.006.007v.001l.636.546.636.545.001-.002.004-.003.01-.013.037-.044.132-.162a20.315 20.315 0 001.792-2.684c.935-1.685 1.895-4.031 1.64-6.351l-1.666.184zm-3.154 9.146l4.739 4.364 1.135-1.233-4.739-4.364-1.135 1.233zm5.306 3.747l.649.531.003-.004.016-.019.067-.078a11.953 11.953 0 011.164-1.166 6.63 6.63 0 011.15-.823c.398-.214.716-.3.947-.291l.065-1.675c-.656-.025-1.284.208-1.808.491a8.297 8.297 0 00-1.452 1.031 13.71 13.71 0 00-1.334 1.336l-.082.097a.614.614 0 01-.023.027l-.007.008-.002.003v.001h-.001l.648.531zm3.996-1.85c.082.004.349.071.877.304.49.215 1.098.522 1.812.897 1.41.739 3.21 1.729 5.105 2.656l.736-1.506c-1.868-.914-3.611-1.874-5.063-2.635a33.12 33.12 0 00-1.915-.946c-.506-.223-1.046-.428-1.488-.445l-.064 1.675zm7.764 3.842c1.353.729 2.767 1.3 4.18 1.766l.524-1.592c-1.343-.443-2.662-.977-3.908-1.65l-.796 1.476zm4.162 1.759c1.386.493 2.793.856 4.12.991l.17-1.668c-1.155-.117-2.426-.439-3.73-.902l-.56 1.579zm5.043.174v-.01l-1.676-.034v.01l1.676.034zm-.97.801a26.212 26.212 0 0023.426-8.157l-1.234-1.136a24.53 24.53 0 01-21.928 7.637l-.263 1.656zm23.426-8.157a26.2 26.2 0 004.909-27.912l-1.544.65a24.524 24.524 0 01-4.599 26.126l1.234 1.136zm4.966-27.713l-.005-.031-1.657.252.004.031 1.658-.252zm-.029-.138l-.031-.109-1.611.465.032.109 1.61-.465zm-.034-.117c-.548-1.83-2.104-4.542-3.504-6.89-.716-1.201-1.396-2.314-1.932-3.237a27.86 27.86 0 01-.659-1.183c-.176-.341-.264-.551-.291-.65l-1.615.451c.078.279.237.621.416.968.188.363.428.789.7 1.257.541.931 1.24 2.076 1.941 3.252 1.434 2.406 2.862 4.925 3.339 6.513l1.605-.481zm-6.386-11.96c-.134-.478-.002-1.037.245-1.559a4.692 4.692 0 01.47-.774l.03-.039.005-.007c.001 0 .001 0 0 0v.001h-.001v.001l-.644-.536c-.644-.537-.644-.537-.645-.536l-.001.001a.002.002 0 01-.002.002.03.03 0 01-.005.007l-.017.021-.054.069a6.293 6.293 0 00-.65 1.072c-.316.665-.64 1.676-.346 2.728l1.615-.451zm.105-2.913l.587.598h-.001v.001c-.001 0-.001 0 0 0l.006-.006a3.71 3.71 0 01.192-.166c.14-.113.34-.261.578-.399.499-.289 1.045-.467 1.533-.373l.316-1.646c-1.073-.207-2.053.2-2.69.569a6.282 6.282 0 00-1.015.737 1.638 1.638 0 00-.064.059l-.02.018-.006.006-.002.002-.001.001v.001l.587.598zm2.895-.345c.101.019.317.089.672.237.338.14.753.331 1.233.559.963.459 2.129 1.045 3.385 1.659 2.455 1.202 5.286 2.529 7.154 2.926l.348-1.64c-1.622-.344-4.25-1.56-6.766-2.791-1.229-.602-2.428-1.205-3.4-1.668a30.975 30.975 0 00-1.311-.593c-.36-.15-.714-.281-.999-.335l-.316 1.646zm12.453 5.383l.111.022.331-1.643-.112-.023-.33 1.644zm.193.034l.03.003.168-1.667-.03-.004-.168 1.668zm-.146-.034a26.198 26.198 0 0027.412-7.19l-1.234-1.135a24.52 24.52 0 01-25.657 6.732l-.521 1.593zm27.412-7.19a26.2 26.2 0 006.198-24.014l-1.628.399a24.525 24.525 0 01-5.804 22.48l1.234 1.135zm4.984-23.078l.006.003.8-1.473-.006-.003-.8 1.473zm1.23-.886c-.244-1.316-.733-2.68-1.336-4.015l-1.528.69c.572 1.265 1.005 2.493 1.216 3.63l1.648-.305zm-1.328-3.998a25.772 25.772 0 00-2.121-4l-1.405.913a24.1 24.1 0 011.983 3.741l1.543-.653zm-2.104-3.973c-1.083-1.817-2.228-3.516-3.093-4.852a32.456 32.456 0 01-1.057-1.717 6.812 6.812 0 01-.29-.578 2.28 2.28 0 01-.069-.184.632.632 0 01-.014-.054.053.053 0 01-.003-.014l-.001-.005-1.664.203c.054.443.309.965.576 1.445.288.52.677 1.137 1.115 1.815.887 1.37 1.999 3.018 3.06 4.8l1.44-.859zm-4.527-7.404c-.029-.234.029-.556.202-.96.17-.394.422-.802.698-1.182a11.24 11.24 0 011.029-1.215l.07-.07a.298.298 0 00.016-.016l.004-.004-.582-.603-.581-.604-.001.001-.002.002-.008.008-.025.024-.087.088a13.115 13.115 0 00-1.189 1.403 8.02 8.02 0 00-.882 1.507c-.232.54-.405 1.177-.326 1.824l1.664-.203zm2.005-4.667l-4.739-4.363-1.135 1.233 4.739 4.363 1.135-1.233zm-5.306-3.747l-.596-.59-.001.001a.136.136 0 01-.006.007l-.031.03-.126.12a18.183 18.183 0 01-2.277 1.8c-1.501.996-3.383 1.89-5.187 1.842l-.046 1.676c2.33.063 4.571-1.067 6.16-2.122a19.761 19.761 0 002.499-1.975 5.14 5.14 0 00.149-.143l.041-.04.011-.011.004-.004h.001v-.001l-.595-.59z" fill="#1B283E"/><path d="M184.362 196.669s31.485-10.226 51.952-10.16c20.307.065 51.63 10.39 51.63 10.39l-13.921 27.14-65.094-3.592-24.567-23.778z" fill="#9C5552"/><path d="M237.801 244.122c31.709.07 57.444-13.745 57.482-30.857.022-9.599-12.132-2.566-26.646-24.066-14.514-21.499-16.776-7.015-30.699-7.046-13.785-.03-12.863-12.837-29.8 5.548-17.282 18.759-27.661 15.636-27.683 25.309-.038 17.112 25.637 31.041 57.346 31.112z" fill="#F1CEB4"/><mask id="e" style="mask-type:alpha" maskUnits="userSpaceOnUse" x="180" y="177" width="116" height="68"><path d="M237.801 244.122c31.708.07 57.444-13.745 57.482-30.857.021-9.599-12.132-2.566-26.646-24.066-14.515-21.499-16.777-7.015-30.699-7.046-13.785-.03-12.863-12.837-29.801 5.548-17.281 18.759-27.66 15.636-27.682 25.309-.038 17.112 25.637 31.041 57.346 31.112z" fill="#C29371"/></mask><g mask="url(#e)"><path opacity=".1" fill-rule="evenodd" clip-rule="evenodd" d="M236.585 212.222c19.964.044 36.377-16.247 36.397-25.231.02-8.984-16.148-16.302-36.112-16.347-19.964-.044-36.164 7.203-36.184 16.187-.02 8.984 15.935 25.347 35.899 25.391z" fill="#000"/></g><path opacity=".1" d="M236.947 242.922l-32.979-24.11-7.523 2.366 3.76 14.973 30.729 12.757 40.842-7.013 7.56-19.362-4.536-7.219-37.853 27.608z" fill="#000"/><path fill-rule="evenodd" clip-rule="evenodd" d="M186.173 204.298c-31.765 3.243-57.849 27.579-62.774 59.75-2.511 16.402 10.161 31.194 26.754 31.231l172.527.382c16.593.037 29.331-14.699 26.892-31.112-4.776-32.146-30.683-56.573-62.371-60.013-3.282 16.849-50.598 38.454-50.598 38.454s-47.246-21.827-50.43-38.692z" fill="#CD5F5B"/><path fill-rule="evenodd" clip-rule="evenodd" d="M346.066 250.759c-25.505 18.022-65.104 29.549-109.546 29.451-44.505-.099-84.103-11.834-109.523-30.014a70.96 70.96 0 00-3.597 13.916c-2.511 16.401 10.161 31.194 26.754 31.231l172.527.382c16.593.037 29.33-14.7 26.892-31.113a70.976 70.976 0 00-3.507-13.853z" fill="#000" fill-opacity=".081"/><path d="M229.765 247.25l51.275-15.886-7.425-10.223-43.85 26.109zm6.837-4.26l-44.594-11.478 8.023-10.464 36.571 21.942z" fill="#9C5552"/><path d="M285.146 198.244c1.297-1.966 4.303-1.507 4.954.757l2.098 7.295-11.406 25.275-15.262-3.588 19.616-29.739zm-97.266-1.142c-1.416-1.688-4.142-1.116-4.761.998l-2.365 8.088 11.294 25.324 17.358-8.757-21.526-25.653z" fill="#C46B67"/><path d="M229.904 247.044l20.703-6.575-.121 55.032-20-.044-.582-48.413z" fill="url(#rgdd7o8bvae)"/><circle cx="235.953" cy="255.746" r="1.931" transform="rotate(.127 235.953 255.746)" fill="#BC9E78"/><circle cx="235.924" cy="268.022" r="1.931" transform="rotate(.127 235.924 268.022)" fill="#BC9E78"/><circle cx="235.897" cy="280.297" r="1.931" transform="rotate(.127 235.897 280.297)" fill="#BC9E78"/><path fill-rule="evenodd" clip-rule="evenodd" d="M293.886 107.314c-4.677-.601-9.461 7.634-10.685 18.393-1.224 10.756 1.575 19.961 6.253 20.56 4.676.599 7.032-8.054 11.058-18.689 4.027-10.636-1.947-19.667-6.626-20.264zm-112.76-2.527c4.698-.39 9.109 8.051 9.85 18.853.741 10.8-2.467 19.872-7.167 20.26-4.698.389-6.665-8.361-10.211-19.166-3.546-10.805 2.827-19.56 7.528-19.947z" fill="#F1CEB4"/><path d="M288.355 156.591c1.818-15.427 4.362-42.054 4.362-42.054.613-60.004-33.551-64.703-53.915-64.913-20.364-.21-54.34 4.139-54.954 64.143 0 0-1.587 24.521 1.398 41.762 2.709 15.655 25.808 47.75 50.619 48.006 24.811.255 50.628-31.135 52.49-46.944z" fill="#fff"/><path d="M288.474 156.433c1.818-15.427 4.443-42.055 4.443-42.055.616-60.005-33.792-64.547-54.156-64.756-20.365-.21-54.341 4.14-54.957 64.144 0 0-1.587 24.521 1.397 41.762 2.708 15.655 25.806 47.749 50.617 48.004 24.811.254 50.793-31.29 52.656-47.099z" fill="#F1CEB4"/><mask id="f" style="mask-type:alpha" maskUnits="userSpaceOnUse" x="183" y="49" width="110" height="155"><path d="M288.311 156.588c1.817-15.426 4.362-42.053 4.362-42.053.614-60.004-33.55-64.703-53.914-64.912-20.364-.21-54.341 4.139-54.955 64.143 0 0-1.587 24.521 1.398 41.762 2.708 15.655 25.806 47.75 50.618 48.005 24.811.255 50.628-31.135 52.491-46.945z" fill="#E7C1A6"/></mask><g mask="url(#f)"><path opacity=".118" fill-rule="evenodd" clip-rule="evenodd" d="M210.34 169.128c-1.39 13.837 15.347 24.05 25.96 23.966 12.871-.103 25.752-10.387 25.918-22.394.121-8.72-10.238-5.253-25.176-5.249l-.122-.001c-14.075-.024-25.828-3.842-26.58 3.678zm25.85 34.705c-.514.026-1.04.039-1.584.033-18.648-.191-46.073-21.819-50.066-52.185-2.77-21.052-2.344-30.117-1.847-38.504l.037-.627.038-.627.037-.626.036-.627c.072-1.254.139-2.519.189-3.832.371-9.658 4.975-20.183 4.229-4.181-1.173 19.534 4.425 67.769 19.921 59.258 7.985-7.208 21.756-4.137 29.74-3.959l.167.003c14.336.148 21.896-.126 28.678 3.758 18.802 14.218 23.522-49.672 23.226-57.107-.422-15.961 5.067-5.788 3.464 3.67-2.114 12.463 1.073 22.855-3.951 48.772-5.336 27.529-31.967 47.04-50.726 46.847a25.153 25.153 0 01-1.588-.066z" fill="#91715A"/></g><mask id="g" style="mask-type:alpha" maskUnits="userSpaceOnUse" x="216" y="169" width="40" height="11"><path d="M255.988 171.115c-2.875 4.981-6.307 9.302-21.019 8.664-9.946-.431-15.708-5.159-18.304-9.641 0 0 8.077-.789 19.6-.564 11.522.225 19.723 1.541 19.723 1.541z" fill="#AA694F"/></mask><g mask="url(#g)" fill-rule="evenodd" clip-rule="evenodd"><path d="M258.601 169.118c-2.202 22.522-45.483 18.345-45.035-1.952l45.035 1.952z" fill="#AA694F"/><path d="M262.567 168.761c-.977 6.187-6.196 7.829-26.324 7.436-20.128-.392-26.645-3.806-26.64-9.732l52.964 2.296z" fill="#fff"/></g><path opacity=".2" fill-rule="evenodd" clip-rule="evenodd" d="M225.423 179.889c1.047 2.183 5.562 3.904 11.009 4.026 5.448.122 10.035-1.395 11.179-3.529-3.124.508-6.966.763-11.115.67-4.148-.093-7.975-.52-11.073-1.167z" fill="#91715A"/><mask id="h" style="mask-type:alpha" maskUnits="userSpaceOnUse" x="183" y="49" width="110" height="93"><path d="M289.03 127.482c1.824-15.426 3.114 47.069 3.725-12.936.611-60.004-33.708-64.706-54.165-64.918-20.457-.21-54.214 4.153-54.825 64.158-.611 60.004-1.285-5.865 1.715 11.376 2.723 15.656 27.283-35.476 52.207-35.218 24.924.258 49.474 53.347 51.343 37.538z" fill="#87583D"/></mask><g mask="url(#h)"><path fill-rule="evenodd" clip-rule="evenodd" d="M237.881 52.707c25.577.573 45.437 4.7 48.419 44.358.237 3.154 4.171 16.894 4.69 20.496 3.386 6.32-1.014-60.877-.951-63.686.164-7.303-43.847-14.212-51.862-14.392-8.014-.18-52.215 4.754-52.379 12.057-.072 3.22-7.667 81.137.862 58.672 1.246-3.282 1.844-9.33 3.638-15.297 7.038-46.58 20.52-42.815 47.583-42.208z" fill="#87583D"/></g><path d="M201.355 60.008c-2.265 1.72-9.689 12.986-4.264 6.592 5.426-6.393 24.73-15.194 41.07-14.935 16.232.258 34.492 11.44 40.241 16.123 5.75 4.684-.901-5.343-3.03-7.563-2.378-2.481-13.749-12.302-13.405-9.544.524 4.2-3.738-1.793-7.068-3.207-3.453-1.466-17.511-5.994-14.027-2.14 2.534 2.802-6.978 2.943-10.374 1.594-3.438-1.366-6.871 1.688-10.089 1.616-3.648-.081-6.548 1.366-10.444 3.815-2.44 1.534-6.231 5.843-8.61 7.649z" fill="#87583D"/><path d="M227.379 141.692c1.118 5.303 4.36 7.846 9.726 7.63 5.366-.217 8.073-2.699 8.122-7.447" stroke="#B99982" stroke-width="2.117"/><path fill-rule="evenodd" clip-rule="evenodd" d="M213.317 119.556c3.197-.303 6.05 2.217 6.373 5.63.324 3.413-2.005 6.425-5.202 6.728-3.197.303-6.051-2.219-6.374-5.631-.324-3.413 2.006-6.424 5.203-6.727zm45.747 1.268c3.196-.303 6.049 2.217 6.373 5.63.323 3.413-2.006 6.425-5.202 6.728-3.196.303-6.052-2.219-6.375-5.631-.323-3.413 2.008-6.424 5.204-6.727z" fill="#032B42"/><path fill-rule="evenodd" clip-rule="evenodd" d="M198.069 110.369c-2.576 2.998 2.296 4.533 4.877 1.534 4.453-5.17 14.048-4.711 20.134-1.287 3.577 2.012 6.949-2.887 3.36-4.906-8.825-4.965-21.905-2.839-28.371 4.659zm80.238 2.018c2.419 3.124-2.527 4.411-4.95 1.286-4.178-5.388-13.786-5.414-20.039-2.302-3.678 1.829-6.791-3.234-3.103-5.07 9.07-4.512 22.024-1.728 28.092 6.086z" fill="#744A32"/><path fill-rule="evenodd" clip-rule="evenodd" d="M234.342 53.61c-8.878.447-17.982 2.888-22.343 4.373-11.661 3.972-20.635 6.801-13.686 1.067 3.078-2.54 6.366-1.849 8.05-3.624 0 0-7.147.26-3.313-2.518 3.834-2.778 10.118-2.775 10.118-2.775s-7.77-3.97.747-4.122c8.517-.152 9.173 1.021 9.173 1.021s.955-5.668 7.384-4.563c6.429 1.105 11.892 3.044 22.769 7.238 11.373 4.386 18.553 12.282 14.721 10.972-6.327-2.573-20.281-7.743-33.62-7.07z" fill="#87583D"/><path fill-rule="evenodd" clip-rule="evenodd" d="M269.077 59.1c-14.255-12.902-15.377-3.507-21.019-9.418l.117-.204c.877-1.526 3.93-.59 3.93-.59s-4.479-1.973-3.804-2.701c4.082-.283 9.216 2.657 9.216 2.657s-4.489-2.453-3.708-2.919c6.658 1.894 10.523 4.894 10.523 4.894s-.568-1.244.616-1.073c19.665 12.24 20.177 26.284 20.177 26.284-1.527-.232-7.893-12.775-15.086-16.38l-.962-.55z" fill="#87583D"/><path fill-rule="evenodd" clip-rule="evenodd" d="M274.757 62.666c1.175 2.16 11.184 24.064 13.321 21.383.868-1.089-.567-2.95-.567-2.95s1.298 2.154 2.883 1.846c-2.025-11.854-8.365-16.367-8.365-16.367s2.878 2.406 3.014 1.712c-.211-4.985-15.614-15.43-10.286-5.624zm-71.688-1.606c-1.27 2.106-12.25 23.539-14.265 20.765-.819-1.126 1.762-4.892 1.762-4.892s-2.951 2.636-3.27 1.92c1.262-8.965 8.334-14.21 8.334-14.21s-2.983 2.274-3.088 1.575c.434-4.97 16.289-14.716 10.527-5.158zm28.713-11.411c-2.374.642-25.999 5.313-23.885 8.013.858 1.096 5.188-.351 5.188-.351s-3.345 2.114-2.745 2.616c8.968 1.25 15.954-4.11 15.954-4.11s-3.007 2.244-2.363 2.537c4.898.948 18.623-11.62 7.851-8.705z" fill="#87583D"/><path fill-rule="evenodd" clip-rule="evenodd" d="M258.578 51.937c-2.428-.39-25.887-5.833-25.068-2.504.332 1.352 4.875 1.81 4.875 1.81s-7.749 1.655-7.408 2.36c7.832 2.853 17.071 1.069 17.071 1.069s-3.457 1.09-2.934 2.268c14.785 1.98 24.484-3.236 13.464-5.003z" fill="#87583D"/><path d="M182.152 167.98c6.281 4.171 7.991 12.645 3.82 18.926l-15.316 23.061a13.65 13.65 0 01-12.454 6.059l-5.735 7.626.436.289c1.343.891 1.665 2.763.677 4.041l-15.483 20.277a2.784 2.784 0 01-3.778.624l-.551-.366-6.523 8.674c-2.276 3.042-6.521 3.76-9.692 1.679a7.137 7.137 0 01-2.21-9.577l5.471-9.371-.561-.372a2.778 2.778 0 01-.889-3.722l12.701-22.122a2.825 2.825 0 014.023-.922l.411.273 6.124-10.489c-.56-3.304.088-6.82 2.088-9.832l15.316-23.061c4.172-6.281 12.645-7.991 18.926-3.82l3.199 2.125z" fill="#000" fill-opacity=".15"/><path d="M186.901 295.523l-24.802-64.424a4.395 4.395 0 10-8.191 3.188L178 295.523h8.901z" fill="#1D1D1D"/><path fill-rule="evenodd" clip-rule="evenodd" d="M131.096 217.575l16.177-13.89L163.9 223.16a10.675 10.675 0 01-1.166 15.053 10.603 10.603 0 01-15.011-1.163l-16.627-19.475z" fill="#2E2E2E"/><path d="M159.037 228.805c-.212 2.743-2.598 4.795-5.328 4.583-2.73-.211-4.771-2.606-4.558-5.349.212-2.742 2.598-4.794 5.328-4.582 2.73.211 4.771 2.606 4.558 5.348z" fill="#808C8D"/><path d="M143.757 187.101l18.74 12.436-39.928 53.095c-2.353 3.144-6.742 3.886-10.02 1.735a7.377 7.377 0 01-2.285-9.901l33.493-57.365z" fill="#2F3B48"/><path d="M127.552 207.675l-13.131 22.871a2.872 2.872 0 00.92 3.847l14.542 9.649a2.878 2.878 0 003.906-.645l16.006-20.963c1.022-1.322.688-3.256-.7-4.177l-17.384-11.536a2.921 2.921 0 00-4.159.954z" fill="#212932"/><rect width="32.199" height="56.849" rx="14.114" transform="scale(-1 1) rotate(-33.589 183.118 400.672)" fill="#1D1D1D"/></g><defs><linearGradient id="00u11hsneb" x1="340.957" y1="138.99" x2="307.127" y2="174.585" gradientUnits="userSpaceOnUse"><stop stop-color="#00D0FF"/><stop offset="1" stop-color="#637BFF" stop-opacity="0"/></linearGradient><linearGradient id="4oaa0jencd" x1="295.664" y1="179.711" x2="331.708" y2="121.254" gradientUnits="userSpaceOnUse"><stop stop-color="#C4D6EB" stop-opacity=".676"/><stop offset="1" stop-color="#91ACD2" stop-opacity=".3"/></linearGradient><linearGradient id="l6hohulyle" x1="319.832" y1="153.498" x2="336.228" y2="126.008" gradientUnits="userSpaceOnUse"><stop stop-color="#76E1FF"/><stop offset="1" stop-color="#637BFF" stop-opacity="0"/></linearGradient><linearGradient id="oggmsh7xah" x1="334.579" y1="145.357" x2="341.372" y2="152.508" gradientUnits="userSpaceOnUse"><stop stop-color="#5B79A2"/><stop offset="1" stop-color="#2E4469"/></linearGradient><linearGradient id="g1y1zryben" x1="361.157" y1="99.263" x2="378.081" y2="101.559" gradientUnits="userSpaceOnUse"><stop stop-color="#F44881"/><stop offset="1" stop-color="#EC454F"/></linearGradient><linearGradient id="wsm09qt73o" x1="369.821" y1="112.396" x2="376.138" y2="106.396" gradientUnits="userSpaceOnUse"><stop stop-color="#8B60ED"/><stop offset="1" stop-color="#B372BD"/></linearGradient><linearGradient id="ip71gcdq6p" x1="383.094" y1="115.154" x2="376.778" y2="121.154" gradientUnits="userSpaceOnUse"><stop stop-color="#6EDCC4"/><stop offset="1" stop-color="#1AAB8B"/></linearGradient><linearGradient id="qtz5cyg8rq" x1="381.538" y1="105.999" x2="370.391" y2="90.49" gradientUnits="userSpaceOnUse"><stop stop-color="#F19A1A"/><stop offset="1" stop-color="#FFC73C"/></linearGradient><linearGradient id="74wfxcn5sr" x1="385.401" y1="76.232" x2="402.325" y2="78.529" gradientUnits="userSpaceOnUse"><stop stop-color="#F44881"/><stop offset="1" stop-color="#EC454F"/></linearGradient><linearGradient id="7k13uzmhwt" x1="389.653" y1="133.514" x2="408.275" y2="134.197" gradientUnits="userSpaceOnUse"><stop stop-color="#1390B3"/><stop offset="1" stop-color="#4BDEFF"/></linearGradient><linearGradient id="hwacluey7v" x1="343.832" y1="84.267" x2="362.454" y2="84.95" gradientUnits="userSpaceOnUse"><stop stop-color="#1390B3"/><stop offset="1" stop-color="#4BDEFF"/></linearGradient><linearGradient id="z12mbqeigw" x1="64.243" y1="262.736" x2="148.111" y2="333.832" gradientUnits="userSpaceOnUse"><stop stop-color="#5B79A2"/><stop offset="1" stop-color="#2E4469"/></linearGradient><linearGradient id="cdrfk1fnix" x1="64.243" y1="262.736" x2="148.111" y2="333.832" gradientUnits="userSpaceOnUse"><stop stop-color="#5B79A2"/><stop offset="1" stop-color="#2E4469"/></linearGradient><linearGradient id="dvmxl2zxzA" x1="263.711" y1="139.902" x2="248.11" y2="164.833" gradientUnits="userSpaceOnUse"><stop stop-color="#374F73"/><stop offset="1" stop-color="#253652"/></linearGradient><linearGradient id="2mvj3evyhB" x1="15.392" y1="7.384" x2="15.392" y2="0" gradientUnits="userSpaceOnUse"><stop stop-color="#5B79A2"/><stop offset="1" stop-color="#2E4469"/></linearGradient><linearGradient id="6r0aialkvD" x1="224.114" y1="183.863" x2="160.036" y2="244.042" gradientUnits="userSpaceOnUse"><stop stop-color="#21C8F6"/><stop offset="1" stop-color="#637BFF"/></linearGradient><linearGradient id="3zdsvnt84E" x1="64.551" y1="239.479" x2="109.039" y2="281.109" gradientUnits="userSpaceOnUse"><stop stop-color="#5B79A2"/><stop offset="1" stop-color="#2E4469"/></linearGradient><linearGradient id="2w5dhd2vhF" x1="-90.587" y1="305.819" x2="-14.793" y2="386.524" gradientUnits="userSpaceOnUse"><stop stop-color="#6F90BC"/><stop offset="1" stop-color="#2E4469"/></linearGradient><linearGradient id="qapwoermpH" x1="142.308" y1="162.039" x2="169.4" y2="180.011" gradientUnits="userSpaceOnUse"><stop stop-color="#5B79A2"/><stop offset="1" stop-color="#2E4469"/></linearGradient><linearGradient id="q2qfw69pxK" x1="114.873" y1="169.781" x2="137.031" y2="183.722" gradientUnits="userSpaceOnUse"><stop stop-color="#55739C"/><stop offset="1" stop-color="#4179D5"/></linearGradient><linearGradient id="8flv6av7qL" x1="51.702" y1="120.844" x2="57.953" y2="120.844" gradientUnits="userSpaceOnUse"><stop stop-color="#21C8F6"/><stop offset="1" stop-color="#637BFF"/></linearGradient><linearGradient id="g41kz4z4jN" x1="178.235" y1="114.446" x2="103.521" y2="43.2" gradientUnits="userSpaceOnUse"><stop stop-color="#25C2F2" stop-opacity=".22"/><stop offset="1" stop-color="#293F64"/></linearGradient><linearGradient id="w1mfc7t43R" x1="234.82" y1="40.296" x2="79.639" y2="23.035" gradientUnits="userSpaceOnUse"><stop stop-color="#76E1FF"/><stop offset="1" stop-color="#637BFF" stop-opacity=".01"/></linearGradient><linearGradient id="qtnw3u7w3T" x1="-.664" y1="121.448" x2="87.296" y2="211.194" gradientUnits="userSpaceOnUse"><stop stop-color="#587CB9"/><stop offset="1" stop-color="#2E4469" stop-opacity=".01"/></linearGradient><linearGradient id="do69xj1hcX" x1="106.009" y1="121.595" x2="59.859" y2="121.595" gradientUnits="userSpaceOnUse"><stop stop-color="#21C8F6"/><stop offset="1" stop-color="#637BFF"/></linearGradient><linearGradient id="ruj72qs0zZ" x1="76.151" y1="121.458" x2="54.795" y2="144.651" gradientUnits="userSpaceOnUse"><stop stop-color="#21C8F6"/><stop offset="1" stop-color="#637BFF"/></linearGradient><linearGradient id="w0cbk3cxzaa" x1="147.551" y1="76.48" x2="101.402" y2="76.48" gradientUnits="userSpaceOnUse"><stop stop-color="#21C8F6"/><stop offset="1" stop-color="#637BFF"/></linearGradient><linearGradient id="rja0xg5caac" x1="117.61" y1="76.434" x2="96.253" y2="99.627" gradientUnits="userSpaceOnUse"><stop stop-color="#21C8F6"/><stop offset="1" stop-color="#637BFF"/></linearGradient><linearGradient id="rgdd7o8bvae" x1="230.559" y1="262.838" x2="250.558" y2="262.813" gradientUnits="userSpaceOnUse"><stop stop-color="#9C5552"/><stop offset="1" stop-color="#9C5552" stop-opacity="0"/></linearGradient><radialGradient id="1v3oi8at3a" cx="0" cy="0" r="1" gradientUnits="userSpaceOnUse" gradientTransform="rotate(-133.529 169.018 -100.278) scale(75.9012 19.3715)"><stop/><stop offset="1" stop-opacity=".01"/></radialGradient><radialGradient id="0k8hsgy0mc" cx="0" cy="0" r="1" gradientUnits="userSpaceOnUse" gradientTransform="rotate(-176.638 92.966 88.005) scale(168.866 200.485)"><stop stop-color="#25C2F2" stop-opacity=".626"/><stop offset="1" stop-color="#293F64"/></radialGradient><radialGradient id="a51a4uk32g" cx="0" cy="0" r="1" gradientUnits="userSpaceOnUse" gradientTransform="matrix(9.2076 -8.08612 6.21526 7.07728 400.512 4.517)"><stop stop-color="#21C8F6"/><stop offset="1" stop-color="#6EE4FF"/></radialGradient><radialGradient id="8awzib6pmi" cx="0" cy="0" r="1" gradientUnits="userSpaceOnUse" gradientTransform="matrix(1.07023 -.93988 1.036 1.1797 406.178 4.031)"><stop stop-color="#21C8F6"/><stop offset="1" stop-color="#6EE4FF"/></radialGradient><radialGradient id="den8htroay" cx="0" cy="0" r="1" gradientUnits="userSpaceOnUse" gradientTransform="matrix(106.93553 55.12974 -87.66 170.0347 96.349 223.919)"><stop stop-color="#25C2F2" stop-opacity=".626"/><stop offset="1" stop-color="#293F64"/></radialGradient><radialGradient id="hx76772xbz" cx="0" cy="0" r="1" gradientUnits="userSpaceOnUse" gradientTransform="matrix(-7.13559 0 0 -1.50701 237.042 135.376)"><stop stop-color="#172743"/><stop offset="1" stop-opacity=".01"/></radialGradient><radialGradient id="4imcp30vsG" cx="0" cy="0" r="1" gradientUnits="userSpaceOnUse" gradientTransform="matrix(63.75563 6.33908 -15.85314 159.44382 93.292 225.189)"><stop stop-color="#25C2F2" stop-opacity=".626"/><stop offset="1" stop-color="#293F64"/></radialGradient><radialGradient id="eoq2rsfb7J" cx="0" cy="0" r="1" gradientUnits="userSpaceOnUse" gradientTransform="matrix(0 13.5058 -13.495 0 9.871 9.88)"><stop stop-color="#21C8F6"/><stop offset="1" stop-color="#4BDEFF"/></radialGradient><radialGradient id="rd6cida28M" cx="0" cy="0" r="1" gradientUnits="userSpaceOnUse" gradientTransform="matrix(-16.10822 -24.16148 94.47995 -62.98885 149.304 175.507)"><stop stop-color="#25C2F2"/><stop offset="1" stop-color="#293F64"/></radialGradient><radialGradient id="e08fj111uQ" cx="0" cy="0" r="1" gradientUnits="userSpaceOnUse" gradientTransform="matrix(3.68049 -7.02847 3.15245 1.6508 137.378 133.9)"><stop stop-color="#21C8F6"/><stop offset="1" stop-color="#4BDEFF"/></radialGradient><radialGradient id="2s1wustcpW" cx="0" cy="0" r="1" gradientUnits="userSpaceOnUse" gradientTransform="matrix(33.5209 -35.1526 7.6067 7.25362 102.366 122.049)"><stop stop-color="#21C8F6"/><stop offset="1" stop-color="#4BDEFF"/></radialGradient><filter id="41se1cb0tf" x="303.883" y="119.083" width="55.83" height="56.283" filterUnits="userSpaceOnUse" color-interpolation-filters="sRGB"><feFlood flood-opacity="0" result="BackgroundImageFix"/><feColorMatrix in="SourceAlpha" values="0 0 0 0 0 0 0 0 0 0 0 0 0 0 0 0 0 0 127 0" result="hardAlpha"/><feOffset/><feGaussianBlur stdDeviation="8.123"/><feColorMatrix values="0 0 0 0 0.137255 0 0 0 0 0.788235 0 0 0 0 0.968627 0 0 0 0.4263 0"/><feBlend in2="BackgroundImageFix" result="effect1_dropShadow_4423_76909"/><feBlend in="SourceGraphic" in2="effect1_dropShadow_4423_76909" result="shape"/></filter><filter id="61r5gqmgxm" x="349.694" y="62.676" width="55.47" height="70.41" filterUnits="userSpaceOnUse" color-interpolation-filters="sRGB"><feFlood flood-opacity="0" result="BackgroundImageFix"/><feColorMatrix in="SourceAlpha" values="0 0 0 0 0 0 0 0 0 0 0 0 0 0 0 0 0 0 127 0" result="hardAlpha"/><feOffset/><feGaussianBlur stdDeviation="4.728"/><feColorMatrix values="0 0 0 0 0.137255 0 0 0 0 0.788235 0 0 0 0 0.968627 0 0 0 0.216701 0"/><feBlend in2="BackgroundImageFix" result="effect1_dropShadow_4423_76909"/><feBlend in="SourceGraphic" in2="effect1_dropShadow_4423_76909" result="shape"/></filter><filter id="5m6yoovuws" x="368.096" y="84.042" width="61.934" height="60.349" filterUnits="userSpaceOnUse" color-interpolation-filters="sRGB"><feFlood flood-opacity="0" result="BackgroundImageFix"/><feColorMatrix in="SourceAlpha" values="0 0 0 0 0 0 0 0 0 0 0 0 0 0 0 0 0 0 127 0" result="hardAlpha"/><feOffset/><feGaussianBlur stdDeviation="6.447"/><feColorMatrix values="0 0 0 0 0.137255 0 0 0 0 0.788235 0 0 0 0 0.968627 0 0 0 0.4263 0"/><feBlend in2="BackgroundImageFix" result="effect1_dropShadow_4423_76909"/><feBlend in="SourceGraphic" in2="effect1_dropShadow_4423_76909" result="shape"/></filter><filter id="divdd2mmcu" x="335.638" y="48.802" width="61.934" height="60.349" filterUnits="userSpaceOnUse" color-interpolation-filters="sRGB"><feFlood flood-opacity="0" result="BackgroundImageFix"/><feColorMatrix in="SourceAlpha" values="0 0 0 0 0 0 0 0 0 0 0 0 0 0 0 0 0 0 127 0" result="hardAlpha"/><feOffset/><feGaussianBlur stdDeviation="6.447"/><feColorMatrix values="0 0 0 0 0.137255 0 0 0 0 0.788235 0 0 0 0 0.968627 0 0 0 0.4263 0"/><feBlend in2="BackgroundImageFix" result="effect1_dropShadow_4423_76909"/><feBlend in="SourceGraphic" in2="effect1_dropShadow_4423_76909" result="shape"/></filter><filter id="cncb7vzcpC" x="146.158" y="172.035" width="94.976" height="91.181" filterUnits="userSpaceOnUse" color-interpolation-filters="sRGB"><feFlood flood-opacity="0" result="BackgroundImageFix"/><feColorMatrix in="SourceAlpha" values="0 0 0 0 0 0 0 0 0 0 0 0 0 0 0 0 0 0 127 0" result="hardAlpha"/><feOffset dy="2"/><feGaussianBlur stdDeviation="7"/><feColorMatrix values="0 0 0 0 0.0115609 0 0 0 0 0.46791 0 0 0 0 1 0 0 0 1 0"/><feBlend in2="BackgroundImageFix" result="effect1_dropShadow_4423_76909"/><feBlend in="SourceGraphic" in2="effect1_dropShadow_4423_76909" result="shape"/></filter><filter id="aamkbil5fI" x="115.921" y="131.919" width="63.875" height="63.878" filterUnits="userSpaceOnUse" color-interpolation-filters="sRGB"><feFlood flood-opacity="0" result="BackgroundImageFix"/><feBlend in="SourceGraphic" in2="BackgroundImageFix" result="shape"/><feGaussianBlur stdDeviation="6.711" result="effect1_foregroundBlur_4423_76909"/></filter><filter id="s3vgz1wefP" x="120.947" y="119.128" width="31.548" height="34.646" filterUnits="userSpaceOnUse" color-interpolation-filters="sRGB"><feFlood flood-opacity="0" result="BackgroundImageFix"/><feColorMatrix in="SourceAlpha" values="0 0 0 0 0 0 0 0 0 0 0 0 0 0 0 0 0 0 127 0" result="hardAlpha"/><feOffset dy="3"/><feGaussianBlur stdDeviation="6"/><feColorMatrix values="0 0 0 0 0.137255 0 0 0 0 0.788235 0 0 0 0 0.968627 0 0 0 1 0"/><feBlend in2="BackgroundImageFix" result="effect1_dropShadow_4423_76909"/><feBlend in="SourceGraphic" in2="effect1_dropShadow_4423_76909" result="shape"/></filter><filter id="vl66026xjU" x="63.482" y="87.23" width="77.769" height="79.638" filterUnits="userSpaceOnUse" color-interpolation-filters="sRGB"><feFlood flood-opacity="0" result="BackgroundImageFix"/><feColorMatrix in="SourceAlpha" values="0 0 0 0 0 0 0 0 0 0 0 0 0 0 0 0 0 0 127 0" result="hardAlpha"/><feOffset dy="5"/><feGaussianBlur stdDeviation="6"/><feColorMatrix values="0 0 0 0 0.137255 0 0 0 0 0.788235 0 0 0 0 0.968627 0 0 0 1 0"/><feBlend in2="BackgroundImageFix" result="effect1_dropShadow_4423_76909"/><feBlend in="SourceGraphic" in2="effect1_dropShadow_4423_76909" result="shape"/></filter><filter id="ygxkfty8qV" x="54.482" y="78.23" width="95.769" height="97.638" filterUnits="userSpaceOnUse" color-interpolation-filters="sRGB"><feFlood flood-opacity="0" result="BackgroundImageFix"/><feColorMatrix in="SourceAlpha" values="0 0 0 0 0 0 0 0 0 0 0 0 0 0 0 0 0 0 127 0" result="hardAlpha"/><feOffset dy="5"/><feGaussianBlur stdDeviation="10.5"/><feColorMatrix values="0 0 0 0 0.137255 0 0 0 0 0.788235 0 0 0 0 0.968627 0 0 0 1 0"/><feBlend in2="BackgroundImageFix" result="effect1_dropShadow_4423_76909"/><feBlend in="SourceGraphic" in2="effect1_dropShadow_4423_76909" result="shape"/></filter></defs></svg>