<svg xmlns="http://www.w3.org/2000/svg" xmlns:xlink="http://www.w3.org/1999/xlink" width="122" height="121"><defs><linearGradient id="b" x1="48.407%" x2="51.799%" y1="82.045%" y2="0%"><stop offset="0%" stop-color="#27CBF7" stop-opacity="0"/><stop offset="100%" stop-color="#4FE7FC"/></linearGradient><linearGradient id="c" x1="17.042%" x2="100%" y1="92.829%" y2="22.786%"><stop offset="0%" stop-color="#27CBF7" stop-opacity="0"/><stop offset="100%" stop-color="#4FE7FC"/></linearGradient><linearGradient id="d" x1="50.956%" x2="49.044%" y1="91.389%" y2="5.53%"><stop offset="0%" stop-color="#27CBF7" stop-opacity="0"/><stop offset="100%" stop-color="#4FE7FC"/></linearGradient><linearGradient id="e" x1="53.055%" x2="46.945%" y1="91.389%" y2="5.53%"><stop offset="0%" stop-color="#27CBF7" stop-opacity="0"/><stop offset="100%" stop-color="#4FE7FC"/></linearGradient><linearGradient id="f" x1="15.184%" x2="89.353%" y1="47.66%" y2="50%"><stop offset="0%" stop-color="#4FE7FC"/><stop offset="0%" stop-color="#4FE7FC"/><stop offset="100%" stop-color="#27CBF7" stop-opacity="0"/></linearGradient><linearGradient id="g" x1="-2.917%" x2="89.353%" y1="47.609%" y2="50%"><stop offset="0%" stop-color="#27CBF7" stop-opacity="0"/><stop offset="100%" stop-color="#4FE7FC"/><stop offset="100%" stop-color="#4FE7FC"/></linearGradient><linearGradient id="h" x1="100.585%" x2="42.229%" y1="69.43%" y2="-16.157%"><stop offset="0%" stop-color="#4FE7FC"/><stop offset="100%" stop-color="#27CBF7" stop-opacity="0"/></linearGradient><linearGradient id="i" x1="37.797%" x2="62.203%" y1="100%" y2="17.035%"><stop offset="0%" stop-color="#4FE7FC"/><stop offset="100%" stop-color="#27CBF7" stop-opacity="0"/></linearGradient><linearGradient id="j" x1="40.797%" x2="59.203%" y1="100%" y2="17.035%"><stop offset="0%" stop-color="#4FE7FC"/><stop offset="100%" stop-color="#27CBF7" stop-opacity="0"/></linearGradient><linearGradient id="k" x1="15.184%" x2="89.353%" y1="8.534%" y2="50%"><stop offset="0%" stop-color="#4FE7FC"/><stop offset="0%" stop-color="#4FE7FC"/><stop offset="100%" stop-color="#27CBF7" stop-opacity="0"/></linearGradient><linearGradient id="l" x1="15.184%" x2="89.353%" y1="48.483%" y2="50%"><stop offset="0%" stop-color="#4FE7FC"/><stop offset="0%" stop-color="#4FE7FC"/><stop offset="100%" stop-color="#27CBF7" stop-opacity="0"/></linearGradient><linearGradient id="m" x1="75.6%" x2="34.1%" y1="92.3%" y2="3.7%"><stop offset="0%" stop-color="#637BFF"/><stop offset="100%" stop-color="#21C8F6"/></linearGradient><linearGradient id="n" x1="44.237%" x2="58.51%" y1="69.306%" y2="54.064%"><stop offset="0%"/><stop offset="100%" stop-color="#213350" stop-opacity="0"/></linearGradient><linearGradient id="o" x1="0%" x2="100%" y1="25.804%" y2="50%"><stop offset="0%" stop-color="#5A84BD"/><stop offset="100%" stop-color="#1F3251"/></linearGradient><linearGradient id="p" x1="-26.657%" x2="100%" y1=".828%" y2="117.186%"><stop offset="0%" stop-color="#00BAFF"/><stop offset="100%" stop-color="#83234B" stop-opacity="0"/></linearGradient><linearGradient id="q" x1="5.168%" x2="30.222%" y1="41.06%" y2="58.512%"><stop offset="0%" stop-color="#00BAFF"/><stop offset="100%" stop-color="#83234B" stop-opacity="0"/></linearGradient><linearGradient id="t" x1="-4.8%" x2="39.08%" y1="37.092%" y2="60.116%"><stop offset="0%" stop-color="#5B79A2"/><stop offset="100%" stop-color="#20314E"/></linearGradient><linearGradient id="w" x1="50%" x2="50%" y1="0%" y2="97.5%"><stop offset="0%" stop-color="#21C8F6"/><stop offset="100%" stop-color="#637BFF"/></linearGradient><radialGradient id="a" cx="46.945%" cy="37.936%" r="62.439%" fx="46.945%" fy="37.936%"><stop offset="0%" stop-color="#2D79B7"/><stop offset="100%" stop-color="#101A2A"/></radialGradient><radialGradient id="r" cx="52.506%" cy="57.364%" r="80.533%" fx="52.506%" fy="57.364%" gradientTransform="matrix(.52941 0 0 .3981 .247 .345)"><stop offset="0%"/><stop offset="100%" stop-opacity="0"/></radialGradient><radialGradient id="s" cx="46.3%" cy="55.812%" r="84.548%" fx="46.3%" fy="55.812%" gradientTransform="matrix(-.04721 .99496 -.51418 -.11017 .772 .159)"><stop offset="0%" stop-color="#00BAFF"/><stop offset="100%" stop-color="#83234B" stop-opacity="0"/></radialGradient><radialGradient id="u" cx="0%" cy="18.048%" r="209.144%" fx="0%" fy="18.048%" gradientTransform="matrix(.41954 .62087 -.3649 .86087 .066 .025)"><stop offset="0%" stop-color="#00BAFF"/><stop offset="100%" stop-color="#83234B" stop-opacity="0"/></radialGradient><radialGradient id="v" cx="50%" cy="50%" r="46.1%" fx="50%" fy="50%"><stop offset="0%" stop-color="#257EDD"/><stop offset="100%" stop-color="#267EDC" stop-opacity="0"/></radialGradient><radialGradient id="z" cx="50%" cy="50%" r="71.827%" fx="50%" fy="50%" gradientTransform="matrix(.95229 0 0 1 .024 0)"><stop offset="0%" stop-color="#21C8F6"/><stop offset="100%" stop-color="#4BDEFF"/></radialGradient><ellipse id="y" cx="3.5" cy="3.333" rx="3.5" ry="3.333"/><filter id="x" width="271.4%" height="280%" x="-85.7%" y="-90%" filterUnits="objectBoundingBox"><feOffset in="SourceAlpha" result="shadowOffsetOuter1"/><feGaussianBlur in="shadowOffsetOuter1" result="shadowBlurOuter1" stdDeviation="2"/><feColorMatrix in="shadowBlurOuter1" values="0 0 0 0 0.180392157 0 0 0 0 0.811764706 0 0 0 0 0.976470588 0 0 0 1 0"/></filter></defs><g fill="none" fill-rule="evenodd"><g transform="translate(.982)"><circle cx="60.043" cy="60.024" r="58" fill="url(#a)"/><g opacity=".272"><path stroke="url(#b)" d="M33.16 64.976v9.45H22.998v6.167h16.86v11.493H30.67v18.345" transform="translate(2.02 2.024)"/><path stroke="url(#c)" d="M51.79 72.622v13.854H15.166v15.236" transform="translate(2.02 2.024)"/><path stroke="url(#d)" d="M65.534 72.622v11.354h-5.998v21.94h4.234V116" transform="translate(2.02 2.024)"/><path stroke="url(#e)" d="M76.842 69.418v11.175h6.429V99.38h3.709v11.051" transform="translate(2.02 2.024)"/><path stroke="url(#f)" d="M80.538 63.365h17.414v7.676h18.071" transform="translate(2.02 2.024)"/><path stroke="url(#g)" d="M33.16 60.988H20.147v-8.275H0" transform="translate(2.02 2.024)"/><path stroke="url(#h)" d="M31.428 28V14.426H18.671" transform="translate(2.02 2.024)"/><path stroke="url(#i)" d="M44.664 14.426V6h7.126V0" transform="translate(2.02 2.024)"/><path stroke="url(#j)" d="M69.213 14.426V8.658h5.449V1.726" transform="translate(2.02 2.024)"/><path stroke="url(#k)" d="M86.98 24.717V14.426h11.3" transform="translate(2.02 2.024)"/><path stroke="url(#l)" d="M84.072 52.713h18.271v-5.566h13.68" transform="translate(2.02 2.024)"/></g><path fill="url(#m)" fill-rule="nonzero" d="M60.043 120.024a59.714 59.714 0 01-33.547-10.247 60.183 60.183 0 01-21.739-26.4 59.92 59.92 0 015.532-56.9 60.174 60.174 0 0126.4-21.738 59.92 59.92 0 0156.9 5.532 60.169 60.169 0 0121.738 26.4 59.923 59.923 0 01-5.532 56.9 60.178 60.178 0 01-26.4 21.739 59.621 59.621 0 01-23.352 4.714zm0-118a57.716 57.716 0 00-32.429 9.905A58.158 58.158 0 006.6 37.447a57.927 57.927 0 005.348 55 58.175 58.175 0 0025.518 21.014 57.927 57.927 0 0055-5.348 58.175 58.175 0 0021.014-25.518 57.927 57.927 0 00-5.348-55A58.167 58.167 0 0082.614 6.582a57.623 57.623 0 00-22.571-4.558z"/><path fill="url(#n)" d="M92.817 43.99l.323-10.945h20.839l2.307 31.102-8.377-.953z" opacity=".657" transform="rotate(90 104.551 48.596)"/><path fill="url(#n)" d="M3.817 43.99l.323-10.945h20.839l2.307 31.102-8.377-.953z" opacity=".657" transform="matrix(0 1 1 0 -33.045 33.045)"/></g><g transform="translate(1.029 8.023)"><path fill="#13223B" fill-rule="nonzero" d="M7.055 70.093S8.797 65.8 8.888 54.837h2.75A30.642 30.642 0 0017.139 72L7.055 70.093zM8.888 52.93V31h2.75v21.93h-2.75z"/><path fill="url(#o)" fill-rule="nonzero" d="M10.584 50a4.56 4.56 0 014.537 4.5 4.558 4.558 0 01-4.537 4.5 4.507 4.507 0 01-4.538-4.5 4.56 4.56 0 014.538-4.5z"/><path fill="url(#p)" fill-rule="nonzero" d="M10.584 50a4.56 4.56 0 014.537 4.5 4.558 4.558 0 01-4.537 4.5 4.507 4.507 0 01-4.538-4.5 4.56 4.56 0 014.538-4.5z" opacity=".578"/><path fill="#13223B" fill-rule="nonzero" d="M28.096 55.711c0-3.409 2.687-6.55 7.17-9.014l-34-16.25c-1.688-.852-1.688-2.367 0-3.218L56.896.64a7.822 7.822 0 016.193 0l55.637 26.59c1.688.852 1.688 2.366 0 3.217l-34 16.254c4.483 2.464 7.17 5.606 7.17 9.014 0 7.851-14.261 14.286-31.9 14.286s-31.9-6.435-31.9-14.289z"/><path fill="url(#q)" fill-rule="nonzero" d="M28.096 55.711c0-3.409 2.687-6.55 7.17-9.014l-34-16.25c-1.688-.852-1.688-2.367 0-3.218L56.896.64a7.822 7.822 0 016.193 0l55.637 26.59c1.688.852 1.688 2.366 0 3.217l-34 16.254c4.483 2.464 7.17 5.606 7.17 9.014 0 7.851-14.261 14.286-31.9 14.286s-31.9-6.435-31.9-14.289z" opacity=".578"/><ellipse cx="58.971" cy="64.977" fill="url(#r)" rx="34" ry="18"/><path fill="url(#s)" fill-rule="nonzero" d="M59.471 39.977c10.302 0 19.55 2.486 25.87 6.429l-.615.294c4.483 2.464 7.17 5.606 7.17 9.014 0 7.851-14.261 14.286-31.9 14.286s-31.9-6.435-31.9-14.289c0-3.409 2.687-6.55 7.17-9.014l-1.202-.574c6.306-3.778 15.354-6.146 25.407-6.146z" opacity=".578"/><path fill="url(#t)" fill-rule="nonzero" d="M88.957 34.183C88.957 27.478 76.065 22 60.09 22c-15.882 0-28.774 5.383-28.867 12.09 0 0-3.083 21.91-2.992 21.91 0-6.422 13.359-14.26 31.857-14.26 17.19 0 29.989 8.121 31.67 14.166.002 0-2.801-21.723-2.801-21.723z"/><path fill="url(#u)" fill-rule="nonzero" d="M88.957 34.183C88.957 27.478 76.065 22 60.09 22c-15.882 0-28.774 5.383-28.867 12.09 0 0-3.083 21.91-2.992 21.91 0-6.422 13.359-14.26 31.857-14.26 17.19 0 29.989 8.121 31.67 14.166.002 0-2.801-21.723-2.801-21.723z" opacity=".578"/><path fill="#000" fill-opacity=".29" fill-rule="nonzero" d="M61.509 22v19.833C77.958 42.4 90.059 50.144 91.761 56l-2.836-21.816c0-6.517-12.101-11.712-27.416-12.184z" opacity=".34"/></g><g transform="rotate(93 12.866 64.327)"><path stroke="#21C8F6" stroke-width="2" d="M57.87 42.61l-6.742-3.075L39.335 3.486l-28.36 15.351"/><circle cx="11" cy="18" r="11" fill="url(#v)" fill-rule="nonzero" opacity=".842"/><circle cx="51" cy="39" r="4" fill="url(#w)" fill-rule="nonzero"/><circle cx="39.5" cy="3.5" r="3.5" fill="url(#w)" fill-rule="nonzero"/><g transform="translate(8 14.667)" fill-rule="nonzero"><use fill="#000" filter="url(#x)" xlink:href="#y"/><use fill="url(#z)" xlink:href="#y"/></g></g></g></svg>