<svg width="140" height="100" fill="none" xmlns="http://www.w3.org/2000/svg"><mask id="a" style="mask-type:alpha" maskUnits="userSpaceOnUse" x="0" y="0" width="140" height="100"><path fill="#C4C4C4" d="M0 0h140v100H0z"/></mask><g mask="url(#a)"><ellipse opacity=".45" cx="70.058" cy="91.577" rx="44.058" ry="5.577" fill="url(#yw0oiksalb)"/><ellipse opacity=".2" cx="70.5" cy="51" rx="43.5" ry="38" fill="url(#uvpxk68phc)"/><ellipse cx="70.5" cy="51" rx="43.5" ry="38" stroke="url(#ssxkatb76d)" stroke-width=".5"/><path d="M27.01 59.505a1.106 1.106 0 011.106-1.116h84.788c.605 0 1.096.49 1.096 1.095 0 17.25-13.983 31.232-31.232 31.232H58.521c-17.286 0-31.346-13.926-31.51-31.211z" fill="url(#byu77yrl9e)"/><path d="M27 56.389h87c0 17.854-14.474 32.327-32.328 32.327H59.637C41.733 88.716 27.171 74.292 27 56.39z" fill="url(#fbxh5v2tvf)"/><path opacity=".399" d="M27 56.389h87c0 17.854-14.474 32.327-32.328 32.327H59.637C41.733 88.716 27.171 74.292 27 56.39z" fill="url(#netl3m27dg)"/><path opacity=".399" d="M27 56.389h87c0 17.854-14.474 32.327-32.328 32.327H59.637C41.733 88.716 27.171 74.292 27 56.39z" fill="url(#mj04r16pjh)"/><rect x="51" y="70.438" width="38.672" height="16.885" rx="5.719" fill="#0C1321"/><g filter="url(#aqrflkaxgi)"><path d="M58.08 75.555c0-.269.219-.487.488-.487l7.85.002a.487.487 0 110 .974h-3.992l-3.858-.002a.487.487 0 01-.487-.487z" fill="url(#i1wl2hvllj)"/><path d="M58.08 77.847c0-.269.219-.487.488-.487l11.121.002a.487.487 0 110 .974h-5.652l-5.469-.002a.487.487 0 01-.487-.487z" fill="url(#50o8vs82jk)"/><path d="M58.08 79.913c0-.27.22-.487.488-.487l2.839.001a.487.487 0 010 .974h-2.839a.487.487 0 01-.487-.488z" fill="url(#v3u776grhl)"/><path opacity=".2" d="M62.983 79.913c0-.27.218-.487.487-.487l2.839.001a.487.487 0 010 .974H63.47a.487.487 0 01-.487-.488z" fill="url(#xogep0uhsm)"/><path d="M67.885 79.913c0-.27.219-.487.488-.487l2.838.001a.487.487 0 110 .974h-2.838a.487.487 0 01-.488-.488z" fill="url(#2ejy59i88n)"/><path opacity=".2" d="M72.787 79.913c0-.27.219-.487.488-.487l2.838.001a.487.487 0 010 .974h-2.838a.487.487 0 01-.488-.488z" fill="url(#7rr4a3impo)"/><path d="M77.69 79.913c0-.27.218-.487.487-.487l4.472.001a.487.487 0 110 .974h-2.277l-2.195-.001a.487.487 0 01-.488-.487z" fill="url(#wa7gs8pvvp)"/><path opacity=".2" d="M58 83.5a.5.5 0 01.5-.5l24 .002a.5.5 0 010 .998H70.312L58.5 83.997a.499.499 0 01-.5-.497z" fill="url(#22ful0dxhq)"/><path d="M58 83.5a.5.5 0 01.5-.5l10 .002a.499.499 0 110 .998h-5.083l-4.918-.002A.499.499 0 0158 83.5z" fill="url(#lxqvhe231r)"/><path opacity=".2" d="M67.585 75.555c0-.269.218-.487.487-.487l1.618.001a.487.487 0 01-.001.975h-.828l-.79-.001a.487.487 0 01-.486-.488z" fill="url(#rf3sqy9u1s)"/><path d="M71.04 75.555c0-.269.219-.487.488-.487l1.618.001a.487.487 0 01-.001.975h-.828l-.79-.001a.487.487 0 01-.487-.488z" fill="url(#4fs0lvc4rt)"/><path opacity=".2" d="M71.04 77.847c0-.269.219-.487.488-.487l4.472.002a.487.487 0 010 .974h-2.277l-2.195-.002a.487.487 0 01-.488-.487z" fill="url(#jof9zp88nu)"/><path opacity=".2" d="M77.145 77.734c0-.269.218-.487.487-.487l5.074.002a.487.487 0 010 .974l-2.583-.001h-2.491a.487.487 0 01-.487-.488z" fill="url(#hbb6hx8hqv)"/><path d="M74.421 75.555c0-.269.218-.487.487-.487l7.666.002a.487.487 0 110 .974h-3.898l-3.768-.002a.487.487 0 01-.487-.487z" fill="url(#6hohy97f1w)"/></g><path opacity=".07" fill-rule="evenodd" clip-rule="evenodd" d="M56.72 70.438a5.72 5.72 0 00-5.72 5.72v5.446a5.717 5.717 0 002.933 4.996c1.475-7.286 10.574-12.894 21.577-12.894 5.407 0 10.354 1.354 14.162 3.595v-1.144a5.72 5.72 0 00-5.719-5.719H56.719z" fill="url(#d0cbe9y6zx)"/><ellipse cx="70.5" cy="56.482" rx="43.5" ry="9.414" fill="url(#wkaswfkbuy)"/><ellipse cx="70.5" cy="56.482" rx="43.5" ry="9.414" fill="url(#cme3koe45z)"/><path opacity=".566" d="M113.789 56.482c0 .579-.27 1.164-.826 1.752-.557.589-1.389 1.167-2.478 1.724-2.177 1.114-5.342 2.124-9.271 2.974-7.853 1.7-18.712 2.753-30.714 2.753-12.002 0-22.861-1.053-30.715-2.753-3.928-.85-7.093-1.86-9.27-2.974-1.09-.557-1.921-1.135-2.478-1.724-.556-.588-.826-1.173-.826-1.752 0-.58.27-1.165.826-1.753.557-.588 1.389-1.167 2.478-1.724 2.177-1.114 5.342-2.124 9.27-2.974 7.854-1.7 18.713-2.752 30.715-2.752 12.002 0 22.861 1.052 30.714 2.752 3.929.85 7.094 1.86 9.271 2.974 1.089.557 1.921 1.136 2.478 1.724.556.588.826 1.173.826 1.753z" stroke="url(#5o6ozc54kA)" stroke-width=".422"/><ellipse opacity=".523" cx="70.327" cy="61.289" rx="27.327" ry="3.904" fill="url(#l2ihbh7ywB)"/><path opacity=".7" d="M70 62c4.97 0 9-.037 9-1.447C79 59.143 74.97 58 70 58s-9 1.143-9 2.553S65.03 62 70 62z" fill="#16243A"/><path fill-rule="evenodd" clip-rule="evenodd" d="M67.112 48h6.54a3.093 3.093 0 013.093 3.093v7.618c0 .977-.792 1.768-1.768 1.768h-9.19a1.767 1.767 0 01-1.768-1.767v-7.62A3.093 3.093 0 0167.112 48z" fill="url(#s0a5j3b6cC)"/><path opacity=".447" fill-rule="evenodd" clip-rule="evenodd" d="M67.093 48h6.54a3.093 3.093 0 013.093 3.093v7.618c0 .977-.792 1.768-1.768 1.768h-9.19A1.767 1.767 0 0164 58.712v-7.62A3.093 3.093 0 0167.093 48z" fill="url(#rb5wfjinpD)"/><path d="M70.7 56.898c13.6 0 24.624-.288 24.624-11.179C95.324 34.83 84.299 26 70.7 26c-13.599 0-24.623 8.829-24.623 19.72 0 10.89 11.024 11.178 24.623 11.178z" fill="url(#lx6x3x3x6E)"/><path fill-rule="evenodd" clip-rule="evenodd" d="M70.7 56.898c13.6 0 24.624-.288 24.624-11.179C95.324 34.83 84.299 26 70.7 26c-13.599 0-24.623 8.829-24.623 19.72 0 10.89 11.024 11.178 24.623 11.178z" fill="url(#55j4p03l7F)"/><path opacity=".184" fill-rule="evenodd" clip-rule="evenodd" d="M70.7 56.898c13.6 0 24.624-.288 24.624-11.179C95.324 34.83 84.299 26 70.7 26c-13.599 0-24.623 8.829-24.623 19.72 0 10.89 11.024 11.178 24.623 11.178z" fill="url(#z3dgd4h5uG)"/><mask id="b" style="mask-type:alpha" maskUnits="userSpaceOnUse" x="51" y="29" width="40" height="25"><path d="M70.7 53.894c10.81 0 19.573-.232 19.573-9.005 0-8.773-8.763-15.885-19.572-15.885-10.81 0-19.573 7.112-19.573 15.885s8.763 9.005 19.573 9.005z" fill="#fff"/></mask><g mask="url(#b)"><path d="M70.7 53.894c10.81 0 19.573-.232 19.573-9.005 0-8.773-8.763-15.885-19.572-15.885-10.81 0-19.573 7.112-19.573 15.885s8.763 9.005 19.573 9.005z" fill="#16243C"/><path opacity=".195" d="M70.7 29.004c7.549 0 14.1 3.468 17.364 8.548-2.913-1.398-6.313-2.2-9.943-2.2-10.81 0-19.572 7.112-19.572 15.885 0 .695.055 1.337.161 1.929-4.613-.958-7.582-3.17-7.582-8.277 0-8.773 8.763-15.885 19.573-15.885z" fill="url(#dhug9e487I)"/></g><circle opacity=".842" cx="71.102" cy="42.075" r="11.005" fill="url(#y480sxa4lJ)"/><g filter="url(#myfh0z5j5K)"><circle cx="70.624" cy="42.555" r="2.871" fill="url(#j1c1qohn6L)"/></g><path fill-rule="evenodd" clip-rule="evenodd" d="M70.772 42.865L86.12 22.808l18.255 14.758-33.603 5.3z" fill="url(#jr3zdqz2jM)" style="mix-blend-mode:hard-light" opacity=".501"/><g filter="url(#pie1l2v3cN)"><path d="M88.645 26.096h-6.312a.479.479 0 110-.958h6.312a.479.479 0 110 .958z" fill="#76E2FF"/><path d="M95.442 26.096h-4.855a.479.479 0 110-.958h4.855a.479.479 0 110 .958z" fill="url(#6v806grbdO)"/><path d="M98.355 26.096h-.97a.479.479 0 110-.958h.97a.479.479 0 110 .958zm3.969 2.307h-7.282a.479.479 0 110-.958h7.282a.48.48 0 110 .958zm-9.509 4.611h-6.797a.48.48 0 110-.958h6.797a.479.479 0 110 .958zm-9.996-4.612h-.486a.479.479 0 110-.958h.486a.478.478 0 110 .958z" fill="#76E2FF"/><path d="M86.703 30.709h-4.37a.479.479 0 110-.959h4.37a.479.479 0 110 .959z" fill="url(#wi7z0tsf1P)"/><path d="M89.616 30.709h-.971a.479.479 0 110-.959h.971a.479.479 0 110 .959z" fill="#76E2FF"/><path d="M98.356 30.709h-6.798a.479.479 0 110-.959h6.797a.479.479 0 110 .959z" fill="url(#65cpyegbxQ)"/><path d="M92.072 28.446H85.76a.479.479 0 110-.958h6.312a.479.479 0 110 .958zm7.54 4.568h-4.855a.48.48 0 110-.958h4.855a.479.479 0 110 .958zm-2.227 2.306H93.5a.479.479 0 110-.957h3.885a.479.479 0 110 .958z" fill="#76E2FF"/><path d="M91.558 35.32h-6.797a.479.479 0 110-.957h6.797a.479.479 0 110 .958z" fill="url(#9liyru7gqR)"/><path d="M82.819 35.32h-.486a.479.479 0 110-.957h.486a.48.48 0 110 .958zm0-2.284h-.486a.479.479 0 110-.958h.486a.478.478 0 110 .958zm3.884 4.591h-4.37a.479.479 0 110-.959h4.37a.479.479 0 110 .959zm2.913 0h-.971a.48.48 0 110-.959h.971a.479.479 0 110 .959zm12.565-2.285h-.971a.485.485 0 01-.486-.48.485.485 0 01.486-.478h.971a.48.48 0 110 .958zm-3.341 2.285h-7.282a.48.48 0 110-.959h7.283a.479.479 0 110 .959zm-10.195 2.306h-6.312a.479.479 0 110-.958h6.312a.479.479 0 110 .958zm6.797 0h-4.855a.479.479 0 110-.958h4.855a.479.479 0 110 .958zm5.341 0h-3.397a.479.479 0 11-.002-.958h3.397a.48.48 0 01.487.48.485.485 0 01-.485.478zm.371 2.305h-1.942a.479.479 0 110-.958h1.942a.479.479 0 110 .958z" fill="#76E2FF"/><path d="M91.558 42.238h-6.797a.479.479 0 110-.958h6.797a.479.479 0 110 .958z" fill="url(#5lvcxqeg5S)"/><path d="M82.819 42.238h-.486a.479.479 0 110-.958h.486a.48.48 0 110 .958z" fill="#76E2FF"/><path d="M86.703 44.544h-4.37a.479.479 0 110-.957h4.37a.479.479 0 110 .957z" fill="url(#mh02c6764T)"/><path d="M89.616 44.544h-.971a.479.479 0 110-.957h.971a.479.479 0 110 .957zm4.569 0h-.971a.479.479 0 110-.957h.971a.479.479 0 110 .957zm6.483.001h-3.397a.48.48 0 11-.002-.959h3.398a.482.482 0 01.487.479.485.485 0 01-.486.48z" fill="#76E2FF"/><path d="M95.1 42.26h-.486a.479.479 0 110-.959h.486a.48.48 0 110 .958z" fill="url(#fa9ewd1p2U)"/></g></g><defs><radialGradient id="yw0oiksalb" cx="0" cy="0" r="1" gradientUnits="userSpaceOnUse" gradientTransform="matrix(43.0003 0 0 5.44308 71.908 89.413)"><stop/><stop offset="1" stop-opacity=".01"/></radialGradient><radialGradient id="uvpxk68phc" cx="0" cy="0" r="1" gradientUnits="userSpaceOnUse" gradientTransform="matrix(16.00003 33.42307 -97.84994 46.84194 43 20.5)"><stop stop-color="#1F8DC1"/><stop offset="1" stop-color="#2E4469"/><stop offset="1" stop-color="#080D15"/><stop offset="1" stop-color="#18354C"/></radialGradient><radialGradient id="byu77yrl9e" cx="0" cy="0" r="1" gradientUnits="userSpaceOnUse" gradientTransform="matrix(12.50001 33 -24.67193 9.34544 45 58)"><stop stop-color="#1C5273"/><stop offset="1" stop-color="#0D141F"/></radialGradient><radialGradient id="fbxh5v2tvf" cx="0" cy="0" r="1" gradientUnits="userSpaceOnUse" gradientTransform="matrix(3.5 48.49997 -94.26835 6.80288 66.5 42.5)"><stop stop-color="#1F5474"/><stop offset="1" stop-color="#2E4469"/><stop offset="1" stop-color="#080D15"/><stop offset="1" stop-color="#18354D"/></radialGradient><radialGradient id="netl3m27dg" cx="0" cy="0" r="1" gradientUnits="userSpaceOnUse" gradientTransform="matrix(19.99999 28.99997 -47.74625 32.92846 50 47.5)"><stop stop-color="#00C3FF"/><stop offset="1" stop-color="#040C10"/></radialGradient><radialGradient id="mj04r16pjh" cx="0" cy="0" r="1" gradientUnits="userSpaceOnUse" gradientTransform="matrix(1.99997 31.49997 -89.1461 5.66 58.5 59.5)"><stop stop-color="#386E9A"/><stop offset=".601" stop-color="#0E1E29"/><stop offset="1"/></radialGradient><radialGradient id="i1wl2hvllj" cx="0" cy="0" r="1" gradientUnits="userSpaceOnUse" gradientTransform="matrix(6.03535 0 0 .66768 62.493 75.556)"><stop stop-color="#21C8F6"/><stop offset="1" stop-color="#4BDEFF"/></radialGradient><radialGradient id="50o8vs82jk" cx="0" cy="0" r="1" gradientUnits="userSpaceOnUse" gradientTransform="matrix(8.27341 0 0 .66768 64.129 77.848)"><stop stop-color="#21C8F6"/><stop offset="1" stop-color="#4BDEFF"/></radialGradient><radialGradient id="v3u776grhl" cx="0" cy="0" r="1" gradientUnits="userSpaceOnUse" gradientTransform="matrix(2.60792 0 0 .66768 59.987 79.914)"><stop stop-color="#21C8F6"/><stop offset="1" stop-color="#4BDEFF"/></radialGradient><radialGradient id="xogep0uhsm" cx="0" cy="0" r="1" gradientUnits="userSpaceOnUse" gradientTransform="matrix(2.60792 0 0 .66768 64.89 79.914)"><stop stop-color="#21C8F6"/><stop offset="1" stop-color="#4BDEFF"/></radialGradient><radialGradient id="2ejy59i88n" cx="0" cy="0" r="1" gradientUnits="userSpaceOnUse" gradientTransform="matrix(2.60792 0 0 .66768 69.792 79.914)"><stop stop-color="#21C8F6"/><stop offset="1" stop-color="#4BDEFF"/></radialGradient><radialGradient id="7rr4a3impo" cx="0" cy="0" r="1" gradientUnits="userSpaceOnUse" gradientTransform="matrix(2.60792 0 0 .66768 74.694 79.914)"><stop stop-color="#21C8F6"/><stop offset="1" stop-color="#4BDEFF"/></radialGradient><radialGradient id="wa7gs8pvvp" cx="0" cy="0" r="1" gradientUnits="userSpaceOnUse" gradientTransform="matrix(3.72561 0 0 .66768 80.413 79.914)"><stop stop-color="#21C8F6"/><stop offset="1" stop-color="#4BDEFF"/></radialGradient><radialGradient id="22ful0dxhq" cx="0" cy="0" r="1" gradientUnits="userSpaceOnUse" gradientTransform="matrix(17.1 0 0 .684 70.5 83.5)"><stop stop-color="#21C8F6"/><stop offset="1" stop-color="#4BDEFF"/></radialGradient><radialGradient id="lxqvhe231r" cx="0" cy="0" r="1" gradientUnits="userSpaceOnUse" gradientTransform="matrix(7.524 0 0 .684 63.5 83.5)"><stop stop-color="#21C8F6"/><stop offset="1" stop-color="#4BDEFF"/></radialGradient><radialGradient id="rf3sqy9u1s" cx="0" cy="0" r="1" gradientUnits="userSpaceOnUse" gradientTransform="matrix(1.77287 0 0 .66768 68.88 75.556)"><stop stop-color="#21C8F6"/><stop offset="1" stop-color="#4BDEFF"/></radialGradient><radialGradient id="4fs0lvc4rt" cx="0" cy="0" r="1" gradientUnits="userSpaceOnUse" gradientTransform="matrix(1.77287 0 0 .66768 72.337 75.556)"><stop stop-color="#21C8F6"/><stop offset="1" stop-color="#4BDEFF"/></radialGradient><radialGradient id="jof9zp88nu" cx="0" cy="0" r="1" gradientUnits="userSpaceOnUse" gradientTransform="matrix(3.72561 0 0 .66768 73.764 77.848)"><stop stop-color="#21C8F6"/><stop offset="1" stop-color="#4BDEFF"/></radialGradient><radialGradient id="hbb6hx8hqv" cx="0" cy="0" r="1" gradientUnits="userSpaceOnUse" gradientTransform="matrix(4.13671 0 0 .66768 80.169 77.735)"><stop stop-color="#21C8F6"/><stop offset="1" stop-color="#4BDEFF"/></radialGradient><radialGradient id="6hohy97f1w" cx="0" cy="0" r="1" gradientUnits="userSpaceOnUse" gradientTransform="matrix(5.90958 0 0 .66768 78.741 75.556)"><stop stop-color="#21C8F6"/><stop offset="1" stop-color="#4BDEFF"/></radialGradient><radialGradient id="d0cbe9y6zx" cx="0" cy="0" r="1" gradientUnits="userSpaceOnUse" gradientTransform="matrix(26.4518 0 0 11.0545 70.336 78.519)"><stop stop-color="#21C8F6"/><stop offset="1" stop-color="#4BDEFF"/></radialGradient><radialGradient id="cme3koe45z" cx="0" cy="0" r="1" gradientUnits="userSpaceOnUse" gradientTransform="matrix(130.21653 15.06426 -4.49402 38.84662 42.768 60.754)"><stop stop-color="#00BAFF" stop-opacity=".231"/><stop offset="1" stop-color="#3F9FD5" stop-opacity=".01"/></radialGradient><radialGradient id="5o6ozc54kA" cx="0" cy="0" r="1" gradientUnits="userSpaceOnUse" gradientTransform="rotate(-174.255 28.439 31.258) scale(25.4647 1.97729)"><stop stop-color="#AEF3FF"/><stop offset="1" stop-color="#76E2FF" stop-opacity=".01"/></radialGradient><radialGradient id="l2ihbh7ywB" cx="0" cy="0" r="1" gradientUnits="userSpaceOnUse" gradientTransform="matrix(26.6711 0 0 3.81015 71.475 59.774)"><stop/><stop offset="1" stop-opacity=".01"/></radialGradient><radialGradient id="55j4p03l7F" cx="0" cy="0" r="1" gradientUnits="userSpaceOnUse" gradientTransform="matrix(37.50005 28.5 -22.4528 29.5432 53 36)"><stop stop-color="#00BAFF" stop-opacity=".6"/><stop offset="1" stop-color="#3F9FD5" stop-opacity=".01"/></radialGradient><radialGradient id="y480sxa4lJ" cx="0" cy="0" r="1" gradientUnits="userSpaceOnUse" gradientTransform="translate(71.102 42.075) scale(10.1462)"><stop stop-color="#257EDD"/><stop offset="1" stop-color="#267EDC" stop-opacity=".01"/></radialGradient><radialGradient id="j1c1qohn6L" cx="0" cy="0" r="1" gradientUnits="userSpaceOnUse" gradientTransform="translate(70.624 42.555) scale(3.92718)"><stop stop-color="#21C8F6"/><stop offset="1" stop-color="#4BDEFF"/></radialGradient><linearGradient id="ssxkatb76d" x1="18.5" y1="36.5" x2="44.5" y2="60.5" gradientUnits="userSpaceOnUse"><stop stop-color="#31D1FA"/><stop offset="1" stop-color="#2BCEF9" stop-opacity="0"/></linearGradient><linearGradient id="wkaswfkbuy" x1="114" y1="65.896" x2="114" y2="47.067" gradientUnits="userSpaceOnUse"><stop stop-color="#5B79A2"/><stop offset="1" stop-color="#2E4469"/><stop offset="1" stop-color="#2E4469"/><stop offset="1" stop-color="#216286"/></linearGradient><linearGradient id="s0a5j3b6cC" x1="70.382" y1="60.479" x2="70.382" y2="56.629" gradientUnits="userSpaceOnUse"><stop stop-color="#5B79A2"/><stop offset="1" stop-color="#2E4469"/></linearGradient><linearGradient id="rb5wfjinpD" x1="70.363" y1="56.265" x2="67.766" y2="49.603" gradientUnits="userSpaceOnUse"><stop stop-color="#267195"/><stop offset="1" stop-color="#00C3FF"/></linearGradient><linearGradient id="lx6x3x3x6E" x1="51.007" y1="37.109" x2="86.486" y2="57.022" gradientUnits="userSpaceOnUse"><stop stop-color="#5B79A2"/><stop offset="1" stop-color="#2E4469"/></linearGradient><linearGradient id="z3dgd4h5uG" x1="43.488" y1="26" x2="43.488" y2="60.146" gradientUnits="userSpaceOnUse"><stop stop-color="#36B9F9"/><stop offset="1"/></linearGradient><linearGradient id="dhug9e487I" x1="66.034" y1="41.496" x2="58.876" y2="36.742" gradientUnits="userSpaceOnUse"><stop stop-color="#21C8F6" stop-opacity=".299"/><stop offset="1" stop-color="#637BFF"/></linearGradient><linearGradient id="jr3zdqz2jM" x1="86.738" y1="59.772" x2="102.713" y2="29.147" gradientUnits="userSpaceOnUse"><stop stop-color="#2FCFF9"/><stop offset="1" stop-color="#37D3FB" stop-opacity=".01"/></linearGradient><linearGradient id="6v806grbdO" x1="-46.051" y1="18.99" x2="-45.918" y2="63.775" gradientUnits="userSpaceOnUse"><stop stop-color="#76E1FF"/><stop offset="1" stop-color="#76E1FF" stop-opacity=".01"/></linearGradient><linearGradient id="wi7z0tsf1P" x1="-23.033" y1="24.725" x2="-22.888" y2="62.363" gradientUnits="userSpaceOnUse"><stop stop-color="#76E1FF"/><stop offset="1" stop-color="#76E1FF" stop-opacity=".01"/></linearGradient><linearGradient id="65cpyegbxQ" x1="-231.641" y1="18.133" x2="-231.541" y2="97.736" gradientUnits="userSpaceOnUse"><stop stop-color="#76E1FF"/><stop offset="1" stop-color="#76E1FF" stop-opacity=".01"/></linearGradient><linearGradient id="9liyru7gqR" x1="-238.438" y1="22.745" x2="-238.338" y2="102.348" gradientUnits="userSpaceOnUse"><stop stop-color="#76E1FF"/><stop offset="1" stop-color="#76E1FF" stop-opacity=".01"/></linearGradient><linearGradient id="5lvcxqeg5S" x1="-238.438" y1="29.662" x2="-238.338" y2="109.265" gradientUnits="userSpaceOnUse"><stop stop-color="#76E1FF"/><stop offset="1" stop-color="#76E1FF" stop-opacity=".01"/></linearGradient><linearGradient id="mh02c6764T" x1="-23.033" y1="38.561" x2="-22.888" y2="76.198" gradientUnits="userSpaceOnUse"><stop stop-color="#76E1FF"/><stop offset="1" stop-color="#76E1FF" stop-opacity=".01"/></linearGradient><linearGradient id="fa9ewd1p2U" x1="91.992" y1="41.745" x2="92.548" y2="44.671" gradientUnits="userSpaceOnUse"><stop stop-color="#76E1FF"/><stop offset="1" stop-color="#76E1FF" stop-opacity=".01"/></linearGradient><filter id="aqrflkaxgi" x="56.366" y="73.434" width="28.461" height="12.2" filterUnits="userSpaceOnUse" color-interpolation-filters="sRGB"><feFlood flood-opacity="0" result="BackgroundImageFix"/><feColorMatrix in="SourceAlpha" values="0 0 0 0 0 0 0 0 0 0 0 0 0 0 0 0 0 0 127 0" result="hardAlpha"/><feOffset/><feGaussianBlur stdDeviation=".817"/><feColorMatrix values="0 0 0 0 0.137255 0 0 0 0 0.788235 0 0 0 0 0.968627 0 0 0 0.604622 0"/><feBlend in2="BackgroundImageFix" result="effect1_dropShadow_26_6491"/><feBlend in="SourceGraphic" in2="effect1_dropShadow_26_6491" result="shape"/></filter><filter id="myfh0z5j5K" x="63.926" y="35.857" width="13.397" height="13.397" filterUnits="userSpaceOnUse" color-interpolation-filters="sRGB"><feFlood flood-opacity="0" result="BackgroundImageFix"/><feColorMatrix in="SourceAlpha" values="0 0 0 0 0 0 0 0 0 0 0 0 0 0 0 0 0 0 127 0" result="hardAlpha"/><feOffset/><feGaussianBlur stdDeviation="1.914"/><feColorMatrix values="0 0 0 0 0.180392 0 0 0 0 0.811765 0 0 0 0 0.976471 0 0 0 1 0"/><feBlend in2="BackgroundImageFix" result="effect1_dropShadow_26_6491"/><feBlend in="SourceGraphic" in2="effect1_dropShadow_26_6491" result="shape"/></filter><filter id="pie1l2v3cN" x="78.421" y="21.711" width="27.816" height="26.26" filterUnits="userSpaceOnUse" color-interpolation-filters="sRGB"><feFlood flood-opacity="0" result="BackgroundImageFix"/><feColorMatrix in="SourceAlpha" values="0 0 0 0 0 0 0 0 0 0 0 0 0 0 0 0 0 0 127 0" result="hardAlpha"/><feOffset/><feGaussianBlur stdDeviation="1.713"/><feColorMatrix values="0 0 0 0 0.180392 0 0 0 0 0.811765 0 0 0 0 0.976471 0 0 0 1 0"/><feBlend in2="BackgroundImageFix" result="effect1_dropShadow_26_6491"/><feBlend in="SourceGraphic" in2="effect1_dropShadow_26_6491" result="shape"/></filter></defs></svg>