<svg xmlns="http://www.w3.org/2000/svg" xmlns:xlink="http://www.w3.org/1999/xlink" width="120" height="120.001" viewBox="0 0 120 120.001"><defs><linearGradient id="linear-gradient" x1=".5" x2=".5" y2="1" gradientUnits="objectBoundingBox"><stop offset="0" stop-color="#5b79a2"/><stop offset="1" stop-color="#2e4469"/></linearGradient><linearGradient xlink:href="#linear-gradient" id="linear-gradient-2" x1=".095" x2=".611" y1="-.188"/><linearGradient xlink:href="#linear-gradient" id="linear-gradient-3" x1="0" x2="1" y1=".5" y2=".5"/><linearGradient id="linear-gradient-12" x1=".909" x2=".149" y1=".795" y2=".148" gradientUnits="objectBoundingBox"><stop offset="0" stop-color="#f19a1a"/><stop offset="1" stop-color="#ffc73c"/></linearGradient><radialGradient id="radial-gradient" cx=".5" cy=".5" r=".488" gradientUnits="objectBoundingBox"><stop offset="0"/><stop offset="1" stop-opacity="0"/></radialGradient><radialGradient xlink:href="#radial-gradient" id="radial-gradient-2" cx=".621" cy=".465" r=".796" gradientTransform="matrix(.722 .692 -.144 .151 .208 -.041)"/><radialGradient id="radial-gradient-3" cx=".5" cy=".5" r=".5" gradientUnits="objectBoundingBox"><stop offset="0" stop-color="#c08d17"/><stop offset="1" stop-color="#ffbe24" stop-opacity="0"/></radialGradient><clipPath id="clip-path"><circle id="Mask_Copy_12" cx="59" cy="59" r="59" class="cls-1" data-name="Mask Copy 12"/></clipPath><clipPath id="clip-path-2"><circle id="Mask_Copy_13" cx="59" cy="59" r="59" fill="none" stroke="#707070" stroke-miterlimit="10" data-name="Mask Copy 13"/></clipPath><style>.cls-1{fill:rgba(0,0,0,.15)}.cls-7{fill:url(#linear-gradient-3)}.cls-8{fill:rgba(46,68,105,.3)}.cls-10{fill:#2e4469}.cls-12{mix-blend-mode:overlay;isolation:isolate;fill:url(#radial-gradient-3)}.cls-13{fill:#fac446}</style></defs><g id="languages-php-practictioner" transform="translate(-1656 -1780)"><g id="Color_Crown_Shadow" data-name="Color Crown + Shadow" transform="translate(4112 2170)"><circle id="Shadow" cx="58" cy="58" r="58" class="cls-1" transform="translate(-2454 -388)"/></g><g id="php-practitioner-illustration" transform="translate(1657 1781)"><g id="php-practitioner-illustration-2" clip-path="url(#clip-path)" data-name="php-practitioner-illustration"><rect id="Rectangle_17_Copy" width="114.067" height="37.367" fill="url(#linear-gradient)" data-name="Rectangle 17 Copy" rx="1.4" transform="translate(2.95 81.617)"/><ellipse id="shadow_copy_5" cx="40.268" cy="7.67" fill="url(#radial-gradient)" data-name="shadow copy 5" opacity=".298" rx="40.268" ry="7.67" transform="translate(18.084 89.45)"/><g id="elephant_1_" data-name="elephant (1)" transform="translate(14.076 16.831)"><path id="XMLID_988_" fill="url(#linear-gradient-2)" d="m39.5 1.653-1.449 1.216a22.321 22.321 0 0 0-23.332.882v-2.1C9.917 6.438-2.087 16.009.314 25.58c1.22 4.864 4.92 6.019 8.265 5.351a52.1 52.1 0 0 0 4.127 7.353h28.81a62.913 62.913 0 0 0 4-7.378c3.378.723 7.157-.4 8.393-5.326C56.308 16.009 44.3 6.438 39.5 1.653z" transform="translate(21.153 42.071)"/><path id="XMLID_992_" d="M0 9.571c0 5.286 3.821 9.571 8.537 9.571s8.537-4.285 8.537-9.571S13.252 0 8.537 0 0 4.286 0 9.571z" class="cls-7" transform="translate(54.199 61.213)"/><path id="XMLID_993_" d="M0 3.722A3.735 3.735 0 1 0 3.735 0 3.728 3.728 0 0 0 0 3.722z" class="cls-8" transform="translate(59.134 69.721)"/><path id="XMLID_994_" d="M0 9.571c0 5.286 3.821 9.571 8.537 9.571s8.537-4.285 8.537-9.571S13.252 0 8.537 0 0 4.286 0 9.571z" class="cls-7" transform="translate(25.255 61.213)"/><path id="XMLID_995_" d="M0 3.722A3.735 3.735 0 1 0 3.735 0 3.728 3.728 0 0 0 0 3.722z" class="cls-8" transform="translate(30.19 69.721)"/><g id="Group_106" data-name="Group 106" transform="rotate(-11 81.982 7.894)"><path id="XMLID_986_" d="M0 22.731c0 12.554 9.011 22.732 21.608 22.732s14.735-9.152 16.806-21.535C40.815 9.571 35.405 0 22.808 0A22.77 22.77 0 0 0 0 22.731z" class="cls-7" transform="translate(43.771)"/><path id="XMLID_986__Copy" d="M0 22.731c0 12.554 9.011 22.732 21.608 22.732s14.735-9.152 16.806-21.535C40.815 9.571 35.405 0 22.808 0A22.77 22.77 0 0 0 0 22.731z" class="cls-7" data-name="XMLID_986_ Copy" transform="translate(43.771)"/><path id="XMLID_987_" d="M14.405 31.106c4.194 0 5.37-1.337 6.216-2.707 1.7-2.75 2.617-7.638 3.486-12.83.984-5.885.348-10.672-1.745-13.134C20.292 0 16.765 0 15.606 0A15.6 15.6 0 0 0 0 15.553a16.293 16.293 0 0 0 4.159 11.193 13.628 13.628 0 0 0 10.246 4.36z" class="cls-8" transform="translate(50.974 7.178)"/><path id="XMLID_989_" d="M38.97 22.731c0 12.554-9.011 22.731-21.608 22.731S2.627 36.311.556 23.928C-1.845 9.571 3.565 0 16.161 0A22.77 22.77 0 0 1 38.97 22.731z" class="cls-7"/><path id="XMLID_990_" d="M10.155 31.106c-4.194 0-5.37-1.337-6.216-2.707-1.7-2.75-2.617-7.638-3.486-12.83C-.531 9.685.1 4.9 2.2 2.435 4.268 0 7.8 0 8.954 0A15.6 15.6 0 0 1 24.56 15.553a16.293 16.293 0 0 1-4.16 11.193 13.628 13.628 0 0 1-10.245 4.36z" class="cls-8" transform="translate(7.207 7.178)"/><path id="XMLID_996_" d="M31.371 45.064c-2.161-.718-2.217-2.784-.24-5.1a390.833 390.833 0 0 0 6.92-8.4 17.841 17.841 0 0 0 5.164-12.417C43.216 8.57 33.542 0 21.608 0S0 8.57 0 19.142A18.294 18.294 0 0 0 7.585 33.7C7.78 35.957 8.6 41.291 12 45.463c3.159 3.867 9.414 7.178 14.405 7.178 12 0 14.405-7.178 14.405-7.178l-4.8-2.393s-2.361 2.751-4.639 1.994z" class="cls-7" transform="translate(19.763 2.393)"/><path id="Path_16_Copy_4" fill="url(#radial-gradient-2)" d="M0 1.877 3.154 0l14.675 5.343.637 3.517z" data-name="Path 16 Copy 4" opacity=".191" transform="translate(41.74 4.614)"/><ellipse id="XMLID_998_" cx="1.801" cy="1.795" class="cls-10" rx="1.801" ry="1.795" transform="translate(27.566 24.526)"/><ellipse id="XMLID_999_" cx="1.801" cy="1.795" class="cls-10" rx="1.801" ry="1.795" transform="translate(51.574 24.526)"/></g></g><g id="Group_75" data-name="Group 75" transform="rotate(-115.98 40.845 33.887)"><path id="Path_23" fill="none" stroke="#ffc73c" stroke-miterlimit="10" stroke-width="2" d="m0 99.456 48.542-64.008L36.946 0 9.058 15.095" data-name="Path 23" transform="translate(0 3.924)"/><circle id="Oval_Copy_7" cx="4.917" cy="4.917" r="4.917" class="cls-12" data-name="Oval Copy 7" transform="translate(4.167 13.279)"/><circle id="Oval_Copy_7-2" cx="6.917" cy="6.917" r="6.917" class="cls-12" data-name="Oval Copy 7" transform="translate(2.167 11.279)"/><g id="Group_80" data-name="Group 80" transform="rotate(111 14.177 36.676)"><circle id="Oval" cx="3.933" cy="3.933" r="3.933" class="cls-13"/></g><g id="Group_81" data-name="Group 81" transform="rotate(99 20.063 18.067)"><circle id="Oval-2" cx="3.442" cy="3.442" r="3.442" class="cls-13" data-name="Oval"/></g><g id="Group_82" data-name="Group 82" transform="rotate(90 -1.853 13.886)"><circle id="Oval-3" cx="2.458" cy="2.458" r="2.458" class="cls-13" data-name="Oval"/></g></g><g id="books" transform="translate(19.709 74.733)"><g id="Group_110" data-name="Group 110" transform="translate(2.95 7.523)"><path id="Shape" d="M1.624 2.985A3.549 3.549 0 0 1 0 5.97h14.559a2.853 2.853 0 0 0 2.906-2.985A2.853 2.853 0 0 0 14.559 0H0a3.549 3.549 0 0 1 1.624 2.985z" class="cls-13" transform="translate(1.421 .776)"/><path id="Shape-2" d="M0 0h15.83a3.761 3.761 0 0 1 0 7.523H0V6.06h15.83a2.3 2.3 0 0 0 0-4.6H0z" class="cls-7" data-name="Shape"/></g><g id="Group_111" data-name="Group 111" transform="translate(1.924 14.75)"><path id="Shape-3" d="M15.842 2.985a3.549 3.549 0 0 0 1.624 2.985H2.906A2.853 2.853 0 0 1 0 2.985 2.853 2.853 0 0 1 2.906 0h14.56a3.549 3.549 0 0 0-1.624 2.985z" class="cls-13" data-name="Shape" transform="translate(0 .983)"/><path id="Shape-4" d="M19.581 0H3.751a3.761 3.761 0 0 0 0 7.523h15.83V6.06H3.751a2.3 2.3 0 0 1 0-4.6h15.83V0z" class="cls-7" data-name="Shape"/></g><g id="Group_109" data-name="Group 109"><path id="Shape-5" d="M15.842 2.985a3.549 3.549 0 0 0 1.624 2.985H2.906A2.853 2.853 0 0 1 0 2.985 2.853 2.853 0 0 1 2.906 0h14.56a3.549 3.549 0 0 0-1.624 2.985z" class="cls-13" data-name="Shape" transform="translate(.694 .776)"/><path id="Shape-6" d="M19.581 0H3.751a3.761 3.761 0 0 0 0 7.523h15.83V6.06H3.751a2.3 2.3 0 0 1 0-4.6h15.83V0z" class="cls-7" data-name="Shape"/></g></g></g></g><g id="Color_Crown" data-name="Color Crown" transform="translate(1656 1780)"><path id="Ring" fill="url(#linear-gradient-12)" d="M780 826a59.72 59.72 0 0 1-33.547-10.247 60.176 60.176 0 0 1-21.739-26.4 59.921 59.921 0 0 1 5.532-56.9 60.176 60.176 0 0 1 26.4-21.738 59.92 59.92 0 0 1 56.9 5.532 60.174 60.174 0 0 1 21.738 26.4 59.923 59.923 0 0 1-5.532 56.9 60.174 60.174 0 0 1-26.4 21.739A59.623 59.623 0 0 1 780 826zm0-118a57.729 57.729 0 0 0-32.429 9.905 58.167 58.167 0 0 0-21.014 25.518 57.924 57.924 0 0 0 5.348 55 58.169 58.169 0 0 0 25.518 21.014 57.923 57.923 0 0 0 55-5.348 58.17 58.17 0 0 0 21.014-25.518 57.924 57.924 0 0 0-5.348-55 58.171 58.171 0 0 0-25.518-21.013A57.638 57.638 0 0 0 780 708z" transform="translate(-720 -706)"/></g></g></svg>