<svg width="120" height="120" fill="none" xmlns="http://www.w3.org/2000/svg"><circle cx="59.5" cy="59.5" r="58.5" fill="#000" fill-opacity=".15"/><path fill-rule="evenodd" clip-rule="evenodd" d="M26.259 108.87a59.23 59.23 0 0033.27 10.162 59.146 59.146 0 0023.159-4.675 59.672 59.672 0 0026.181-21.56 59.427 59.427 0 005.487-56.43 59.68 59.68 0 00-21.559-26.181A59.425 59.425 0 0036.367 4.7a59.679 59.679 0 00-26.181 21.558 59.426 59.426 0 00-5.487 56.43 59.683 59.683 0 0021.56 26.182zm1.109-97.04a57.252 57.252 0 0132.16-9.823 57.161 57.161 0 0122.385 4.52 57.69 57.69 0 0125.307 20.84 57.444 57.444 0 015.304 54.545 57.686 57.686 0 01-20.84 25.307 57.444 57.444 0 01-54.546 5.304 57.685 57.685 0 01-25.307-20.84 57.445 57.445 0 01-5.304-54.546 57.686 57.686 0 0120.84-25.307z" fill="url(#iz81zz4mda)"/><circle cx="60" cy="60" r="60" fill="url(#26ytzqzxyb)"/><circle cx="60" cy="60" r="60" fill="url(#n5kfoo50vc)"/><mask id="a" style="mask-type:luminance" maskUnits="userSpaceOnUse" x="0" y="0" width="120" height="120"><circle cx="60" cy="60" r="60" fill="#fff"/></mask><g mask="url(#a)"><ellipse cx="63.062" cy="89.108" rx="64.062" ry="29.892" fill="url(#6pb9um7dye)"/><ellipse opacity=".696" cx="70.603" cy="95.43" rx="35" ry="18" fill="url(#6tmjft3o1f)"/></g><circle cx="60" cy="60" r="59" stroke="url(#0rtv3lclsg)" stroke-width="2"/><path d="M61.96 9l14.643 37.949" stroke="#F44881" stroke-width="2" stroke-linejoin="round"/><path opacity=".75" d="M2.667 87l47 9.43v17l-47-9.43V87z" fill="url(#kt5llaqzqh)"/><path d="M7.84 61.423C-1 61.49 1.941 79.963 10.588 79.9" stroke="#2B4671" stroke-width="2"/><rect x="9.329" y="59.151" width="4.299" height="3.523" rx="1.223" transform="rotate(90 9.329 59.151)" fill="#21324E"/><rect x="10.833" y="57.539" width="7.524" height="3.01" rx="1.223" transform="rotate(90 10.833 57.539)" fill="url(#9khdpdekui)"/><path fill-rule="evenodd" clip-rule="evenodd" d="M9.086 19.251L29.2 9l20.382 10.241-20.248 10.242L9.086 19.251z" fill="url(#3f5lkyhoej)"/><path opacity=".829" d="M9.086 19.251L29.2 9l20.382 10.241-20.248 10.242L9.086 19.251z" fill="url(#pac18y83ek)"/><path fill-rule="evenodd" clip-rule="evenodd" d="M29.334 29.483v72.419l20.333-10.39-.086-72.27-20.247 10.241z" fill="url(#h361z0ujfl)"/><path opacity=".829" d="M29.334 29.483v72.419l20.333-10.39-.086-72.27-20.247 10.241z" fill="url(#86emj2piim)"/><path d="M31.59 32.183a2 2 0 00-1.09 1.78v37.18a1 1 0 001.46.888l15.456-7.988a2 2 0 001.082-1.78l-.07-37.06a1 1 0 00-1.456-.889l-15.383 7.869z" fill="#162032"/><path opacity=".321" clip-rule="evenodd" d="M31.59 32.183a2 2 0 00-1.09 1.78v37.18a1 1 0 001.46.888l15.456-7.988a2 2 0 001.082-1.78l-.07-37.06a1 1 0 00-1.456-.889l-15.383 7.869z" stroke="url(#s9s815kxen)" stroke-width=".2" stroke-linecap="round" stroke-linejoin="round"/><mask id="b" style="mask-type:luminance" maskUnits="userSpaceOnUse" x="30" y="24" width="19" height="49"><path fill-rule="evenodd" clip-rule="evenodd" d="M31.59 32.183a2 2 0 00-1.09 1.78v37.18a1 1 0 001.46.888l15.456-7.988a2 2 0 001.082-1.78l-.07-37.06a1 1 0 00-1.456-.889l-15.383 7.869z" fill="#fff" stroke="#fff" stroke-width=".2" stroke-linecap="round" stroke-linejoin="round"/></mask><g mask="url(#b)"><path opacity=".096" fill-rule="evenodd" clip-rule="evenodd" d="M33.846 47.15l-7.68 25.25 10.049 2.827 6.123-25.752-8.492-2.326z" fill="url(#wnyy15lu4p)"/><g filter="url(#t0fw6bw99q)"><path fill-rule="evenodd" clip-rule="evenodd" d="M36.456 46.792l-.694-.239 4.761-4.132.622 5.795-1.517-.398.462-1.34a.837.837 0 00-.51-1.069.837.837 0 00-1.06.528l-.752 2.184-.752 2.184a.837.837 0 00.51 1.068.837.837 0 001.06-.527l.503-1.46 2.698.708a.826.826 0 00.468.045l.012-.003a.834.834 0 00.643-.976l-.917-8.545a.837.837 0 00-.55-.635.836.836 0 00-.825.161l-6.976 6.054a.834.834 0 00-.334.789.818.818 0 00.634.696l1.974.68a.822.822 0 001.042-.518.822.822 0 00-.502-1.05zm1.168 6.846l.227-.657a.837.837 0 00-.51-1.068.837.837 0 00-1.06.527l-.227.657a.837.837 0 00.51 1.068.837.837 0 001.06-.527z" fill="url(#i05jcrhkgr)"/></g><path opacity=".059" fill-rule="evenodd" clip-rule="evenodd" d="M48.5 23.572l-18 49.213-1.278-41.296L48.5 23.57z" fill="url(#gmmua9j2ks)"/></g><path fill-rule="evenodd" clip-rule="evenodd" d="M9.086 19.241l.078 72.535 20.17 10.126V29.483L9.085 19.241z" fill="url(#16wgb4dtmt)"/><path opacity=".829" d="M9.086 19.241l.078 72.535 20.17 10.126V29.483L9.085 19.241z" fill="url(#wblh6m5bxu)"/><path opacity=".195" fill-rule="evenodd" clip-rule="evenodd" d="M15.985 56.188l7.909 3.669v-7.375l-6.5-.307-1.409 4.013z" fill="#1B2B47"/><g opacity=".699" stroke="#0C1321" stroke-linecap="round" stroke-linejoin="round"><path d="M24.669 52.601L13.055 47.5" stroke-width="2"/><path d="M13.488 88.899l9.06 4.209m-9.06-6.209l9.06 4.209m-9.06-6.209l9.06 4.209"/></g><path fill-rule="evenodd" clip-rule="evenodd" d="M29.333 76.76l62.284-32.066 20.297 9.497-62.333 32.801L29.333 76.76z" fill="url(#ml0rh5jwrv)"/><path opacity=".829" d="M29.333 76.76l62.284-32.066 20.297 9.497-62.333 32.801L29.333 76.76z" fill="url(#iusx6fp4jw)"/><path fill-rule="evenodd" clip-rule="evenodd" d="M49.392 87.12V112L112 78.924l-.086-24.733L49.392 87.12z" fill="url(#y471gcf2tx)"/><path fill-rule="evenodd" clip-rule="evenodd" d="M49.392 87.12V112L112 78.924l-.086-24.733L49.392 87.12z" fill="url(#335hcmdb1y)"/><path opacity=".829" d="M49.392 87.12V112L112 78.924l-.086-24.733L49.392 87.12z" fill="url(#wt8dup8lnz)"/><path opacity=".164" d="M59.044 105.968s2.73 4.295 5.4 4.793c5.062.942 12.84-1.745 19.16-4.793 4.386-2.114 3.963-3.976 4.553-5.207 1.36-2.836-4.028-3.163-6.184-1.511-3.093 2.37.164 10.193 9.621 6.718 9.457-3.474 3.806-12.097 10.014-16.648 2.43-1.782 4.969-1.29 6.747-2.82 2.764-2.38 4.233-7.6 4.78-18.047.9-17.17 3.276-17.82 0-18.377" stroke="#000" stroke-width="1.5"/><path d="M56.678 108.16v-2.069l4.722-2.335v2.095l-4.722 2.309z" fill="#0F1622"/><path d="M59.044 105.968c2.343 4.897 8.292 6.438 22.777-.546 14.484-6.983 3.182-9.353.09-6.983-3.094 2.37-1.317 10.403 8.14 6.928 9.457-3.474 4.312-12.316 10.519-16.867s10.666-1.878 11.565-19.047c.9-17.17 3.276-17.82 0-18.377" stroke="url(#mfxyo62plA)" stroke-width="1.5"/><path fill-rule="evenodd" clip-rule="evenodd" d="M29.333 76.76l-.11 25.115L49.391 112l.189-24.998L29.333 76.76z" fill="url(#ktpbn1gk5B)"/><path opacity=".829" d="M29.333 76.76l-.11 25.115L49.391 112l.189-24.998L29.333 76.76z" fill="url(#j49iyrk4fC)"/><path d="M33.719 80.841a2 2 0 00-2.903 1.776l-.075 16.904a2 2 0 001.103 1.796l13.19 6.621a2 2 0 002.897-1.772l.127-16.827a2 2 0 00-1.097-1.8l-13.242-6.698z" fill="#162032"/><path clip-rule="evenodd" d="M33.719 80.841a2 2 0 00-2.903 1.776l-.075 16.904a2 2 0 001.103 1.796l13.19 6.621a2 2 0 002.897-1.772l.127-16.827a2 2 0 00-1.097-1.8l-13.242-6.698z" stroke="url(#fo6tsf0bwD)" stroke-width=".2" stroke-linecap="round" stroke-linejoin="round"/><g filter="url(#0np70zcnjE)" stroke="#F7E2EB" stroke-linecap="round" stroke-linejoin="round"><path d="M32.934 83.722l12.476 6.492m-12.476-2.492l10.075 5m-10.075 4l12.476 6.492"/></g><path d="M32.934 92.722l6.467 3.246" stroke="#0C1321" stroke-linecap="round" stroke-linejoin="round"/><path opacity=".138" d="M33.719 80.841a2 2 0 00-2.903 1.776l-.078 17.55a.3.3 0 00.477.243L47.54 88.484a.4.4 0 00-.056-.68L33.72 80.841z" fill="#60A0EF"/><path opacity=".268" fill-rule="evenodd" clip-rule="evenodd" d="M29.334 76.887l62.575-12.184L71.85 54.19 29.334 76.887z" fill="#1B2B47"/><path fill-rule="evenodd" clip-rule="evenodd" d="M71.935 30.21l19.841-10.07 20.106 10.061-19.973 10.06-19.974-10.05z" fill="url(#1hvf0ucm7F)"/><path opacity=".829" d="M71.935 30.21l19.841-10.07 20.106 10.061-19.973 10.06-19.974-10.05z" fill="url(#4byf33tj7G)"/><path d="M83.75 31.095a1 1 0 01-.004-1.785l7.198-3.653a2 2 0 011.8-.005l7.31 3.658a1 1 0 01.002 1.787l-7.248 3.651a2 2 0 01-1.799 0l-7.26-3.653z" fill="url(#syvo6e7o8H)"/><path clip-rule="evenodd" d="M83.75 31.095a1 1 0 01-.004-1.785l7.198-3.653a2 2 0 011.8-.005l7.31 3.658a1 1 0 01.002 1.787l-7.248 3.651a2 2 0 01-1.799 0l-7.26-3.653z" stroke="url(#yz4hbv76sI)" stroke-width=".2" stroke-linecap="round" stroke-linejoin="round"/><g filter="url(#498xn0en5J)"><path fill-rule="evenodd" clip-rule="evenodd" d="M87.72 31.093a1 1 0 01-.003-1.785l3.253-1.65a2 2 0 011.8-.006l3.313 1.658a1 1 0 01.003 1.787l-3.278 1.651a2 2 0 01-1.799 0l-3.289-1.655z" fill="url(#ideyos761K)"/></g><g filter="url(#6kykidxxyL)"><path fill-rule="evenodd" clip-rule="evenodd" d="M83.75 27.095a1 1 0 01-.004-1.785l7.198-3.653a2 2 0 011.8-.005l7.31 3.658a1 1 0 01.002 1.787l-7.248 3.651a2 2 0 01-1.799 0l-7.26-3.653z" fill="url(#d08o10s9jM)"/></g><g opacity=".239" filter="url(#4a4i69knyN)"><path fill-rule="evenodd" clip-rule="evenodd" d="M83.75 24.095a1 1 0 01-.004-1.785l7.198-3.653a2 2 0 011.8-.005l7.31 3.658a1 1 0 01.002 1.787l-7.248 3.651a2 2 0 01-1.799 0l-7.26-3.653z" fill="url(#e4bp29jxxO)"/></g><g opacity=".123" filter="url(#u44qu9q1nP)"><path fill-rule="evenodd" clip-rule="evenodd" d="M83.75 21.095a1 1 0 01-.004-1.785l7.198-3.653a2 2 0 011.8-.005l7.31 3.658a1 1 0 01.002 1.787l-7.248 3.651a2 2 0 01-1.799 0l-7.26-3.653z" fill="url(#h65ycgydmQ)"/></g><path opacity=".268" fill-rule="evenodd" clip-rule="evenodd" d="M41.28 82.347l8.19 4.153 8.8-4.54-1.71-7.31-15.589 3.96.309 3.737z" fill="#1B2B47"/><path d="M41.082 79.947a1 1 0 01-.104-1.72l7.86-5.287 8.369 3.29v.99a1 1 0 01-.396.797l-6.84 5.192a2 2 0 01-2.116.189l-6.773-3.451z" fill="#25395A"/><path d="M41.082 78.947a1 1 0 01-.104-1.72l7.393-4.974a1 1 0 01.976-.08l7.283 3.346a1 1 0 01.173 1.716l-6.837 5.005a2 2 0 01-2.09.169l-6.794-3.462z" fill="url(#a4k8vawmaR)"/><path opacity=".57" d="M41.082 78.947a1 1 0 01-.104-1.72l7.393-4.974a1 1 0 01.976-.08l7.283 3.346a1 1 0 01.173 1.716l-6.837 5.005a2 2 0 01-2.09.169l-6.794-3.462z" fill="url(#ha3gzqzvdS)"/><path fill-rule="evenodd" clip-rule="evenodd" d="M40.972 77.17l7.394-4.972a1.05 1.05 0 011.024-.083l7.283 3.345a1.05 1.05 0 01.182 1.801l-6.838 5.006a2.05 2.05 0 01-2.142.173l-6.793-3.462a1.05 1.05 0 01-.11-1.807zm8.376-4.965a.95.95 0 00-.926.076l-7.394 4.973a.95.95 0 00.1 1.635l6.793 3.462a1.95 1.95 0 002.037-.165l6.838-5.005a.949.949 0 00-.165-1.63l-7.283-3.346z" fill="url(#hz631n5n5T)"/><path d="M43.346 77.717L49.2 80.61" stroke="#192439" stroke-width="1.5" stroke-linecap="round" stroke-linejoin="round"/><path d="M43.346 77.717L49.2 80.61" stroke="#F7E2EB" stroke-width=".5" stroke-linecap="round" stroke-linejoin="round"/><path d="M40.935 77.25a1 1 0 01.046-1.723l8.29-4.581 8.05 4.006-.085.988a1 1 0 01-.464.76l-7.266 4.575a2 2 0 01-2.125.004l-6.446-4.028z" fill="url(#n9u2euvogU)"/><path d="M41.022 76.254a1 1 0 01.046-1.723l7.799-4.31a1 1 0 01.979.006l6.963 3.968a1 1 0 01.023 1.724l-7.248 4.39a2 2 0 01-2.096-.014l-6.466-4.04z" fill="url(#ywe64smw8V)"/><path opacity=".57" d="M41.022 76.254a1 1 0 01.046-1.723l7.799-4.31a1 1 0 01.979.006l6.963 3.968a1 1 0 01.023 1.724l-7.248 4.39a2 2 0 01-2.096-.014l-6.466-4.04z" fill="url(#d06yklud5W)"/><path fill-rule="evenodd" clip-rule="evenodd" d="M41.068 74.475l7.798-4.31a1.05 1.05 0 011.028.007l6.963 3.968a1.05 1.05 0 01.025 1.81l-7.248 4.39a2.05 2.05 0 01-2.149-.014l-6.466-4.041a1.05 1.05 0 01.049-1.81zm8.776-4.216a.95.95 0 00-.93-.006l-7.798 4.31a.951.951 0 00-.044 1.637l6.466 4.041a1.95 1.95 0 002.044.014l7.248-4.39a.95.95 0 00-.022-1.639l-6.964-3.967z" fill="url(#nh0es1z2lX)"/><path d="M43.384 75.227l5.58 3.39" stroke="#192439" stroke-width="1.5" stroke-linecap="round" stroke-linejoin="round"/><path fill-rule="evenodd" clip-rule="evenodd" d="M91.909 40.262v24.44l20.058-10.206-.085-24.295-19.973 10.06z" fill="url(#7f90epj9tY)"/><path opacity=".829" d="M91.909 40.262v24.44l20.058-10.206-.085-24.295-19.973 10.06z" fill="url(#koknrkegjZ)"/><path fill-rule="evenodd" clip-rule="evenodd" d="M71.935 30.201l.076 24.556 19.898 9.946V40.262l-19.974-10.06z" fill="url(#sabo77ehgaa)"/><path opacity=".829" d="M71.935 30.201l.076 24.556 19.898 9.946V40.262l-19.974-10.06z" fill="url(#0dt7220ymab)"/><path d="M73.238 33.452l.067 12.572 16.583 8.013a.5.5 0 00.718-.45V42.533a1 1 0 00-.563-.899l-16.805-8.182z" fill="#162032"/><path clip-rule="evenodd" d="M73.238 33.452l.067 12.572 16.583 8.013a.5.5 0 00.718-.45V42.533a1 1 0 00-.563-.899l-16.805-8.182z" stroke="url(#yop8pjuvsac)" stroke-width=".2" stroke-linecap="round" stroke-linejoin="round"/><mask id="c" style="mask-type:luminance" maskUnits="userSpaceOnUse" x="73" y="33" width="18" height="22"><path fill-rule="evenodd" clip-rule="evenodd" d="M73.238 33.452l.067 12.572 16.583 8.013a.5.5 0 00.718-.45V42.533a1 1 0 00-.563-.899l-16.805-8.182z" fill="#fff" stroke="#fff" stroke-width=".2" stroke-linecap="round" stroke-linejoin="round"/></mask><g mask="url(#c)" fill-rule="evenodd" clip-rule="evenodd"><path d="M87.315 41.656l1.685.781v1.509l-1.685-.782v-1.508z" fill="#27425A"/><path d="M87.315 44.17l1.685.78v1.508l-1.685-.782V44.17z" fill="#fff"/><path d="M87.315 46.683l1.685.782v1.508l-1.685-.782v-1.508z" fill="#27425A"/><path d="M87.315 49.196l1.685.782v1.508l-1.685-.781v-1.509z" fill="#fff"/><path d="M87.315 51.71l1.685.782V54l-1.685-.782V51.71z" fill="#27425A"/><path d="M84.852 40.525l1.685.781v1.509l-1.685-.782v-1.508zm0 2.513l1.685.782v1.508l-1.685-.782v-1.508zm0 2.514l1.685.782v1.508l-1.685-.782v-1.508zm0 2.513l1.685.782v1.508l-1.685-.781v-1.509z" fill="#fff"/><path d="M84.852 50.579l1.685.782v1.508l-1.685-.782V50.58zm-2.463-11.186l1.685.782v1.508l-1.685-.782v-1.508z" fill="#27425A"/><path d="M82.389 41.907l1.685.782v1.508l-1.685-.782v-1.508z" fill="#fff"/><path d="M82.389 44.42l1.685.782v1.509l-1.685-.782V44.42zm0 2.514l1.685.782v1.508l-1.685-.782v-1.508z" fill="#27425A"/><path d="M82.389 49.448l1.685.782v1.508l-1.685-.782v-1.508zm-2.463-11.186l1.685.782v1.508l-1.685-.782v-1.508z" fill="#fff"/><path d="M79.926 40.776l1.685.782v1.508l-1.685-.782v-1.508z" fill="#27425A"/><path d="M79.926 43.29l1.685.781v1.508l-1.685-.781v-1.509z" fill="#fff"/><path d="M79.926 45.803l1.685.782v1.508l-1.685-.782v-1.508z" fill="#27425A"/><path d="M79.926 48.317l1.685.782v1.508l-1.685-.782v-1.508zm-2.463-11.186l1.685.782v1.508l-1.685-.782v-1.508zm0 2.514l1.685.781v1.509l-1.685-.782v-1.508zm0 2.513l1.685.782v1.508l-1.685-.782v-1.508zm0 2.514l1.685.782v1.508l-1.685-.782v-1.508zm0 2.513l1.685.782v1.508l-1.685-.781v-1.509zM75 36l1.685.782v1.508L75 37.508V36z" fill="#fff"/><path opacity=".338" d="M90.606 41.935L76.603 48.33l.86-13.094 13.143 6.699z" fill="url(#as6mqtm68ae)"/></g><path d="M87.351 58l-10.748-5.233M87.351 56l-10.748-5.233" opacity=".7" stroke="#0C1321" stroke-linecap="round" stroke-linejoin="round"/><path d="M111.247 30.033a.2.2 0 01.269.086.198.198 0 01-.034.231l-.051.038-19.43 10.051a.2.2 0 01-.236-.317l.052-.038 19.43-10.051z" fill="url(#8bjgj6a53af)"/><path d="M71.671 30.12a.2.2 0 01.218-.106l.05.018L92 40.082a.2.2 0 01-.129.376l-.05-.018-20.06-10.05a.2.2 0 01-.089-.27z" fill="url(#gztxxz7waag)"/><path d="M91.909 40.062a.2.2 0 01.192.146l.008.054v24.44a.2.2 0 01-.393.054l-.007-.053V40.262c0-.11.09-.2.2-.2z" fill="url(#rvrry1u0mah)"/><path d="M49.58 86.768a.2.2 0 01.194.147l.007.053v24.441a.2.2 0 01-.393.053l-.007-.053V86.968c0-.11.09-.2.2-.2z" fill="url(#4djeel7mpai)"/><path opacity=".6" d="M49.576 19.063a.2.2 0 01.225.326l-.044.03-20.186 10.242a.2.2 0 01-.225-.326l.044-.03 20.186-10.242z" fill="url(#r0bthzk8maj)"/><path opacity=".392" fill-rule="evenodd" clip-rule="evenodd" d="M32.934 28.948v10.537l6.291-2.686-5.702-9.314-.59 1.463z" fill="url(#7y3ve4llsak)"/><path opacity=".6" d="M9.3 19.673a.2.2 0 01.217-.11l.051.017 20 9.723a.2.2 0 01-.124.377l-.05-.017-20-9.723a.2.2 0 01-.093-.267z" fill="url(#79tp2pzbral)"/><path opacity=".6" d="M29.5 29.3a.2.2 0 01.193.147l.007.053v34.101a.2.2 0 01-.393.054L29.3 63.6V29.5c0-.11.09-.2.2-.2z" fill="url(#g972w55xnam)"/><ellipse opacity=".3" cx="66" cy="69" rx="25" ry="4" fill="url(#bdd46xs2tan)"/><ellipse opacity=".3" cx="78" cy="69" rx="13" ry="4" fill="url(#bjhitf8m1ao)"/><ellipse opacity=".5" cx="94.5" cy="50" rx="13" ry="3.5" transform="rotate(97.445 94.5 50)" fill="url(#0up39vo7sap)"/><path d="M45.955 33.612l1.105-9.274 16.156 1.926-5.074 42.576-10.382-1.237L51.73 34.3l-5.775-.688z" fill="#1E3150"/><path d="M43.97 33.375l1.105-9.273 16.155 1.925-5.074 42.577-10.382-1.238 3.97-33.303-5.775-.688z" fill="url(#t8z1oldh2aq)"/><path opacity=".829" d="M43.97 33.375l1.105-9.273 16.155 1.925-5.074 42.577-10.382-1.238 3.97-33.303-5.775-.688z" fill="url(#sguo9al6iar)"/><path opacity=".503" d="M43.97 33.375l1.105-9.273 16.155 1.925-5.074 42.577-10.382-1.238 3.97-33.303-5.775-.688z" fill="url(#qzxd8lgnias)"/><path opacity=".503" d="M43.97 33.375l1.105-9.273 16.155 1.925-5.074 42.577-10.382-1.238 3.97-33.303-5.775-.688z" stroke="url(#iiuk56zzwat)" stroke-width=".5"/><path d="M62.783 9L29.481 20.14l20.186 33.856" stroke="#F44881" stroke-width="2" stroke-linejoin="round"/><circle cx="49.558" cy="53.666" r="7.935" transform="rotate(90 49.558 53.666)" fill="url(#3akzrq185au)" style="mix-blend-mode:lighten"/><circle opacity=".284" cx="49.557" cy="53.666" r="14.878" transform="rotate(90 49.557 53.666)" fill="url(#ip434ds1pav)"/><circle cx="49.558" cy="53.666" r="2.521" transform="rotate(90 49.558 53.666)" fill="url(#ppxsp7njkaw)"/><circle cx="29.207" cy="20.043" r="2.863" transform="rotate(112 29.207 20.043)" fill="url(#teqgylegxax)"/><circle cx="61.956" cy="8.737" r="2.599" transform="rotate(112 61.956 8.737)" fill="url(#xo2g7yjqtay)"/><path d="M91.816 64.525a.2.2 0 01.237.317L92 64.88 49.673 86.987a.2.2 0 01-.236-.316l.051-.039 42.328-22.107z" fill="url(#x98pt1y1naz)"/><path d="M29.302 76.67a.2.2 0 01.218-.106l.05.017 20.1 10.05a.2.2 0 01-.128.375l-.05-.017-20.1-10.05a.2.2 0 01-.09-.268z" fill="url(#u6n1c7tvnaA)"/><path d="M10.165 52.859a1 1 0 01-.065-1.746l4.256-2.587 9.34 3.29v1l-4.738 3.329a2 2 0 01-2.058.145l-6.735-3.431z" fill="#25395A"/><path opacity=".829" d="M10.165 52.859a1 1 0 01-.065-1.746l4.256-2.587 9.34 3.29v1l-4.738 3.329a2 2 0 01-2.058.145l-6.735-3.431z" fill="url(#k3ga14phdaB)"/><path opacity=".7" clip-rule="evenodd" d="M10.165 52.859a1 1 0 01-.065-1.746l4.256-2.587 9.34 3.29v1l-4.738 3.329a2 2 0 01-2.058.145l-6.735-3.431z" stroke="url(#35al2dq9saC)" stroke-width=".1" stroke-linecap="round" stroke-linejoin="round"/><path d="M10.165 51.859a1 1 0 01-.065-1.746l4.256-2.587 9.34 4.29-4.738 3.329a2 2 0 01-2.058.145l-6.735-3.431z" fill="url(#k2b0mrteraD)"/><path opacity=".829" d="M10.165 51.859a1 1 0 01-.065-1.746l4.256-2.587 9.34 4.29-4.738 3.329a2 2 0 01-2.058.145l-6.735-3.431z" fill="url(#q7724g06zaE)"/><path opacity=".7" clip-rule="evenodd" d="M10.165 51.859a1 1 0 01-.065-1.746l4.256-2.587 9.34 4.29-4.738 3.329a2 2 0 01-2.058.145l-6.735-3.431z" stroke="url(#aeujmj1x5aF)" stroke-width=".2" stroke-linecap="round" stroke-linejoin="round"/><path d="M12.346 50.587l5.854 2.892" stroke="#192439" stroke-width="1.5" stroke-linecap="round" stroke-linejoin="round"/><path d="M12.346 50.587l5.854 2.892" stroke="#F7E2EB" stroke-width=".5" stroke-linecap="round" stroke-linejoin="round"/><path d="M107.5 62v12m-2-10.399v12m-2-10.504v12" stroke="#0C1321" stroke-linecap="round" stroke-linejoin="round"/><path d="M62.14 46.733c0-6.735 1.293-12.041 3.878-15.918C68.64 26.938 72.85 25 78.646 25s9.985 1.938 12.57 5.815c2.623 3.877 3.935 9.183 3.935 15.918 0 6.813-1.312 12.158-3.935 16.035-2.585 3.876-6.775 5.815-12.57 5.815s-10.005-1.939-12.628-5.815c-2.585-3.877-3.877-9.222-3.877-16.035zm23.143 0c0-3.955-.43-6.99-1.292-9.105-.861-2.153-2.643-3.23-5.345-3.23s-4.484 1.077-5.345 3.23c-.862 2.115-1.292 5.15-1.292 9.105 0 2.662.156 4.875.47 6.637.313 1.723.94 3.133 1.88 4.229.978 1.057 2.407 1.586 4.287 1.586s3.29-.529 4.229-1.586c.979-1.096 1.625-2.506 1.938-4.23.314-1.761.47-3.974.47-6.636z" fill="#1E3150"/><path d="M60.14 46.733c0-6.735 1.293-12.041 3.878-15.918C66.64 26.938 70.85 25 76.646 25s9.985 1.938 12.57 5.815c2.623 3.877 3.935 9.183 3.935 15.918 0 6.813-1.312 12.158-3.935 16.035-2.585 3.876-6.775 5.815-12.57 5.815s-10.005-1.939-12.628-5.815c-2.585-3.877-3.877-9.222-3.877-16.035zm23.143 0c0-3.955-.43-6.99-1.292-9.105-.861-2.153-2.643-3.23-5.345-3.23s-4.484 1.077-5.345 3.23c-.862 2.115-1.292 5.15-1.292 9.105 0 2.662.156 4.875.47 6.637.313 1.723.94 3.133 1.88 4.229.978 1.057 2.407 1.586 4.287 1.586s3.29-.529 4.229-1.586c.979-1.096 1.625-2.506 1.938-4.23.314-1.761.47-3.974.47-6.636z" fill="url(#a8gn4w87raG)"/><path opacity=".829" d="M60.14 46.733c0-6.735 1.293-12.041 3.878-15.918C66.64 26.938 70.85 25 76.646 25s9.985 1.938 12.57 5.815c2.623 3.877 3.935 9.183 3.935 15.918 0 6.813-1.312 12.158-3.935 16.035-2.585 3.876-6.775 5.815-12.57 5.815s-10.005-1.939-12.628-5.815c-2.585-3.877-3.877-9.222-3.877-16.035zm23.143 0c0-3.955-.43-6.99-1.292-9.105-.861-2.153-2.643-3.23-5.345-3.23s-4.484 1.077-5.345 3.23c-.862 2.115-1.292 5.15-1.292 9.105 0 2.662.156 4.875.47 6.637.313 1.723.94 3.133 1.88 4.229.978 1.057 2.407 1.586 4.287 1.586s3.29-.529 4.229-1.586c.979-1.096 1.625-2.506 1.938-4.23.314-1.761.47-3.974.47-6.636z" fill="url(#v4blzcj36aH)"/><path opacity=".503" d="M60.14 46.733c0-6.735 1.293-12.041 3.878-15.918C66.64 26.938 70.85 25 76.646 25s9.985 1.938 12.57 5.815c2.623 3.877 3.935 9.183 3.935 15.918 0 6.813-1.312 12.158-3.935 16.035-2.585 3.876-6.775 5.815-12.57 5.815s-10.005-1.939-12.628-5.815c-2.585-3.877-3.877-9.222-3.877-16.035zm23.143 0c0-3.955-.43-6.99-1.292-9.105-.861-2.153-2.643-3.23-5.345-3.23s-4.484 1.077-5.345 3.23c-.862 2.115-1.292 5.15-1.292 9.105 0 2.662.156 4.875.47 6.637.313 1.723.94 3.133 1.88 4.229.978 1.057 2.407 1.586 4.287 1.586s3.29-.529 4.229-1.586c.979-1.096 1.625-2.506 1.938-4.23.314-1.761.47-3.974.47-6.636z" fill="url(#0666qk6dfaI)"/><path opacity=".503" d="M60.14 46.733c0-6.735 1.293-12.041 3.878-15.918C66.64 26.938 70.85 25 76.646 25s9.985 1.938 12.57 5.815c2.623 3.877 3.935 9.183 3.935 15.918 0 6.813-1.312 12.158-3.935 16.035-2.585 3.876-6.775 5.815-12.57 5.815s-10.005-1.939-12.628-5.815c-2.585-3.877-3.877-9.222-3.877-16.035zm23.143 0c0-3.955-.43-6.99-1.292-9.105-.861-2.153-2.643-3.23-5.345-3.23s-4.484 1.077-5.345 3.23c-.862 2.115-1.292 5.15-1.292 9.105 0 2.662.156 4.875.47 6.637.313 1.723.94 3.133 1.88 4.229.978 1.057 2.407 1.586 4.287 1.586s3.29-.529 4.229-1.586c.979-1.096 1.625-2.506 1.938-4.23.314-1.761.47-3.974.47-6.636z" fill="url(#plfvza9z5aJ)"/><path opacity=".503" d="M60.14 46.733c0-6.735 1.293-12.041 3.878-15.918C66.64 26.938 70.85 25 76.646 25s9.985 1.938 12.57 5.815c2.623 3.877 3.935 9.183 3.935 15.918 0 6.813-1.312 12.158-3.935 16.035-2.585 3.876-6.775 5.815-12.57 5.815s-10.005-1.939-12.628-5.815c-2.585-3.877-3.877-9.222-3.877-16.035zm23.143 0c0-3.955-.43-6.99-1.292-9.105-.861-2.153-2.643-3.23-5.345-3.23s-4.484 1.077-5.345 3.23c-.862 2.115-1.292 5.15-1.292 9.105 0 2.662.156 4.875.47 6.637.313 1.723.94 3.133 1.88 4.229.978 1.057 2.407 1.586 4.287 1.586s3.29-.529 4.229-1.586c.979-1.096 1.625-2.506 1.938-4.23.314-1.761.47-3.974.47-6.636z" stroke="url(#8884ifv6gaK)" stroke-width=".5"/><defs><linearGradient id="iz81zz4mda" x1="-27.046" y1="42.057" x2="44.487" y2="149.478" gradientUnits="userSpaceOnUse"><stop stop-color="#FF5F94"/><stop offset="1" stop-color="#EC454F"/></linearGradient><linearGradient id="n5kfoo50vc" x1="-9.093" y1="16.49" x2="34.114" y2="103.888" gradientUnits="userSpaceOnUse"><stop stop-color="#B9437C"/><stop offset="1" stop-color="#1A2536" stop-opacity=".01"/></linearGradient><linearGradient id="6pb9um7dye" x1="-15.47" y1="114.978" x2="129.688" y2="95.705" gradientUnits="userSpaceOnUse"><stop stop-color="#2B436F" stop-opacity=".01"/><stop offset="1" stop-color="#0C1627"/></linearGradient><linearGradient id="0rtv3lclsg" x1="-25.227" y1="22.708" x2="4.038" y2="134.632" gradientUnits="userSpaceOnUse"><stop stop-color="#FF5E92"/><stop offset="1" stop-color="#ED4653"/></linearGradient><linearGradient id="9khdpdekui" x1="20.773" y1="62.481" x2="20.773" y2="57.539" gradientUnits="userSpaceOnUse"><stop stop-color="#5B79A2"/><stop offset="1" stop-color="#182439"/></linearGradient><linearGradient id="3f5lkyhoej" x1="2.981" y1="24.697" x2="18.897" y2="49.318" gradientUnits="userSpaceOnUse"><stop stop-color="#6BA0E2"/><stop offset="1" stop-color="#385076"/></linearGradient><linearGradient id="h361z0ujfl" x1="26.23" y1="77.508" x2="45.07" y2="79.232" gradientUnits="userSpaceOnUse"><stop stop-color="#2B436F"/><stop offset="1" stop-color="#18263E"/></linearGradient><linearGradient id="s9s815kxen" x1="61.468" y1="9.286" x2="31.655" y2="8.271" gradientUnits="userSpaceOnUse"><stop stop-color="#fff"/><stop offset="1" stop-color="#F44880" stop-opacity=".01"/></linearGradient><linearGradient id="wnyy15lu4p" x1="30.162" y1="39.799" x2="12.356" y2="59.387" gradientUnits="userSpaceOnUse"><stop stop-color="#fff"/><stop offset="1" stop-color="#C42E6C" stop-opacity=".01"/></linearGradient><linearGradient id="i05jcrhkgr" x1="34.132" y1="59.657" x2="51.113" y2="65.504" gradientUnits="userSpaceOnUse"><stop stop-color="#fff"/><stop offset="1" stop-color="#C42E6C"/></linearGradient><linearGradient id="gmmua9j2ks" x1="26.316" y1="61.286" x2="49.817" y2="68.489" gradientUnits="userSpaceOnUse"><stop stop-color="#6BA0E2"/><stop offset="1" stop-color="#385076"/></linearGradient><linearGradient id="16wgb4dtmt" x1="1.736" y1="43.25" x2="37.517" y2="58.969" gradientUnits="userSpaceOnUse"><stop stop-color="#6980BA"/><stop offset="1" stop-color="#2F4566"/></linearGradient><linearGradient id="y471gcf2tx" x1="28.81" y1="108.111" x2="99.618" y2="132.179" gradientUnits="userSpaceOnUse"><stop stop-color="#2B436F"/><stop offset="1" stop-color="#142035"/></linearGradient><linearGradient id="335hcmdb1y" x1="42.321" y1="108.111" x2="114.18" y2="103.29" gradientUnits="userSpaceOnUse"><stop stop-color="#2B436F" stop-opacity=".01"/><stop offset="1" stop-color="#142035"/></linearGradient><linearGradient id="mfxyo62plA" x1="100.111" y1="33.495" x2="41.372" y2="59.325" gradientUnits="userSpaceOnUse"><stop stop-color="#18263E"/><stop offset=".532" stop-color="#1F2F4B"/><stop offset="1" stop-color="#1D2C44"/></linearGradient><linearGradient id="ktpbn1gk5B" x1="17.703" y1="93.184" x2="51.997" y2="113.289" gradientUnits="userSpaceOnUse"><stop stop-color="#4B71A3"/><stop offset="1" stop-color="#18263E"/></linearGradient><linearGradient id="fo6tsf0bwD" x1="25.787" y1="74.18" x2="25.787" y2="100.544" gradientUnits="userSpaceOnUse"><stop stop-color="#fff"/><stop offset="1" stop-color="#F44880" stop-opacity=".01"/></linearGradient><linearGradient id="1hvf0ucm7F" x1="65.912" y1="35.56" x2="81.52" y2="59.806" gradientUnits="userSpaceOnUse"><stop stop-color="#6BA0E2"/><stop offset="1" stop-color="#385076"/></linearGradient><linearGradient id="syvo6e7o8H" x1="81.655" y1="27.296" x2="84.096" y2="37.59" gradientUnits="userSpaceOnUse"><stop stop-color="#365A8A"/><stop offset="1" stop-color="#213351"/></linearGradient><linearGradient id="yz4hbv76sI" x1="101.252" y1="35.201" x2="101.252" y2="23.659" gradientUnits="userSpaceOnUse"><stop stop-color="#fff"/><stop offset="1" stop-color="#F44880" stop-opacity=".01"/></linearGradient><linearGradient id="ideyos761K" x1="81.2" y1="30.201" x2="81.2" y2="40.989" gradientUnits="userSpaceOnUse"><stop stop-color="#fff"/><stop offset="1" stop-color="#C42E6C"/></linearGradient><linearGradient id="d08o10s9jM" x1="74.061" y1="26.201" x2="74.061" y2="44.18" gradientUnits="userSpaceOnUse"><stop stop-color="#fff"/><stop offset="1" stop-color="#C42E6C"/></linearGradient><linearGradient id="e4bp29jxxO" x1="74.061" y1="23.201" x2="74.061" y2="41.18" gradientUnits="userSpaceOnUse"><stop stop-color="#fff"/><stop offset="1" stop-color="#C42E6C"/></linearGradient><linearGradient id="h65ycgydmQ" x1="74.061" y1="20.201" x2="74.061" y2="38.18" gradientUnits="userSpaceOnUse"><stop stop-color="#fff"/><stop offset="1" stop-color="#C42E6C"/></linearGradient><linearGradient id="a4k8vawmaR" x1="40.937" y1="79.656" x2="47.996" y2="86.59" gradientUnits="userSpaceOnUse"><stop stop-color="#365A8A"/><stop offset="1" stop-color="#141F32"/></linearGradient><linearGradient id="hz631n5n5T" x1="34.504" y1="73.943" x2="40.195" y2="83.927" gradientUnits="userSpaceOnUse"><stop stop-color="#fff"/><stop offset="1" stop-color="#F44880" stop-opacity=".01"/></linearGradient><linearGradient id="n9u2euvogU" x1="37.977" y1="81.396" x2="48.003" y2="88.282" gradientUnits="userSpaceOnUse"><stop stop-color="#25395A"/><stop offset="1" stop-color="#1B2940"/></linearGradient><linearGradient id="ywe64smw8V" x1="39.669" y1="76.293" x2="45.995" y2="84.419" gradientUnits="userSpaceOnUse"><stop stop-color="#365A8A"/><stop offset="1" stop-color="#213351"/></linearGradient><linearGradient id="nh0es1z2lX" x1="36.411" y1="73.517" x2="40.919" y2="81.436" gradientUnits="userSpaceOnUse"><stop stop-color="#fff"/><stop offset="1" stop-color="#F44880" stop-opacity=".01"/></linearGradient><linearGradient id="7f90epj9tY" x1="84.892" y1="48.405" x2="109.396" y2="59.135" gradientUnits="userSpaceOnUse"><stop stop-color="#2B436F"/><stop offset="1" stop-color="#142036"/></linearGradient><linearGradient id="sabo77ehgaa" x1="70.149" y1="45.53" x2="86.997" y2="59.823" gradientUnits="userSpaceOnUse"><stop stop-color="#405A80"/><stop offset="1" stop-color="#1F314C"/></linearGradient><linearGradient id="yop8pjuvsac" x1="100.6" y1="39.038" x2="80.334" y2="36.407" gradientUnits="userSpaceOnUse"><stop stop-color="#fff"/><stop offset="1" stop-color="#F44880" stop-opacity=".01"/></linearGradient><linearGradient id="as6mqtm68ae" x1="74.492" y1="45.271" x2="85.476" y2="54.461" gradientUnits="userSpaceOnUse"><stop stop-color="#6BA0E2"/><stop offset="1" stop-color="#385076"/></linearGradient><linearGradient id="8bjgj6a53af" x1="92.062" y1="39.419" x2="100.698" y2="38.101" gradientUnits="userSpaceOnUse"><stop stop-color="#fff"/><stop offset="1" stop-color="#F44880" stop-opacity=".01"/></linearGradient><linearGradient id="gztxxz7waag" x1="97.95" y1="36.659" x2="91.512" y2="24.946" gradientUnits="userSpaceOnUse"><stop stop-color="#fff"/><stop offset="1" stop-color="#F44880" stop-opacity=".01"/></linearGradient><linearGradient id="rvrry1u0mah" x1="92.846" y1="57.065" x2="92.846" y2="35.334" gradientUnits="userSpaceOnUse"><stop stop-color="#F44880" stop-opacity=".01"/><stop offset="1" stop-color="#fff"/></linearGradient><linearGradient id="4djeel7mpai" x1="50.518" y1="103.771" x2="50.518" y2="82.041" gradientUnits="userSpaceOnUse"><stop stop-color="#F44880" stop-opacity=".01"/><stop offset="1" stop-color="#fff"/></linearGradient><linearGradient id="r0bthzk8maj" x1="36.562" y1="33.397" x2="43.83" y2="20.747" gradientUnits="userSpaceOnUse"><stop stop-color="#fff"/><stop offset="1" stop-color="#F44880" stop-opacity=".01"/></linearGradient><linearGradient id="7y3ve4llsak" x1="31.614" y1="32.27" x2="39.637" y2="36.619" gradientUnits="userSpaceOnUse"><stop/><stop offset="1" stop-opacity=".01"/></linearGradient><linearGradient id="79tp2pzbral" x1="35.505" y1="26" x2="29.368" y2="14.505" gradientUnits="userSpaceOnUse"><stop stop-color="#fff"/><stop offset="1" stop-color="#F44880" stop-opacity=".01"/></linearGradient><linearGradient id="g972w55xnam" x1="32.21" y1="42.876" x2="29.708" y2="42.822" gradientUnits="userSpaceOnUse"><stop stop-color="#F44880" stop-opacity=".01"/><stop offset="1" stop-color="#fff"/></linearGradient><linearGradient id="t8z1oldh2aq" x1="39.584" y1="40.67" x2="59.669" y2="53.142" gradientUnits="userSpaceOnUse"><stop stop-color="#6BA0E2"/><stop offset="1" stop-color="#304668"/></linearGradient><linearGradient id="iiuk56zzwat" x1="50.517" y1="25.741" x2="36.971" y2="42.417" gradientUnits="userSpaceOnUse"><stop stop-color="#fff"/><stop offset="1" stop-color="#CFD2E4" stop-opacity="0"/></linearGradient><linearGradient id="ppxsp7njkaw" x1="48.857" y1="49.105" x2="44.777" y2="53.623" gradientUnits="userSpaceOnUse"><stop stop-color="#FB3B78"/><stop offset="1" stop-color="#EFC7D8"/></linearGradient><linearGradient id="teqgylegxax" x1="35.511" y1="14.237" x2="19.366" y2="4.436" gradientUnits="userSpaceOnUse"><stop stop-color="#DD1E5B"/><stop offset="1" stop-color="#EFC7D8"/></linearGradient><linearGradient id="xo2g7yjqtay" x1="67.678" y1="3.467" x2="53.022" y2="-5.431" gradientUnits="userSpaceOnUse"><stop stop-color="#DD1E5B"/><stop offset="1" stop-color="#EFC7D8"/></linearGradient><linearGradient id="x98pt1y1naz" x1="50.142" y1="84.765" x2="68.749" y2="81.923" gradientUnits="userSpaceOnUse"><stop stop-color="#fff"/><stop offset="1" stop-color="#F44880" stop-opacity=".01"/></linearGradient><linearGradient id="u6n1c7tvnaA" x1="55.633" y1="83.208" x2="49.204" y2="71.485" gradientUnits="userSpaceOnUse"><stop stop-color="#fff"/><stop offset="1" stop-color="#F44880" stop-opacity=".01"/></linearGradient><linearGradient id="35al2dq9saC" x1="21.566" y1="59.907" x2="20.625" y2="53.777" gradientUnits="userSpaceOnUse"><stop stop-color="#fff"/><stop offset="1" stop-color="#F44880" stop-opacity=".01"/></linearGradient><linearGradient id="k2b0mrteraD" x1="8.508" y1="52.91" x2="15.842" y2="60.198" gradientUnits="userSpaceOnUse"><stop stop-color="#365A8A"/><stop offset="1" stop-color="#2E4469"/></linearGradient><linearGradient id="aeujmj1x5aF" x1="21.83" y1="57.943" x2="20.318" y2="50.444" gradientUnits="userSpaceOnUse"><stop stop-color="#fff"/><stop offset="1" stop-color="#F44880" stop-opacity=".01"/></linearGradient><linearGradient id="a8gn4w87raG" x1="53.057" y1="42.383" x2="81.376" y2="68.79" gradientUnits="userSpaceOnUse"><stop stop-color="#6BA0E2"/><stop offset="1" stop-color="#304668"/></linearGradient><linearGradient id="8884ifv6gaK" x1="71.5" y1="26" x2="64.066" y2="49.48" gradientUnits="userSpaceOnUse"><stop stop-color="#fff"/><stop offset="1" stop-color="#CFD2E4" stop-opacity="0"/></linearGradient><radialGradient id="26ytzqzxyb" cx="0" cy="0" r="1" gradientUnits="userSpaceOnUse" gradientTransform="matrix(0 120 -120 0 60 0)"><stop stop-color="#263A5E"/><stop offset="1" stop-color="#0C1321"/></radialGradient><radialGradient id="6tmjft3o1f" cx="0" cy="0" r="1" gradientUnits="userSpaceOnUse" gradientTransform="rotate(-29.257 220.41 -96.356) scale(37.5361 5.92566)"><stop/><stop offset=".734" stop-opacity=".137"/><stop offset="1" stop-opacity=".01"/></radialGradient><radialGradient id="kt5llaqzqh" cx="0" cy="0" r="1" gradientUnits="userSpaceOnUse" gradientTransform="rotate(22.853 -234.827 114.838) scale(28.2027 3.87926)"><stop/><stop offset=".734" stop-opacity=".137"/><stop offset="1" stop-opacity=".01"/></radialGradient><radialGradient id="pac18y83ek" cx="0" cy="0" r="1" gradientUnits="userSpaceOnUse" gradientTransform="rotate(23.86 -7.688 133.926) scale(26.5604 20.0705)"><stop stop-color="#fff"/><stop offset="1" stop-color="#fff" stop-opacity=".01"/></radialGradient><radialGradient id="86emj2piim" cx="0" cy="0" r="1" gradientUnits="userSpaceOnUse" gradientTransform="matrix(17.7101 0 0 193.83 52.788 55.125)"><stop stop-color="#D12A6F"/><stop offset="1" stop-color="#83234B" stop-opacity=".01"/></radialGradient><radialGradient id="wblh6m5bxu" cx="0" cy="0" r="1" gradientUnits="userSpaceOnUse" gradientTransform="matrix(27.9879 0 0 270.998 41.623 62.83)"><stop stop-color="#D12A6F"/><stop offset="1" stop-color="#83234B" stop-opacity=".01"/></radialGradient><radialGradient id="ml0rh5jwrv" cx="0" cy="0" r="1" gradientUnits="userSpaceOnUse" gradientTransform="rotate(-110.919 43.765 33.98) scale(31.9914 123.573)"><stop stop-color="#6BA0E2"/><stop offset="1" stop-color="#131E32"/></radialGradient><radialGradient id="iusx6fp4jw" cx="0" cy="0" r="1" gradientUnits="userSpaceOnUse" gradientTransform="matrix(29.85064 12.99306 -25.94086 59.5973 50.235 49.538)"><stop stop-color="#D12A6F"/><stop offset="1" stop-color="#83234B" stop-opacity=".01"/></radialGradient><radialGradient id="wt8dup8lnz" cx="0" cy="0" r="1" gradientUnits="userSpaceOnUse" gradientTransform="matrix(15.4573 19.77376 -54.43032 42.54858 65.239 60.812)"><stop stop-color="#D12A6F"/><stop offset="1" stop-color="#83234B" stop-opacity=".01"/></radialGradient><radialGradient id="j49iyrk4fC" cx="0" cy="0" r="1" gradientUnits="userSpaceOnUse" gradientTransform="rotate(101.243 -10.13 49.221) scale(24.4553 28.9738)"><stop stop-color="#D12A6F"/><stop offset="1" stop-color="#83234B" stop-opacity=".01"/></radialGradient><radialGradient id="4byf33tj7G" cx="0" cy="0" r="1" gradientUnits="userSpaceOnUse" gradientTransform="matrix(16.38075 2.74708 -1.40258 8.36358 90.325 30.201)"><stop stop-color="#fff"/><stop offset="1" stop-color="#83234B" stop-opacity=".01"/></radialGradient><radialGradient id="ha3gzqzvdS" cx="0" cy="0" r="1" gradientUnits="userSpaceOnUse" gradientTransform="matrix(11.95831 8.00533 -32.34225 48.31264 44.263 68.534)"><stop stop-color="#D12A6F"/><stop offset="1" stop-color="#83234B" stop-opacity=".01"/></radialGradient><radialGradient id="d06yklud5W" cx="0" cy="0" r="1" gradientUnits="userSpaceOnUse" gradientTransform="matrix(11.2151 9.0171 -36.4299 45.30998 45.098 66.158)"><stop stop-color="#D12A6F"/><stop offset="1" stop-color="#83234B" stop-opacity=".01"/></radialGradient><radialGradient id="koknrkegjZ" cx="0" cy="0" r="1" gradientUnits="userSpaceOnUse" gradientTransform="matrix(10.25549 20.79104 -45.01442 22.20403 95.132 25.539)"><stop stop-color="#D12A6F"/><stop offset="1" stop-color="#83234B" stop-opacity=".01"/></radialGradient><radialGradient id="0dt7220ymab" cx="0" cy="0" r="1" gradientUnits="userSpaceOnUse" gradientTransform="rotate(72.77 24.85 59.208) scale(42.6751 47.7837)"><stop stop-color="#D12A6F"/><stop offset="1" stop-color="#83234B" stop-opacity=".01"/></radialGradient><radialGradient id="bdd46xs2tan" cx="0" cy="0" r="1" gradientUnits="userSpaceOnUse" gradientTransform="matrix(25 0 0 1.17924 66 69)"><stop/><stop offset=".734" stop-opacity=".137"/><stop offset="1" stop-opacity=".01"/></radialGradient><radialGradient id="bjhitf8m1ao" cx="0" cy="0" r="1" gradientUnits="userSpaceOnUse" gradientTransform="matrix(13 0 0 1.17924 78 69)"><stop/><stop offset=".734" stop-opacity=".137"/><stop offset="1" stop-opacity=".01"/></radialGradient><radialGradient id="0up39vo7sap" cx="0" cy="0" r="1" gradientUnits="userSpaceOnUse" gradientTransform="matrix(13 0 0 3.98543 94.5 50)"><stop/><stop offset=".734" stop-opacity=".137"/><stop offset="1" stop-opacity=".01"/></radialGradient><radialGradient id="sguo9al6iar" cx="0" cy="0" r="1" gradientUnits="userSpaceOnUse" gradientTransform="matrix(-34.5 0 0 -58.2826 74.5 46)"><stop stop-color="#D12A6F"/><stop offset="1" stop-color="#83234B" stop-opacity=".01"/></radialGradient><radialGradient id="qzxd8lgnias" cx="0" cy="0" r="1" gradientUnits="userSpaceOnUse" gradientTransform="matrix(7.0292 23.48732 -16.49763 4.93735 60.55 22.92)"><stop stop-color="#fff"/><stop offset="1" stop-color="#fff" stop-opacity=".01"/></radialGradient><radialGradient id="3akzrq185au" cx="0" cy="0" r="1" gradientUnits="userSpaceOnUse" gradientTransform="translate(49.558 53.666) scale(7.93503)"><stop stop-color="#C42E6C"/><stop offset="1" stop-color="#621736" stop-opacity=".01"/></radialGradient><radialGradient id="ip434ds1pav" cx="0" cy="0" r="1" gradientUnits="userSpaceOnUse" gradientTransform="translate(49.557 53.666) scale(14.8782)"><stop stop-color="#C42E6C"/><stop offset="1" stop-color="#621736" stop-opacity=".01"/></radialGradient><radialGradient id="k3ga14phdaB" cx="0" cy="0" r="1" gradientUnits="userSpaceOnUse" gradientTransform="matrix(12.53551 5.42538 -10.4691 24.18917 27.59 59.14)"><stop stop-color="#D12A6F"/><stop offset="1" stop-color="#83234B" stop-opacity=".01"/></radialGradient><radialGradient id="q7724g06zaE" cx="0" cy="0" r="1" gradientUnits="userSpaceOnUse" gradientTransform="rotate(24.39 -121.43 92.05) scale(13.4758 25.7846)"><stop stop-color="#D12A6F"/><stop offset="1" stop-color="#83234B" stop-opacity=".01"/></radialGradient><radialGradient id="v4blzcj36aH" cx="0" cy="0" r="1" gradientUnits="userSpaceOnUse" gradientTransform="matrix(27.7041 -8.81967 14.06355 44.17603 53 57.5)"><stop stop-color="#D12A6F"/><stop offset="1" stop-color="#83234B" stop-opacity=".01"/></radialGradient><radialGradient id="0666qk6dfaI" cx="0" cy="0" r="1" gradientUnits="userSpaceOnUse" gradientTransform="rotate(49.102 21.496 110.617) scale(30.2433 28.7884)"><stop stop-color="#fff"/><stop offset="1" stop-color="#fff" stop-opacity=".01"/></radialGradient><radialGradient id="plfvza9z5aJ" cx="0" cy="0" r="1" gradientUnits="userSpaceOnUse" gradientTransform="rotate(49.102 21.496 110.617) scale(30.2433 28.7884)"><stop stop-color="#fff"/><stop offset="1" stop-color="#fff" stop-opacity=".01"/></radialGradient><filter id="t0fw6bw99q" x="30.3" y="36.934" width="15.625" height="20.276" filterUnits="userSpaceOnUse" color-interpolation-filters="sRGB"><feFlood flood-opacity="0" result="BackgroundImageFix"/><feColorMatrix in="SourceAlpha" values="0 0 0 0 0 0 0 0 0 0 0 0 0 0 0 0 0 0 127 0" result="hardAlpha"/><feOffset/><feGaussianBlur stdDeviation="1.5"/><feColorMatrix values="0 0 0 0 0.951002 0 0 0 0 0.370525 0 0 0 0 0.610455 0 0 0 1 0"/><feBlend in2="BackgroundImageFix" result="effect1_dropShadow_1054_31761"/><feBlend in="SourceGraphic" in2="effect1_dropShadow_1054_31761" result="shape"/></filter><filter id="0np70zcnjE" x="28.434" y="79.221" width="21.476" height="28.493" filterUnits="userSpaceOnUse" color-interpolation-filters="sRGB"><feFlood flood-opacity="0" result="BackgroundImageFix"/><feColorMatrix in="SourceAlpha" values="0 0 0 0 0 0 0 0 0 0 0 0 0 0 0 0 0 0 127 0" result="hardAlpha"/><feOffset/><feGaussianBlur stdDeviation="2"/><feColorMatrix values="0 0 0 0 0.956863 0 0 0 0 0.282353 0 0 0 0 0.505882 0 0 0 1 0"/><feBlend in2="BackgroundImageFix" result="effect1_dropShadow_1054_31761"/><feBlend in="SourceGraphic" in2="effect1_dropShadow_1054_31761" result="shape"/></filter><filter id="498xn0en5J" x="80.17" y="20.441" width="23.466" height="19.521" filterUnits="userSpaceOnUse" color-interpolation-filters="sRGB"><feFlood flood-opacity="0" result="BackgroundImageFix"/><feColorMatrix in="SourceAlpha" values="0 0 0 0 0 0 0 0 0 0 0 0 0 0 0 0 0 0 127 0" result="hardAlpha"/><feOffset/><feGaussianBlur stdDeviation="3.5"/><feColorMatrix values="0 0 0 0 0.951002 0 0 0 0 0.370525 0 0 0 0 0.610455 0 0 0 1 0"/><feBlend in2="BackgroundImageFix" result="effect1_dropShadow_1054_31761"/><feBlend in="SourceGraphic" in2="effect1_dropShadow_1054_31761" result="shape"/></filter><filter id="6kykidxxyL" x="76.199" y="14.441" width="31.408" height="23.521" filterUnits="userSpaceOnUse" color-interpolation-filters="sRGB"><feFlood flood-opacity="0" result="BackgroundImageFix"/><feColorMatrix in="SourceAlpha" values="0 0 0 0 0 0 0 0 0 0 0 0 0 0 0 0 0 0 127 0" result="hardAlpha"/><feOffset/><feGaussianBlur stdDeviation="3.5"/><feColorMatrix values="0 0 0 0 0.951002 0 0 0 0 0.370525 0 0 0 0 0.610455 0 0 0 1 0"/><feBlend in2="BackgroundImageFix" result="effect1_dropShadow_1054_31761"/><feBlend in="SourceGraphic" in2="effect1_dropShadow_1054_31761" result="shape"/></filter><filter id="4a4i69knyN" x="76.199" y="11.441" width="31.408" height="23.521" filterUnits="userSpaceOnUse" color-interpolation-filters="sRGB"><feFlood flood-opacity="0" result="BackgroundImageFix"/><feColorMatrix in="SourceAlpha" values="0 0 0 0 0 0 0 0 0 0 0 0 0 0 0 0 0 0 127 0" result="hardAlpha"/><feOffset/><feGaussianBlur stdDeviation="3.5"/><feColorMatrix values="0 0 0 0 0.951002 0 0 0 0 0.370525 0 0 0 0 0.610455 0 0 0 1 0"/><feBlend in2="BackgroundImageFix" result="effect1_dropShadow_1054_31761"/><feBlend in="SourceGraphic" in2="effect1_dropShadow_1054_31761" result="shape"/></filter><filter id="u44qu9q1nP" x="76.199" y="8.441" width="31.408" height="23.521" filterUnits="userSpaceOnUse" color-interpolation-filters="sRGB"><feFlood flood-opacity="0" result="BackgroundImageFix"/><feColorMatrix in="SourceAlpha" values="0 0 0 0 0 0 0 0 0 0 0 0 0 0 0 0 0 0 127 0" result="hardAlpha"/><feOffset/><feGaussianBlur stdDeviation="3.5"/><feColorMatrix values="0 0 0 0 0.951002 0 0 0 0 0.370525 0 0 0 0 0.610455 0 0 0 1 0"/><feBlend in2="BackgroundImageFix" result="effect1_dropShadow_1054_31761"/><feBlend in="SourceGraphic" in2="effect1_dropShadow_1054_31761" result="shape"/></filter></defs></svg>